<svg width="169" height="162" viewBox="0 0 169 162" fill="none" xmlns="http://www.w3.org/2000/svg">
<g clip-path="url(#clip0_391_4640)">
<path d="M97.8778 24.1105C107.297 19.2404 114.156 31.299 117.933 38.0621C121.306 44.1255 123.943 50.5701 125.787 57.259C129.559 71.0812 129.789 86.2009 124.555 99.6906C123.894 101.777 122.772 103.687 121.272 105.281C118.126 108.2 114.621 105.818 112.499 103.093C110.013 99.7204 107.786 96.1634 105.839 92.453C101.973 85.4747 98.7839 78.1427 96.3143 70.5572C91.7251 56.4647 86.0674 35.7748 96.7484 23.1195C97.7152 21.9613 95.78 20.6409 94.8072 21.7918C85.2031 33.1718 88.4248 50.1362 91.7851 63.3092C93.7723 71.163 96.5057 78.8088 99.9479 86.1424C103.178 92.8986 106.948 101.376 112.439 106.671C123.021 116.861 128.746 95.8666 129.958 88.8977C132.332 75.1492 130.201 60.8674 125.158 47.9436C121.323 38.1328 111.125 14.6779 96.8909 22.004C95.5497 22.703 96.5272 24.842 97.8744 24.1502L97.8778 24.1105Z" fill="black"/>
<path d="M118.431 108.3L69.82 103.581C62.1902 102.84 54.3352 102.546 46.7751 101.304C41.1067 100.41 39.4508 95.5239 37.5424 90.9363C36.2687 87.8177 31.8289 79.9167 35.5097 77.2233C36.7271 76.3335 35.2132 74.5355 33.9959 75.4252C28.7211 79.2764 33.9007 88.275 35.7251 92.6753C37.14 96.0929 38.4117 100.246 41.8624 102.257C45.0897 104.148 49.5587 104.011 53.1453 104.359L118.254 110.673C119.77 110.823 119.971 108.479 118.462 108.336L118.431 108.3Z" fill="black"/>
<path d="M93.0841 22.1978C74.6025 38.6677 55.9236 54.9227 37.0474 70.9629C36.8089 71.1637 36.66 71.451 36.6334 71.7615C36.6067 72.0721 36.7045 72.3804 36.9053 72.6189C37.106 72.8573 37.3933 73.0063 37.7038 73.0329C38.0144 73.0595 38.3228 72.9617 38.5612 72.761C57.4326 56.7248 76.1116 40.4698 94.598 23.9958C95.7256 22.9849 94.2118 21.1869 93.0841 22.1978Z" fill="black"/>
<path d="M34.3773 73.543C27.0958 75.2736 18.7265 78.0184 12.7332 82.622C7.94023 86.3009 6.56854 94.277 8.13161 99.8559C9.24515 103.908 13.5082 112.081 18.4848 111.627C21.9141 111.321 26.1422 108.314 29.3135 106.972C33.4212 105.112 37.7507 103.788 42.1958 103.033C42.3483 103.007 42.4943 102.951 42.6252 102.869C42.7562 102.786 42.8697 102.679 42.9592 102.553C43.0487 102.427 43.1125 102.284 43.1469 102.133C43.1814 101.983 43.1858 101.827 43.1598 101.674C43.1339 101.522 43.0782 101.376 42.9959 101.245C42.9136 101.114 42.8064 101 42.6802 100.911C42.554 100.821 42.4115 100.757 42.2607 100.723C42.1099 100.688 41.9538 100.684 41.8013 100.71C36.903 101.565 32.1368 103.054 27.6225 105.138C25.1277 106.219 22.319 108.079 19.6687 108.639C15.8325 109.411 13.6508 105.754 11.9202 102.75C8.0423 95.9982 9.87172 86.6535 16.8153 82.8722C22.4655 79.7546 28.5034 77.3986 34.7718 75.8655C36.2363 75.5174 35.8417 73.1949 34.3701 73.549L34.3773 73.543Z" fill="black"/>
<path d="M20.9495 100.949C20.3393 100.663 19.8444 100.179 19.5458 99.5749C19.2473 98.971 19.1628 98.2835 19.3064 97.6253C19.5998 96.1491 17.2418 95.9467 16.9616 97.424C16.7736 98.4975 16.9289 99.6029 17.4054 100.583C17.882 101.563 18.6555 102.368 19.6159 102.883C19.8761 103.05 20.1902 103.111 20.4939 103.054C20.7977 102.997 21.0682 102.826 21.2503 102.576C21.4248 102.32 21.4911 102.005 21.4348 101.701C21.3785 101.396 21.204 101.126 20.9495 100.949Z" fill="black"/>
<path d="M17.5112 103.537C16.6953 102.159 15.8926 100.782 15.0949 99.4259C14.2971 98.0697 12.1933 99.1036 12.9619 100.411C13.7305 101.718 14.5805 103.165 15.3783 104.521C16.176 105.878 18.2798 104.844 17.5172 103.544L17.5112 103.537Z" fill="black"/>
<path d="M23.8456 99.0758L23.4675 95.707C23.4411 95.5549 23.385 95.4095 23.3024 95.2791C23.2199 95.1487 23.1124 95.0358 22.9862 94.9469C22.86 94.858 22.7175 94.7948 22.5669 94.761C22.4163 94.7271 22.2604 94.7233 22.1083 94.7497C21.9562 94.776 21.8108 94.8321 21.6804 94.9147C21.55 94.9973 21.4371 95.1047 21.3482 95.2309C21.2593 95.3571 21.1961 95.4996 21.1623 95.6502C21.1285 95.8008 21.1246 95.9567 21.151 96.1088L21.4932 99.5078C21.5509 99.8127 21.7251 100.083 21.9788 100.262C22.2325 100.441 22.5458 100.513 22.8523 100.465C23.1561 100.405 23.4251 100.231 23.6034 99.9775C23.7817 99.7244 23.8556 99.4122 23.8097 99.106L23.8456 99.0758Z" fill="black"/>
<path d="M92.7471 58.5542C95.9402 57.9675 99.2329 57.3092 102.107 59.1906C104.982 61.072 104.584 64.234 105.632 67.1865C106.582 69.877 108.885 72.51 106.449 75.3104C104.813 77.1917 101.154 78.3924 98.9832 79.5807C99.4006 80.237 99.8181 80.8934 100.222 81.5486C103.64 79.1262 109.699 76.5567 109.856 71.766C110.014 66.9753 107.236 61.4724 105.281 57.4279C105.148 57.1475 104.911 56.93 104.62 56.8216C104.329 56.7132 104.007 56.7223 103.723 56.8471C97.3499 60.3571 101.875 72.1687 105.682 76.0919C105.886 76.324 106.173 76.4682 106.481 76.4947C106.789 76.5212 107.096 76.4278 107.337 76.234L108.779 75.1433C109.985 74.2259 108.464 72.4339 107.265 73.3453L105.824 74.4359L107.48 74.578C105.335 72.3522 100.024 61.5474 104.695 58.9789L103.142 58.4053C104.678 61.5864 107.111 66.039 107.201 69.6631C107.32 74.7245 102.411 77.1124 98.7023 79.7434C98.4966 79.9313 98.3637 80.1858 98.327 80.4621C98.2904 80.7383 98.3522 81.0186 98.5017 81.2537C98.6513 81.4888 98.8789 81.6638 99.1447 81.7477C99.4104 81.8316 99.6972 81.8191 99.9547 81.7125C103.07 80.0114 108.288 78.2973 109.723 74.7172C110.886 71.821 108.962 69.3605 107.949 66.7715C106.512 63.065 107.295 59.4689 103.557 57.073C100.155 54.8861 96.0915 55.5049 92.3189 56.2355C92.1668 56.2618 92.0214 56.3179 91.8909 56.4005C91.7605 56.4831 91.6476 56.5905 91.5587 56.7167C91.4698 56.8429 91.4066 56.9854 91.3728 57.136C91.339 57.2867 91.3351 57.4425 91.3615 57.5946C91.3879 57.7467 91.444 57.8921 91.5265 58.0225C91.6091 58.1529 91.7166 58.2658 91.8428 58.3547C91.969 58.4436 92.1115 58.5068 92.2621 58.5407C92.4127 58.5745 92.5685 58.5784 92.7206 58.552L92.7471 58.5542Z" fill="black"/>
<path d="M150.869 75.6057L138.402 72.7676C136.914 72.4597 136.158 74.6569 137.619 74.9757L150.079 77.8198C151.567 78.1277 152.33 75.9245 150.869 75.6057Z" fill="black"/>
<path d="M144.945 48.147C142.896 48.0514 140.851 48.4236 138.967 49.2354C137.574 49.8299 138.559 51.9629 139.951 51.3684C141.461 50.7134 143.1 50.4135 144.744 50.4918C146.254 50.548 146.49 48.1861 144.945 48.147Z" fill="black"/>
<path d="M133.773 29.4327L130.849 33.2587C129.938 34.4683 131.879 35.7959 132.797 34.5935L135.714 30.7603C136.632 29.5579 134.698 28.2242 133.78 29.4266L133.773 29.4327Z" fill="black"/>
<path d="M124.428 24.2602C124.384 24.7034 124.352 25.1477 124.315 25.5849C124.288 25.8959 124.386 26.2046 124.587 26.4434C124.788 26.6821 125.075 26.8312 125.386 26.8579C125.697 26.8846 126.006 26.7866 126.245 26.5856C126.484 26.3846 126.633 26.097 126.659 25.7861L126.773 24.4614C126.771 24.1687 126.659 23.8875 126.46 23.6727C126.262 23.4579 125.99 23.3251 125.698 23.3C125.407 23.275 125.116 23.3597 124.884 23.5375C124.651 23.7152 124.494 23.9733 124.441 24.2613L124.428 24.2602Z" fill="black"/>
<path d="M45.012 101.866C45.3706 103.752 43.3844 106.137 42.729 107.475C42.5193 107.898 42.0583 108.139 41.8716 108.603C41.616 109.535 41.6691 110.525 42.0232 111.425C43.3209 116.674 46.7717 120.86 48.8163 125.727C49.021 126.218 49.9992 128.737 49.7838 129.226C49.4226 129.717 48.9474 130.114 48.3991 130.38C47.8508 130.647 47.2459 130.777 46.6364 130.758C46.4102 130.965 46.1415 131.121 45.849 131.215C45.5565 131.308 45.2472 131.336 44.9425 131.298C44.6379 131.26 44.3452 131.156 44.0848 130.993C43.8244 130.831 43.6026 130.613 43.4347 130.356C40.8413 128.852 39.9892 125.33 38.6522 122.793C37.5385 120.677 36.2499 118.658 34.7997 116.757C32.8839 114.277 27.8762 110.738 29.8948 107.122C30.6212 105.809 28.6823 104.455 27.9475 105.787C24.4916 112.003 32.876 117.48 35.6871 122.278C38.1303 126.465 40.4164 135.048 46.9881 133.657C48.953 133.232 51.6969 131.425 52.431 129.48C53.3612 127.038 50.6945 124.367 49.5895 122.47C47.2579 118.46 43.3735 112.562 45.6067 108.076C46.8484 105.58 47.9542 104.514 47.3224 101.457C47.0163 99.9698 44.6998 100.372 45.0059 101.859L45.012 101.866Z" fill="black"/>
<path d="M48.6196 101.889C45.9168 105.394 43.7847 108.934 44.8744 113.498C45.7333 116.941 54.3274 126.74 49.7324 129.589C48.4507 130.373 49.4211 132.518 50.7099 131.728C54.3256 129.482 53.9925 125.744 52.1995 122.3C50.8575 119.743 48.9865 117.521 47.8644 114.889C45.9444 110.36 47.7456 106.865 50.5298 103.267C51.4531 102.072 49.5191 100.738 48.5958 101.934L48.6196 101.889Z" fill="black"/>
</g>
<defs>
<clipPath id="clip0_391_4640">
<rect width="144.986" height="89.7028" fill="white" transform="translate(168.684 68.6201) rotate(139.905)"/>
</clipPath>
</defs>
</svg>
