<svg width="360" height="681" viewBox="0 0 360 681" fill="none" xmlns="http://www.w3.org/2000/svg">
<rect width="360" height="681" rx="10" fill="black"/>
<g clip-path="url(#clip0_30_2939)">
<path d="M338.461 146.428C340.903 136.864 343.352 127.294 345.809 117.72L349.335 104.082C350.142 100.937 350.302 96.4668 353.203 94.4717C355.229 93.0858 357.14 96.383 355.122 97.7613C353.904 98.599 353.721 102.285 353.371 103.655C352.883 105.574 352.396 107.463 351.901 109.405C350.794 113.709 349.693 118.025 348.596 122.35C346.449 130.726 344.304 139.103 342.162 147.479C341.552 149.855 337.882 148.85 338.491 146.466L338.461 146.428Z" fill="white" fill-opacity="0.14"/>
<path d="M351.71 95.614C310.773 86.8264 269.975 77.4347 229.316 67.4389C226.94 66.8525 227.945 63.1745 230.329 63.7609C270.987 73.7668 311.786 83.1585 352.723 91.936C355.114 92.4538 354.102 96.1242 351.71 95.614Z" fill="white" fill-opacity="0.14"/>
<path d="M229.271 65.8094C222.042 90.2583 215.787 114.961 210.508 139.918C210.005 142.316 206.335 141.303 206.837 138.905C212.112 113.969 218.366 89.2658 225.6 64.7966C226.293 62.4512 229.964 63.4564 229.271 65.8094Z" fill="white" fill-opacity="0.14"/>
<path d="M347.4 100.625C342.41 115.656 338.296 130.965 335.08 146.474C334.585 148.873 330.914 147.86 331.409 145.461C334.627 129.961 338.738 114.66 343.722 99.6348C344.484 97.3503 348.17 98.3098 347.4 100.648V100.625Z" fill="white" fill-opacity="0.14"/>
<path d="M343.532 100.884C306.214 94.3693 269.376 85.3506 233.268 73.8887C230.946 73.1272 231.936 69.472 234.281 70.2183C270.389 81.6802 307.226 90.6989 344.545 97.2131C346.959 97.6319 345.938 101.302 343.532 100.884Z" fill="white" fill-opacity="0.14"/>
<path d="M235.416 72.2819C229.065 94.3803 223.037 116.565 217.331 138.836C216.729 141.212 213.051 140.207 213.66 137.831C219.366 115.56 225.395 93.3726 231.746 71.2691C232.423 68.9161 236.094 69.9136 235.416 72.2819Z" fill="white" fill-opacity="0.14"/>
<path d="M222.166 144.776C219.061 143.924 216.037 142.803 213.127 141.425C210.911 140.382 212.846 137.1 215.046 138.136C217.665 139.361 220.386 140.352 223.179 141.098C225.54 141.737 224.534 145.415 222.166 144.776Z" fill="white" fill-opacity="0.14"/>
<path d="M217.064 149.421L206.913 146.375C204.575 145.667 205.573 141.989 207.926 142.704L218.077 145.75C220.414 146.459 219.417 150.129 217.064 149.421Z" fill="white" fill-opacity="0.14"/>
<path d="M332.681 105.666C329.224 117.129 325.762 128.586 322.294 140.039C321.944 141.212 320.101 140.709 320.459 139.537C323.921 128.079 327.384 116.621 330.846 105.163C331.204 103.99 333.039 104.493 332.681 105.666Z" fill="white" fill-opacity="0.14"/>
<path d="M330.945 105.932L301.247 98.3172L302.412 97.6547C300.281 109.916 297.026 121.955 292.687 133.62C292.269 134.762 290.403 134.267 290.852 133.117C295.201 121.444 298.464 109.394 300.599 97.1216C300.672 96.8815 300.834 96.6787 301.053 96.5553C301.271 96.4319 301.529 96.3974 301.772 96.4591L331.47 104.074C331.591 104.108 331.703 104.164 331.802 104.242C331.9 104.319 331.983 104.414 332.044 104.523C332.106 104.632 332.145 104.752 332.16 104.876C332.176 105 332.166 105.126 332.133 105.247C332.099 105.367 332.042 105.48 331.965 105.578C331.888 105.677 331.792 105.759 331.684 105.821C331.575 105.882 331.455 105.922 331.331 105.937C331.206 105.952 331.08 105.943 330.96 105.909L330.945 105.932Z" fill="white" fill-opacity="0.14"/>
<path d="M320.208 142.773C310.605 141.25 301.399 137.945 292.17 135.006C291.005 134.64 291.507 132.798 292.68 133.171C301.902 136.102 311.116 139.445 320.71 140.938C321.921 141.128 321.403 142.963 320.208 142.773Z" fill="white" fill-opacity="0.14"/>
<path d="M296.739 116.113L273.78 109.526L274.945 108.864C273.051 114.387 271.15 119.911 269.241 125.434C268.363 127.972 267.49 130.511 266.622 133.049C266.264 134.1 265.167 135.912 265.616 136.94C266.066 137.968 268.457 138.539 269.538 138.988C274.666 141.136 279.872 143.062 285.156 144.768C286.489 145.195 287.829 145.613 289.162 146.009C291.53 146.718 292.04 147.532 293.731 144.563C295.109 142.202 295.779 138.912 296.7 136.361C297.119 135.219 298.985 135.706 298.536 136.864C297.713 139.143 296.888 141.428 296.061 143.717C295.604 144.974 295.299 146.763 294.37 147.852C292.703 149.794 289.916 148.256 287.951 147.662C279.622 145.119 271.462 142.049 263.522 138.471C263.341 138.363 263.201 138.199 263.122 138.003C263.044 137.808 263.032 137.592 263.088 137.389L273.11 108.354C273.184 108.115 273.347 107.913 273.564 107.79C273.782 107.667 274.039 107.631 274.282 107.691L297.241 114.278C297.477 114.351 297.676 114.513 297.795 114.73C297.914 114.946 297.944 115.201 297.879 115.439C297.813 115.678 297.658 115.881 297.445 116.007C297.232 116.133 296.979 116.171 296.739 116.113Z" fill="white" fill-opacity="0.14"/>
<path d="M263.941 86.8341C261.297 93.0393 259.024 99.3963 257.134 105.871C257.091 106.01 257.019 106.138 256.921 106.245C256.824 106.352 256.703 106.436 256.569 106.49C256.435 106.545 256.29 106.569 256.145 106.561C256.001 106.553 255.86 106.512 255.732 106.442C248.269 103.174 240.433 100.831 232.4 99.4672C232.159 99.3996 231.953 99.2392 231.829 99.021C231.705 98.8028 231.672 98.5444 231.738 98.3021C233.418 92.2102 235.373 86.2147 237.601 80.3157C237.674 80.0756 237.836 79.8728 238.055 79.7494C238.273 79.626 238.531 79.5915 238.774 79.6532C246.124 81.1244 253.369 83.0806 260.461 85.5091C261.619 85.9051 261.124 87.7402 259.959 87.3443C252.865 84.9147 245.617 82.9585 238.264 81.4884L239.437 80.8183C237.213 86.7275 235.259 92.723 233.573 98.8047L232.911 97.632C241.101 99.0405 249.087 101.447 256.692 104.798L255.298 105.369C257.241 98.7423 259.578 92.2378 262.297 85.8898C262.776 84.7705 264.413 85.7376 263.941 86.857V86.8341Z" fill="white" fill-opacity="0.14"/>
<path d="M261.002 145.964C260.598 144.57 258.786 142.918 257.461 142.986C256.898 142.986 256.334 143.458 255.74 143.496C255.216 143.528 254.691 143.454 254.195 143.281C253.7 143.107 253.244 142.836 252.854 142.484C250.775 140.763 250.806 138.082 250.92 135.63C251.034 133.178 251.537 133.346 248.894 131.526C246.008 129.561 247.12 129.866 245.346 131.526C244.441 132.422 243.363 133.124 242.178 133.589C241.068 134.02 239.848 134.078 238.702 133.754C237.556 133.429 236.547 132.741 235.827 131.792C234.22 129.721 234.167 127.003 234.639 124.535C234.91 123.778 235.113 122.998 235.248 122.205C235.134 115.862 234.936 120.682 234.251 120.606C233.794 120.538 233.314 121.04 232.728 120.926C230.329 120.431 230.367 116.669 230.405 114.941C230.516 111.248 231.598 107.649 233.543 104.508C233.992 103.747 235.401 104.006 235.317 104.988C235.071 106.106 235.224 107.276 235.751 108.293L233.916 108.803C233.468 107.203 233.374 105.524 233.642 103.884L235.385 104.645L232.02 109.351C231.311 110.341 229.659 109.351 230.375 108.392L233.741 103.678C233.864 103.485 234.052 103.343 234.271 103.277C234.49 103.21 234.725 103.224 234.934 103.316C235.144 103.408 235.314 103.572 235.413 103.778C235.513 103.984 235.535 104.218 235.477 104.44C235.208 105.74 235.303 107.089 235.751 108.338C235.784 108.459 235.794 108.585 235.779 108.709C235.764 108.833 235.724 108.953 235.663 109.062C235.601 109.171 235.519 109.267 235.42 109.344C235.322 109.421 235.209 109.478 235.088 109.511C234.968 109.545 234.842 109.554 234.718 109.539C234.594 109.524 234.474 109.484 234.365 109.423C234.256 109.361 234.16 109.279 234.083 109.18C234.006 109.082 233.949 108.969 233.916 108.849C233.431 107.642 233.258 106.332 233.413 105.041L235.187 105.521C234.031 107.385 233.192 109.428 232.705 111.567C232.56 112.253 231.456 118.322 233.322 118.725C233.512 118.763 234.129 117.888 234.548 117.964C235.207 117.907 235.866 118.079 236.413 118.451C237.83 119.54 237.411 121.307 237.061 122.799C236.52 125.084 234.936 130.589 238.386 131.716C240.175 132.303 242.642 131.488 243.975 130.262C244.584 129.698 245.033 128.982 245.658 128.434C249.633 124.931 252.999 129.828 252.945 133.765C252.945 134.633 252.785 135.501 252.755 136.377C252.656 137.257 252.687 138.147 252.846 139.019L256.448 141.425C257.393 141.501 258.261 140.664 259.334 140.938C261.459 141.44 262.274 143.664 262.814 145.507C262.848 145.627 262.857 145.753 262.842 145.877C262.827 146.001 262.787 146.121 262.726 146.23C262.664 146.339 262.582 146.435 262.484 146.512C262.385 146.589 262.272 146.646 262.152 146.68C262.031 146.713 261.905 146.722 261.781 146.707C261.657 146.692 261.537 146.653 261.428 146.591C261.319 146.53 261.224 146.447 261.147 146.349C261.07 146.25 261.013 146.138 260.979 146.017L261.002 145.964Z" fill="white" fill-opacity="0.14"/>
<path d="M247.295 146.474L235.195 141.448C234.076 140.991 234.571 139.163 235.698 139.613L247.805 144.639C248.917 145.095 248.43 146.923 247.295 146.474Z" fill="white" fill-opacity="0.14"/>
<path d="M235.111 137.694C233.541 137.01 231.935 136.412 230.299 135.905C229.134 135.539 229.636 133.704 230.809 134.069C232.597 134.634 234.354 135.295 236.071 136.049C237.19 136.544 236.223 138.181 235.111 137.694Z" fill="white" fill-opacity="0.14"/>
<path d="M229.781 131.488L226.735 130.726C225.539 130.445 226.042 128.602 227.238 128.891L230.283 129.653C231.471 129.942 230.969 131.777 229.773 131.488H229.781Z" fill="white" fill-opacity="0.14"/>
<path d="M227.253 126.561L225.73 126.02C225.494 125.947 225.295 125.785 225.176 125.569C225.057 125.352 225.027 125.098 225.092 124.859C225.157 124.621 225.313 124.417 225.526 124.291C225.739 124.165 225.992 124.127 226.232 124.185L227.755 124.726C227.992 124.798 228.19 124.96 228.309 125.177C228.428 125.394 228.458 125.648 228.393 125.887C228.328 126.125 228.172 126.329 227.959 126.455C227.747 126.58 227.493 126.619 227.253 126.561Z" fill="white" fill-opacity="0.14"/>
<path d="M294.317 97.7385C293.306 101.291 292.116 104.791 290.753 108.224C290.304 109.351 288.469 108.864 288.918 107.722C290.284 104.28 291.472 100.782 292.482 97.2283C292.55 96.9849 292.711 96.7784 292.931 96.6542C293.151 96.5299 293.411 96.4982 293.655 96.5658C293.898 96.6335 294.105 96.795 294.229 97.0149C294.353 97.2349 294.385 97.4951 294.317 97.7385Z" fill="white" fill-opacity="0.14"/>
<path d="M288.104 101.797C287.934 103.427 287.381 104.992 286.489 106.366C285.819 107.379 284.167 106.427 284.844 105.399C285.576 104.321 286.041 103.083 286.2 101.79C286.337 100.587 288.248 100.579 288.104 101.79V101.797Z" fill="white" fill-opacity="0.14"/>
<path d="M285.461 95.6825C284.258 99.0432 282.989 102.376 281.654 105.681C281.197 106.8 279.369 106.313 279.819 105.171C281.159 101.866 282.428 98.5356 283.626 95.18C284.037 94.0377 285.91 94.5251 285.461 95.6825Z" fill="white" fill-opacity="0.14"/>
<path d="M278.935 97.9973C278.516 99.1548 278.173 100.35 277.671 101.485C277.603 101.717 277.461 101.92 277.268 102.065C277.074 102.21 276.839 102.288 276.597 102.288C276.356 102.288 276.12 102.21 275.927 102.065C275.733 101.92 275.592 101.717 275.524 101.485C275.481 101.323 275.481 101.154 275.524 100.992C275.567 100.831 275.65 100.683 275.767 100.564L275.828 100.495C276.59 99.566 277.968 100.921 277.176 101.843L277.115 101.911L277.359 100.982V101.081L276.696 100.419L276.795 100.465L276.034 100.556C275.744 100.762 276.034 100.19 276.095 100.084L276.422 99.1776L277.031 97.4871C277.442 96.3449 279.316 96.8399 278.866 97.9973H278.935Z" fill="white" fill-opacity="0.14"/>
<path d="M277.153 91.6467C275.392 95.9973 273.737 100.381 272.188 104.798C271.785 105.947 269.904 105.452 270.353 104.287C271.907 99.8707 273.559 95.4871 275.311 91.1365C275.767 90.0171 277.595 90.5044 277.153 91.6467Z" fill="white" fill-opacity="0.14"/>
<path d="M270.467 95.9339C269.957 97.5254 269.455 99.1093 268.944 100.693C268.64 101.637 268.495 103.176 267.543 103.693C267.36 103.796 267.149 103.838 266.941 103.812C266.732 103.785 266.538 103.693 266.386 103.549C266.235 103.405 266.127 103.222 266.073 103.02C266.019 102.819 266.022 102.607 266.081 102.407C266.139 102.207 266.26 102.031 266.426 101.906C266.592 101.781 266.795 101.714 267.003 101.714H267.094C268.32 101.637 268.312 103.541 267.094 103.617H267.01L267.924 102.917V103.046L267.68 102.117L267.764 102.201L266.614 102.056C266.764 101.618 266.883 101.17 266.972 100.716C267.17 100.099 267.368 99.4824 267.558 98.8656C267.932 97.7234 268.32 96.5811 268.663 95.4313C269.005 94.2814 270.871 94.7688 270.498 95.9339H270.467Z" fill="white" fill-opacity="0.14"/>
<path d="M266.919 95.6901C266.301 96.9991 265.792 98.3566 265.396 99.7488C265.311 99.9719 265.147 100.155 264.934 100.264C264.722 100.372 264.476 100.397 264.246 100.334C264.016 100.272 263.818 100.125 263.689 99.9242C263.561 99.723 263.513 99.4813 263.553 99.2462C264.002 97.6973 264.575 96.1872 265.266 94.7306C265.784 93.6264 267.429 94.5859 266.904 95.6901H266.919Z" fill="white" fill-opacity="0.14"/>
<path d="M266.409 89.0881C265.214 93.4711 263.801 97.7915 262.175 102.033C261.748 103.168 259.89 102.673 260.339 101.523C261.964 97.269 263.375 92.9539 264.573 88.5779C264.607 88.4574 264.664 88.3447 264.741 88.2462C264.818 88.1477 264.914 88.0653 265.023 88.0038C265.131 87.9423 265.251 87.9028 265.375 87.8876C265.5 87.8725 265.626 87.8819 265.746 87.9154C265.867 87.9489 265.979 88.0058 266.078 88.0829C266.176 88.16 266.259 88.2557 266.32 88.3646C266.382 88.4734 266.421 88.5934 266.436 88.7176C266.452 88.8417 266.442 88.9676 266.409 89.0881Z" fill="white" fill-opacity="0.14"/>
<path d="M265.32 113.547C266.042 114.73 266.389 116.104 266.314 117.488C266.239 118.872 265.746 120.201 264.901 121.299C263.104 123.584 259.806 124.421 257.37 122.617C252.336 118.878 255.748 109.443 262.228 112.184C263.355 112.656 262.388 114.301 261.269 113.829C256.608 111.857 255.032 120.18 259.433 121.596C263.53 122.906 265.388 117.309 263.675 114.507C263.548 114.289 263.512 114.029 263.577 113.785C263.641 113.54 263.799 113.332 264.018 113.205C264.236 113.077 264.495 113.042 264.74 113.106C264.984 113.17 265.192 113.329 265.32 113.547Z" fill="white" fill-opacity="0.14"/>
<path d="M251.103 111.933C253.296 114.293 251.59 118.367 248.224 117.949C247.525 117.856 246.875 117.536 246.376 117.038C245.876 116.54 245.554 115.891 245.46 115.192C245.27 113.829 246.138 111.803 247.821 112.329C248.986 112.687 248.491 114.529 247.318 114.164C247.493 114.217 247.463 114.073 247.394 114.293C247.36 114.408 247.337 114.525 247.326 114.644C247.312 114.932 247.383 115.218 247.531 115.466C247.681 115.702 247.902 115.885 248.161 115.989C248.421 116.093 248.707 116.112 248.978 116.045C249.261 115.974 249.521 115.83 249.73 115.626C249.939 115.422 250.09 115.167 250.167 114.885C250.245 114.604 250.246 114.307 250.171 114.025C250.096 113.743 249.947 113.486 249.74 113.281C248.91 112.382 250.25 111.034 251.087 111.933H251.103Z" fill="white" fill-opacity="0.14"/>
</g>
<g clip-path="url(#clip1_30_2939)">
<path d="M227.225 184.345C227 188.645 227.067 192.955 227.427 197.245C227.531 198.435 229.366 198.445 229.267 197.245C228.903 192.955 228.834 188.645 229.061 184.345C229.125 183.141 227.285 183.146 227.225 184.345Z" fill="white" fill-opacity="0.14"/>
<path d="M234.871 178.192L234.92 196.586C234.92 197.33 235.968 197.905 236.49 197.245L237.169 196.381C237.897 195.451 236.608 194.122 235.87 195.061L235.191 195.926L236.755 196.586L236.711 178.192C236.711 177.945 236.614 177.707 236.442 177.532C236.269 177.356 236.035 177.258 235.791 177.258C235.547 177.258 235.313 177.356 235.141 177.532C234.968 177.707 234.871 177.945 234.871 178.192Z" fill="white" fill-opacity="0.14"/>
<path d="M245.464 170.92C244.91 179.623 245.353 188.361 246.782 196.961C246.974 198.145 248.75 197.645 248.553 196.461C247.164 188.024 246.745 179.451 247.304 170.915C247.377 169.716 245.542 169.721 245.464 170.915V170.92Z" fill="white" fill-opacity="0.14"/>
<path d="M256.607 164.192C256.702 169.817 256.794 175.44 256.883 181.061L257.015 189.128C257.05 191.128 256.942 193.047 258.26 194.656C259.018 195.581 260.312 194.251 259.559 193.337C258.241 191.727 258.836 188.124 258.806 186.194C258.767 183.749 258.726 181.304 258.683 178.862L258.447 164.192C258.447 162.993 256.587 162.993 256.607 164.192Z" fill="white" fill-opacity="0.14"/>
<path d="M256.676 159.639C254.688 161.717 253.573 164.499 253.567 167.396C253.572 167.599 253.641 167.794 253.764 167.954C253.887 168.113 254.058 168.228 254.25 168.28C254.443 168.333 254.647 168.321 254.832 168.247C255.018 168.172 255.174 168.039 255.279 167.866C256.653 165.682 257.751 163.331 258.546 160.869L257.011 161.279C257.657 161.928 258.16 162.709 258.486 163.571C258.811 164.433 258.953 165.355 258.9 166.277L259.574 165.377L257.705 165.727C257.326 165.797 256.499 166.137 256.15 166.017L256.794 166.672H256.76H254.925V166.762C255.072 167.936 256.893 167.951 256.765 166.762V166.672C256.622 165.517 254.9 165.432 254.93 166.672C254.914 166.972 255.011 167.268 255.202 167.498C255.393 167.728 255.664 167.876 255.958 167.911C257.173 168.076 258.866 167.411 260.071 167.196C260.263 167.14 260.433 167.022 260.554 166.86C260.676 166.698 260.742 166.5 260.745 166.297C260.798 165.128 260.608 163.961 260.19 162.871C259.771 161.781 259.132 160.793 258.315 159.969C258.2 159.857 258.058 159.777 257.904 159.736C257.75 159.695 257.588 159.695 257.434 159.737C257.28 159.778 257.139 159.858 257.024 159.971C256.91 160.083 256.825 160.224 256.78 160.379C256.03 162.693 254.995 164.902 253.7 166.952L255.412 167.421C255.403 165.016 256.326 162.704 257.98 160.984C258.802 160.119 257.488 158.8 256.681 159.664L256.676 159.639Z" fill="white" fill-opacity="0.14"/>
<path d="M200.402 211.905C204.245 210.111 209.037 208.082 213.017 210.556C213.175 210.646 213.355 210.687 213.536 210.673C213.717 210.66 213.89 210.593 214.034 210.481C214.177 210.368 214.285 210.215 214.344 210.041C214.403 209.867 214.41 209.679 214.365 209.501C212.779 204.844 212.753 199.785 214.291 195.111C215.531 191.398 219.831 185.02 224.283 188.849C225.184 189.618 226.487 188.304 225.582 187.524C221.258 183.81 215.964 187.304 213.774 191.618C210.891 197.25 210.626 204.033 212.608 209.996L213.956 208.941C209.346 206.082 203.959 208.206 199.492 210.296C198.419 210.795 199.349 212.405 200.417 211.905H200.402Z" fill="white" fill-opacity="0.14"/>
<path d="M265.365 186.06C270.088 182.436 275.652 178.062 281.935 178.562C284.573 178.727 287.071 179.829 288.99 181.676C290.86 183.595 290.771 186.015 291.942 188.259C292.764 189.823 294.264 190.638 295.853 189.573C297.088 188.739 297.821 187.744 299.342 187.314C300.742 186.944 302.212 186.944 303.612 187.314C309.983 188.883 312.542 195.676 314.436 201.309C314.489 201.482 314.589 201.636 314.725 201.752C314.862 201.869 315.028 201.943 315.205 201.967C315.382 201.99 315.561 201.961 315.723 201.883C315.884 201.806 316.019 201.683 316.113 201.529C318.305 197.934 321.458 195.045 325.203 193.199C328.948 191.353 333.133 190.626 337.269 191.103C338.445 191.243 338.435 189.373 337.269 189.238C332.813 188.76 328.315 189.572 324.294 191.581C320.272 193.589 316.892 196.712 314.544 200.589L316.222 200.814C314.682 196.231 312.906 191.288 309.137 188.089C306.101 185.515 301.585 184.25 297.821 185.865C296.975 186.297 296.178 186.824 295.445 187.434C294.771 187.934 294.21 188.184 293.634 187.479C293.332 186.97 293.123 186.41 293.019 185.825C292.473 183.88 291.971 182.206 290.609 180.667C288.021 177.748 283.804 176.388 280.011 176.668C274.068 177.103 269.03 180.906 264.445 184.425C263.51 185.14 264.445 186.759 265.37 186.035L265.365 186.06Z" fill="white" fill-opacity="0.14"/>
<path d="M322.096 203.263C323.855 200.983 326.106 199.143 328.675 197.886C331.245 196.629 334.064 195.987 336.915 196.011C336.99 196.001 337.059 195.964 337.109 195.907C337.159 195.849 337.186 195.775 337.186 195.699C337.186 195.622 337.159 195.548 337.109 195.49C337.059 195.433 336.99 195.396 336.915 195.386C333.981 195.361 331.081 196.02 328.437 197.312C325.793 198.604 323.476 200.494 321.663 202.838C321.422 203.148 321.855 203.593 322.101 203.278L322.096 203.263Z" fill="white" fill-opacity="0.14"/>
<path d="M332.487 200.954C333.965 200.179 335.581 199.715 337.24 199.589C337.633 199.559 337.633 198.935 337.24 198.965C335.473 199.097 333.751 199.59 332.177 200.414C331.823 200.599 332.133 201.139 332.487 200.954Z" fill="white" fill-opacity="0.14"/>
</g>
<g clip-path="url(#clip2_30_2939)">
<path d="M328.611 455.413C330.351 451.66 332.081 447.907 333.8 444.152C335.48 440.516 337.855 436.717 338.99 432.892C341.202 425.65 326.965 418.4 321.687 415.755C318.487 414.143 315.204 412.713 311.889 411.363C310.381 410.621 308.815 410.004 307.205 409.519C305.229 409.264 303.232 409.803 301.652 411.017C300.993 411.645 300.428 413.35 299.979 414.21C296.094 421.681 292.374 429.225 288.819 436.843C288.646 436.431 288.464 436.033 288.293 435.598C292.846 436.938 297.283 438.646 301.559 440.706C301.693 440.763 301.812 440.85 301.908 440.96C302.003 441.069 302.073 441.199 302.111 441.34C302.15 441.48 302.156 441.627 302.13 441.77C302.104 441.913 302.046 442.049 301.96 442.166C295.656 450.007 289.275 457.783 282.818 465.493L281.441 464.168L295.071 453.645C298.665 450.875 302.444 447.083 306.86 445.664C314.847 443.068 321.5 450.898 328.661 452.885C329.834 453.218 329.108 454.981 327.935 454.648C320.427 452.542 313.604 444.093 305.409 448.353C301.487 450.392 297.961 453.8 294.452 456.495L282.608 465.644C281.76 466.31 280.546 465.166 281.232 464.312C287.695 456.598 294.076 448.822 300.374 440.986L300.768 442.438C296.494 440.379 292.06 438.671 287.51 437.331C287.394 437.284 287.289 437.215 287.2 437.128C287.111 437.04 287.041 436.936 286.993 436.821C286.944 436.706 286.919 436.582 286.919 436.458C286.918 436.333 286.943 436.21 286.99 436.094C289.341 431.09 291.757 426.114 294.239 421.166C295.428 418.807 296.632 416.454 297.85 414.108C298.778 412.323 299.622 409.83 301.066 408.353C303.227 406.14 305.905 406.983 308.475 407.96C312.99 409.676 317.48 411.535 321.812 413.69C325.636 415.549 329.282 417.754 332.704 420.278C335.464 422.36 340.476 425.878 341.448 429.426C342.349 432.789 338.961 437.356 337.65 440.216L330.286 456.105C329.769 457.217 328.005 456.499 328.522 455.386L328.611 455.413Z" fill="white" fill-opacity="0.14"/>
<path d="M328.388 436.487C328.103 437.186 327.569 437.755 326.889 438.083C326.209 438.411 325.432 438.475 324.708 438.263C323.983 438.051 323.363 437.578 322.967 436.935C322.572 436.292 322.429 435.525 322.566 434.783C322.605 434.536 322.736 434.313 322.933 434.159C323.129 434.004 323.377 433.93 323.626 433.95L325.908 434.124C327.132 434.217 326.898 436.108 325.681 436.016L323.399 435.842L324.458 435.01C324.065 436.559 326.061 437.328 326.624 435.768C327.039 434.613 328.803 435.331 328.388 436.487Z" fill="white" fill-opacity="0.14"/>
<path d="M314.616 428.24C315.271 428.525 315.813 429.021 316.155 429.649C316.497 430.277 316.619 431.001 316.503 431.706C316.445 432.09 316.302 432.456 316.082 432.777C315.92 432.938 315.724 433.061 315.507 433.136C315.291 433.211 315.06 433.236 314.833 433.21C313.885 433.256 312.938 433.098 312.056 432.746C311.867 432.661 311.71 432.519 311.606 432.34C311.503 432.161 311.458 431.954 311.477 431.748C311.492 431.23 311.623 430.721 311.858 430.26C312.094 429.798 312.43 429.395 312.842 429.079C313.041 428.923 313.293 428.852 313.545 428.882C313.796 428.912 314.025 429.041 314.181 429.24C314.337 429.439 314.408 429.692 314.378 429.943C314.348 430.194 314.219 430.423 314.02 430.579C313.807 430.742 313.636 430.954 313.522 431.197C313.409 431.44 313.356 431.707 313.369 431.975L312.783 430.976C313.541 431.29 314.371 431.389 315.182 431.264L314.444 431.843C314.539 431.689 314.6 431.516 314.624 431.337C314.648 431.157 314.633 430.975 314.582 430.801C314.53 430.628 314.442 430.467 314.324 430.33C314.207 430.193 314.061 430.082 313.897 430.004C313.671 429.904 313.493 429.719 313.401 429.49C313.308 429.26 313.309 429.004 313.402 428.774C313.496 428.545 313.674 428.361 313.901 428.262C314.127 428.162 314.384 428.154 314.616 428.24Z" fill="white" fill-opacity="0.14"/>
<path d="M305.886 424.414C307.218 427.199 303.071 430.217 300.85 428.001C298.629 425.785 301.784 421.626 304.513 423.067C305.59 423.626 304.876 425.413 303.787 424.83C302.877 424.352 301.427 425.821 302.163 426.654C302.9 427.487 304.533 426.101 304.099 425.174C303.572 424.067 305.32 423.317 305.848 424.417L305.886 424.414Z" fill="white" fill-opacity="0.14"/>
</g>
<g clip-path="url(#clip3_30_2939)">
<path d="M53.7411 428.355C44.9515 429.87 41.4836 439.755 44.0607 447.539C46.6379 455.323 54.4689 459.914 62.5978 457.68C70.1777 455.597 77.7223 447.542 76.7543 439.361C75.7932 431.308 68.4977 423.126 59.7985 426.569C57.9542 427.294 58.7038 430.302 60.5766 429.587C67.7392 426.756 73.6764 434.028 73.7412 440.751C73.8047 446.999 67.5986 453.103 61.8281 454.695C58.9391 455.547 55.8345 455.27 53.1443 453.92C50.4541 452.57 48.3799 450.249 47.3425 447.427C44.8632 441.162 47.0985 432.699 54.5296 431.413C56.5086 431.076 55.7203 428.051 53.7515 428.395L53.7411 428.355Z" fill="white" fill-opacity="0.14"/>
<path d="M54.9253 457.492C55.54 461.252 60.1864 461.806 63.3038 461.692C65.453 461.618 67.5713 461.157 69.5569 460.33C70.3382 460.008 77.0271 456.782 77.0895 456.991L77.5075 455.494C72.5254 459.849 66.6402 463.048 60.2746 464.864C59.9446 464.949 59.6513 465.139 59.4388 465.406C59.2264 465.672 59.1062 466 59.0964 466.34C59.0866 466.681 59.1878 467.015 59.3846 467.292C59.5814 467.57 59.8633 467.776 60.1878 467.88C66.5142 470.357 72.7004 467.528 78.3539 464.578L76.236 462.431C74.872 464.395 73.2766 466.189 71.4841 467.773C69.9789 469.11 72.1847 471.329 73.6796 469.985C75.6621 468.213 77.4237 466.209 78.9265 464.016C79.857 462.663 78.095 461.193 76.8005 461.872C71.8813 464.451 66.6458 467.078 61.0805 464.871C61.0631 465.877 61.0538 466.88 61.0445 467.884C67.9364 465.908 74.3057 462.433 79.6949 457.708C79.8929 457.519 80.0362 457.28 80.1097 457.017C80.1833 456.753 80.1844 456.475 80.1128 456.211C79.1678 453.115 75.5067 454.137 73.2133 455.099C70.92 456.061 68.9482 457.433 66.5816 458.077C64.7902 458.539 58.4175 459.638 57.9405 456.715C57.6203 454.735 54.5909 455.525 54.9172 457.495L54.9253 457.492Z" fill="white" fill-opacity="0.14"/>
<path d="M62.3364 434.569C66.9177 435.977 68.302 440.945 65.4962 444.714C64.3056 446.333 67.0022 447.907 68.1868 446.299C69.1059 445.072 69.7125 443.641 69.9542 442.129C70.196 440.617 70.0656 439.069 69.5744 437.619C69.0831 436.17 68.2459 434.861 67.1347 433.807C66.0236 432.753 64.672 431.985 63.1967 431.569C61.3106 430.959 60.4283 434.009 62.3364 434.569Z" fill="white" fill-opacity="0.14"/>
<path d="M31.6484 447.978C32.4207 448.684 33.4231 449.087 34.4705 449.112C35.5178 449.137 36.5391 448.783 37.3455 448.114C37.6365 447.821 37.8007 447.426 37.8028 447.014C37.8048 446.602 37.6446 446.206 37.3567 445.911C37.0591 445.626 36.6633 445.467 36.2511 445.465C35.8389 445.464 35.4417 445.621 35.1419 445.904C35.2326 445.82 35.1922 445.83 35.0365 445.931C35.1581 445.899 35.1338 445.906 34.9392 445.956C34.8036 446.021 34.6503 446.039 34.5032 446.008C34.2713 445.988 34.0495 445.905 33.862 445.768C33.5671 445.481 33.1725 445.32 32.761 445.318C32.3495 445.317 31.9531 445.474 31.6554 445.758C31.3624 446.05 31.1968 446.445 31.1947 446.858C31.1926 447.271 31.3542 447.668 31.6442 447.962L31.6484 447.978Z" fill="white" fill-opacity="0.14"/>
<path d="M36.783 428.731C37.1705 429.388 37.6886 429.959 38.3055 430.408C38.9223 430.858 39.6248 431.176 40.3698 431.344C40.7633 431.439 41.1783 431.378 41.5277 431.173C41.8771 430.969 42.1337 430.637 42.2437 430.248C42.3537 429.859 42.3085 429.443 42.1176 429.087C41.9268 428.731 41.605 428.462 41.2199 428.338C40.9814 428.292 40.7473 428.225 40.5202 428.139C40.7238 428.224 40.5202 428.139 40.4324 428.066L40.1165 427.88C40.0227 427.818 39.9715 427.754 40.1165 427.88C40.0266 427.8 39.9367 427.72 39.855 427.637C39.7732 427.555 39.6873 427.456 39.6115 427.363C39.7795 427.579 39.5844 427.258 39.5272 427.204C39.4299 427.016 39.2955 426.851 39.1323 426.717C38.9691 426.583 38.7804 426.483 38.5775 426.424C38.3746 426.365 38.1618 426.348 37.9519 426.373C37.742 426.398 37.5394 426.466 37.3562 426.571C37.1731 426.677 37.0132 426.818 36.8863 426.987C36.7593 427.156 36.6679 427.349 36.6176 427.554C36.5673 427.759 36.5591 427.972 36.5935 428.18C36.6279 428.388 36.7042 428.587 36.8178 428.765L36.783 428.731Z" fill="white" fill-opacity="0.14"/>
<path d="M47.1111 415.713C47.75 417.535 48.8567 419.157 50.3206 420.417C50.6191 420.7 51.0146 420.858 51.4262 420.86C51.8378 420.861 52.2346 420.705 52.5354 420.424C52.8265 420.13 52.9905 419.734 52.9922 419.32C52.9939 418.907 52.8331 418.509 52.5445 418.213C51.4668 417.351 50.638 416.219 50.1426 414.932C50.0281 414.538 49.767 414.204 49.413 413.996C49.059 413.789 48.6389 413.725 48.2389 413.818C47.8395 413.923 47.4974 414.18 47.2864 414.535C47.0754 414.89 47.0125 415.313 47.1111 415.713Z" fill="white" fill-opacity="0.14"/>
<path d="M70.1838 418.3L71.7243 414.451C71.8361 414.052 71.7857 413.625 71.584 413.263C71.3823 412.902 71.0456 412.634 70.6473 412.519C70.2495 412.417 69.8273 412.471 69.4685 412.672C69.1096 412.872 68.8416 413.202 68.7201 413.594L67.1796 417.443C67.0678 417.842 67.1182 418.269 67.3199 418.63C67.5216 418.992 67.8583 419.26 68.2566 419.375C68.6545 419.477 69.0766 419.422 69.4354 419.222C69.7943 419.022 70.0623 418.692 70.1838 418.3Z" fill="white" fill-opacity="0.14"/>
<path d="M82.3906 432.722L86.4434 431.677C86.8454 431.573 87.1898 431.315 87.4009 430.958C87.612 430.601 87.6725 430.175 87.5691 429.773C87.4656 429.372 87.2067 429.028 86.8493 428.818C86.4919 428.607 86.0653 428.547 85.6633 428.651L81.6105 429.696C81.2085 429.799 80.8641 430.058 80.6529 430.415C80.4418 430.772 80.3813 431.198 80.4848 431.6C80.5883 432.001 80.8472 432.345 81.2046 432.555C81.562 432.765 81.9886 432.826 82.3906 432.722Z" fill="white" fill-opacity="0.14"/>
<path d="M84.0363 447.321C84.0879 447.299 84.1426 447.285 84.1984 447.28C83.9265 447.298 83.8698 447.313 84.0444 447.319C84.219 447.326 83.6926 447.229 83.9795 447.336C83.5828 447.205 83.8005 447.279 83.9228 447.351C83.7254 447.189 83.6847 447.165 83.8005 447.279C83.6488 447.059 83.614 447.025 83.6942 447.168C83.9108 447.507 84.2501 447.75 84.6416 447.845C85.0331 447.941 85.4465 447.882 85.7957 447.681C86.1449 447.479 86.403 447.151 86.5163 446.765C86.6295 446.379 86.5891 445.964 86.4036 445.607C86.1019 445.073 85.6274 444.657 85.0579 444.427C84.4884 444.198 83.8575 444.168 83.2686 444.344C82.8666 444.447 82.5222 444.706 82.3111 445.063C82.1 445.42 82.0395 445.846 82.143 446.248C82.2464 446.649 82.5054 446.993 82.8628 447.203C83.2202 447.414 83.6468 447.474 84.0488 447.37L84.0363 447.321Z" fill="white" fill-opacity="0.14"/>
</g>
<g clip-path="url(#clip4_30_2939)">
<path d="M145.359 223.509C136.937 258.656 129.921 294.458 116.73 328.218C116.37 329.144 117.858 329.543 118.218 328.626C131.4 294.866 138.425 259.063 146.846 223.908C146.873 223.811 146.879 223.709 146.866 223.608C146.853 223.508 146.82 223.411 146.77 223.324C146.719 223.236 146.652 223.159 146.572 223.098C146.491 223.036 146.4 222.991 146.302 222.965C146.205 222.939 146.103 222.932 146.002 222.945C145.902 222.958 145.805 222.991 145.718 223.041C145.63 223.092 145.553 223.159 145.492 223.24C145.43 223.32 145.385 223.411 145.359 223.509Z" fill="white" fill-opacity="0.14"/>
<path d="M150.838 222.425C154.194 221.356 156.302 224.346 158.752 225.988C160.178 226.915 161.824 227.448 163.522 227.532C166.966 227.858 169.268 229.584 172.27 231.076C174.403 232.12 176.614 232.993 178.885 233.687C189.788 237.158 201.244 238.141 211.559 243.48C212.436 243.931 213.207 242.599 212.33 242.148C201.577 236.596 189.585 235.713 178.276 231.889C173.159 230.157 168.935 226.572 163.533 226.004C158.701 225.493 155.632 219.295 150.436 220.956C149.496 221.257 149.906 222.742 150.854 222.441L150.838 222.425Z" fill="white" fill-opacity="0.14"/>
<path d="M216.328 244.636C202.986 279.99 199.325 318.959 179.947 351.957C179.896 352.044 179.863 352.141 179.85 352.241C179.837 352.341 179.843 352.443 179.869 352.541C179.895 352.638 179.94 352.73 180.002 352.81C180.063 352.89 180.14 352.958 180.227 353.008C180.315 353.059 180.411 353.092 180.511 353.105C180.612 353.119 180.713 353.112 180.811 353.086C180.909 353.06 181 353.015 181.081 352.954C181.161 352.892 181.228 352.816 181.279 352.728C200.731 319.631 204.433 280.521 217.816 245.043C218.159 244.109 216.671 243.718 216.328 244.636Z" fill="white" fill-opacity="0.14"/>
<path d="M121.156 332.958C130.521 335.89 140.262 337.416 149.594 340.446C154.396 341.932 158.981 344.042 163.232 346.723C166.708 348.981 169.987 351.587 174.344 350.68C175.309 350.478 174.891 349.027 173.925 349.195C168.975 350.236 164.193 345.241 160.049 343.076C156.207 341.127 152.19 339.543 148.051 338.346C139.306 335.718 130.276 334.198 121.555 331.471C120.605 331.177 120.205 332.665 121.156 332.958Z" fill="white" fill-opacity="0.14"/>
<path d="M154.245 240.421C159.378 246.546 168.183 245.02 174.644 248.705C176.771 249.919 178.494 251.689 180.711 252.746C182.838 253.627 185.055 254.273 187.323 254.671L195.165 256.476C198.016 257.135 201.296 257.586 203.089 260.181C203.645 261.004 204.98 260.215 204.415 259.4C202.033 255.949 197.688 255.477 193.887 254.607C188.309 253.322 182.634 252.59 177.94 249.098C174.579 246.633 171.099 245.497 167.05 244.612C162.761 243.677 158.316 242.875 155.34 239.327C154.701 238.562 153.623 239.664 154.254 240.421L154.245 240.421Z" fill="white" fill-opacity="0.14"/>
<path d="M152.187 255.976C160.935 259.62 169.669 263.825 178.778 266.509C183.217 267.823 187.373 268.865 191.37 271.303C194.316 273.109 197.162 274.85 200.769 274.482C201.752 274.387 201.754 272.827 200.764 272.946C196.274 273.399 193.001 270.174 189.246 268.297C185.722 266.534 181.806 265.846 178.07 264.687C169.365 261.951 160.996 257.985 152.586 254.489C151.676 254.104 151.277 255.6 152.187 255.976Z" fill="white" fill-opacity="0.14"/>
<path d="M146.783 271.543C154.341 269.865 160.265 275.682 166.387 279.046C168.761 280.395 171.365 281.293 174.067 281.694C177.603 282.177 181.177 282.007 184.395 283.787C185.223 284.263 186.044 282.956 185.167 282.455C182.362 280.905 179.381 280.676 176.259 280.381C172.062 279.955 168.035 278.5 164.535 276.146C158.966 272.64 153.279 268.531 146.349 270.058C145.383 270.277 145.802 271.761 146.767 271.543L146.783 271.543Z" fill="white" fill-opacity="0.14"/>
<path d="M143.747 290.933C147.385 293.017 151.332 294.511 155.438 295.359C156.413 295.562 156.821 294.074 155.846 293.871C151.87 293.056 148.05 291.614 144.527 289.601C144.352 289.522 144.155 289.511 143.972 289.569C143.79 289.627 143.635 289.751 143.538 289.917C143.441 290.082 143.409 290.277 143.448 290.465C143.486 290.652 143.593 290.819 143.747 290.933Z" fill="white" fill-opacity="0.14"/>
<path d="M169.107 303.369L170.068 304.192C170.219 304.324 170.413 304.396 170.614 304.395C170.814 304.395 171.008 304.321 171.158 304.188C171.23 304.116 171.287 304.03 171.325 303.935C171.364 303.841 171.384 303.74 171.384 303.638C171.383 303.536 171.363 303.435 171.323 303.341C171.284 303.247 171.226 303.162 171.154 303.09L170.193 302.317C170.042 302.185 169.848 302.113 169.648 302.114C169.447 302.114 169.254 302.188 169.104 302.321C168.972 302.472 168.899 302.666 168.9 302.867C168.901 303.067 168.975 303.261 169.107 303.411L169.107 303.369Z" fill="white" fill-opacity="0.14"/>
<path d="M140.638 306.005L163.287 312.968C170.462 315.164 177.915 316.88 184.894 319.646C185.812 320.014 186.211 318.526 185.302 318.158C178.323 315.392 170.869 313.676 163.694 311.48L141.046 304.517C140.095 304.223 139.696 305.711 140.638 306.005Z" fill="white" fill-opacity="0.14"/>
<path d="M141.058 322.137L149.755 325.03C150.697 325.348 151.097 323.861 150.154 323.542L141.458 320.65C140.515 320.331 140.116 321.827 141.058 322.137Z" fill="white" fill-opacity="0.14"/>
<path d="M75.6237 257.18C82.4839 274.43 90.6299 291.141 99.993 307.172C100.097 307.348 100.266 307.475 100.463 307.526C100.661 307.577 100.871 307.548 101.047 307.445C101.223 307.341 101.35 307.172 101.401 306.974C101.453 306.777 101.423 306.567 101.32 306.391C92.0193 290.476 83.9262 273.887 77.1085 256.761C76.7502 255.846 75.2571 256.248 75.6237 257.18Z" fill="white" fill-opacity="0.14"/>
<path d="M75.4819 254.571C71.3532 254.495 66.0034 254.695 63.4987 258.535C60.1644 263.658 64.8783 270.428 67.132 274.987C74.212 289.312 81.2919 303.632 88.3718 317.947C88.8043 318.837 90.1392 318.048 89.6984 317.166L72.7582 282.91L68.7247 274.75C67.2527 271.766 65.3345 268.693 64.4232 265.476C62.1822 257.508 69.4016 255.996 75.4874 256.107C75.691 256.106 75.886 256.024 76.0295 255.88C76.173 255.735 76.2532 255.54 76.2525 255.336C76.2518 255.132 76.1702 254.937 76.0257 254.794C75.8812 254.65 75.6856 254.57 75.4819 254.571Z" fill="white" fill-opacity="0.14"/>
<path d="M101.766 311.195C100.643 310.818 99.5879 310.264 98.6392 309.555C98.4913 309.471 98.3199 309.438 98.1514 309.461C97.9829 309.484 97.8267 309.562 97.7066 309.682C96.239 311.382 95.3298 313.493 95.1023 315.727L96.2558 315.054C94.3445 313.922 91.6357 313.766 90.0817 315.629C89.4529 316.389 89.1286 317.355 89.1717 318.341C89.2148 319.326 89.6224 320.26 90.3152 320.962C91.003 321.67 92.0891 320.576 91.4013 319.869C91.1458 319.611 90.9518 319.3 90.8338 318.957C90.7159 318.614 90.6771 318.249 90.7203 317.889C90.7635 317.529 90.8876 317.183 91.0834 316.878C91.2791 316.573 91.5413 316.316 91.8504 316.127C92.4217 315.832 93.0629 315.701 93.7039 315.746C94.3448 315.792 94.9608 316.014 95.4844 316.386C95.6034 316.44 95.7335 316.465 95.8641 316.459C95.9946 316.453 96.1218 316.416 96.2352 316.351C96.3486 316.286 96.445 316.195 96.5165 316.086C96.588 315.976 96.6324 315.852 96.6463 315.722C96.8437 313.887 97.595 312.157 98.8003 310.76L97.8677 310.887C98.9372 311.652 100.117 312.249 101.367 312.658C102.309 312.969 102.708 311.481 101.766 311.171L101.766 311.195Z" fill="white" fill-opacity="0.14"/>
<path d="M101.088 313.369L104.225 338.831L105.536 338.281C102.816 334.988 100.203 331.579 97.7464 328.07C96.64 326.522 95.5859 324.957 94.5839 323.375C94.2518 322.856 93.6352 321.256 93.0645 320.978L92.9401 320.821C92.5501 320.286 92.2697 320.386 92.1154 321.121L91.1385 320.382L91.139 320.522C91.192 321.504 92.7361 321.507 92.683 320.517L92.6825 320.376C92.6725 320.261 92.6385 320.149 92.5827 320.048C92.5268 319.947 92.4504 319.859 92.3584 319.789C92.2663 319.72 92.1606 319.67 92.0482 319.644C91.9357 319.617 91.819 319.615 91.7056 319.637C91.4879 319.66 91.2837 319.754 91.1235 319.903C90.9634 320.053 90.8558 320.25 90.8168 320.465C90.7787 320.597 90.7772 320.736 90.8126 320.869C90.848 321.001 90.9189 321.121 91.0176 321.216C93.7753 323.535 95.64 327.805 97.7557 330.696C99.8714 333.587 102.144 336.543 104.466 339.367C104.581 339.454 104.717 339.51 104.861 339.529C105.005 339.547 105.151 339.528 105.284 339.472C105.418 339.417 105.534 339.327 105.622 339.212C105.71 339.097 105.767 338.961 105.785 338.817C104.742 330.333 103.694 321.846 102.64 313.356C102.521 312.382 100.985 312.379 101.105 313.361L101.088 313.369Z" fill="white" fill-opacity="0.14"/>
<path d="M105.42 335.739L101.842 330.302C101.385 329.61 100.099 330.044 100.432 330.901L102.398 335.98C102.454 336.177 102.585 336.344 102.764 336.444C102.942 336.544 103.153 336.569 103.35 336.514C103.547 336.458 103.714 336.327 103.814 336.149C103.914 335.97 103.939 335.759 103.883 335.562L102.947 330.083C102.779 329.101 101.294 329.519 101.463 330.493L102.399 335.997L103.883 335.579L101.917 330.5L100.515 331.099C101.705 332.911 102.898 334.724 104.093 336.536C104.641 337.36 105.968 336.587 105.42 335.755L105.42 335.739Z" fill="white" fill-opacity="0.14"/>
<path d="M75.9025 254.396C73.7847 251.679 72.0438 248.688 70.7271 245.505C70.008 243.399 69.1738 241.335 68.2282 239.321C66.3331 235.794 62.8166 233.717 58.8926 235.481C56.2298 236.68 51.2158 240.776 51.7477 244.086C52.2118 246.916 54.2459 250.063 55.3782 252.726L59.6996 262.941L61.1012 262.342C59.6955 259.44 60.8902 256.364 63.1452 254.276C64.7911 252.718 68.0868 250.716 70.4249 251.112C71.3915 251.266 71.8073 249.778 70.8324 249.616C67.3873 249.051 63.1527 251.724 61.0232 254.275C59.9576 255.458 59.2695 256.932 59.047 258.508C58.8246 260.084 59.0779 261.691 59.7746 263.122C60.1489 263.897 61.5258 263.331 61.1844 262.523C59.3582 258.225 57.5375 253.924 55.7223 249.62C54.8895 247.617 52.773 244.503 53.7149 242.32C54.6077 240.286 57.5961 237.773 59.4757 236.933C64.9993 234.519 67.1837 240.514 68.676 244.554C70.0661 248.369 72.0276 251.951 74.4933 255.177C75.0908 256 76.4254 255.17 75.82 254.396L75.9025 254.396Z" fill="white" fill-opacity="0.14"/>
<path d="M65.2174 256.572L94.8187 315.092C95.2677 315.982 96.5942 315.193 96.1453 314.311L66.544 255.791C66.1033 254.909 64.7684 255.69 65.2174 256.58L65.2174 256.572Z" fill="white" fill-opacity="0.14"/>
<path d="M42.183 301.745C44.3137 299.256 46.9403 297.238 49.8949 295.822C52.8495 294.405 56.0671 293.621 59.3421 293.518C62.6171 293.416 65.8775 293.998 68.9149 295.227C71.9522 296.456 74.6998 298.305 76.982 300.656C78.3742 302.071 80.5463 299.884 79.1541 298.469C76.5823 295.835 73.4932 293.763 70.0811 292.382C66.6691 291.002 63.0082 290.343 59.3289 290.446C55.6496 290.55 52.0316 291.415 48.7028 292.985C45.3741 294.556 42.4066 296.799 39.9872 299.573C38.6879 301.064 40.8754 303.244 42.183 301.745Z" fill="white" fill-opacity="0.14"/>
<path d="M94.9145 293.029C95.2313 284.515 97.0997 275.822 102.145 268.786C107.009 261.998 114.862 257.478 123.301 257.779C124.953 257.839 125.226 255.716 124.067 254.903C119.763 251.871 118.105 245.503 120.863 240.877C123.621 236.252 129.999 234.71 134.713 237.047C136.492 237.924 138.01 235.26 136.264 234.382C130.044 231.3 121.852 233.187 118.199 239.326C114.547 245.466 116.854 253.566 122.516 257.55C122.777 256.592 123.029 255.633 123.331 254.674C114.248 254.351 105.801 259.054 100.319 266.15C94.409 273.8 92.2305 283.518 91.876 293.023C91.8005 295.013 94.8802 294.994 94.9558 293.012L94.9145 293.029Z" fill="white" fill-opacity="0.14"/>
<path d="M201.262 287.625L218.58 328.238C221.461 335.015 224.347 341.787 227.239 348.553L231.402 358.323C232.668 361.283 233.688 364.92 235.489 367.573C238.386 371.873 242.473 369.629 246.224 367.799L266.88 357.768L306.743 338.446C309.117 337.29 307.032 333.764 304.658 334.911L269.214 352.104L251.508 360.704C248.672 362.076 245.657 364.028 242.655 364.996C238.853 366.19 239.183 366.024 238.118 363.79C237.286 362.075 236.619 360.269 235.87 358.522C225.501 334.206 215.133 309.887 204.764 285.565C203.732 283.15 200.205 285.251 201.229 287.65L201.262 287.625Z" fill="white" fill-opacity="0.14"/>
<path d="M213.382 261.515C229.271 251.731 246.246 243.832 263.964 237.978L261.64 237.044C275.93 269.56 289.911 302.194 303.585 334.948C304.592 337.347 308.544 336.276 307.544 333.836C293.704 300.758 279.584 267.799 265.183 234.959C264.952 234.571 264.599 234.269 264.179 234.1C263.76 233.932 263.296 233.906 262.86 234.026C244.802 239.981 227.497 248.017 211.297 257.972C209.056 259.359 211.125 262.927 213.382 261.515Z" fill="white" fill-opacity="0.14"/>
<path d="M278.279 272.491L310.899 264.44C311.774 264.223 313.117 263.607 314.009 263.678C316.338 263.843 316.095 265.083 316.498 266.84C317.118 269.48 317.722 272.128 318.334 274.777C319.609 280.332 320.864 285.89 322.1 291.451C326.983 313.452 331.548 335.507 335.793 357.615C336.297 360.206 340.248 359.094 339.752 356.511C334.93 331.46 329.711 306.493 324.097 281.61C322.755 275.686 321.734 269.521 319.963 263.715C319.027 260.638 317.172 259.126 313.896 259.509C307.87 260.215 301.686 262.483 295.804 263.932L277.159 268.531C274.593 269.168 275.697 273.119 278.263 272.491L278.279 272.491Z" fill="white" fill-opacity="0.14"/>
<path d="M261.339 359.918C262.208 362.887 263.08 365.854 263.955 368.818C264.084 369.247 264.346 369.623 264.703 369.894C265.06 370.164 265.494 370.314 265.942 370.322C278.611 371.169 291.088 368.928 303.397 366.16C309.775 364.726 316.119 363.167 322.522 361.882C325.467 361.285 328.421 360.746 331.4 360.306C333.769 359.959 336.668 360.23 338.329 358.25C338.638 357.924 338.834 357.508 338.891 357.063C338.947 356.617 338.86 356.165 338.642 355.772C338.397 355.302 338.018 354.915 337.552 354.661C337.087 354.407 336.556 354.297 336.028 354.345C335.58 354.353 335.146 354.505 334.79 354.778C334.434 355.052 334.175 355.432 334.052 355.863C334.052 355.978 334.003 356.102 333.97 356.218C333.385 358.796 337.344 359.881 337.937 357.294L338.019 356.939L336.042 358.448L336.596 358.446L334.817 357.437L335.107 357.857C335.203 357.031 335.308 356.205 335.412 355.379C334.417 356.563 328.811 356.583 327.326 356.844C324.363 357.342 321.409 357.93 318.464 358.527C312.812 359.736 307.202 361.102 301.559 362.36C289.827 364.978 277.994 367.018 265.927 366.21L267.906 367.706C267.037 364.736 266.165 361.77 265.29 358.806C264.547 356.282 260.587 357.369 261.339 359.91L261.339 359.918Z" fill="white" fill-opacity="0.14"/>
<path d="M30.7982 344.234C38.1269 354.943 49.0317 363.59 62.0769 365.724C74.362 367.728 87.5005 363.545 95.4504 353.782C95.7236 353.487 95.9061 353.119 95.9762 352.723C96.0463 352.327 96.0009 351.919 95.8455 351.548C95.6902 351.177 95.4314 350.858 95.1 350.63C94.7686 350.402 94.3786 350.274 93.9765 350.262L86.8169 350.015C84.1579 349.925 84.1807 354.045 86.8315 354.143L94.0077 354.407L92.2133 351.308C90.8152 354.462 89.4171 357.61 88.0191 360.753C86.9542 363.167 90.512 365.252 91.5934 362.829L95.7875 353.376C95.9592 353.061 96.0468 352.706 96.042 352.346C96.0371 351.987 95.9399 351.635 95.7597 351.324C95.5796 351.013 95.3225 350.753 95.0131 350.57C94.7037 350.387 94.3525 350.286 93.9931 350.278L86.8169 350.015L86.8315 354.143L93.9911 354.39L92.5172 350.878C85.2414 359.813 73.2332 363.719 62.0043 361.53C50.4863 359.291 40.873 351.638 34.3578 342.133C32.8638 339.958 29.2877 342.035 30.7982 344.234Z" fill="white" fill-opacity="0.14"/>
<path d="M219.879 284.661C225.732 284.244 232.326 285.526 237.607 282.287C241.446 279.928 243.555 276.164 242.846 271.683L240.32 274.227C244.496 275.954 249.332 277.704 253.701 275.567C256.882 274.02 258.969 270.965 258.626 267.383C258.361 264.758 254.232 264.748 254.497 267.398C255.259 274.826 245.249 271.823 241.42 270.243C239.767 269.572 238.683 271.458 238.894 272.795C240.372 282.071 224.958 280.176 219.931 280.533C217.289 280.715 217.287 284.852 219.945 284.661L219.879 284.661Z" fill="white" fill-opacity="0.14"/>
<path d="M230.507 306.075C230.145 304.062 232.235 301.85 234.258 301.934C235.91 301.986 237.262 303.872 238.783 304.395C241.139 305.262 243.183 304.181 245.036 302.721C251.261 297.828 257.045 294.216 264.991 292.8C267.607 292.337 266.486 288.361 263.879 288.824C259.173 289.637 254.641 291.248 250.478 293.586C248.615 294.645 246.841 295.853 245.173 297.197C244.292 297.894 242.804 299.616 241.815 300.033C239.621 300.949 239.204 299.613 237.863 298.8C232.162 295.327 225.445 301.114 226.531 307.171C226.995 309.779 230.971 308.658 230.507 306.059L230.507 306.075Z" fill="white" fill-opacity="0.14"/>
<path d="M242.898 328.623C241.983 326.57 248.673 327.157 249.598 327.187C251.045 327.303 252.499 327.083 253.848 326.545C255.752 325.671 256.012 324.349 257.179 322.85C258.609 321.012 259.067 322.142 261.066 322.448C267.494 323.458 268.972 314.015 274.537 314.185C277.196 314.275 277.174 310.147 274.523 310.057C270.889 309.946 268.57 312.423 266.283 314.908C265.197 316.084 263.76 318.311 261.985 318.416C259.765 318.539 258.543 316.323 256.12 317.611C254.002 318.717 253.937 321.243 251.942 322.406C249.536 323.81 246.774 322.425 244.117 323.012C240.347 323.851 237.658 326.973 239.339 330.741C240.421 333.156 243.972 331.046 242.898 328.639L242.898 328.623Z" fill="white" fill-opacity="0.14"/>
<path d="M262.372 268.765L263.197 268.671C263.74 268.648 264.257 268.433 264.657 268.064C265.037 267.671 265.251 267.147 265.254 266.6C265.246 266.054 265.024 265.534 264.637 265.15C264.25 264.765 263.728 264.548 263.183 264.543L262.357 264.637C261.813 264.657 261.295 264.873 260.898 265.245C260.61 265.534 260.414 265.903 260.335 266.304C260.257 266.706 260.299 267.121 260.457 267.498C260.615 267.875 260.881 268.197 261.222 268.423C261.563 268.648 261.963 268.767 262.372 268.765Z" fill="white" fill-opacity="0.14"/>
<path d="M286.751 281.758C291.013 275.967 295.684 270.49 300.73 265.368C301.191 264.896 300.461 264.164 299.992 264.636C294.893 269.815 290.17 275.35 285.857 281.2C285.463 281.738 286.356 282.247 286.751 281.717L286.751 281.758Z" fill="white" fill-opacity="0.14"/>
<path d="M290.264 282.943C294.906 278.068 298.922 272.634 302.221 266.767C302.277 266.649 302.287 266.515 302.249 266.39C302.211 266.266 302.128 266.16 302.015 266.094C301.903 266.028 301.77 266.006 301.643 266.034C301.515 266.061 301.403 266.135 301.327 266.241C298.076 272.037 294.115 277.404 289.535 282.219C289.075 282.699 289.804 283.432 290.264 282.943Z" fill="white" fill-opacity="0.14"/>
<path d="M293.515 286.796L311.744 262.902C312.147 262.372 311.245 261.863 310.851 262.385L292.621 286.279C292.219 286.808 293.12 287.317 293.515 286.796Z" fill="white" fill-opacity="0.14"/>
<path d="M296.818 291.73L316.806 265.444C317.209 264.914 316.315 264.397 315.921 264.918L295.925 291.205C295.522 291.735 296.424 292.252 296.818 291.73Z" fill="white" fill-opacity="0.14"/>
<path d="M303.825 293.183C309.405 286.239 314.782 279.141 319.959 271.889C320.345 271.343 319.443 270.834 319.065 271.372C313.938 278.546 308.615 285.573 303.096 292.451C302.685 292.964 303.414 293.696 303.825 293.183Z" fill="white" fill-opacity="0.14"/>
<path d="M309.326 295.897L322.476 278.511C322.878 277.981 321.985 277.472 321.582 277.994L308.432 295.38C308.03 295.901 308.931 296.418 309.326 295.897Z" fill="white" fill-opacity="0.14"/>
<path d="M311.661 300.067L320.556 289.177C320.975 288.664 320.246 287.94 319.827 288.453C316.856 292.08 313.891 295.71 310.932 299.343C310.512 299.848 311.241 300.58 311.661 300.067Z" fill="white" fill-opacity="0.14"/>
<path d="M316.489 306.374L326.35 293.129C326.745 292.599 325.851 292.09 325.457 292.612L315.595 305.857C315.192 306.387 316.094 306.896 316.48 306.374L316.489 306.374Z" fill="white" fill-opacity="0.14"/>
<path d="M319.166 313.929L326.662 304.06C327.056 303.53 326.162 303.021 325.768 303.543L318.273 313.411C317.87 313.933 318.772 314.45 319.166 313.929Z" fill="white" fill-opacity="0.14"/>
<path d="M320.877 319.116C323.473 316.619 325.659 313.727 327.353 310.547C327.665 309.968 326.771 309.443 326.459 310.03C324.808 313.132 322.678 315.954 320.148 318.392C319.662 318.856 320.399 319.58 320.877 319.116Z" fill="white" fill-opacity="0.14"/>
<path d="M323.258 324.756C324.935 322.548 326.614 320.368 328.297 318.215C328.7 317.693 327.97 316.961 327.568 317.491L322.521 324.023C322.126 324.545 322.847 325.277 323.258 324.756Z" fill="white" fill-opacity="0.14"/>
<path d="M324.262 330.689C326.461 328.358 328.335 325.741 329.832 322.908C330.144 322.32 329.251 321.803 328.939 322.391C327.486 325.147 325.665 327.692 323.524 329.956C323.072 330.445 323.801 331.169 324.262 330.689Z" fill="white" fill-opacity="0.14"/>
<path d="M325.727 336.265L330.605 331.236C331.066 330.764 330.337 330.031 329.876 330.512L324.997 335.541C324.537 336.022 325.266 336.746 325.727 336.265Z" fill="white" fill-opacity="0.14"/>
<path d="M324.801 336.062L326.627 341.01C326.649 341.086 326.688 341.155 326.741 341.213C326.794 341.272 326.86 341.317 326.933 341.346C327.007 341.376 327.086 341.388 327.164 341.382C327.243 341.376 327.319 341.352 327.387 341.313C328.345 340.879 329.203 340.253 329.91 339.476C330.618 338.698 331.159 337.784 331.5 336.79C331.729 336.162 330.729 335.893 330.508 336.513C330.196 337.382 329.709 338.178 329.076 338.85C328.444 339.523 327.68 340.058 326.831 340.423L327.584 340.734L325.766 335.786C325.533 335.168 324.543 335.444 324.768 336.062L324.801 336.062Z" fill="white" fill-opacity="0.14"/>
<path d="M328.156 348.568C329.883 346.432 331.612 344.292 333.344 342.15C333.763 341.645 333.034 340.913 332.615 341.426L327.419 347.836C327.008 348.349 327.737 349.081 328.156 348.568Z" fill="white" fill-opacity="0.14"/>
<path d="M327.355 348.604C327.953 349.427 328.559 350.251 329.156 351.074C329.196 351.145 329.252 351.205 329.319 351.25C329.386 351.294 329.463 351.323 329.543 351.333C329.623 351.343 329.704 351.335 329.781 351.308C329.857 351.281 329.926 351.237 329.982 351.179L332.45 348.693C332.546 348.596 332.6 348.466 332.599 348.329C332.599 348.193 332.544 348.063 332.448 347.966C332.351 347.87 332.22 347.817 332.084 347.817C331.948 347.818 331.817 347.872 331.721 347.969L329.253 350.455L330.079 350.551C329.473 349.727 328.876 348.904 328.278 348.08C327.888 347.553 326.999 348.085 327.388 348.604L327.355 348.604Z" fill="white" fill-opacity="0.14"/>
<path d="M329.963 357.578L332.429 354.267C332.831 353.737 331.93 353.228 331.535 353.75L329.07 357.061C328.675 357.591 329.569 358.108 329.963 357.578Z" fill="white" fill-opacity="0.14"/>
<path d="M51.5508 324.022C59.4286 315.382 68.2344 307.637 77.8087 300.926C78.3523 300.544 77.8042 299.654 77.2854 300.036C67.6384 306.781 58.7611 314.565 50.8132 323.249C50.369 323.737 51.0982 324.47 51.5506 323.981L51.5508 324.022Z" fill="white" fill-opacity="0.14"/>
<path d="M62.9828 320.547L81.8239 303.859C82.3178 303.42 81.5886 302.696 81.0948 303.135L62.2536 319.823C61.7515 320.262 62.489 320.986 62.9828 320.547Z" fill="white" fill-opacity="0.14"/>
<path d="M69.017 322.449L86.9662 305.699C87.4517 305.251 86.7143 304.519 86.2287 304.975L68.2796 321.725C67.794 322.173 68.5315 322.905 69.017 322.449Z" fill="white" fill-opacity="0.14"/>
<path d="M79.5826 321.413L89.3783 310.579C89.8224 310.09 89.0932 309.357 88.6491 309.854L78.8451 320.689C78.401 321.178 79.1302 321.91 79.5826 321.413Z" fill="white" fill-opacity="0.14"/>
<path d="M83.7558 324.734L90.567 317.502C91.0277 317.013 90.2902 316.289 89.8378 316.77L83.0267 324.01C82.566 324.491 83.3034 325.223 83.7558 324.734Z" fill="white" fill-opacity="0.14"/>
<path d="M85.7329 330.524C86.2023 329.701 86.8305 328.979 87.5812 328.401C88.3318 327.823 89.1899 327.4 90.1055 327.156C90.2292 327.111 90.3313 327.021 90.3912 326.904C90.4511 326.787 90.4644 326.651 90.4283 326.524C90.3923 326.398 90.3096 326.29 90.1969 326.222C90.0843 326.154 89.95 326.131 89.8212 326.158C87.7304 326.737 85.9541 328.121 84.8806 330.007C84.8312 330.123 84.8261 330.254 84.8664 330.374C84.9066 330.495 84.9894 330.596 85.0991 330.66C85.2089 330.723 85.3381 330.744 85.4624 330.719C85.5867 330.694 85.6976 330.625 85.7742 330.524L85.7329 330.524Z" fill="white" fill-opacity="0.14"/>
<path d="M198.627 315.172C200.719 311.659 203.763 308.811 207.408 306.958C207.993 306.651 207.469 305.769 206.884 306.068C203.085 308.01 199.913 310.987 197.733 314.655C197.684 314.771 197.678 314.902 197.719 315.023C197.759 315.143 197.842 315.244 197.951 315.308C198.061 315.371 198.19 315.392 198.315 315.367C198.439 315.342 198.55 315.273 198.627 315.172Z" fill="white" fill-opacity="0.14"/>
<path d="M200.167 323.489L212.555 312.753C213.058 312.322 212.32 311.597 211.818 312.029L199.471 322.765C198.968 323.196 199.698 323.92 200.2 323.489L200.167 323.489Z" fill="white" fill-opacity="0.14"/>
<path d="M200.136 331.061L216.539 318.535C217.066 318.137 216.535 317.239 216.016 317.645L199.612 330.171C199.094 330.569 199.617 331.467 200.136 331.061Z" fill="white" fill-opacity="0.14"/>
<path d="M195.968 340.877L219.97 324.46C220.522 324.086 219.966 323.188 219.447 323.57L195.444 339.987C194.892 340.36 195.449 341.25 195.968 340.877Z" fill="white" fill-opacity="0.14"/>
<path d="M199.548 344.72C207.956 340.774 215.689 335.527 222.464 329.174C222.949 328.718 222.22 327.994 221.735 328.45C215.029 334.735 207.377 339.925 199.058 343.83C198.456 344.113 198.979 345.003 199.581 344.72L199.548 344.72Z" fill="white" fill-opacity="0.14"/>
<path d="M207.575 345.014L222.361 334.996C222.913 334.622 222.356 333.732 221.837 334.106L207.052 344.124C206.5 344.489 207.056 345.387 207.575 345.014Z" fill="white" fill-opacity="0.14"/>
<path d="M209.374 349.375C214.273 346.582 218.955 343.421 223.377 339.921C223.896 339.507 223.159 338.783 222.648 339.197C218.3 342.634 213.698 345.739 208.884 348.485C208.783 348.563 208.714 348.674 208.69 348.799C208.666 348.923 208.688 349.052 208.752 349.161C208.817 349.271 208.919 349.353 209.039 349.392C209.16 349.432 209.29 349.426 209.407 349.375L209.374 349.375Z" fill="white" fill-opacity="0.14"/>
<path d="M216.673 351.571C218.794 350.119 221.28 349.29 223.848 349.176C224.508 349.173 224.513 348.116 223.844 348.144C221.092 348.258 218.427 349.139 216.15 350.689C215.598 351.054 216.154 351.944 216.673 351.571Z" fill="white" fill-opacity="0.14"/>
<path d="M106.099 280.414C107.089 276.98 108.997 273.881 111.617 271.45C114.238 269.02 117.472 267.351 120.971 266.622C121.623 266.488 121.347 265.49 120.695 265.632C117.024 266.406 113.633 268.164 110.887 270.72C108.141 273.276 106.143 276.531 105.108 280.137C105.071 280.269 105.088 280.409 105.155 280.528C105.222 280.647 105.333 280.735 105.465 280.772C105.596 280.808 105.737 280.791 105.856 280.724C105.975 280.657 106.063 280.546 106.099 280.414Z" fill="white" fill-opacity="0.14"/>
<path d="M115.152 276.535C115.865 275.33 116.865 274.321 118.062 273.596C119.26 272.872 120.618 272.455 122.015 272.382C122.676 272.38 122.672 271.315 122.012 271.35C120.435 271.425 118.901 271.89 117.548 272.703C116.195 273.516 115.065 274.652 114.258 276.009C114.209 276.126 114.204 276.257 114.244 276.377C114.284 276.497 114.367 276.599 114.477 276.662C114.587 276.726 114.716 276.747 114.84 276.722C114.965 276.697 115.075 276.627 115.152 276.526L115.152 276.535Z" fill="white" fill-opacity="0.14"/>
<path d="M121.298 277.264C122.59 275.833 124.193 274.718 125.984 274.003C126.594 273.753 126.318 272.755 125.7 273.005C123.743 273.778 121.986 274.984 120.56 276.532C120.116 277.021 120.845 277.753 121.298 277.264Z" fill="white" fill-opacity="0.14"/>
</g>
<g clip-path="url(#clip5_30_2939)">
<path d="M103.492 216.848L80.7704 207.34L69.553 202.645C67.9346 201.967 65.0764 200.026 63.5736 201.497C63.175 201.895 60.1773 206.141 60.0338 206.057H59.2843L59.4637 205.949C59.6331 205.863 59.8291 205.844 60.0117 205.897C60.1944 205.951 60.3497 206.072 60.446 206.236C60.5423 206.4 60.5722 206.594 60.5297 206.78C60.4871 206.965 60.3753 207.127 60.2171 207.233L60.0338 207.34C59.9201 207.407 59.7908 207.442 59.6591 207.442C59.5273 207.442 59.398 207.407 59.2843 207.34C58.1283 206.655 58.7502 205.315 59.368 204.518L61.4728 201.8C62.0548 201.046 62.6368 199.998 63.5018 199.523C65.1481 198.622 67.3526 200.121 68.8514 200.751L75.9669 203.729L103.871 215.413C104.744 215.779 104.361 217.218 103.472 216.848H103.492Z" fill="white" fill-opacity="0.14"/>
<path d="M102.216 217.163C95.356 214.639 87.9893 213.758 80.818 212.543L58.0962 208.696C57.2591 208.552 57.4744 207.229 58.2956 207.233H59.5193C60.4761 207.233 60.48 208.728 59.5193 208.72H58.2956C58.3593 208.229 58.4271 207.743 58.4949 207.257L81.2166 211.104C88.3919 212.299 95.7546 213.2 102.615 215.724C103.508 216.051 103.121 217.49 102.216 217.159V217.163Z" fill="white" fill-opacity="0.14"/>
<path d="M103.99 217.577C84.9789 220.339 65.6999 220.751 46.5878 218.805C45.6431 218.709 45.6351 217.21 46.5878 217.318C65.5655 219.264 84.7103 218.869 103.592 216.142C104.528 216.007 104.935 217.438 103.99 217.577Z" fill="white" fill-opacity="0.14"/>
<path d="M46.3727 218.976C46.1887 218.925 46.0177 218.835 45.8707 218.712C45.7237 218.59 45.6042 218.438 45.5197 218.267C45.4224 218.071 45.3717 217.856 45.3717 217.637C45.3717 217.419 45.4224 217.203 45.5197 217.007C45.5687 216.923 45.6339 216.849 45.7116 216.79C45.7893 216.731 45.878 216.687 45.9724 216.663C46.0669 216.638 46.1653 216.632 46.262 216.645C46.3588 216.658 46.4519 216.691 46.5361 216.74C46.7028 216.843 46.8235 217.006 46.8732 217.195C46.9229 217.384 46.8979 217.585 46.8032 217.757C46.8032 217.729 46.859 217.609 46.8351 217.705C46.8869 217.502 46.8351 217.597 46.8351 217.657C46.8351 217.717 46.8351 217.502 46.8351 217.589C46.8351 217.677 46.9308 217.589 46.8351 217.557L46.879 217.633C46.879 217.633 46.7753 217.498 46.8471 217.581C46.9188 217.665 46.7474 217.518 46.8192 217.557C46.891 217.597 46.6358 217.502 46.7833 217.557C46.8814 217.58 46.9739 217.622 47.0553 217.682C47.1366 217.741 47.205 217.816 47.2565 217.903C47.308 217.989 47.3414 218.085 47.3548 218.185C47.3681 218.285 47.3611 218.386 47.3341 218.483C47.3072 218.58 47.2609 218.671 47.198 218.749C47.1351 218.828 47.0569 218.893 46.9682 218.941C46.8795 218.988 46.782 219.017 46.6817 219.026C46.5814 219.035 46.4804 219.024 46.3847 218.992L46.3727 218.976Z" fill="white" fill-opacity="0.14"/>
<path d="M102.332 217.274C92.5923 216.743 82.8671 215.997 73.1565 215.038C68.3065 214.557 63.4592 214.025 58.6146 213.443C56.3623 213.168 53.859 212.646 51.7024 213.615C49.7372 214.504 48.3499 216.353 47.0942 218.032C46.5242 218.789 45.2327 218.032 45.8067 217.278C48.2901 213.97 50.9051 211.375 55.3179 211.594C60.5001 211.853 65.6822 212.79 70.8285 213.328C81.3098 214.407 91.807 215.231 102.32 215.799C103.273 215.851 103.277 217.342 102.32 217.29L102.332 217.274Z" fill="white" fill-opacity="0.14"/>
<path d="M59.376 207.54V212.004C59.376 212.202 59.2974 212.392 59.1576 212.532C59.0178 212.671 58.8282 212.75 58.6305 212.75C58.4328 212.75 58.2432 212.671 58.1035 212.532C57.9637 212.392 57.8851 212.202 57.8851 212.004V207.54C57.8851 207.342 57.9637 207.153 58.1035 207.013C58.2432 206.873 58.4328 206.794 58.6305 206.794C58.8282 206.794 59.0178 206.873 59.1576 207.013C59.2974 207.153 59.376 207.342 59.376 207.54Z" fill="white" fill-opacity="0.14"/>
<path d="M89.8829 215.102C88.8704 214.161 87.8592 213.219 86.8493 212.275C86.6141 212.056 86.9649 211.705 87.2001 211.925L90.2337 214.747C90.4689 214.966 90.1181 215.321 89.8829 215.102Z" fill="white" fill-opacity="0.14"/>
<path d="M88.049 215.628C87.0887 214.788 86.2153 213.853 85.442 212.838C85.2466 212.582 85.6772 212.335 85.8725 212.586C86.6226 213.568 87.4707 214.471 88.4038 215.281C88.6469 215.492 88.2922 215.843 88.049 215.636V215.628Z" fill="white" fill-opacity="0.14"/>
<path d="M85.9326 215.76C85.1727 214.416 84.1227 213.258 82.8591 212.371C82.596 212.188 82.8591 211.753 83.1103 211.941C84.4468 212.873 85.5582 214.092 86.3631 215.508C86.3872 215.565 86.3898 215.628 86.3706 215.686C86.3514 215.744 86.3116 215.793 86.2587 215.824C86.2058 215.855 86.1435 215.865 86.0834 215.854C86.0234 215.842 85.9697 215.808 85.9326 215.76Z" fill="white" fill-opacity="0.14"/>
<path d="M83.6564 215.477L80.6946 212.327C80.4754 212.092 80.8262 211.741 81.0454 211.973L84.0112 215.126C84.2304 215.357 83.8796 215.712 83.6564 215.477Z" fill="white" fill-opacity="0.14"/>
<path d="M81.1928 215.281C80.2884 214.239 79.3106 213.262 78.2669 212.359C78.0237 212.148 78.3785 211.797 78.6217 212.008C79.6622 212.912 80.6385 213.887 81.5436 214.926C81.7549 215.17 81.4041 215.52 81.1928 215.281Z" fill="white" fill-opacity="0.14"/>
<path d="M78.9844 214.831C77.847 213.667 76.7096 212.501 75.5722 211.335C75.5342 211.286 75.5154 211.225 75.5193 211.164C75.5232 211.102 75.5495 211.045 75.5933 211.001C75.6371 210.958 75.6953 210.932 75.7568 210.929C75.8183 210.926 75.8789 210.945 75.9269 210.984L79.3392 214.48C79.5624 214.707 79.2116 215.062 78.9844 214.831Z" fill="white" fill-opacity="0.14"/>
<path d="M76.6803 214.073C75.1123 213.143 73.7548 211.897 72.694 210.414C72.5067 210.155 72.9412 209.904 73.1246 210.163C74.1415 211.573 75.4389 212.758 76.9354 213.643C76.9841 213.68 77.0175 213.734 77.0294 213.794C77.0413 213.854 77.0308 213.916 77 213.969C76.9691 214.022 76.92 214.062 76.8619 214.081C76.8038 214.1 76.7406 214.097 76.6843 214.073H76.6803Z" fill="white" fill-opacity="0.14"/>
<path d="M74.3326 214.432L70.8007 210.785C70.5775 210.557 70.9283 210.203 71.1515 210.434L74.6834 214.077C74.9066 214.309 74.5558 214.663 74.3326 214.432Z" fill="white" fill-opacity="0.14"/>
<path d="M71.8093 214.273L67.6038 209.712C67.3845 209.477 67.7393 209.126 67.9546 209.362L72.1601 213.922C72.3793 214.157 72.0285 214.512 71.8093 214.273Z" fill="white" fill-opacity="0.14"/>
<path d="M69.4173 213.746L65.7021 209.76C65.4828 209.525 65.8336 209.17 66.0528 209.405L69.772 213.392C69.9873 213.627 69.6365 213.982 69.4173 213.746Z" fill="white" fill-opacity="0.14"/>
<path d="M68.0861 214.033L63.1392 208.624C62.9199 208.389 63.2747 208.034 63.4899 208.273L68.4369 213.675C68.6562 213.914 68.3014 214.265 68.0861 214.03V214.033Z" fill="white" fill-opacity="0.14"/>
<path d="M65.4311 212.949L60.9346 208.453C60.7074 208.226 61.0582 207.871 61.2854 208.098L65.8019 212.598C65.8484 212.645 65.8745 212.708 65.8745 212.774C65.8745 212.84 65.8484 212.903 65.8019 212.949C65.7553 212.996 65.6923 213.022 65.6265 213.022C65.5607 213.022 65.4976 212.996 65.4511 212.949H65.4311Z" fill="white" fill-opacity="0.14"/>
<path d="M63.9002 212.909C62.1659 211.509 60.6173 209.894 59.2921 208.102C59.1007 207.843 59.5352 207.596 59.7226 207.851C61.02 209.606 62.5364 211.188 64.2351 212.558C64.4822 212.762 64.1314 213.113 63.8803 212.909H63.9002Z" fill="white" fill-opacity="0.14"/>
<path d="M61.5407 212.343L58.3517 208.903C58.1325 208.672 58.4833 208.317 58.7025 208.552L61.8915 211.993C62.1108 212.228 61.76 212.579 61.5407 212.343Z" fill="white" fill-opacity="0.14"/>
<path d="M60.4324 213.184L57.2673 209.708C57.0521 209.469 57.4029 209.118 57.6181 209.354C58.6811 210.515 59.7362 211.674 60.7832 212.83C60.9985 213.069 60.6477 213.42 60.4324 213.184Z" fill="white" fill-opacity="0.14"/>
<path d="M53.1293 207.038C52.3321 208.01 50.1316 206.703 49.2427 206.408C46.7872 205.595 44.3568 204.715 41.9518 203.769C37.2356 201.909 32.6198 199.804 28.1234 197.463C27.8404 197.311 28.0915 196.885 28.3746 197.032C32.4007 199.121 36.5105 201.038 40.732 202.74C42.672 203.538 44.6279 204.28 46.5998 204.969C47.4927 205.288 52.1806 207.448 52.7945 206.683C52.9978 206.436 53.3486 206.79 53.1492 207.038H53.1293Z" fill="white" fill-opacity="0.14"/>
<path d="M44.0765 206.459C41.6899 205.945 39.3724 205.15 37.1723 204.092C36.8813 203.956 37.1364 203.526 37.4234 203.661C39.5826 204.699 41.8574 205.476 44.2001 205.977C44.515 206.045 44.3795 206.527 44.0686 206.459H44.0765Z" fill="white" fill-opacity="0.14"/>
</g>
<g clip-path="url(#clip6_30_2939)">
<path d="M266.036 44.8477L288.758 35.3405L299.975 30.6446C301.594 29.967 304.452 28.0257 305.955 29.4966C306.353 29.8952 309.351 34.1406 309.495 34.0569H310.244L310.065 33.9493C309.895 33.8627 309.699 33.8441 309.517 33.8973C309.334 33.9505 309.179 34.0716 309.082 34.2356C308.986 34.3997 308.956 34.5943 308.999 34.7797C309.041 34.9651 309.153 35.1272 309.311 35.2329L309.495 35.3405C309.608 35.407 309.738 35.4421 309.869 35.4421C310.001 35.4421 310.13 35.407 310.244 35.3405C311.4 34.6548 310.778 33.3155 310.16 32.5182L308.056 29.7996C307.474 29.0461 306.892 27.9978 306.027 27.5234C304.38 26.6225 302.176 28.1213 300.677 28.7512L293.561 31.7289L265.657 43.4127C264.784 43.7794 265.167 45.2185 266.056 44.8477H266.036Z" fill="white" fill-opacity="0.14"/>
<path d="M267.312 45.1627C274.172 42.6394 281.539 41.7585 288.71 40.5426L311.432 36.6959C312.269 36.5524 312.054 35.2289 311.233 35.2329H310.009C309.052 35.2329 309.048 36.7278 310.009 36.7198H311.233C311.169 36.2295 311.101 35.7432 311.033 35.2568L288.312 39.1036C281.136 40.2995 273.774 41.2004 266.913 43.7237C266.02 44.0506 266.407 45.4896 267.312 45.1587V45.1627Z" fill="white" fill-opacity="0.14"/>
<path d="M265.538 45.5772C284.549 48.3391 303.828 48.7514 322.94 46.8049C323.885 46.7093 323.893 45.2104 322.94 45.318C303.963 47.2639 284.818 46.8689 265.937 44.1421C265 44.0066 264.593 45.4376 265.538 45.5772Z" fill="white" fill-opacity="0.14"/>
<path d="M323.156 46.9765C323.34 46.9246 323.511 46.8347 323.658 46.7124C323.805 46.5902 323.924 46.4384 324.009 46.2669C324.106 46.0712 324.157 45.8557 324.157 45.6371C324.157 45.4186 324.106 45.203 324.009 45.0073C323.96 44.9228 323.894 44.8489 323.817 44.7897C323.739 44.7306 323.65 44.6873 323.556 44.6625C323.461 44.6377 323.363 44.6318 323.266 44.6451C323.17 44.6585 323.076 44.6908 322.992 44.7402C322.826 44.8428 322.705 45.0057 322.655 45.195C322.605 45.3843 322.63 45.5854 322.725 45.7567C322.725 45.7288 322.669 45.6092 322.693 45.7049C322.641 45.5016 322.693 45.5972 322.693 45.657C322.693 45.7168 322.693 45.5016 322.693 45.5893C322.693 45.677 322.598 45.5893 322.693 45.5574L322.649 45.6331C322.649 45.6331 322.753 45.4976 322.681 45.5813C322.609 45.665 322.781 45.5175 322.709 45.5574C322.637 45.5972 322.893 45.5016 322.745 45.5574C322.647 45.58 322.554 45.6223 322.473 45.6816C322.392 45.7409 322.323 45.8161 322.272 45.9027C322.22 45.9892 322.187 46.0852 322.174 46.185C322.16 46.2848 322.167 46.3863 322.194 46.4833C322.221 46.5803 322.267 46.6708 322.33 46.7495C322.393 46.8281 322.471 46.8931 322.56 46.9407C322.649 46.9883 322.746 47.0174 322.847 47.0263C322.947 47.0352 323.048 47.0237 323.144 46.9924L323.156 46.9765Z" fill="white" fill-opacity="0.14"/>
<path d="M267.196 45.2742C276.936 44.7427 286.661 43.9972 296.372 43.0379C301.222 42.5569 306.069 42.0254 310.914 41.4434C313.166 41.1683 315.669 40.6461 317.826 41.6148C319.791 42.5037 321.178 44.3534 322.434 46.0316C323.004 46.789 324.296 46.0316 323.722 45.2782C321.238 41.9696 318.623 39.3745 314.21 39.5937C309.028 39.8529 303.846 40.7896 298.7 41.3278C288.219 42.4067 277.721 43.2306 267.208 43.7993C266.256 43.8511 266.252 45.342 267.208 45.2901L267.196 45.2742Z" fill="white" fill-opacity="0.14"/>
<path d="M310.152 35.5399V40.0045C310.152 40.2022 310.231 40.3918 310.371 40.5316C310.51 40.6714 310.7 40.7499 310.898 40.7499C311.095 40.7499 311.285 40.6714 311.425 40.5316C311.565 40.3918 311.643 40.2022 311.643 40.0045V35.5399C311.643 35.3422 311.565 35.1526 311.425 35.0128C311.285 34.873 311.095 34.7944 310.898 34.7944C310.7 34.7944 310.51 34.873 310.371 35.0128C310.231 35.1526 310.152 35.3422 310.152 35.5399Z" fill="white" fill-opacity="0.14"/>
<path d="M279.645 43.1017C280.658 42.1609 281.669 41.2188 282.679 40.2754C282.914 40.0562 282.563 39.7054 282.328 39.9246L279.295 42.7469C279.059 42.9662 279.41 43.3209 279.645 43.1017Z" fill="white" fill-opacity="0.14"/>
<path d="M281.479 43.628C282.44 42.7875 283.313 41.8527 284.086 40.8376C284.282 40.5825 283.851 40.3353 283.656 40.5864C282.906 41.5683 282.058 42.4712 281.125 43.2812C280.881 43.4924 281.236 43.8432 281.479 43.6359V43.628Z" fill="white" fill-opacity="0.14"/>
<path d="M283.596 43.7595C284.356 42.4157 285.406 41.2582 286.669 40.3712C286.932 40.1879 286.669 39.7533 286.418 39.9407C285.082 40.8727 283.97 42.0917 283.165 43.5084C283.141 43.5647 283.138 43.6279 283.158 43.686C283.177 43.7441 283.217 43.7932 283.27 43.8241C283.322 43.8549 283.385 43.8654 283.445 43.8535C283.505 43.8416 283.559 43.8082 283.596 43.7595Z" fill="white" fill-opacity="0.14"/>
<path d="M285.872 43.4766L288.834 40.3274C289.053 40.0922 288.702 39.7414 288.483 39.9726L285.517 43.1258C285.298 43.357 285.649 43.7118 285.872 43.4766Z" fill="white" fill-opacity="0.14"/>
<path d="M288.336 43.2812C289.24 42.2386 290.218 41.2621 291.261 40.3592C291.505 40.1479 291.15 39.7971 290.907 40.0084C289.866 40.9121 288.89 41.8871 287.985 42.9264C287.773 43.1695 288.124 43.5203 288.336 43.2812Z" fill="white" fill-opacity="0.14"/>
<path d="M290.544 42.8306C291.681 41.6666 292.819 40.5013 293.956 39.3347C293.994 39.2862 294.013 39.2254 294.009 39.1639C294.005 39.1025 293.979 39.0446 293.935 39.0013C293.891 38.958 293.833 38.9323 293.771 38.9291C293.71 38.9258 293.649 38.9454 293.601 38.9839L290.189 42.4798C289.966 42.707 290.317 43.0618 290.544 42.8306Z" fill="white" fill-opacity="0.14"/>
<path d="M292.848 42.0733C294.416 41.1429 295.773 39.8967 296.834 38.4138C297.022 38.1547 296.587 37.9036 296.404 38.1627C295.387 39.5729 294.089 40.7577 292.593 41.6427C292.544 41.6799 292.511 41.7335 292.499 41.7936C292.487 41.8537 292.498 41.916 292.528 41.9689C292.559 42.0218 292.608 42.0615 292.666 42.0808C292.725 42.1 292.788 42.0973 292.844 42.0733H292.848Z" fill="white" fill-opacity="0.14"/>
<path d="M295.196 42.4321L298.728 38.7847C298.951 38.5574 298.6 38.2027 298.377 38.4339L294.845 42.0773C294.622 42.3085 294.972 42.6633 295.196 42.4321Z" fill="white" fill-opacity="0.14"/>
<path d="M297.719 42.2726L301.925 37.7123C302.144 37.4771 301.789 37.1263 301.574 37.3615L297.368 41.9218C297.149 42.157 297.5 42.5118 297.719 42.2726Z" fill="white" fill-opacity="0.14"/>
<path d="M300.111 41.7465L303.826 37.7602C304.046 37.525 303.695 37.1702 303.475 37.4054L299.756 41.3917C299.541 41.6269 299.892 41.9817 300.111 41.7465Z" fill="white" fill-opacity="0.14"/>
<path d="M301.442 42.0335L306.389 36.6241C306.608 36.3889 306.254 36.0341 306.038 36.2733L301.091 41.6747C300.872 41.9139 301.227 42.2647 301.442 42.0295V42.0335Z" fill="white" fill-opacity="0.14"/>
<path d="M304.097 40.9493L308.594 36.4527C308.821 36.2255 308.47 35.8708 308.243 36.098L303.726 40.5985C303.68 40.645 303.654 40.7081 303.654 40.7739C303.654 40.8397 303.68 40.9027 303.726 40.9493C303.773 40.9958 303.836 41.0219 303.902 41.0219C303.968 41.0219 304.031 40.9958 304.077 40.9493H304.097Z" fill="white" fill-opacity="0.14"/>
<path d="M305.628 40.9092C307.362 39.5093 308.911 37.8938 310.236 36.1018C310.428 35.8427 309.993 35.5955 309.806 35.8507C308.508 37.6058 306.992 39.1879 305.293 40.5584C305.046 40.7617 305.397 41.1125 305.648 40.9092H305.628Z" fill="white" fill-opacity="0.14"/>
<path d="M307.988 40.3434L311.177 36.9032C311.396 36.672 311.045 36.3172 310.826 36.5524L307.637 39.9926C307.418 40.2278 307.768 40.5786 307.988 40.3434Z" fill="white" fill-opacity="0.14"/>
<path d="M309.096 41.1845L312.261 37.7084C312.476 37.4693 312.125 37.1185 311.91 37.3537C310.847 38.515 309.792 39.6737 308.745 40.8297C308.53 41.0689 308.881 41.4197 309.096 41.1845Z" fill="white" fill-opacity="0.14"/>
<path d="M316.399 35.0376C317.196 36.0102 319.397 34.7027 320.286 34.4077C322.741 33.5945 325.171 32.7149 327.577 31.7688C332.293 29.9092 336.909 27.8042 341.405 25.4625C341.688 25.311 341.437 24.8845 341.154 25.032C337.128 27.1208 333.018 29.0382 328.796 30.7404C326.856 31.5376 324.9 32.2804 322.929 32.9687C322.036 33.2876 317.348 35.4481 316.734 34.6828C316.531 34.4356 316.18 34.7904 316.379 35.0376H316.399Z" fill="white" fill-opacity="0.14"/>
<path d="M325.452 34.4594C327.838 33.9448 330.156 33.15 332.356 32.0916C332.647 31.9561 332.392 31.5255 332.105 31.6611C329.946 32.6988 327.671 33.4762 325.328 33.9771C325.013 34.0449 325.149 34.5272 325.46 34.4594H325.452Z" fill="white" fill-opacity="0.14"/>
</g>
<g opacity="0.14" clip-path="url(#clip7_30_2939)">
<path d="M19.4104 105.671C14.5795 75.7009 28.1905 44.0512 53.311 26.8929C78.4315 9.73456 111.958 7.33239 139.27 20.758C146.893 24.5013 153.931 29.3278 160.164 35.0867C166.806 41.2276 173.449 48.6087 175.731 57.5491C176.214 59.4275 179.125 58.6328 178.648 56.7484C176.607 48.7713 171.347 42.1247 165.713 36.2788C160.192 30.5847 153.94 25.6432 147.12 21.5828C133.338 13.3286 117.559 8.97831 101.481 9.00008C69.4159 9.16865 38.9754 26.7725 24.5311 55.5624C16.5825 71.2779 13.7758 89.0826 16.5059 106.471C16.8138 108.374 19.7244 107.567 19.4165 105.671H19.4104Z" fill="white"/>
<path d="M17.0071 109.464C23.1846 144.906 54.4885 172.215 89.47 177.868C108.286 180.878 127.9 177.91 144.258 167.928C159.234 158.795 170.979 144.653 177.808 128.579C186.945 107.091 187.313 82.7688 181.178 60.4328C180.665 58.5665 177.754 59.3612 178.267 61.2335C188.177 97.3142 179.397 138.807 148.074 161.775C117.96 183.828 75.219 178.88 47.4596 155.315C33.3294 143.323 23.1362 127.019 19.9418 108.669C19.6097 106.766 16.6991 107.573 17.0312 109.47L17.0071 109.464Z" fill="white"/>
<path d="M23.6494 69.9934C28.5255 66.7624 32.2964 62.1248 34.4584 56.7002L31.9403 57.3684C34.7966 59.7104 33.3775 64.4545 36.4873 67.0012C38.003 68.2354 40.5513 68.4702 41.8255 69.9331C43.4861 71.8296 41.7228 74.9542 42.1636 77.224C42.532 79.1445 43.8967 80.4268 44.73 82.1246C46.0706 84.8458 44.8327 87.8742 45.2795 90.7339C45.8049 94.1174 48.2988 96.8748 51.8616 96.2968C51.3745 95.4539 50.8833 94.6151 50.3882 93.7803C48.4498 95.9536 46.294 96.6159 43.4619 96.369C42.1818 96.2547 40.9016 96.2245 39.8931 97.1818C38.16 98.8254 38.7397 101.631 40.0079 103.353C41.1733 104.924 43.1298 105.761 43.8544 107.609C44.4583 109.211 44.5307 110.493 45.7324 111.824C47.7131 113.973 49.1503 115.352 48.2747 118.554C47.5742 121.095 45.672 123.13 43.9631 125.051C43.474 125.598 43.2868 126.658 43.9631 127.182C48.794 130.914 53.8422 135.008 54.3193 141.529C54.5246 144.304 54.3193 147.206 55.841 149.686C57.2239 151.932 59.6634 153.106 61.8434 154.43C70.3578 159.602 75.1886 170.385 85.7078 172.197C85.9315 172.254 86.1654 172.26 86.3918 172.215C86.6182 172.169 86.8312 172.072 87.0149 171.933C87.1986 171.793 87.3481 171.614 87.4522 171.408C87.5563 171.203 87.6123 170.976 87.616 170.746C87.4274 168.596 87.0925 166.462 86.6136 164.358C86.0097 160.999 86.7223 158.687 88.3165 155.755C89.4015 153.552 90.7477 151.486 92.3261 149.602C94.0229 147.724 96.1304 146.766 98.262 145.508C101.499 143.606 103.196 140.945 103.769 137.26C104.476 132.733 104.421 128.976 107.115 125.045C109.156 122.07 111.722 118.916 111.414 115.075C111.088 111.053 107.266 110.644 104.168 109.464C99.1134 107.555 95.0736 104.737 91.9819 100.282C89.7597 97.0674 87.8032 93.5816 84.6269 91.1854C77.9845 86.1945 68.1295 87.2179 62.3868 93.0337L64.9109 93.696C64.0293 90.0837 61.5052 87.6755 58.7637 85.2673C56.0222 82.8591 51.0645 78.0969 55.2009 74.5448C55.3845 74.3569 55.5159 74.1247 55.5826 73.871C55.6493 73.6173 55.6488 73.3506 55.5813 73.0971C55.5138 72.8436 55.3815 72.6118 55.1974 72.4245C55.0132 72.2372 54.7835 72.1007 54.5306 72.0283C51.0947 71.1252 50.7082 66.5436 53.492 64.6171C56.2758 62.6905 59.3011 63.9006 62.1151 65.0746C63.9266 65.8212 65.8348 66.6279 67.8094 66.2245C70.4 65.7008 70.6537 63.3768 72.7128 62.251L70.4966 61.354C71.6741 65.0024 73.5159 69.1806 77.8637 69.6261C81.7465 70.0355 83.6668 67.0734 83.9566 63.6056C83.9695 62.5996 84.034 61.5949 84.1498 60.5954C84.5363 58.5123 86.3056 58.1872 88.1836 57.9343C91.7583 57.4531 95.3614 57.2117 98.9685 57.2119C101.897 57.2119 104.844 57.6394 107.761 57.5792C108.607 57.6126 109.449 57.4366 110.211 57.0668C110.973 56.6971 111.631 56.145 112.127 55.4599C113.479 53.5996 114.131 51.059 114.983 48.9578C116.191 45.9476 117.712 42.9374 118.666 39.8428C119.989 35.5322 116.692 33.3227 112.791 32.7567C109.504 32.2669 106.146 32.852 103.22 34.4244C102.054 35.0265 100.925 36.3209 99.6871 36.7543C96.8128 37.7598 94.2101 34.3462 91.7887 33.2384C89.3672 32.1306 86.8672 31.9922 84.2163 31.8417C82.1692 31.7212 78.8903 31.7212 77.8275 29.4636C76.8553 27.4106 78.697 26.2486 79.8625 24.9843C80.4396 24.3073 80.9361 23.5659 81.3419 22.7748C81.7646 22.0524 82.0726 21.1011 83.0146 20.7519C83.5581 20.5472 84.796 20.6737 85.3938 20.5954C87.491 20.3805 89.4965 19.6275 91.215 18.41C91.6256 18.0969 95.3514 13.2565 94.4758 13.0578C96.3719 13.4852 97.1751 10.5834 95.279 10.1559C94.7257 9.9897 94.1335 10.0053 93.5898 10.2005C93.0461 10.3956 92.5798 10.7599 92.2597 11.2396C90.744 13.1661 90.895 15.3215 88.4131 16.658C84.8805 18.5244 80.7199 16.5677 78.8359 20.77C77.3866 24.009 73.0751 26.1884 74.8625 30.2703C76.9036 34.9723 82.1632 34.581 86.4264 34.9663C89.1449 35.1915 91.7229 36.266 93.7935 38.0367C95.3937 39.3973 96.7403 40.6135 99.0048 40.186C101.07 39.7947 102.568 38.2173 104.331 37.1758C106.974 35.6312 110.099 35.1206 113.099 35.7429C113.431 35.8212 114.838 36.0861 115.104 36.4292C115.804 37.3143 115.617 38.8374 115.43 39.7646C115.194 40.9687 114.427 42.233 113.956 43.3769C112.785 46.2607 111.831 49.3973 110.381 52.1788C109.53 53.7983 108.854 54.4786 106.915 54.4184C105.617 54.3763 104.319 54.2197 103.02 54.1595C99.7376 54.017 96.4492 54.0612 93.1715 54.292C89.0713 54.587 82.5859 54.2318 81.3057 59.1926C80.8226 61.053 81.6076 64.1294 80.3516 65.6827C79.0956 67.236 76.662 66.2847 75.5811 65.0806C74.5002 63.8765 73.9145 62.0283 73.4012 60.4389C73.337 60.2184 73.2237 60.0153 73.0697 59.8447C72.9157 59.674 72.7251 59.5403 72.512 59.4534C72.2989 59.3666 72.0688 59.3289 71.839 59.3432C71.6093 59.3574 71.3857 59.4233 71.185 59.5358C69.7478 60.3185 68.8481 62.6785 67.3747 63.1481C65.3518 63.7923 62.4895 61.7754 60.69 61.1252C59.2748 60.5695 57.7491 60.3509 56.2342 60.4868C54.7193 60.6227 53.2572 61.1093 51.9642 61.9079C46.9522 65.1529 47.7372 73.2384 53.7215 74.8158L53.0572 72.2992C50.1466 74.8037 50.1225 79.006 51.9401 82.1848C54.6031 86.8326 60.6719 88.9097 61.9883 94.3702C62.0616 94.6219 62.1991 94.8503 62.3873 95.0332C62.5755 95.2161 62.8081 95.3473 63.0622 95.414C63.3164 95.4807 63.5836 95.4806 63.8377 95.4137C64.0919 95.3469 64.3243 95.2155 64.5124 95.0325C65.8697 93.6755 67.4901 92.6087 69.2748 91.8971C71.0594 91.1855 72.9709 90.844 74.8923 90.8936C76.8138 90.9432 78.7049 91.3828 80.4503 92.1855C82.1956 92.9882 83.7585 94.1372 85.0436 95.5623C87.6039 98.4702 89.3068 102.016 91.8611 104.936C94.4573 107.746 97.6484 109.945 101.203 111.372C102.815 112.064 104.47 112.63 106.136 113.178C109.258 114.226 108.413 117.254 107.115 119.554C105.388 122.612 102.888 125.129 101.879 128.585C100.871 132.04 101.583 136.014 100.068 139.337C98.4371 142.949 93.9565 143.768 91.1848 146.315C88.093 149.156 85.6595 153.413 84.1257 157.284C82.3141 161.83 84.3793 166.008 84.5907 170.613L86.5049 169.163C76.5171 167.441 71.5413 156.664 63.359 151.703C59.9412 149.632 57.6948 148.091 57.4291 143.828C57.2721 141.27 57.2722 138.831 56.3241 136.411C54.3978 131.511 50.1406 128.055 46.0947 124.924V127.055C48.6189 124.214 51.3 121.083 51.5295 117.11C51.6626 115.41 51.2706 113.71 50.4063 112.239C49.3435 110.517 47.6285 109.771 47.0186 107.718C46.5597 106.182 46.1732 105.02 45.0259 103.84C44.0235 102.817 39.3859 99.3371 43.4679 99.2769C47.0911 99.2287 49.9655 98.6749 52.5258 95.8031C52.7517 95.5652 52.8944 95.2607 52.9323 94.9352C52.9702 94.6098 52.9015 94.2809 52.7363 93.9976C52.5712 93.7143 52.3185 93.492 52.016 93.3638C51.7136 93.2356 51.3776 93.2086 51.0584 93.2866C47.393 93.8886 48.3109 87.7056 48.3713 85.8513C48.5175 84.0089 48.1607 82.1615 47.3387 80.5051C46.0042 78.0126 44.9233 76.8386 45.3339 73.7261C45.5392 72.2149 45.7385 70.7158 45.0803 69.283C43.6129 66.05 39.4825 66.4473 37.6347 63.7802C35.7869 61.1132 36.8919 57.4768 34.0719 55.1589C33.8813 54.9809 33.6484 54.8542 33.3951 54.7906C33.1418 54.7271 32.8765 54.7288 32.6241 54.7956C32.3717 54.8625 32.1405 54.9922 31.9522 55.1727C31.7639 55.3531 31.6247 55.5783 31.5478 55.8272C29.6489 60.5427 26.3627 64.5746 22.1216 67.3925C20.5153 68.4642 22.025 71.077 23.6433 69.9934H23.6494Z" fill="white"/>
<path d="M146.462 25.3938C144.329 27.8989 142.4 30.5705 140.696 33.383C140.503 33.73 140.452 34.1376 140.553 34.5211C140.655 34.9046 140.9 35.2344 141.239 35.442C145.013 37.9965 148.244 41.2702 150.744 45.0747C152.229 47.3685 153.763 50.144 156.782 50.4932C159.463 50.8062 162.283 49.2891 163.425 52.9857C164.137 55.2795 162.966 57.6816 161.74 59.554C160.091 62.0765 157.851 64.6172 159.089 67.8141C159.94 70.0055 162.018 71.1614 164.294 70.4691C165.961 69.9634 166.667 68.4101 167.821 70.2524C168.582 71.4564 169.107 72.5702 170.236 73.5576C171.365 74.5449 172.597 74.8399 173.787 75.5744C175.448 76.61 174.512 77.9826 175.502 79.3914C176.095 80.1503 176.962 80.6491 177.917 80.7822C178.376 80.8785 181.408 80.7822 181.54 81.1374C182.277 82.8954 185.2 82.1247 184.451 80.3366C183.364 77.7358 181.528 78.4703 179.264 77.9285C177.416 77.4649 178.237 75.8514 177.452 74.5269C176.812 73.4071 175.605 73.1422 174.505 72.7207C171.957 71.7274 171.299 70.2704 170.109 67.9947C169.584 67.0073 169.065 66.1885 167.887 65.9718C166.444 65.6708 165.701 66.6099 164.445 67.0314C159.91 68.5726 162.573 63.5757 163.733 61.908C165.544 59.3252 167.066 56.2848 166.462 53.0398C165.949 50.2704 163.811 47.7238 160.931 47.3084C158.213 46.917 156.366 48.1271 154.463 45.436C153.37 43.8947 152.434 42.2632 151.263 40.7641C148.837 37.7054 145.956 35.0354 142.718 32.8472L143.262 34.9062C144.825 32.3093 146.594 29.8411 148.552 27.5251C149.802 26.0561 147.676 23.9128 146.42 25.3999L146.462 25.3938Z" fill="white"/>
<path d="M147.972 48.2716C147.712 46.2246 146.16 44.563 143.932 44.9001C141.414 45.2854 140.55 48.5666 140.098 50.6436C139.548 53.1662 139.832 55.9958 142.018 57.6876C144.023 59.2469 145.931 58.8435 145.357 62.504C145.067 64.3703 144.186 65.8273 144.228 67.7959C144.233 68.0587 144.307 68.3155 144.441 68.5416C144.575 68.7677 144.766 68.9554 144.994 69.0862C145.223 69.2171 145.482 69.2869 145.745 69.2886C146.009 69.2904 146.268 69.2242 146.498 69.0964C148.305 68.0182 149.835 66.5352 150.967 64.7649C152.099 62.9947 152.802 60.9859 153.02 58.8977C153.37 55.0085 152.253 49.584 148.841 47.3504L149.59 48.6509C149.59 48.5365 149.59 48.4221 149.59 48.3077C149.512 46.3751 146.492 46.3631 146.571 48.3077C146.613 49.4335 147.127 49.5118 147.779 50.2463C149.143 51.7695 149.705 54.4245 149.953 56.3932C150.197 58.3756 149.858 60.3863 148.977 62.18C148.096 63.9738 146.71 65.4732 144.989 66.4955L147.259 67.7959C147.187 64.5027 150.031 61.0711 147.863 57.8862C146.957 56.5316 145.593 56.3209 144.313 55.4781C142.863 54.5208 142.749 53.407 142.966 51.7815C143.036 51.1031 143.202 50.4381 143.461 49.8068C143.454 49.6079 143.486 49.4096 143.557 49.2234C143.627 49.0372 143.734 48.8668 143.871 48.7223C144.008 48.5777 144.173 48.4618 144.356 48.3813C144.538 48.3008 144.735 48.2574 144.935 48.2535C145.182 50.1499 148.201 50.174 147.954 48.2535L147.972 48.2716Z" fill="white"/>
<path d="M181.317 92.7206C178.298 91.7874 177.344 88.5785 173.823 88.3076C170.605 88.0547 167.579 89.7826 164.977 91.4563L167.042 91.9981C165.399 89.0662 162.289 85.3756 158.509 87.3985C157.411 88.0556 156.577 89.073 156.148 90.2763C155.846 90.9807 155.683 91.7332 155.387 92.4376C154.608 94.298 154.18 94.4063 152.229 93.9307C147.924 92.8771 144.276 93.2383 140.587 95.9716C136.916 98.8543 134.09 102.668 132.405 107.013C131.118 110.728 135.068 112.865 138.141 113.431C140.134 113.792 142.435 113.66 144.222 114.731C146.77 116.267 145.297 119.337 146.034 121.697C147.404 125.948 152.181 124.172 155.242 125.881C160.212 128.657 151.698 134.491 151.015 138.127C150.544 140.728 151.384 143.485 151.245 146.134C151.09 148.751 150.511 151.325 149.53 153.756C147.403 159.094 143.47 163.522 138.413 166.273C136.704 167.2 138.226 169.801 139.935 168.874C144.213 166.555 147.801 163.151 150.336 159.006C152.87 154.86 154.261 150.121 154.367 145.267C154.403 142.919 153.588 140.451 154.276 138.175C155.484 134.256 160.641 132.329 160.043 127.597C159.626 124.268 156.474 122.781 153.485 122.257C152.652 122.208 151.823 122.103 151.003 121.944C149.192 121.342 148.854 120.029 148.86 118.332C148.866 116.634 148.751 115.117 147.7 113.756C145.508 110.908 141.734 111.101 138.564 110.445C137.157 110.156 135.249 109.464 135.484 107.609C135.605 106.712 136.819 105.255 137.26 104.527C138.547 102.217 140.253 100.166 142.29 98.4762C144.838 96.5376 147.869 95.7188 150.973 96.67C152.718 97.2119 154.47 97.7718 156.112 96.67C157.32 95.8512 157.827 94.5629 158.304 93.2444C158.781 91.9259 158.799 90.9867 160.194 90.4148C162.332 89.5418 163.485 91.8115 164.421 93.5213C164.626 93.8627 164.957 94.1105 165.343 94.2117C165.729 94.313 166.139 94.2597 166.486 94.0632C169.149 92.3473 172.821 90.0234 175.81 92.257C177.47 93.4912 178.431 94.9963 180.502 95.6345C182.362 96.2365 183.153 93.3046 181.305 92.7326L181.317 92.7206Z" fill="white"/>
<path d="M59.4948 74.7255C58.1301 79.5419 63.3112 82.5521 67.4899 81.1433C67.8685 81.0246 68.1879 80.7674 68.384 80.4234C68.5801 80.0793 68.6382 79.674 68.5466 79.289L67.7677 74.6713C67.5623 73.4672 67.4536 72.0825 66.3425 71.3119C64.6095 70.1078 61.409 70.758 60.0081 72.1908C58.6071 73.6237 60.781 75.7068 62.1397 74.3161C62.3765 74.1161 62.652 73.967 62.9491 73.8779C63.2462 73.7888 63.5586 73.7617 63.8667 73.7983C64.7484 73.7983 64.6095 74.0271 64.7604 74.894C65.0563 76.6219 65.3643 78.3558 65.636 80.0897L66.6867 78.2414C64.7785 78.8917 61.6505 78.2053 62.4114 75.5262C62.9368 73.6599 59.996 72.8651 59.4948 74.7255Z" fill="white"/>
<path d="M15.8837 136.58C12.8815 139.568 10.7504 143.314 9.71836 147.417C8.96958 150.499 8.20269 154.906 10.763 157.356C12.164 158.699 14.3017 156.574 12.8947 155.231C10.9623 153.377 12.4176 148.524 13.1604 146.393C14.1772 143.502 15.8275 140.874 17.9912 138.699C19.3499 137.308 17.2183 135.183 15.8596 136.568L15.8837 136.58Z" fill="white"/>
<path d="M17.8283 162.727C20.7258 163.536 23.7657 163.705 26.7353 163.22C28.6495 162.925 27.8343 160.024 25.9321 160.319C23.4914 160.683 21.0005 160.514 18.6315 159.825C16.7595 159.301 15.9564 162.233 17.8283 162.727Z" fill="white"/>
<path d="M37.2183 160.854L41.252 159.265C41.6315 159.15 41.9523 158.894 42.1478 158.55C42.3434 158.206 42.3989 157.8 42.3027 157.417C42.1955 157.033 41.9405 156.707 41.5933 156.509C41.2461 156.312 40.8348 156.259 40.4489 156.363L36.4151 157.952C36.036 158.07 35.7161 158.327 35.5208 158.672C35.3256 159.016 35.2696 159.422 35.3644 159.807C35.473 160.189 35.7285 160.514 36.0755 160.71C36.4226 160.906 36.8332 160.958 37.2183 160.854Z" fill="white"/>
<path d="M53.7279 154.551C55.0491 154.434 56.2808 153.836 57.188 152.871C57.4715 152.589 57.6307 152.205 57.6307 151.806C57.6307 151.406 57.4715 151.023 57.188 150.74C56.9045 150.457 56.52 150.299 56.1192 150.299C55.7183 150.299 55.3338 150.457 55.0504 150.74C54.9236 150.886 54.7842 151.021 54.6337 151.143C54.839 150.981 54.3921 151.288 54.3438 151.318L54.0781 151.444C54.217 151.384 54.1989 151.384 54.0358 151.444C53.9755 151.444 53.432 151.577 53.7279 151.541C53.3299 151.548 52.9504 151.709 52.669 151.99C52.3875 152.271 52.226 152.649 52.2183 153.046C52.2183 153.774 52.8885 154.653 53.7279 154.551Z" fill="white"/>
<path d="M69.3978 147.549C71.5671 146.977 73.6205 146.034 75.4666 144.762C77.0547 143.666 75.5451 141.053 73.9448 142.161C72.3215 143.296 70.5105 144.138 68.5947 144.647C66.7167 145.147 67.5137 148.055 69.3978 147.549Z" fill="white"/>
<path d="M86.7346 140.385C89.0963 139.469 91.3941 138.397 93.6126 137.176C95.3155 136.237 93.7937 133.642 92.0909 134.581C90.1028 135.68 88.0453 136.649 85.9315 137.483C84.1199 138.187 84.9231 141.095 86.7346 140.385Z" fill="white"/>
<path d="M106.457 131.523L111.698 128.729C113.413 127.814 111.885 125.213 110.177 126.128L104.935 128.946C103.22 129.861 104.742 132.462 106.457 131.541V131.523Z" fill="white"/>
<path d="M119.681 124.593L124.603 121.523C126.245 120.499 124.729 117.91 123.075 118.922L118.153 121.992C116.511 123.016 118.027 125.605 119.681 124.593Z" fill="white"/>
<path d="M134.222 116.303C136.68 115.387 138.964 114.06 140.973 112.377C142.465 111.131 140.321 109.012 138.842 110.246C137.221 111.595 135.383 112.661 133.407 113.401C131.595 114.081 132.386 117.013 134.204 116.303H134.222Z" fill="white"/>
<path d="M151.492 105.743L156.788 102.221C158.4 101.155 156.885 98.5484 155.266 99.6261C153.495 100.794 151.73 101.966 149.971 103.142C148.358 104.214 149.868 106.821 151.492 105.743Z" fill="white"/>
<path d="M164.837 97.0373C166.251 96.3108 167.544 95.3728 168.672 94.2559C170.055 92.8892 167.923 90.764 166.54 92.1246C165.591 93.0588 164.501 93.8388 163.31 94.4365C162.964 94.6385 162.712 94.9692 162.611 95.3559C162.51 95.7426 162.567 96.1536 162.769 96.4985C162.972 96.8434 163.304 97.0939 163.691 97.195C164.079 97.296 164.492 97.2393 164.837 97.0373Z" fill="white"/>
<path d="M175.598 88.3078L178.068 85.9538C178.209 85.8138 178.32 85.6477 178.396 85.4648C178.472 85.282 178.511 85.086 178.511 84.8881C178.511 84.6902 178.472 84.4942 178.396 84.3114C178.32 84.1286 178.209 83.9624 178.068 83.8225C177.928 83.6826 177.761 83.5716 177.578 83.4958C177.394 83.4201 177.198 83.3811 176.999 83.3811C176.801 83.3811 176.604 83.4201 176.421 83.4958C176.238 83.5716 176.071 83.6826 175.931 83.8225L173.461 86.2006C173.177 86.4832 173.018 86.8665 173.018 87.2662C173.018 87.6659 173.177 88.0492 173.461 88.3318C173.744 88.6144 174.129 88.7732 174.53 88.7732C174.931 88.7732 175.315 88.6144 175.598 88.3318V88.3078Z" fill="white"/>
<path d="M185.768 78.5002C186.223 78.2184 186.617 77.8492 186.928 77.4141C187.239 76.979 187.461 76.4866 187.579 75.9656C187.632 75.775 187.646 75.576 187.622 75.3799C187.598 75.1837 187.535 74.9943 187.437 74.8223C187.339 74.6504 187.208 74.4994 187.052 74.3779C186.895 74.2564 186.716 74.1669 186.525 74.1143C186.334 74.0617 186.135 74.0472 185.938 74.0715C185.741 74.0959 185.551 74.1586 185.379 74.2562C185.206 74.3537 185.055 74.4842 184.933 74.6401C184.811 74.796 184.721 74.9743 184.669 75.1649C184.669 75.2311 184.669 75.2913 184.626 75.3575C184.584 75.4237 184.505 75.6826 184.626 75.4539C184.747 75.2251 184.626 75.4538 184.596 75.496L184.469 75.7067C184.348 75.8933 184.469 75.6525 184.524 75.6405C184.578 75.6285 184.415 75.7549 184.385 75.779C184.355 75.803 184.125 76.0017 184.318 75.8572C184.511 75.7127 184.246 75.8934 184.228 75.9054C183.882 76.1066 183.63 76.4365 183.528 76.8227C183.426 77.2088 183.482 77.6195 183.684 77.9644C183.886 78.3093 184.217 78.5601 184.604 78.6618C184.992 78.7634 185.403 78.7074 185.749 78.5062L185.768 78.5002Z" fill="white"/>
<path d="M194.602 72.4859L197.434 70.9025C199.125 69.9573 197.609 67.3565 195.906 68.3017L193.074 69.8851C191.383 70.8303 192.899 73.4311 194.602 72.4859Z" fill="white"/>
<path d="M206.256 63.2143C207.828 62.5155 209.138 61.3398 210 59.8548C210.984 58.1812 208.376 56.67 207.391 58.3377C206.777 59.3673 205.842 60.1686 204.728 60.6195C204.383 60.8216 204.133 61.152 204.032 61.538C203.931 61.9241 203.988 62.3343 204.191 62.6785C204.4 63.0153 204.731 63.2588 205.116 63.3586C205.5 63.4584 205.909 63.4067 206.256 63.2143Z" fill="white"/>
<path d="M214.348 51.8839C217.778 47.525 220.779 42.3535 219.819 36.6039C218.985 31.631 215.411 27.9947 210.362 27.4046C197.512 25.9116 185 33.112 174.922 40.1319C173.34 41.2336 174.843 43.8465 176.444 42.7327C184.36 37.236 193.038 32.0223 202.742 30.6135C207.862 29.873 214.312 29.6081 216.407 35.4299C218.279 40.6135 215.35 45.7972 212.18 49.7827C210.972 51.2878 213.116 53.4371 214.318 51.914L214.348 51.8839Z" fill="white"/>
<path d="M13.668 139.181C14.4562 138.312 15.4763 137.686 16.6087 137.375L14.7006 135.924C14.8284 137.751 14.8021 139.585 14.6221 141.408C14.4288 143.335 17.4481 143.323 17.6413 141.408C17.8214 139.585 17.8477 137.751 17.7199 135.924C17.7153 135.693 17.6584 135.467 17.5536 135.261C17.4488 135.055 17.2987 134.876 17.1146 134.737C16.9305 134.597 16.7171 134.501 16.4904 134.455C16.2637 134.409 16.0296 134.415 15.8056 134.473C14.1672 134.919 12.6878 135.816 11.5363 137.061C10.2139 138.482 12.3455 140.614 13.668 139.193V139.181Z" fill="white"/>
</g>
<defs>
<clipPath id="clip0_30_2939">
<rect width="150.371" height="86.0484" fill="white" transform="matrix(-1 0 0 1 355.952 63.4639)"/>
</clipPath>
<clipPath id="clip1_30_2939">
<rect width="139.135" height="52.6457" fill="white" transform="translate(199 159.354)"/>
</clipPath>
<clipPath id="clip2_30_2939">
<rect width="56.1177" height="61.1708" fill="white" transform="matrix(-0.992877 -0.119142 -0.119142 0.992877 344.006 411.686)"/>
</clipPath>
<clipPath id="clip3_30_2939">
<rect width="58.8787" height="60.9326" fill="white" transform="translate(24.2139 420.011) rotate(-14.4558)"/>
</clipPath>
<clipPath id="clip4_30_2939">
<rect width="309.322" height="150.268" fill="white" transform="translate(30 221.093) rotate(-0.20235)"/>
</clipPath>
<clipPath id="clip5_30_2939">
<rect width="76.5285" height="23.0128" fill="white" transform="matrix(-1 0 0 1 104.528 197)"/>
</clipPath>
<clipPath id="clip6_30_2939">
<rect width="76.5285" height="23.0128" fill="white" transform="translate(265 25)"/>
</clipPath>
<clipPath id="clip7_30_2939">
<rect width="211" height="170" fill="white" transform="translate(9 9)"/>
</clipPath>
</defs>
</svg>
