<svg width="462" height="76" viewBox="0 0 462 76" fill="none" xmlns="http://www.w3.org/2000/svg">
<path d="M133.939 73.8899C133.318 74.1108 132.782 74.4395 132.38 74.8467C132.089 75.1743 130.694 75.4758 130.911 75.2661C131.129 75.0564 131.836 74.4142 131.963 74.27C132.089 74.1259 131.31 73.772 131.165 73.5361L130.965 73.4312L130.458 73.1691L129.624 72.278C129.497 72.1469 128.826 72.5794 128.645 72.8022V73.0774C128.647 73.3984 128.534 73.7143 128.319 73.9948C128.083 74.3487 128.029 75.3054 127.938 75.3971C127.847 75.4888 127.521 75.3971 127.43 75.2661C127.34 75.135 126.796 74.768 126.578 74.5977C126.361 74.4273 127.412 74.0472 127.539 73.9162C127.666 73.7851 127.648 73.5623 127.249 73.7327C126.85 73.9031 125.654 73.4051 125.436 73.4575C125.218 73.5099 125.436 74.0865 125.581 74.27V74.4535V74.637C125.581 74.8205 124.983 74.9122 124.312 74.8467H123.659C123.659 75.2661 123.369 75.5413 123.224 75.4888C122.74 75.4141 122.24 75.4141 121.756 75.4888L121.466 75.1088C121.973 75.1088 122.336 74.886 122.282 74.7287C122.227 74.5715 121.701 74.2438 121.393 74.4797C120.853 74.8436 120.2 75.1088 119.49 75.2529C118.916 75.2805 118.341 75.2805 117.767 75.2529C117.93 75.166 118.127 75.12 118.329 75.1219C118.638 75.1219 119.544 74.8205 119.544 74.5715C119.544 74.3225 120.849 74.0341 121.085 74.0079C121.466 73.9464 121.828 73.8353 122.155 73.6802V73.6147C122.155 73.5361 121.883 73.4051 121.81 73.4182C120.577 73.7234 119.288 73.8913 117.985 73.9162H117.097C116.755 74.2548 116.345 74.5551 115.882 74.8074C115.664 74.886 115.193 74.4666 115.066 74.4011C114.784 74.293 114.493 74.1967 114.196 74.1128C113.942 74.0472 113.362 73.7851 113.507 73.6934C113.652 73.6016 114.196 73.4443 114.395 73.5099V73.6016L114.704 74.0734C115.223 74.0271 115.734 73.9392 116.226 73.8113C116.45 73.6596 116.592 73.4551 116.625 73.2347C116.625 73.0643 115.646 72.7629 115.32 72.7236V72.658C115.03 71.7013 114.16 72.2386 113.996 72.5663C113.706 73.156 112.764 73.2085 112.184 73.5361L111.658 73.8113C111.313 74.1783 110.969 74.3224 110.896 74.139V73.9686V73.6541C110.28 73.4706 109.355 73.1822 108.866 72.9988L108.775 72.7759C108.54 72.2124 107.959 72.1993 107.198 72.1993C106.872 72.1993 106.491 71.9503 106.237 72.0027C105.983 72.0551 105.856 72.3304 105.639 72.5007C105.349 72.5007 105.331 72.6187 105.639 72.7366C105.947 72.8546 106.437 73.2084 106.201 73.3526C105.965 73.4968 104.243 72.9856 104.388 72.8284L104.479 72.6711C104.769 72.1862 104.37 71.911 103.554 72.1076C102.738 72.3042 102.72 71.911 102.321 71.8848H101.814C100.964 71.943 100.121 72.0481 99.2937 72.1993L98.8586 72.0552L98.3328 71.8586C97.7765 71.9174 97.2255 72.0005 96.6831 72.1076C95.9392 72.1003 95.2006 72.0165 94.4894 71.8586C94.1631 71.8586 93.3473 71.8586 92.9484 71.8586C92.5496 71.8586 91.2987 71.7799 90.9361 71.9896C90.5729 72.1428 90.16 72.2234 89.7396 72.2234C89.3191 72.2234 88.9062 72.1428 88.543 71.9896L87.6366 72.16L87.002 72.2648C86.2312 72.2066 85.4565 72.1803 84.6815 72.1862C83.6416 72.2661 82.6115 72.4019 81.5995 72.5925C80.8744 72.7235 78.6082 72.409 77.7199 72.5007L76.8497 72.1993L76.197 71.9896L73.677 72.409C73.0734 72.4387 72.4677 72.4387 71.8641 72.409C71.1668 72.4727 70.4638 72.499 69.7611 72.4876C69.7611 72.3828 69.3804 72.2124 69.181 72.3173C68.9816 72.4221 68.2745 72.5663 68.0207 72.409L67.7669 72.291L67.6037 72.2124C67.3663 72.1779 67.1196 72.2108 66.9148 72.3042C66.7698 72.3959 66.2803 72.5663 66.1353 72.4745C65.9902 72.3828 65.2832 72.5532 65.1382 72.6187C64.5843 72.7283 64.0211 72.8115 63.4521 72.8677L62.7632 72.7104C62.4188 72.6318 62.0743 72.5138 61.748 72.4221C61.4217 72.3304 60.9322 71.8848 60.3339 72.3042C60.1631 72.3197 59.9901 72.2919 59.8444 72.2255C59.1918 71.793 58.8836 71.662 58.2128 72.3304L57.7596 72.7759C57.4332 72.2517 57.0525 71.911 56.9075 72.042C56.7625 72.1731 56.2367 72.4352 56.1279 72.291C55.8828 72.0617 55.5659 71.8775 55.2033 71.7537C54.9133 71.7537 54.1881 72.1862 54.0068 72.3173C53.8255 72.4483 53.2273 72.2255 53.1366 72.3173C53.046 72.409 52.8647 72.4614 52.9191 72.1993C52.9734 71.9372 51.8494 72.3697 51.7769 72.3959C51.0336 72.5401 51.0155 71.7144 50.0909 71.9896L49.6014 72.1338C49.064 72.1559 48.5253 72.1559 47.9879 72.1338C47.7885 72.1338 47.0633 72.2255 46.5919 72.2386C46.1206 72.2517 44.779 72.0027 44.4889 72.2386L44.1626 72.3566L43.9813 72.4352C43.5314 72.3427 43.1035 72.2012 42.7123 72.0158C42.3497 71.8455 40.5186 72.3042 40.3373 72.1469C40.1561 71.9896 39.4309 71.7275 39.1952 71.8979C38.9595 72.0683 38.1618 71.7275 38.0168 71.8061L37.908 71.8848C37.7811 71.9765 37.6542 72.16 37.5273 72.16C37.4004 72.16 36.4214 72.3435 36.4758 71.8717V71.7668C36.9653 71.6227 37.1647 71.4261 36.9472 71.3605C36.7296 71.295 36.0226 71.2164 35.8594 71.3605C35.6963 71.5047 34.953 71.8848 34.9711 71.5178V71.3344C34.9523 71.2479 34.9023 71.1665 34.8261 71.0984H34.4091C33.9921 71.0984 33.7202 70.9805 33.829 70.7053L33.1038 70.8232H32.9769C32.8681 70.915 32.3967 70.9018 31.9435 70.8232C31.0536 70.7438 30.1562 70.7175 29.2604 70.7446C28.7709 70.7446 27.1755 70.3121 26.7585 70.3383C26.3416 70.3645 25.2538 70.5218 25.0907 70.2334C24.9275 69.9451 23.042 69.7748 22.8608 69.801L21.9724 69.0146C20.4133 68.8967 19.0174 68.7787 18.8542 68.7394C18.691 68.7001 18.0021 68.7394 17.4582 68.7394C16.9144 68.7394 14.5938 68.8049 13.5967 68.8574L13.3973 68.1103C13.3973 68.0317 12.9803 67.9007 12.8897 67.9269L12.3277 68.1234C11.8457 68.0057 11.3929 67.8331 10.9861 67.6123C10.524 67.4264 10.0383 67.2728 9.53576 67.1536C9.10425 67.0341 8.65343 66.9548 8.19419 66.9177C8.06659 66.9242 7.93906 66.9043 7.82664 66.8602C7.71421 66.8161 7.62158 66.7496 7.55967 66.6687L7.37838 66.5377C7.17514 66.4772 6.94709 66.4772 6.74385 66.5377C6.1666 66.704 5.55225 66.7928 4.93092 66.7998C3.93382 66.7998 4.42331 66.59 4.47769 66.3017C4.53208 66.0134 3.87943 65.9741 4.67712 65.9086C5.04689 65.8728 5.40732 65.7977 5.74675 65.6858C6.12746 65.5678 6.05495 65.4499 5.74675 65.2664L5.43854 65.0829L6.81637 64.2966C7.2696 64.0475 7.79536 63.0646 7.30587 62.986H6.96141H6.54443C6.04528 63.1108 5.50259 63.1108 5.00344 62.986C4.6046 62.8549 4.71337 61.6754 4.85841 61.2561C5.04719 60.7033 5.19247 60.1432 5.29352 59.5785C4.94581 59.6717 4.6347 59.8246 4.38705 60.0241L3.91569 59.5916L3.68002 59.3688C3.83246 59.0746 4.03984 58.7968 4.2964 58.5432L3.86131 58.4121H3.62562C3.08174 58.5825 2.75542 58.5432 2.90046 58.3073V58.1238V57.5996C2.57132 57.1876 2.31547 56.7473 2.13902 56.289C2.18369 56.0353 2.31473 55.7935 2.52038 55.5854C2.72604 55.3772 2.99989 55.2092 3.31742 55.0964C4.04259 54.8867 4.04259 53.6809 3.51684 53.7858L3.19052 53.9431L2.86419 54.1003C2.48348 54.2576 1.7583 54.0086 1.23256 53.563L1.5045 53.1829C1.55997 53.0491 1.62657 52.9178 1.70392 52.7897C1.95773 52.5145 2.26593 52.2524 2.556 51.9903C2.84607 51.7282 3.2449 52.3835 3.62562 51.9903L3.7344 51.8724C4.18763 51.8724 4.13323 51.6758 3.62562 51.584V51.4661C3.62562 51.2826 3.82504 51.0598 4.04259 50.8894C4.26015 50.7191 4.4777 50.7977 4.659 50.7322C4.84029 50.6667 5.221 49.9982 4.7859 49.9196C4.58892 49.9024 4.40267 49.8453 4.24868 49.7549C4.0947 49.6644 3.97926 49.5444 3.91569 49.4085L3.80692 49.2643C3.04549 49.2643 3.118 49.0284 3.97008 48.845C4.82215 48.6615 7.10643 47.8751 8.15793 48.2945L9.46324 48.1634C9.71705 48.1634 10.2609 48.478 10.3697 48.7008L10.6235 49.2512C11.258 49.094 11.5844 48.7401 11.3668 48.478V48.2552C11.5 47.5708 11.6876 46.8926 11.9288 46.2238V46.0796C12.2385 45.9587 12.5596 45.8536 12.8897 45.7651C13.071 45.7651 13.5423 45.3064 13.8686 45.3064C14.3518 45.2864 14.8313 45.2337 15.3009 45.1491C15.5398 45.0429 15.7591 44.9152 15.9535 44.7691C16.0985 44.6773 16.7875 45.0443 16.8781 45.1098C16.9688 45.1754 17.5489 45.2409 17.6033 44.9656C17.6577 44.6904 18.0928 44.2317 18.5097 44.4021C18.7593 44.4354 19.0157 44.4304 19.2624 44.3875C19.5091 44.3446 19.7406 44.2647 19.9419 44.1531C19.9173 44.1216 19.9019 44.0867 19.8968 44.0507C19.8917 44.0147 19.897 43.9783 19.9123 43.9438C19.9276 43.9093 19.9527 43.8775 19.9859 43.8504C20.0191 43.8232 20.0597 43.8014 20.1051 43.7861H20.232C20.8122 43.9303 21.4648 44.4808 21.6642 43.6027C21.9889 43.6204 22.3105 43.6599 22.6251 43.7206C23.2385 43.6922 23.8461 43.6175 24.438 43.4978C24.7643 43.4978 25.7977 43.4978 26.2509 43.4978C26.7042 43.4978 27.6106 42.9343 27.248 42.8294C26.8855 42.7246 26.124 42.1479 26.3053 41.781C26.4866 41.414 24.4924 40.3787 24.6918 40.3524C24.8912 40.3262 25.0544 39.9986 24.5287 39.7496V39.0026C24.0388 39.0003 23.5602 38.8956 23.1508 38.7011L22.9877 38.557L22.6069 38.2031C22.8335 37.7186 22.8335 37.1936 22.6069 36.7091L22.4619 36.3159V36.1848C22.4619 36.0276 23.0239 36.0538 23.5678 36.2635C24.3152 36.344 25.0788 36.2618 25.7614 36.0276C25.7614 35.962 25.6527 35.6999 25.3082 35.5951H25.145L24.7825 35.7261C24.3111 35.8965 24.0029 35.8834 24.0935 35.7261V35.5689V35.3985C24.0935 35.215 24.0935 35.0971 24.0935 35.1233C23.7776 35.1774 23.4486 35.1774 23.1327 35.1233C22.8608 35.1233 23.4046 34.2845 23.6041 33.8913L24.3655 33.7996C24.5031 33.7878 24.6375 33.7613 24.7643 33.721L24.6556 32.8298C25.834 32.489 26.4685 32.1089 26.2328 31.991C25.6726 31.945 25.107 31.945 24.5468 31.991C24.3474 31.991 22.9151 31.6503 21.8093 31.3488L20.6671 31.493C20.1414 31.493 20.087 31.3619 19.9419 31.0998L19.7244 30.6935C19.535 30.8251 19.3031 30.9204 19.0498 30.9708C18.7966 31.0211 18.5299 31.0249 18.2741 30.9819C17.5002 30.8166 16.7528 30.5925 16.0442 30.3135L16.443 29.9727C16.2569 29.7112 16.032 29.4651 15.7722 29.2388C15.6634 29.1602 15.2646 29.0553 15.174 29.1602L15.0289 29.2388L14.8295 29.3437C14.5757 29.4223 14.0499 29.5664 13.6511 29.6582C13.069 29.8029 12.4484 29.8477 11.8382 29.7892C11.6388 29.6844 11.2399 29.1864 11.4393 28.9767C11.6388 28.767 13.0891 29.1077 13.6511 29.1208V28.8981C13.6511 28.6753 13.4335 28.151 13.2885 28.151L10.7323 28.0855C11.0767 27.0371 11.0405 26.159 10.7323 26.1327C10.4241 26.1065 9.73519 26.5783 9.64454 26.5128L9.22756 26.2769C9.0864 26.1305 8.9592 25.9772 8.84685 25.8182C8.70181 25.6085 9.20944 24.8746 9.3726 24.6911V24.5208V24.3635C9.34629 24.2731 9.27382 24.1933 9.16965 24.1398C9.06548 24.0864 8.93726 24.0633 8.81058 24.0751H8.59304H8.41175C8.32719 24.098 8.23387 24.0973 8.15004 24.073C8.06622 24.0488 7.99794 24.0028 7.95852 23.9441L8.30297 23.6427C8.8831 23.1971 8.82871 22.9612 8.15793 23.1316H7.77722L7.54154 23.2757C6.72572 23.2757 6.00055 23.0922 5.96429 22.9088V22.7777L6.10933 21.4016C5.44832 20.9958 4.75847 20.6152 4.04259 20.2614L3.84317 19.9731C3.87587 19.5182 3.73807 19.0654 3.44433 18.6625L3.02736 18.5576C1.97586 18.3086 2.01213 17.8631 2.06651 17.3519V17.1684C2.06651 16.8146 1.52263 16.6704 0.869976 16.8408L1.28695 16.3821C1.6858 15.9496 0.978746 15.9627 0.779324 15.7924C0.579903 15.622 0.326102 16.3428 0.108551 15.7924V15.7137L0.833724 15.4385C0.761405 15.0973 0.553564 14.7786 0.235455 14.5211L0.398612 14.01C0.398612 13.8789 0.598045 13.7479 0.579915 13.6299V13.4857C0.434881 13.3285 0.47114 13.2367 0.579915 13.2629C1.05072 13.2736 1.516 13.1872 1.92148 13.014C2.26593 12.8174 1.77644 12.0572 1.92148 11.9917C2.556 12.3325 3.11801 12.398 3.7344 11.913L4.22388 11.5068C4.74963 11.7951 5.20286 11.9 5.25725 11.7427C5.6718 11.3305 6.26538 11.0306 6.94327 10.8908L7.52341 11.5985L7.81348 11.9655C8.61117 11.5592 9.13692 11.1923 8.97375 11.166C8.81059 11.1398 8.41175 10.9563 8.46614 10.8515H9.60827H9.78956C9.88893 10.8703 9.99407 10.8651 10.089 10.8367C10.1839 10.8083 10.2633 10.7583 10.3153 10.6942C10.3153 10.5632 11.0586 10.6942 11.113 10.5501C11.1674 10.4059 11.5481 10.2093 11.675 10.3666C11.7559 10.4279 11.8549 10.4752 11.9646 10.505C12.0743 10.5348 12.1918 10.5464 12.3085 10.5388C12.4253 10.5313 12.5381 10.5048 12.6387 10.4614C12.7394 10.4179 12.8251 10.3587 12.8897 10.2879L13.1616 10.0914L13.3248 9.97342C13.8289 9.95355 14.3324 10.0209 14.7932 10.17C15.2283 10.288 16.7512 9.99963 17.0594 10.17C17.3676 10.3404 18.2559 10.6025 18.6004 10.17L18.8905 9.90787L19.1624 9.64578C19.6681 9.6139 20.1771 9.66775 20.649 9.80304C20.9391 9.90789 21.5373 9.38366 21.8818 9.39677C22.3829 9.4231 22.8768 9.49801 23.3502 9.61954C23.4772 9.61954 24.0935 9.78992 24.2386 9.61954C24.3836 9.44917 25.0544 8.87255 25.3807 8.95118C25.863 8.99075 26.3514 8.95497 26.8129 8.84631C27.0667 8.76768 27.8282 8.99047 27.9551 8.92494V8.85943V8.61042C28.5749 8.72925 29.181 8.88262 29.768 9.06913V8.38764C30.273 8.26868 30.7876 8.17238 31.309 8.09932C32.5196 8.09183 33.73 8.1312 34.9348 8.21726L35.3699 8.29589C35.8232 8.37453 36.1132 8.72839 36.1314 8.13863C36.1314 8.13863 36.6571 7.96823 36.6752 7.98133C37.2191 8.44003 38.0349 8.07307 38.1981 7.98133C38.6876 7.58816 39.3765 8.1255 39.9204 7.74544L40.1198 7.61437L41.9327 7.96825C42.3988 7.87395 42.8315 7.70861 43.2018 7.48335C43.6731 7.22123 45.2866 7.6799 45.3773 7.65369V6.94601C46.2481 7.08545 47.1565 7.03526 47.9879 6.80183L48.5499 7.33916L48.8218 7.60129L50.6348 7.07707H50.9974H51.1243C51.4317 7.05438 51.7415 7.05438 52.0489 7.07707C52.4296 7.07707 53.8618 7.07707 54.1881 7.07707C54.5144 7.07707 55.584 6.82806 55.6928 6.90669C55.8016 6.98533 56.2186 7.1688 56.3092 7.06396V6.98532L56.3999 6.89357C56.5268 6.80183 56.6718 6.78873 56.7081 6.89357C56.7846 7.02877 56.9023 7.14972 57.0525 7.24741L57.7777 7.12947C58.3897 7.06673 58.9954 6.9748 59.5906 6.85426L59.6994 6.77563L60.4246 6.27761C60.9866 6.74941 61.5667 7.01154 61.7117 6.86738C61.8568 6.72322 62.3281 6.43486 62.4732 6.5135C62.6182 6.59213 62.9264 6.30382 62.9445 5.75338L63.996 6.44799L64.1773 6.56593C64.6984 6.50217 65.2261 6.47147 65.7546 6.47418C66.0628 6.47418 66.8061 6.59213 66.8242 6.47418C66.8423 6.35623 67.9482 6.29072 68.1114 6.40867C68.2745 6.52662 68.5827 6.31694 68.5646 5.80582L69.7249 6.44799C69.8336 6.51351 70.4682 6.26449 70.867 6.14654L71.0664 6.08103C71.6605 5.91906 72.2656 5.77908 72.8793 5.66163C73.6952 5.49126 75.8344 6.21209 76.0157 6.21209C76.6547 6.1653 77.29 6.09531 77.9193 6.0024C79.1924 5.92993 80.4714 5.92993 81.7445 6.0024L81.9621 5.87133L82.506 5.583C82.9799 5.74098 83.4793 5.85546 83.9926 5.92377H84.899C85.4227 5.75687 85.9618 5.61672 86.5126 5.50437C87.3826 5.40903 88.2613 5.36082 89.1413 5.36019H89.8846H90.084C90.3197 5.29466 90.5554 5.36021 90.5916 5.46506C90.6279 5.5699 91.4981 5.46506 91.625 5.46506C91.7519 5.46506 92.2777 5.15053 92.4771 5.26848C92.8068 5.44118 93.2154 5.51621 93.6192 5.47818C94.2733 5.29196 94.9545 5.16003 95.6497 5.08498L95.831 5.25536C96.2298 5.62232 96.7012 4.88838 97.1363 5.36019L97.3357 5.55681C97.8165 5.3527 98.3817 5.2784 98.9311 5.34711C99.1305 5.43885 99.7106 5.63543 99.765 5.54369C99.8194 5.45195 100.073 5.24227 100.2 5.26848C100.316 5.28774 100.436 5.2832 100.549 5.2554C100.661 5.2276 100.76 5.17767 100.835 5.11122C101.72 4.98681 102.617 4.90795 103.518 4.87528L104.569 5.08498C105.564 5.30375 106.637 5.23322 107.561 4.8884L108.05 4.67871C108.676 4.72903 109.287 4.84835 109.863 5.03255C110.023 5.08799 110.205 5.10133 110.377 5.07022C110.549 5.03912 110.701 4.96555 110.806 4.86221C111.096 4.58699 112.365 5.05876 112.455 4.95392C112.546 4.84907 112.909 4.58698 112.963 4.77046C113.018 4.95394 113.289 5.1505 113.507 4.9146C113.725 4.6787 115.211 5.03255 115.846 4.9146L116.571 4.99323L117.55 5.0981C118.258 4.85822 119.035 4.7458 119.816 4.77046C119.816 4.8622 120.215 5.07187 120.305 4.95392C120.491 4.75923 120.758 4.61238 121.067 4.53456L121.756 4.94084C122.684 4.87652 123.616 4.85461 124.548 4.87528C125.146 4.87528 127.05 4.71803 127.485 4.96703L128.01 4.52145C128.01 4.44281 128.754 4.65251 129.134 4.65251H130.277C131.527 4.58698 133.286 4.4559 134.174 4.33795L134.827 4.80977L134.972 4.90152C135.452 4.84721 135.937 4.81655 136.422 4.80977C136.785 4.80977 137.71 4.94083 137.746 4.80977C137.782 4.67872 138.997 4.74423 139.414 5.04567L140.066 4.66559L140.284 4.53456L141.843 4.73114C142.097 4.73114 143.076 4.83597 143.438 4.83597H143.765C144.006 4.85601 144.249 4.85601 144.49 4.83597C144.762 4.83597 144.979 4.67872 145.233 4.65251H145.378C145.661 4.71863 145.966 4.71863 146.248 4.65251C146.811 4.65597 147.359 4.77902 147.826 5.00635V4.45593C148.53 4.52642 149.223 4.64939 149.892 4.82289H150.708H151.343L152.92 4.35106C153.083 4.35106 153.681 4.54767 153.917 4.86221L154.697 4.69183C155.096 4.60009 155.821 4.52143 155.966 4.62627C156.6 5.11118 156.818 4.32486 157.398 4.52145L157.906 4.69183C158.596 4.71244 159.283 4.78269 159.954 4.90152L160.081 4.82289L160.861 4.36418C161.422 4.56548 162.049 4.65161 162.674 4.61319C162.837 4.52145 163.453 4.35109 163.616 4.49525C163.83 4.68492 164.06 4.86438 164.305 5.03255L165.284 4.74422C166.233 4.60858 167.204 4.57328 168.167 4.63939C169.048 4.60483 169.932 4.60483 170.814 4.63939C171.267 4.77045 172.445 4.32486 172.862 4.48213L173.986 3.56471C175.076 3.87598 176.205 4.10864 177.358 4.25932C177.721 4.25932 178.392 4.16758 178.355 4.4297C178.319 4.69181 179.733 4.18067 180.168 4.08893C180.634 4.01628 181.116 4.01628 181.582 4.08893C181.854 4.08893 182.561 3.98409 182.616 4.08893C182.67 4.19378 183.015 4.40348 183.141 4.29863C183.615 4.06883 184.167 3.9374 184.737 3.91859L185.244 4.10205L186.804 4.44281L187.166 4.28555C187.638 4.06276 188.091 3.95788 188.163 4.04962C188.504 4.25677 188.875 4.43691 189.269 4.58696L190.103 4.10205C190.385 4.11739 190.658 4.18025 190.901 4.28555C191.753 4.38345 192.626 4.32485 193.439 4.11517L193.765 3.91859C193.991 4.0073 194.167 4.14998 194.262 4.32215C194.358 4.49432 194.368 4.68526 194.291 4.86221L195.361 4.45593L196.176 4.15449C196.176 4.53455 196.176 4.6394 196.176 4.36418C196.176 4.08896 197.427 4.50835 197.482 4.49525L198.497 4.36418C199.35 4.40512 200.194 4.51053 201.017 4.67871C201.452 4.75734 202.54 4.39039 202.703 4.48213C202.866 4.57387 203.319 4.83597 203.356 4.83597C203.517 4.7919 203.665 4.72508 203.791 4.63939C204.22 4.47971 204.708 4.42018 205.187 4.46901H205.513C205.694 4.46901 206.039 4.27242 206.093 4.29863L206.637 4.60008C207.383 4.44281 208.175 4.44281 208.921 4.60008L209.556 4.73114H209.81C210.132 4.72927 210.45 4.6708 210.734 4.56076C210.915 4.45591 211.713 4.42971 211.949 4.32487C212.825 4.31907 213.699 4.37615 214.559 4.49525H215.266H215.883C216.333 4.62401 216.828 4.64692 217.297 4.56076C217.722 4.40419 218.199 4.33613 218.675 4.36418L219.055 4.48213C219.472 4.60008 219.817 4.98015 219.835 4.36418C219.985 4.3423 220.139 4.3423 220.288 4.36418C221.223 4.47449 222.171 4.51401 223.116 4.48213L223.824 4.41658C224.24 4.54323 224.671 4.64408 225.111 4.71802C225.521 4.69532 225.927 4.64711 226.325 4.57388C227.462 4.54307 228.6 4.60904 229.715 4.77046C230.368 4.90151 232.181 4.24621 232.616 4.25932C233.458 4.24067 234.293 4.14377 235.1 3.97099C235.644 3.81372 236.913 4.49524 236.913 4.48213C236.913 4.46902 237.837 4.11516 238.182 4.39038H238.526C238.889 4.39038 239.397 4.15447 239.723 4.22L240.412 4.35106C240.715 4.12832 241.109 3.98138 241.536 3.93167L241.717 4.0103L242.025 4.14137C242.297 4.32485 242.678 4.40348 242.859 4.29863C243.04 4.19379 243.476 4.07585 243.512 4.23312C243.548 4.39039 244.582 4.4166 244.763 4.23312C244.944 4.04964 245.687 3.94477 245.832 4.08893C246.065 4.29709 246.34 4.47831 246.648 4.62627C247.156 3.97099 247.954 4.50834 248.588 4.48213H248.896C249.279 4.38032 249.686 4.33573 250.093 4.35106C250.472 4.38257 250.848 4.43514 251.217 4.50833C251.561 4.60007 253.12 4.32486 253.773 4.44281L254.498 4.33795C254.897 4.27242 255.441 4.53457 255.822 4.45593L256.474 4.32487C257.109 4.41661 258.106 4.50833 258.668 4.54764L259.194 4.48213L260.118 4.39038L262.312 4.25932C262.688 4.34125 263.026 4.49522 263.291 4.7049C263.545 4.9277 264.687 4.58695 264.886 4.7049C265.086 4.82286 265.684 4.98016 265.811 4.90152C265.811 4.70494 265.448 4.36417 265.503 4.35106L266.101 4.16761C266.189 4.40536 266.379 4.61659 266.645 4.77046C266.927 4.78005 267.206 4.72502 267.442 4.61319C267.606 4.52145 268.168 4.36417 268.367 4.46901C268.566 4.57386 269.074 4.469 269.11 4.04962L270.053 4.33795C269.908 4.56074 270.289 4.6918 270.905 4.62627C271.522 4.56074 273.008 5.05879 273.135 4.98015V4.41658C273.587 4.47851 274.022 4.59364 274.422 4.75734C274.567 4.84908 275.039 5.03255 275.093 4.87528C275.12 4.81521 275.166 4.76052 275.227 4.71554C275.289 4.67057 275.364 4.63655 275.446 4.61619C275.529 4.59584 275.617 4.5897 275.704 4.59828C275.79 4.60685 275.873 4.6299 275.945 4.66559C276.326 4.84907 277.939 4.54764 278.374 4.54764C278.974 4.60824 279.545 4.76988 280.042 5.01947C280.133 5.15053 281.311 4.91463 281.475 4.78358C281.577 4.73362 281.692 4.6993 281.814 4.68279C281.935 4.66628 282.06 4.66791 282.181 4.68755C282.301 4.70718 282.415 4.74444 282.515 4.79701C282.615 4.84959 282.699 4.91634 282.762 4.99323L283.596 4.84909C284.484 4.70492 283.052 4.36417 283.704 4.31175H284.357H288.345H292.171H292.715C293.44 4.35203 294.164 4.22344 294.781 3.94479L295.361 4.4297L295.724 4.71802C295.81 4.39521 296.047 4.1036 296.395 3.89236L296.667 4.10205L297.12 4.4297L298.842 4.12829C299.564 4.05713 300.275 3.93417 300.963 3.76129C301.29 3.63023 302.523 4.01032 302.94 4.02342C303.599 3.93858 304.243 3.80236 304.861 3.61715C305.416 3.47113 305.986 3.35718 306.565 3.27639L307 3.11912L307.816 2.8046C308.179 3.17156 308.487 3.35502 308.523 3.19776C308.609 3.05781 308.758 2.94292 308.946 2.87159C309.133 2.80026 309.348 2.77666 309.557 2.8046C310.402 3.00025 311.269 3.14062 312.149 3.22399C312.621 3.22399 314.361 2.69976 315.304 2.68665H316.083C316.863 2.68665 317.606 2.608 318.368 2.6211H318.893C319.414 2.46012 319.994 2.4279 320.543 2.52939L320.797 2.45072C321.558 2.1755 321.776 2.29347 321.866 2.75217C322.643 2.66511 323.381 2.44983 324.024 2.12308L325.166 2.67354H325.293C325.42 2.73906 325.529 2.5949 325.547 2.34589C325.565 2.09688 327.033 2.34588 327.36 2.45072C327.997 2.5158 328.644 2.5158 329.281 2.45072C329.873 2.33301 330.481 2.26273 331.094 2.24107C331.402 2.24107 332.526 2.03134 333.179 2.08376C333.832 2.13619 335.735 2.08376 336.007 2.08376C336.279 2.08376 336.859 2.47694 336.932 2.37209C337.004 2.26724 337.331 2.10998 337.476 2.37209H337.675L338.002 2.45072C338.418 2.45072 339.379 2.35901 340.123 2.3197L340.558 2.1362L341.138 1.87411C341.482 2.01075 341.856 2.10382 342.244 2.14932C342.541 2.11128 342.828 2.04056 343.096 1.93962C343.709 1.94814 344.319 2.01422 344.909 2.1362C345.714 2.136 346.515 2.04765 347.284 1.87411C347.429 1.87411 348.172 2.43764 348.226 2.26726C348.321 2.11372 348.469 1.98079 348.657 1.88187C348.845 1.78294 349.065 1.72152 349.296 1.70373H349.731H350.311C350.916 1.87705 351.565 1.95306 352.215 1.9265C352.65 1.9265 354.028 1.59889 354.354 1.54646C354.68 1.49404 355.551 1.74305 355.605 1.54646C355.659 1.34988 355.895 0.982901 356.04 0.996007C356.62 1.33676 357.11 1.72993 358.107 1.32365L358.379 1.2057C358.873 1.28049 359.379 1.31131 359.884 1.29745C360.306 1.32914 360.725 1.3861 361.134 1.46779H361.298L361.878 1.38916C362.569 1.28602 363.276 1.25077 363.981 1.28433H364.452H364.815C365.304 1.02222 365.848 0.930475 366.011 1.07464C366.174 1.2188 366.718 1.4285 366.954 1.28433C367.19 1.14017 368.169 0.838724 368.422 1.0222C368.978 1.24828 369.599 1.37837 370.235 1.40228L370.852 1.46779L371.45 1.54646C371.97 1.40685 372.512 1.31437 373.063 1.27122L373.462 1.15327L373.644 1.08776C374.368 1.07006 375.087 0.986393 375.783 0.838745L376.653 1.25814L377.124 1.48091C377.995 1.48091 378.756 1.23192 378.81 1.00913C378.865 0.786328 379.934 0.943597 380.206 1.00913C380.478 1.07465 381.548 1.14016 381.911 1.19258C382.273 1.24501 383.161 0.943586 383.234 0.956691L383.814 1.25814C383.995 1.36298 385.391 1.57267 385.192 1.4154C384.993 1.25813 385.011 1.11395 385.645 1.31053L386.316 0.851863C386.606 0.668383 387.567 0.851863 388.22 0.851863H388.709C388.967 1.01737 389.253 1.15828 389.561 1.27122C389.688 1.27122 390.594 1.27121 391.483 1.34985L392.099 0.864942L392.19 0.786311C393.06 0.996002 393.676 1.06154 393.568 0.917376C393.459 0.773213 393.314 0.393144 393.386 0.340721C393.804 0.241793 394.236 0.175888 394.674 0.144144C395.254 0.144144 396.849 0.44558 397.103 0.35384H397.23L397.792 0.537299C398.406 0.503361 399.023 0.561367 399.605 0.70768C399.913 0.825631 401.055 0.157235 401.78 -0.157302L402.487 0.0130787L403.321 0.222775C403.64 0.0329127 403.98 -0.138037 404.336 -0.288367C404.549 -0.309346 404.753 -0.362962 404.935 -0.445629C405.152 -0.550475 406.113 -0.26216 406.367 -0.17042C406.621 -0.0786805 407.582 0.104799 407.382 -0.17042C407.183 -0.44564 408.307 -0.170404 408.524 -0.235933C408.986 -0.25883 409.448 -0.195633 409.866 -0.0524338C410.192 0.11794 411.389 0.091713 411.298 0.0130787C412.098 -0.198411 412.956 -0.265878 413.8 -0.183499L414.362 0.0655127L415.413 0.52422C415.504 0.0262036 415.975 -0.131078 416.447 0.183459L417.426 -0.0262368C418.579 -0.236065 419.795 -0.167022 420.888 0.170341C421.158 0.291596 421.464 0.362305 421.781 0.376037C422.098 0.38977 422.414 0.346088 422.701 0.248972C423.046 0.117915 423.97 0.419372 424.514 0.602852C424.823 0.681486 423.789 0.891172 424.514 1.04844C424.714 1.04844 425.076 0.851836 425.33 0.864942C425.584 0.878047 426.363 0.969776 426.472 1.14015L426.853 1.65129C427.669 1.80856 428.793 2.03138 429.337 2.16243C430.185 2.32079 431.054 2.41304 431.929 2.43764C432.255 2.43764 433.234 2.60801 433.47 2.55559C433.706 2.50317 434.177 2.45075 434.123 2.68665C434.068 2.92256 435.265 2.58182 435.482 2.52939C436.044 2.50391 436.607 2.50391 437.169 2.52939C437.821 2.52939 439.453 3.02738 439.616 2.98806C439.779 2.94874 440.377 2.98806 440.396 3.06669C440.52 3.22278 440.71 3.34624 440.939 3.41925C441.167 3.49226 441.421 3.51108 441.665 3.473C442.86 3.56558 444.035 3.76362 445.164 4.06274L445.417 4.65251C445.526 4.94084 446.704 4.98016 446.922 5.55681L447.013 5.8189L448.662 6.25141C448.786 6.30129 448.882 6.3814 448.932 6.47742C448.981 6.57344 448.982 6.67913 448.934 6.77563L449.605 6.95909C449.343 7.30111 449.194 7.68243 449.17 8.07308V8.34829L449.315 8.93806C449.383 9.37424 449.608 9.78993 449.968 10.1438H450.294C450.475 10.1438 450.657 10.1438 450.657 10.2618C450.657 10.3797 450.312 10.5108 449.968 10.6287L449.66 10.7598C449.66 10.7598 449.66 10.9432 449.66 11.0219C449.66 11.1005 449.877 11.0219 449.986 11.0219C450.095 11.0219 450.095 10.9432 450.167 10.9301H450.548C450.965 10.9301 451.309 10.9301 451.273 11.035C451.409 11.351 451.682 11.6269 452.053 11.8213L452.361 12.0834L452.56 12.2538C452.56 12.5946 452.161 12.7518 451.618 12.6076C451.074 12.4635 449.714 12.6077 450.167 13.3023C450.62 13.9969 450.729 16.002 450.276 16.0938C449.739 16.1844 449.221 16.3254 448.735 16.5132C449.14 16.6535 449.534 16.811 449.913 16.985L450.058 17.2209C450.53 17.8893 450.82 16.867 451.273 17.2209L451.545 17.4175C452.107 17.5616 452.415 17.8631 452.216 18.0727C452.016 18.2824 452.596 19.3833 452.705 19.8945L452.343 20.3794C452.271 20.5345 452.248 20.6991 452.275 20.8614C452.301 21.0238 452.377 21.1799 452.496 21.3187C452.616 21.4576 452.776 21.5757 452.966 21.6648C453.155 21.7538 453.37 21.8116 453.594 21.8341H454.373C455.262 21.9389 455.624 22.0438 455.207 22.07C454.79 22.0962 453.612 22.2797 453.612 22.4632C453.612 22.6466 454.029 23.184 454.554 23.1316H455.044H455.316C455.675 23.1383 456.032 23.1645 456.385 23.2102C456.676 23.2102 458.198 23.2102 458.797 23.2102C459.395 23.2102 460.301 24.3242 460.211 24.4159H459.848C459.141 24.3504 458.76 24.6911 459.032 25.045C459.304 25.3988 459.395 25.6085 459.739 25.7265L460.483 26.0017C460.483 26.4735 460.737 26.7618 460.918 26.6308H461.117C461.335 26.6012 461.56 26.6291 461.752 26.7094C461.805 26.7629 461.833 26.8271 461.833 26.8929C461.833 26.9587 461.805 27.0229 461.752 27.0764C461.586 27.231 461.365 27.3503 461.113 27.4218C460.861 27.4933 460.587 27.5143 460.32 27.4826C460.228 27.4938 460.142 27.5229 460.072 27.5668C460.002 27.6107 459.949 27.6677 459.921 27.7316C459.93 27.7973 459.963 27.8599 460.018 27.9129C460.072 27.966 460.145 28.0075 460.229 28.0331L460.755 28.1903C461.371 28.3345 461.353 28.6359 460.755 28.8456H460.175H459.721C459.069 28.6097 458.525 28.7408 458.525 29.134V29.3961L458.38 29.7761C457.785 29.8937 457.179 29.977 456.567 30.0251C456.186 30.0251 456.295 30.8639 456.567 31.3357C456.839 31.8075 457.238 33.2229 456.857 33.3409C456.476 33.4588 456.857 34.219 457.038 34.35C457.219 34.4811 457.636 34.9398 457.328 35.0708L456.966 35.1626C456.639 35.2412 456.259 34.8218 455.896 35.1626C455.455 35.1045 455.023 35.0122 454.609 34.8873C453.743 34.8532 452.875 34.9151 452.034 35.0708C450.906 35.0483 449.79 34.8888 448.735 34.5991C447.785 34.5101 446.828 34.4706 445.871 34.4811C445.472 34.4811 444.438 34.0486 444.311 34.2059C444.1 34.4882 443.982 34.8023 443.967 35.1233C443.967 35.333 445.272 35.464 445.562 35.4509L445.689 35.5296C445.979 35.6999 445.689 36.1193 446.541 36.0669H446.668C446.716 36.1385 446.789 36.1998 446.88 36.2448C446.971 36.2898 447.077 36.317 447.186 36.3236C447.296 36.3302 447.406 36.316 447.506 36.2825C447.606 36.249 447.692 36.1973 447.756 36.1324L447.847 36.7353V36.8532C448.437 36.9702 449.047 37.0275 449.66 37.0236L449.75 37.3905V37.6789C449.877 38.0196 449.75 38.2031 449.496 38.0851C449.049 37.9506 448.558 37.9141 448.082 37.9803C447.874 38.0544 447.644 38.0929 447.412 38.0929C447.179 38.0929 446.95 38.0544 446.741 37.9803C446.342 37.7968 445.381 37.2464 445.236 37.3775C445.472 37.7706 446.016 38.1769 445.925 38.5308L445.816 38.937C445.164 39.4089 444.801 39.8807 445.018 39.9986C445.251 40.0634 445.501 40.0888 445.749 40.0729C445.998 40.057 446.238 40.0002 446.451 39.9069L446.686 39.684L446.831 39.5399C446.831 39.3302 446.958 39.1729 447.049 39.1991L447.538 39.6447C447.949 39.4403 448.436 39.3306 448.934 39.3302C449.116 39.3302 449.061 39.7627 448.391 40.051L448.826 40.5228L449.007 40.7194C449.291 40.7001 449.576 40.7486 449.818 40.8575C450.06 40.9663 450.247 41.1296 450.348 41.3223C450.62 41.7416 450.965 42.2135 450.838 42.2921C450.646 42.3391 450.442 42.354 450.241 42.3359C450.04 42.3177 449.848 42.2669 449.678 42.1872L449.315 42.0038C449.077 42.0337 448.864 42.1273 448.717 42.2659C448.59 42.3969 448.463 42.8425 448.717 42.8556C448.971 42.8687 450.022 43.0653 449.732 43.1964C449.442 43.3275 448.699 43.8254 448.826 43.9827C448.953 44.14 449.424 44.5463 449.587 44.4283H449.732C450.185 44.3497 450.892 44.6773 451.4 45.3064L451.618 45.5685C451.402 45.7937 451.166 46.0082 450.91 46.2107C450.879 46.2473 450.857 46.2882 450.848 46.331C450.839 46.3737 450.842 46.4174 450.858 46.4592C450.873 46.501 450.9 46.5401 450.937 46.574C450.974 46.6079 451.021 46.6359 451.074 46.6563H451.708C452.379 46.6563 452.578 46.8005 452.306 47.1674C452.306 47.2723 452.034 47.4295 452.089 47.4688L452.397 47.6523C452.326 47.7699 452.199 47.8657 452.041 47.9232C451.882 47.9806 451.7 47.9961 451.527 47.9669L451.346 47.6654V47.5475C450.385 47.5475 450.421 47.6654 451.346 47.9407L450.947 48.478L450.747 48.7663C450.657 48.8894 450.61 49.0267 450.61 49.166C450.61 49.3054 450.657 49.4427 450.747 49.5658C450.929 49.6706 451.291 50.221 451.037 50.4307C450.784 50.6404 449.551 50.9287 449.551 51.1253L449.66 51.2564L449.895 51.5185C450.095 51.8461 450.077 52.0165 449.895 51.8854C449.511 51.739 449.076 51.6797 448.644 51.7151C448.188 51.7676 447.723 51.7676 447.266 51.7151C446.976 51.7151 446.143 51.7806 446.288 51.8593L447.212 52.3704C447.448 52.4752 448.227 52.2 448.3 52.2C448.372 52.2 448.554 52.3311 448.517 52.5539C448.481 52.7766 449.714 52.5539 449.931 52.5539C450.149 52.5539 450.548 52.7242 450.149 52.8553C449.75 52.9864 448.608 53.196 448.517 53.0781C448.344 52.9291 448.097 52.8351 447.828 52.816C447.702 52.816 447.158 53.4975 446.922 53.4843C446.678 53.515 446.448 53.5868 446.249 53.6938C446.051 53.8008 445.89 53.9401 445.78 54.1003L445.997 54.4673C446.076 54.6428 446.228 54.7963 446.433 54.9067C446.638 55.017 446.884 55.0787 447.14 55.0832H447.266C447.43 55.1881 447.375 55.4371 447.158 55.6599C446.719 55.9239 446.259 56.169 445.78 56.3938C445.653 56.4856 445.671 56.8526 445.526 56.8788C445.381 56.905 445.236 57.1278 445.182 57.154C445.127 57.1802 445.182 57.3636 445.508 57.5078C445.937 57.8334 446.205 58.2529 446.269 58.7004L445.997 58.9101C445.218 59.4868 445.417 59.8013 446.487 60.1552L447.339 60.4173C446.843 60.7829 446.383 61.1726 445.961 61.5837C445.744 61.8327 445.091 62.1341 445.689 62.1604L445.599 62.7108V62.9336C445.599 63.2481 445.762 63.7461 445.816 64.0082L446.124 64.2048L446.505 64.4145C446.35 64.7708 446.168 65.1208 445.961 65.463L446.342 65.7906L447.285 66.577L445.78 67.206C446.17 67.7736 446.678 68.295 447.285 68.7525L447.974 69.5258L448.173 69.7485L447.357 69.6044C447.133 69.6319 446.917 69.6897 446.723 69.7748C446.334 69.9332 445.92 70.0564 445.49 70.1417C444.976 70.1855 444.47 70.2735 443.985 70.4038L443.568 70.5218L443.079 70.6659C442.019 70.6439 440.961 70.7412 439.942 70.9543C438.782 71.1771 435.047 71.3344 434.413 71.4523H433.815L433.198 71.5178C431.998 71.6529 430.787 71.7317 429.572 71.7537H427.759C427.048 71.9518 426.391 72.2404 425.82 72.6056L425.239 72.0945C425.239 72.0289 424.17 72.2648 424.152 72.2386C423.862 71.7013 423.245 72.6318 422.828 72.1338L422.683 71.9634C422.171 72.2057 421.573 72.3375 420.961 72.3435L420.363 72.658C419.706 72.5959 419.038 72.6361 418.405 72.7759C418.115 72.8808 416.864 72.6449 416.592 72.6842C415.733 72.782 414.868 72.8432 413.999 72.8677C412.973 72.9925 411.938 73.0757 410.899 73.1167C410.7 72.9988 409.394 73.3657 408.796 73.4968L408.325 73.4182L407.527 73.2871C406.711 73.3788 405.714 73.4706 405.152 73.5099C404.59 73.5492 403.557 73.772 403.466 73.6672C403.376 73.5623 402.523 73.6671 402.07 73.9686C401.617 74.27 399.768 73.8506 399.351 73.9686L399.206 73.9031L398.535 73.6016C397.812 73.8635 397.001 73.9725 396.196 73.9162L395.598 74.0341L395 74.1521C394.254 74.0148 393.485 73.9531 392.716 73.9686H392.081H391.483C390.775 74.0986 390.028 74.0524 389.362 73.8375L388.673 74.0734L388.165 74.2438C387.104 74.237 386.043 74.2895 384.993 74.4011L383.995 74.2307L383.325 74.1128C382.436 74.2831 381.512 74.4404 381.203 74.4666C380.705 74.4148 380.202 74.3885 379.699 74.388C379.097 74.44 378.488 74.44 377.886 74.388C377.251 74.388 375.656 74.5977 375.602 74.5059C375.547 74.4142 375.366 74.4011 375.348 74.6763C375.33 74.9515 374.061 74.4404 373.807 74.4404C373.553 74.4404 372.411 74.4404 371.867 74.519C371.323 74.5977 369.873 74.4273 369.492 74.519C368.72 74.5204 367.95 74.4721 367.19 74.3748C366.682 74.3748 364.869 74.3748 364.325 74.3748C363.781 74.3748 362.367 74.7943 362.132 74.8074C361.896 74.8205 361.116 74.6894 360.826 74.7025C360.536 74.7156 359.684 74.7025 359.013 74.7025L356.294 74.5583C356.058 74.5583 355.496 74.7025 355.315 74.5583C355.134 74.4142 353.593 74.5583 353.103 74.6239C352.082 74.6603 351.071 74.7879 350.094 75.0039L349.26 74.6239L348.625 74.3486C347.463 74.349 346.303 74.4324 345.163 74.5977L344.274 74.3618H344.147C343.935 74.4986 343.67 74.5846 343.387 74.608C343.105 74.6315 342.82 74.5912 342.57 74.4928C341.297 74.4552 340.023 74.5389 338.781 74.7418C337.46 74.7089 336.148 74.5771 334.865 74.3486C334.72 74.3486 333.723 74.4535 332.78 74.5452L331.892 74.3355L331.384 74.2176C331.283 74.3934 331.096 74.536 330.859 74.6183C330.621 74.7005 330.35 74.7165 330.097 74.6632C329.698 74.519 328.592 74.2962 328.284 74.4535C327.976 74.6107 327.051 74.9515 326.834 74.7942C326.186 74.5239 325.439 74.4049 324.695 74.4535L324.096 74.637C323.813 74.7338 323.503 74.784 323.19 74.784C322.876 74.784 322.567 74.7338 322.283 74.637L321.685 74.4273C321.297 74.6044 320.834 74.6742 320.38 74.6239C320.108 74.6239 319.165 74.4142 318.893 74.3748C318.371 74.3786 317.856 74.4682 317.389 74.637C317.08 74.768 316.029 74.637 315.757 74.637C315.154 74.6713 314.547 74.6713 313.944 74.637C313.6 74.637 312.657 74.5059 312.639 74.3618C312.621 74.2176 312.403 73.7982 312.276 73.8506C312.149 73.9031 311.769 73.9162 311.678 73.8506C311.587 73.7851 311.025 73.6279 310.735 73.7065L310.572 73.9555C310.445 74.1521 309.829 74.2176 309.466 74.3748C308.396 74.8204 308.378 74.8204 307.254 74.2962L307.091 74.2176C306.947 74.1734 306.791 74.1562 306.635 74.1677C306.48 74.1792 306.331 74.2189 306.203 74.2831C305.967 74.4011 304.988 74.637 304.662 74.4666C304.335 74.2962 303.375 73.9293 303.338 74.0734C303.238 74.228 303.092 74.3646 302.91 74.4734C302.729 74.5821 302.516 74.6604 302.287 74.7025C300.75 74.6559 299.211 74.6909 297.682 74.8074L296.105 74.4404L295.615 74.3355C294.781 74.6501 293.966 74.7811 293.802 74.6239C293.639 74.4666 292.896 74.7549 292.805 74.8074C292.286 74.8814 291.755 74.9035 291.228 74.8729C290.163 74.8199 289.103 74.7193 288.055 74.5715C287.472 74.6139 286.905 74.7386 286.388 74.9384C286.043 75.0695 284.321 75.0301 283.614 75.3578L282.78 74.8991L282.272 74.6108C281.724 74.7373 281.135 74.7373 280.586 74.6108C280.224 74.4797 279.208 75.0039 278.773 75.0433C278.338 75.0826 277.287 74.8467 277.25 74.7025C277.203 74.6383 277.137 74.5824 277.056 74.5387C276.976 74.495 276.883 74.4646 276.784 74.4496C276.686 74.4346 276.584 74.4353 276.486 74.4519C276.388 74.4684 276.296 74.5003 276.217 74.5452L275.873 74.7811L275.474 75.0433C275.09 74.9251 274.665 74.8976 274.259 74.9646C274.042 75.0302 273.371 75.1481 273.334 74.9646C273.298 74.7811 273.081 74.7549 272.954 75.1743L272.138 74.9515L271.721 74.8336L270.597 75.0171C270.343 75.0171 269.382 74.7811 269.074 74.8336C268.461 74.8782 267.842 74.8245 267.261 74.6763C266.935 74.5452 265.72 74.6763 265.194 74.519L264.723 74.4535C264.524 74.4535 264.107 74.637 264.07 74.5977C263.653 74.2831 263.472 74.5977 263.146 74.5977C262.819 74.5977 262.656 74.4142 262.384 74.3486C262.112 74.2831 262.094 74.4797 262.094 74.5583V74.6239C262.276 74.7025 262.366 74.7942 262.294 74.8336C262.221 74.8729 261.895 74.8336 261.659 74.8336C261.087 74.7826 260.507 74.8184 259.955 74.9384H259.538C258.904 74.9384 258.015 74.6501 257.725 74.8074L257.054 75.1088C256.593 74.9369 256.086 74.8385 255.568 74.8204C255.042 74.8897 254.534 75.0179 254.063 75.2005C253.809 75.3185 253.574 74.7549 253.537 74.7287C253.097 74.702 252.654 74.702 252.214 74.7287L248.842 74.9646C248.334 74.9646 247.029 74.1783 246.775 74.2962C246.521 74.4142 246.159 74.9908 245.397 75.0433C243.738 74.8938 242.1 74.6395 240.502 74.2831L239.415 74.886L239.125 75.0564C238.546 74.9909 237.976 74.8901 237.42 74.7549C237.221 74.6763 236.441 74.7549 236.097 74.7549C235.753 74.7549 234.701 74.9384 234.52 74.9515C233.914 74.9644 233.308 74.9425 232.707 74.886C231.298 74.867 229.889 74.946 228.501 75.1219L227.576 74.6894C227.576 74.6894 225.31 75.0301 225.274 75.0433C225.238 75.0564 225.056 75.2267 224.929 75.2398L224.367 75.3185C223.842 75.135 223.443 74.8729 223.497 74.7287C223.552 74.5846 223.388 74.1521 223.171 74.1521C222.953 74.1521 222.5 74.27 222.663 74.4011V74.7418C222.663 75.0301 222.192 75.2005 221.63 75.1219H220.742C220.146 75.2237 219.539 75.2894 218.929 75.3185C218.348 75.3185 216.644 75.1219 216.3 75.2136C215.955 75.3054 214.813 75.1088 214.487 75.2136C214.161 75.3185 213.073 75.135 212.892 75.2136H212.71C211.868 75.3044 211.009 75.2642 210.19 75.0957L209.411 74.9384H206.963C206.619 74.9384 206.274 74.4273 205.857 74.768L205.622 74.9515L205.513 75.0564C205.13 75.2535 204.69 75.3836 204.226 75.4364C203.323 75.3912 202.433 75.259 201.579 75.0433C201.215 75.0372 200.852 75.0154 200.491 74.9777C200.064 74.939 199.631 74.939 199.204 74.9777C198.57 75.0131 197.934 75.0131 197.3 74.9777C196.613 74.9181 195.937 74.7993 195.288 74.6239C195.288 74.5583 194.944 74.7025 194.635 75.0826L193.693 74.7549C193.439 74.6632 192.732 75.1088 192.188 75.1481H191.735C191.398 75.0854 191.044 75.0838 190.706 75.1432C190.368 75.2026 190.055 75.3213 189.795 75.4888L189.015 75.0957L188.562 74.8598C187.837 74.6632 187.112 74.6108 186.985 74.7549C186.858 74.8991 186.205 75.2136 186.024 75.0564C185.849 74.9405 185.626 74.8699 185.39 74.8557C185.154 74.8415 184.918 74.8844 184.719 74.9777L184.392 75.0957C184.131 75.1482 183.856 75.1482 183.595 75.0957V74.4535C182.652 74.27 181.782 74.2831 181.782 74.4535C181.7 74.6118 181.551 74.7471 181.355 74.8391C181.159 74.9312 180.927 74.9752 180.694 74.9646L180.295 75.0433C179.969 75.0433 179.769 75.2791 179.715 74.9515C179.72 74.8847 179.697 74.8185 179.65 74.7608C179.604 74.7032 179.534 74.6569 179.451 74.6275C179.368 74.5982 179.275 74.5872 179.183 74.5958C179.091 74.6045 179.005 74.6325 178.935 74.6763C178.065 75.1219 177.123 74.8204 176.144 74.9122L175.509 74.9777L174.004 75.1088H173.896L173.134 75.0171C172.083 74.8991 171.521 74.7418 171.847 74.6632C172.173 74.5845 171.502 74.1521 171.43 74.021C171.357 73.89 170.959 73.7458 170.922 74.021C170.886 74.2962 170.542 75.0302 170.215 74.9253L169.98 74.7942L169.708 74.6501C169.555 74.5015 169.333 74.3982 169.083 74.3596C168.832 74.321 168.571 74.3497 168.348 74.4404C167.877 74.6108 166.535 74.7549 166.372 74.5321C166.209 74.3093 165.411 73.903 165.03 74.2045V75.135C164.282 75.1522 163.533 75.1037 162.8 74.9908C161.967 74.9547 161.132 74.9547 160.299 74.9908L159.247 74.7549C158.431 74.6999 157.608 74.7532 156.818 74.9122L156.383 74.7942L155.948 74.6894C155.658 74.2962 155.132 74.0603 154.751 74.1914C154.37 74.3224 153.5 74.7156 153.536 74.8204V75.0039C153.496 75.0493 153.439 75.0856 153.372 75.1088C153.305 75.132 153.23 75.1411 153.156 75.135C152.832 75.018 152.538 74.863 152.285 74.6763C152.014 74.4797 150.871 74.886 150.708 74.8991C150.268 74.8799 149.831 74.8316 149.403 74.7549V74.6501L149.276 74.3093C149.747 74.3093 150.491 74.3093 150.926 74.3093C151.361 74.3093 151.542 73.5623 151.125 73.523C150.708 73.4837 149.475 73.523 149.475 73.7458L149.294 73.9555C149.077 74.2045 148.714 74.5977 148.37 74.6108C147.445 74.6108 148.188 74.0734 147.789 73.8637C147.789 73.8637 147.318 74.0472 146.937 74.3618C146.557 74.6763 144.599 74.6632 143.982 74.6894C143.366 74.7156 142.713 73.9686 142.532 74.2438C142.351 74.519 143.656 74.7287 143.747 74.768C143.796 74.8401 143.814 74.9214 143.798 75.0011C143.782 75.0808 143.732 75.155 143.656 75.2136H143.438H143.166C142.607 75.016 142.084 74.7695 141.607 74.4797L141.48 73.3657C141.48 73.2085 140.828 72.9463 140.792 72.9594C139.214 73.7196 139.74 72.8022 139.577 72.4483C139.414 72.3566 139.232 72.4483 139.196 72.7759C139.16 73.1036 138.797 73.523 138.435 73.3002C138.072 73.0774 137.546 74.0472 137.419 74.2307C137.293 74.4142 136.749 74.9777 136.531 74.9908C136.314 75.0039 135.099 74.9908 134.192 74.9908H133.359H133.177C132.996 74.9908 132.833 74.9908 132.833 74.8991C132.833 74.8074 132.833 74.5583 132.833 74.3748C132.917 74.2201 133.057 74.0847 133.239 73.9831C133.421 73.8816 133.638 73.8176 133.866 73.7982H134.156H134.428C134.795 73.9751 135.199 74.1079 135.625 74.1914H136.042C136.241 74.1914 136.586 74.1914 136.64 74.0603L136.876 73.7327C136.951 73.5618 137.089 73.4085 137.273 73.2887C137.458 73.1689 137.684 73.087 137.927 73.0512L138.054 72.9463C138.326 72.6842 138.326 72.2911 138.67 72.1076L139.323 71.7406C139.031 71.4721 138.651 71.2604 138.217 71.1247C137.981 71.1247 137.256 71.3081 137.256 71.6882C137.256 72.0683 136.785 73.0774 136.241 73.0905L135.915 73.3526C135.516 73.6802 135.135 73.7196 134.537 73.4182L133.939 73.8899ZM139.813 70.9543C139.54 70.8636 139.241 70.8231 138.942 70.8363C138.942 70.8363 139.033 71.0853 139.287 71.2295C140.053 71.4062 140.877 71.4062 141.644 71.2295L142.333 71.6096C142.333 71.6096 142.623 71.6096 142.713 71.4916L142.949 71.3344C143.257 71.0591 143.13 70.8101 142.695 70.7577C142.26 70.7053 140.266 71.0591 139.885 70.9543H139.813ZM126.669 71.5178C126.052 71.662 125.726 71.9503 125.98 72.1731C126.234 72.3959 127.34 71.9372 127.612 71.8193C128.282 71.7025 128.97 71.6452 129.66 71.6489C130.132 71.6489 131.473 71.4785 131.274 71.2557C131.074 71.0329 129.769 71.2557 129.461 71.2557C128.852 71.2834 128.24 71.2437 127.648 71.1377L127.122 71.3081L126.669 71.5178ZM442.934 34.9267C443.441 35.0447 443.659 34.9267 443.423 34.6777C443.187 34.4287 442.372 33.485 441.973 33.0132L441.229 33.6292L440.667 34.0879C440.069 33.9306 439.906 33.8651 440.305 33.9438C440.704 34.0224 442.426 34.8088 442.934 34.9267ZM232.344 71.6751C231.887 71.6602 231.433 71.7278 231.021 71.8717V71.9372L231.202 72.1731C231.099 72.2532 231.041 72.3585 231.041 72.468C231.041 72.5774 231.099 72.6828 231.202 72.7629C231.438 72.8546 232.326 72.5401 232.761 72.4614C233.196 72.3828 232.997 71.662 232.344 71.6751ZM450.657 34.5466C450.33 34.1928 450.149 34.1797 450.276 34.5466C450.403 34.9136 451.871 35.3198 452.306 35.3461V34.9791V34.8087C452.669 34.468 452.306 34.4418 451.364 34.8087L451.074 34.7301L450.657 34.5466ZM122.626 71.1509C121.593 71.3343 121.067 71.4785 121.466 71.4785C122.107 71.6083 122.719 71.8072 123.279 72.0683C123.587 72.1862 124.493 72.3697 124.493 72.1469C124.493 71.9241 124.076 71.5309 123.569 71.6882H123.46L122.626 71.1509ZM167.17 72.4614C166.952 72.4614 167.061 72.8284 167.423 73.3395L167.913 73.5099L168.511 73.7196C168.973 73.9623 169.536 74.0827 170.107 74.0603L170.197 73.9293L170.306 73.7851C170.306 73.5361 169.69 73.3788 169.055 73.4312L168.692 73.3133L168.275 73.1822C167.991 72.8921 167.611 72.6578 167.17 72.5007V72.4614ZM314.234 72.3959C314.542 72.3042 314.597 72.1207 314.379 71.9765C314.026 71.7705 313.687 71.5518 313.364 71.3212C313.219 71.1902 312.512 71.3212 312.657 71.6489C312.802 71.9765 313.926 72.5401 314.234 72.4352V72.3959ZM152.576 73.1298C152.485 72.7498 152.431 72.7104 152.467 73.0381C152.503 73.3657 152.34 74.2307 152.721 74.2045C153.101 74.1783 152.666 73.5361 152.576 73.1691V73.1298ZM13.6692 48.9891C14.0318 48.9891 14.2494 48.8843 14.1406 48.6353C13.4154 48.6353 13.2523 48.3731 13.3066 47.9931V47.8096C13.1979 47.5606 12.8897 47.6261 12.5996 47.9669C12.3095 48.3076 13.2885 48.9236 13.6692 48.9891ZM7.3965 55.2929C7.3965 55.1488 7.10643 54.9915 6.79823 54.9391L6.54443 54.8736C6.30875 54.7949 6.2181 54.5459 5.83739 54.7818C5.45667 55.0177 5.31164 55.0833 5.83739 55.3061C6.36313 55.5289 5.49293 56.0793 6.43566 56.04C6.78011 56.04 7.08831 55.6075 7.36025 55.3585L7.3965 55.2929Z" fill="url(#paint0_linear_1_867)"/>
<defs>
<linearGradient id="paint0_linear_1_867" x1="230.971" y1="-0.468262" x2="230.971" y2="75.4952" gradientUnits="userSpaceOnUse">
<stop stop-color="#F65C5F"/>
<stop offset="0.484375" stop-color="#F16683"/>
<stop offset="1" stop-color="#FB9B64"/>
</linearGradient>
</defs>
</svg>
