<svg width="185" height="27" viewBox="0 0 185 27" fill="none" xmlns="http://www.w3.org/2000/svg">
<path d="M47.4026 14.4321C47.8824 14.474 48.1466 14.6765 47.9867 14.8789L48.3482 15.0256L48.4526 15.0674C48.5078 15.0796 48.5654 15.0715 48.6152 15.0446C48.6649 15.0177 48.7034 14.9738 48.7237 14.9208L48.682 14.851L48.6473 14.7672C48.7063 14.6832 48.7792 14.61 48.8628 14.5508L48.9393 14.4949L49.28 14.3064L49.4261 14.1109C49.5234 14.2296 49.6347 14.2715 49.6694 14.2086C49.7559 14.1017 49.8652 14.0158 49.9893 13.9573C50.1284 13.8875 50.5595 13.9922 50.5943 13.9573C50.629 13.9224 50.9002 13.9224 50.928 13.8316L51.0532 13.7897L51.8737 13.4755L52.3118 13.5453H52.3535C52.4318 13.5384 52.5043 13.5008 52.5552 13.4406C52.6883 13.3414 52.8484 13.2853 53.0141 13.28C53.2656 13.2263 53.5121 13.1515 53.7512 13.0566H53.9389H54.0015C54.0565 13.0735 54.1148 13.0773 54.1715 13.0676C54.2283 13.0579 54.282 13.035 54.3283 13.0007C54.4966 12.8681 54.6813 12.7578 54.8777 12.6726L55.7677 12.4142H56.0459H56.2614C56.4864 12.2881 56.7004 12.1433 56.9012 11.9813C57.0263 11.8696 57.5965 12.0791 57.7217 12.0442L57.819 11.9744C57.9164 11.8976 57.9442 11.7719 58.0415 11.6881C58.2737 11.7388 58.5157 11.7194 58.7369 11.6322C58.9733 11.5484 59.6061 11.2971 59.6895 11.3669C59.773 11.4367 60.218 11.2273 60.3849 11.1644L60.5031 10.941L60.7743 10.6757C61.0525 10.8153 61.3028 10.8851 61.3236 10.8363V10.7874V10.6547C61.4739 10.6402 61.6201 10.5976 61.7547 10.529C61.9538 10.4268 62.1465 10.3125 62.3319 10.1869C62.464 10.0752 62.9021 10.3056 62.9369 10.2777L63.4792 10.0193C63.7087 9.92159 64.3137 9.6423 64.3276 9.62834C64.4973 9.59457 64.6693 9.57356 64.8421 9.5655C65.1064 9.5655 65.7878 9.30717 65.8504 9.32811C66.0624 9.30098 66.2675 9.2347 66.4554 9.13261C66.8131 9.03795 67.1784 8.97488 67.5471 8.9441C67.5471 8.9441 67.6723 8.86728 67.5958 8.83935C67.5193 8.81142 67.5054 8.64386 67.7001 8.51818C67.8948 8.3925 68.5414 8.60195 68.5762 8.57403L68.9726 8.39947C69.1186 8.33663 69.6262 8.28079 69.6679 8.21795L69.7444 8.15511C69.8 8.11322 69.8765 8.0434 69.9391 8.0434H70.1199C70.2289 8.05869 70.3399 8.05039 70.4454 8.01908C70.5509 7.98777 70.6486 7.93417 70.7318 7.86185L70.8778 7.80601L71.0795 7.73618C71.3664 7.75391 71.652 7.78888 71.9348 7.84091C72.3348 7.7528 72.7161 7.59445 73.0613 7.37312C73.5453 7.308 74.0369 7.32689 74.5146 7.42896L74.7162 7.27536C74.8315 7.19022 74.9647 7.13288 75.1056 7.10779L75.3142 7.07287C75.5375 7.16224 75.7863 7.16224 76.0096 7.07287L76.1973 7.01003C76.2599 7.01003 76.3851 7.12174 76.4755 7.11476H76.7675L77.5672 6.95418C77.6923 6.95418 78.0748 7.07986 78.2625 7.02401C78.5658 7.03001 78.8681 7.06035 79.1665 7.11476H79.3125H79.3821C79.5566 7.06877 79.7376 7.05227 79.9175 7.0659C80.14 7.0659 81.0023 7.35217 81.4195 7.39406C81.8367 7.43595 83.3595 7.47784 83.8741 7.47085L84.2079 7.81297C84.2352 7.84783 84.27 7.87602 84.3098 7.89539C84.3495 7.91477 84.3931 7.92484 84.4373 7.92484C84.4815 7.92484 84.5251 7.91477 84.5649 7.89539C84.6046 7.87602 84.6395 7.84783 84.6668 7.81297L85.0145 7.98056C85.1295 8.00077 85.2471 8.00077 85.3622 7.98056C85.4734 7.98056 85.7098 8.15511 85.828 8.2389C85.9463 8.32268 86.3913 8.66481 86.6068 8.79049C86.9979 9.1468 87.3352 9.55842 87.6082 10.0124L87.928 10.2777C87.8794 10.3545 87.928 10.5919 88.0741 10.8083C88.2201 11.0248 88.4913 11.6392 88.5122 11.6811C88.533 11.723 88.6095 12.0372 88.6721 12.2606L88.7486 12.4701C88.7972 12.6097 89.1518 12.6097 88.9989 12.8541L88.8459 13.0985C89.0521 13.1404 89.2453 13.2314 89.4091 13.3638C89.4648 13.4406 89.7012 13.8037 89.8055 13.9992L89.9585 14.055L90.2366 14.1598C90.5774 14.2086 91.0363 14.2575 91.2449 14.2715C91.4535 14.2854 92.1628 14.2715 92.3505 14.2715H92.5243H92.6704C92.875 14.2735 93.0789 14.2453 93.2753 14.1877C93.4422 14.1248 94.2975 14.1877 94.4227 14.0481L94.6104 14.2366C94.7356 14.3622 94.7425 14.1598 94.7425 14.0899C94.7425 13.8526 94.8121 13.7408 95.1181 13.9014H95.1667C95.2432 13.9014 95.3406 13.7757 95.3753 13.6361L95.5909 13.7897H95.6465C95.7858 13.7183 95.9451 13.6962 96.0985 13.7269C96.1472 13.7688 96.3419 13.8875 96.3905 13.8735H96.4323L97.6491 13.4825L97.8856 13.3987C98.1429 13.294 98.4766 13.1473 98.6296 13.0705L98.8521 13.1613L99.0051 13.2241C99.1078 13.0963 99.2456 13.0017 99.4014 12.9519H99.471H99.5683C99.8459 12.9151 100.12 12.8568 100.389 12.7773C100.456 12.7708 100.524 12.7793 100.588 12.8022C100.652 12.8251 100.71 12.8619 100.757 12.91C100.883 13.0356 101.244 12.6656 101.376 12.6656C101.508 12.6656 101.835 12.4561 101.926 12.4631C102.089 12.454 102.244 12.3873 102.364 12.2746C102.419 12.1699 102.753 12.3374 102.781 12.2746C102.943 12.1493 103.14 12.0763 103.344 12.0651H103.581H103.699C103.927 11.9802 104.14 11.8601 104.332 11.709L104.651 11.7649L104.888 11.8068C105.124 11.7803 105.357 11.7312 105.583 11.6601C105.784 11.5638 105.991 11.4799 106.202 11.4088L106.362 11.4437C106.737 11.5275 107.009 11.4437 107.565 11.0737H107.607C107.858 11.0858 108.109 11.0718 108.358 11.0318L108.552 10.9131L108.608 10.8782C108.712 10.8782 108.782 10.934 108.761 10.9968V11.0527V11.1854C108.803 11.3529 108.928 11.339 109.046 11.1854L109.199 11.0667L109.359 10.941C109.602 10.8572 109.741 10.8572 109.679 10.941C109.616 11.0248 109.818 11.2272 110.214 11.1295C110.632 11.081 111.046 11.0016 111.452 10.8921C111.204 10.8422 110.948 10.8566 110.708 10.934L110.583 10.9829L110.492 11.0178C110.367 11.0178 110.263 10.9619 110.27 10.9061C110.277 10.8502 110.465 10.6757 110.631 10.5919C110.902 10.535 111.176 10.5023 111.452 10.4941C111.494 10.4941 111.626 10.3684 111.675 10.4313C111.967 10.5097 112.277 10.4901 112.558 10.3754L112.808 10.2288C112.877 10.1808 112.96 10.155 113.044 10.155C113.129 10.155 113.211 10.1808 113.281 10.2288C113.411 10.3035 113.563 10.3337 113.712 10.3148C113.861 10.296 114 10.229 114.108 10.1241L114.199 10.0473C114.387 10.0113 114.578 9.99496 114.769 9.99839C115.07 9.95886 115.376 9.97068 115.673 10.0333L115.895 9.87971L116.083 9.75401L116.584 9.67023H117.119C117.48 9.67151 117.841 9.6435 118.197 9.58645C118.411 9.5281 118.64 9.55304 118.837 9.65627C119.045 9.79592 119.866 9.51663 119.998 9.50267H120.123C120.255 9.50267 120.415 9.64928 120.499 9.62135C120.582 9.59342 120.617 9.41189 120.714 9.32112L120.784 9.25829C120.904 9.22239 121.032 9.22239 121.152 9.25829C121.271 9.3009 121.402 9.3009 121.521 9.25829C121.625 9.18769 121.75 9.1556 121.875 9.16751H121.945C122.149 9.20927 122.36 9.20927 122.564 9.16751C122.8 9.04183 122.981 8.96503 123.217 9.12562H123.252C123.361 9.10474 123.46 9.05115 123.537 8.97201C123.635 8.88823 124.233 8.97201 124.4 9.01391C124.566 9.0558 125.005 8.92314 125.018 8.79746C125.032 8.67178 125.512 8.79746 125.658 8.90219C125.804 9.00692 126.5 8.97202 126.597 9.0209C126.694 9.06977 126.958 8.89521 127.049 8.92313C127.219 8.95807 127.396 8.93344 127.55 8.85333C127.775 8.70506 128.048 8.6454 128.314 8.68574L128.447 8.76955L128.864 9.04883C128.718 8.79049 128.766 8.65083 128.968 8.74858C129.17 8.84633 129.816 8.92315 129.879 8.96505C129.942 9.00694 130.157 9.10469 130.199 9.04883C130.241 8.99297 130.484 8.65084 130.637 8.4344L130.999 8.67878C131.207 8.81842 131.604 8.63688 131.84 8.86729L131.882 8.90219C132.053 8.86586 132.219 8.80718 132.375 8.72763C132.663 8.66075 132.96 8.64891 133.251 8.69273H133.481H133.627L134.239 8.57403C134.413 8.57403 135.268 8.65084 135.407 8.6299C135.593 8.59132 135.785 8.59132 135.97 8.6299C136.015 8.68587 136.071 8.73206 136.135 8.76567C136.198 8.79928 136.267 8.8196 136.339 8.82539C136.485 8.82539 136.603 8.46931 136.638 8.46233C136.673 8.45535 137.076 8.53913 137.458 8.61594L137.799 8.53912H137.889C138.097 8.5151 138.306 8.5293 138.508 8.58102C138.946 8.59882 139.382 8.65725 139.809 8.75557L140.059 8.56007C140.219 8.42741 140.309 8.33665 140.351 8.6299C140.351 8.76954 140.574 8.74161 140.713 8.6299L140.845 8.53912C141.066 8.53375 141.286 8.49853 141.498 8.4344H141.665H141.707C141.788 8.52091 141.877 8.60033 141.971 8.67179C142.199 8.72536 142.434 8.74187 142.667 8.72067L142.903 8.54611C143.054 8.65729 143.238 8.71389 143.425 8.70669L143.529 8.6648L143.689 8.60895C144.067 8.5785 144.443 8.52722 144.815 8.45534C145.204 8.44636 145.592 8.48861 145.97 8.58102L146.157 8.46233L146.331 8.35061C146.612 8.41295 146.899 8.43645 147.186 8.42044C147.564 8.44623 147.942 8.44623 148.32 8.42044L148.41 8.37853C148.41 8.37853 148.487 8.37855 148.508 8.42044C148.53 8.4457 148.557 8.46592 148.588 8.47978C148.618 8.49364 148.651 8.50079 148.685 8.50079C148.718 8.50079 148.752 8.49364 148.782 8.47978C148.813 8.46592 148.84 8.4457 148.862 8.42044C149.001 8.2808 149.759 8.42044 149.975 8.42044C150.236 8.45155 150.49 8.5271 150.726 8.64385L151.122 8.49723C151.645 8.45534 152.171 8.45534 152.694 8.49723L152.833 8.45534H152.881C152.881 8.30872 152.986 8.25286 153.048 8.32268C153.183 8.41215 153.334 8.47167 153.493 8.49723C153.745 8.45278 153.992 8.3826 154.23 8.28778C154.588 8.24382 154.95 8.26271 155.301 8.34362C155.413 8.34362 155.92 8.34362 156.122 8.34362H156.303H156.386C156.398 8.30969 156.418 8.27891 156.443 8.25349C156.469 8.22808 156.5 8.20866 156.534 8.19664C156.568 8.18463 156.604 8.1803 156.64 8.18399C156.675 8.18767 156.71 8.19927 156.741 8.21795C156.908 8.28589 157.095 8.28589 157.262 8.21795C157.353 8.15511 157.805 8.21795 158.027 8.06434L158.215 8.33664L158.688 8.24588C158.91 8.21097 159.432 8.14115 159.55 8.11322C159.787 8.0858 160.027 8.12193 160.245 8.21795C160.37 8.30872 160.843 8.09226 161.017 8.14114C161.313 8.14229 161.609 8.11659 161.9 8.06434C162.121 8.09126 162.338 8.14278 162.547 8.21795L162.693 8.12019C162.794 8.08453 162.905 8.08453 163.006 8.12019L163.208 8.16907C163.465 8.25351 163.737 8.28673 164.007 8.26683L164.202 8.22492L164.501 8.16208C164.904 8.19315 165.31 8.1791 165.711 8.12019L165.954 8.37156L166.441 8.17606C166.697 8.14075 166.957 8.14075 167.213 8.17606C167.595 8.17606 168.603 8.44138 168.687 8.45534C168.924 8.4119 169.157 8.34646 169.382 8.25984C169.612 8.16907 170.251 8.3925 170.286 8.3925L170.94 8.4693C171.232 8.4693 172.011 8.8254 172.018 8.7835C172.025 8.74161 172.059 8.58101 172.087 8.51119C172.115 8.44137 172.463 8.51119 172.65 8.51119C172.838 8.51119 173.346 8.5112 173.29 8.69972C173.235 8.88824 174.041 8.93711 173.986 8.87428C173.93 8.81144 173.986 8.60195 174.083 8.57403C174.268 8.56996 174.453 8.6032 174.625 8.67179C174.778 8.72764 175.369 8.67179 175.494 8.67179L176.19 8.83238C176.394 8.84445 176.597 8.80356 176.781 8.71368C176.892 8.64386 177.254 8.85333 177.337 8.85333C177.421 8.85333 177.747 8.81144 177.859 8.85333C177.97 8.89522 178.345 8.99996 178.491 9.02788L178.638 8.95806H178.686C178.832 9.05581 178.79 9.23037 178.596 9.35605H179.02C179.229 9.35605 179.402 9.35605 179.354 9.11866V8.97201C179.582 8.9174 179.82 8.9174 180.049 8.97201L180.126 9.12562C180.202 9.27923 180.049 9.3351 179.861 9.3351C179.855 9.36697 179.856 9.39973 179.864 9.43126C179.871 9.4628 179.885 9.49239 179.905 9.51809C179.925 9.54379 179.95 9.56503 179.978 9.58042C180.006 9.59581 180.038 9.605 180.07 9.60739L180.133 9.5655C180.272 9.45379 180.334 9.26528 180.494 9.18149L180.64 9.09769C180.884 9.09769 181.085 9.13958 181.092 9.23035C181.154 9.44461 181.29 9.63001 181.475 9.75401C181.676 9.85176 182.26 9.63533 182.274 9.63533C182.288 9.63533 182.532 9.6842 182.775 9.74006C183.018 9.79591 183.644 9.74006 183.561 9.74006C183.442 9.8795 183.372 10.0532 183.359 10.2358V10.5709C183.355 10.6607 183.375 10.7499 183.418 10.8287C183.461 10.9076 183.525 10.973 183.602 11.0178C183.734 11.0667 184.075 11.332 184.068 11.4926C184.061 11.6532 183.547 11.8207 183.547 11.709C183.547 11.5973 183.484 11.2552 183.408 11.325C183.297 11.4564 183.225 11.6159 183.199 11.7858C183.199 11.9255 183.609 12.1908 183.783 12.1349C183.957 12.0791 184.479 12.0232 184.381 12.1349C184.329 12.2841 184.329 12.4466 184.381 12.5958C184.381 12.6865 184.527 13.0077 184.583 13.1124H184.652C184.882 13.1124 184.896 13.2521 184.812 13.3708L184.722 13.4895C184.557 13.4259 184.4 13.3414 184.256 13.2381C184.256 13.2381 184.138 13.1055 184.124 13.2381C184.11 13.3708 183.957 13.6151 183.867 13.4895C183.796 13.3658 183.747 13.2314 183.721 13.0915C183.721 13.0217 183.533 12.8681 183.463 12.9519C183.394 13.0356 183.269 13.2521 183.157 13.301C182.9 13.4622 182.621 13.5867 182.33 13.671L182.031 13.6151L181.725 13.5663C181.492 13.5909 181.257 13.5767 181.03 13.5244C180.981 13.4825 180.758 13.3847 180.668 13.4336C180.505 13.5164 180.347 13.6097 180.195 13.7129C180.133 13.7757 179.778 13.7129 179.653 13.7548C179.528 13.7967 178.957 13.692 178.846 13.7548C178.735 13.8176 178.192 13.5663 178.019 13.5314C177.689 13.5752 177.357 13.5962 177.024 13.5942H176.183C176.134 13.5942 175.543 13.5942 174.966 13.6361C174.389 13.678 172.734 13.7199 172.546 13.685C172.358 13.6501 171.538 13.7338 171.211 13.7269L170.933 13.6501L170.752 13.6012L170.265 13.7827L170.196 13.7478L169.674 13.4825C169.184 13.5492 168.688 13.5702 168.193 13.5453C167.992 13.5104 167.22 13.5872 166.997 13.5872C166.775 13.5872 165.996 13.5872 165.766 13.5872C165.537 13.5872 164.96 13.4825 164.876 13.7129L164.543 13.5872L164.292 13.4965C163.999 13.5384 163.702 13.5384 163.409 13.4965L163.221 13.5384L162.999 13.5942C162.813 13.5426 162.614 13.5549 162.436 13.6291C162.324 13.6989 161.845 13.4057 161.58 13.3079C161.316 13.2102 160.496 13.5802 160.245 13.5802C159.881 13.5889 159.517 13.5561 159.161 13.4825C159.042 13.4057 158.514 13.5593 158.361 13.5802C158.128 13.5944 157.896 13.6201 157.665 13.6571C157.434 13.6836 157.201 13.6836 156.97 13.6571C156.706 13.6431 156.441 13.6431 156.177 13.6571C156.003 13.6413 155.833 13.5915 155.677 13.5104C155.677 13.5104 155.169 13.6082 154.655 13.7269C154.111 13.7783 153.564 13.7783 153.02 13.7269C152.888 13.7269 152.325 13.7618 151.964 13.8037C151.602 13.8456 150.413 13.6152 149.919 13.5802C149.29 13.6297 148.665 13.723 148.049 13.8595L147.061 13.664L146.707 13.8456C146.54 13.9363 146.449 13.6291 146.289 13.8456L146.185 13.9852C145.592 13.8061 144.975 13.719 144.356 13.7269L143.591 13.7897H143.397L142.541 13.692L142.555 13.7339C142.368 13.9363 142.277 13.6291 142.131 13.7339C141.985 13.8386 141.721 13.671 141.512 13.6501H141.29C141.072 13.6895 140.863 13.7727 140.678 13.8944C140.553 13.9922 140.066 13.7967 139.899 13.8526C139.732 13.9084 139.204 13.664 139.044 13.6151C138.884 13.5663 138.488 13.7967 138.46 13.8037C138.432 13.8107 137.98 13.7548 137.486 13.6989L137.027 13.7757L136.798 13.8106C136.563 13.8131 136.33 13.8436 136.102 13.9014C135.942 13.9573 135.407 13.7199 135.129 13.7408C134.587 13.7794 134.043 13.7794 133.502 13.7408L133.224 13.9573L133.161 14.0062C132.756 13.8947 132.337 13.8383 131.916 13.8386C131.451 13.8386 130.15 14.0411 130.025 13.9852C129.9 13.9293 129.448 14.0969 129.33 14.1318C129.211 14.1667 128.892 14.0341 128.864 14.0481L128.398 14.2156H128.203H128.057C127.853 14.1616 127.643 14.1311 127.431 14.1249L127.313 14.1807L127.07 14.2924C126.861 14.2245 126.643 14.1892 126.423 14.1877C126.197 14.1994 125.976 14.2614 125.776 14.3692C125.672 14.467 125.213 14.2645 125.081 14.2436C124.949 14.2226 124.559 14.4251 124.386 14.446C124.212 14.467 123.572 14.446 123.398 14.446L122.008 14.6066C121.597 14.6415 120.297 14.6974 120.054 14.6904C119.81 14.6834 119.129 14.8859 118.962 14.8859C118.795 14.8859 118.176 14.9976 117.974 15.0186C117.773 15.0395 117.05 15.1512 116.848 15.1442C116.467 15.215 116.09 15.3106 115.721 15.4305C115.248 15.479 114.772 15.5023 114.296 15.5003C113.909 15.5634 113.526 15.6497 113.149 15.7587C113.051 15.7587 112.662 15.7587 112.509 15.7587C112.356 15.7587 111.918 15.9332 111.779 15.9402C111.408 15.9948 111.041 16.0741 110.68 16.1776C110.353 16.2754 109.143 16.4778 108.796 16.5267C108.34 16.6595 107.875 16.7598 107.405 16.8269C107.287 16.7501 106.96 16.9875 106.877 16.9805C106.691 17.0109 106.51 17.06 106.334 17.1272C106.216 17.1621 105.84 17.3227 105.729 17.3506L104.86 17.595C104.589 17.6648 103.65 17.9511 103.379 18.0209C102.722 18.2 102.075 18.412 101.439 18.6563L100.924 18.7331L100.702 18.768C100.465 18.8156 100.232 18.8834 100.006 18.9705C99.8882 19.0263 99.4849 19.0892 99.3597 19.1241C99.1054 19.1893 98.8434 19.2199 98.5809 19.2148C97.9405 19.3707 97.309 19.5618 96.6895 19.7874H95.9942C95.7973 19.7768 95.6 19.7768 95.4031 19.7874C95.1806 19.8293 94.979 19.9619 94.7565 19.9829H94.6104C94.5255 19.943 94.4329 19.9223 94.3392 19.9223C94.2455 19.9223 94.1529 19.943 94.0681 19.9829C93.9498 20.0667 93.4283 19.9061 93.3031 19.8642L92.6843 19.6757C92.6078 19.6757 92.3714 19.6757 92.281 19.6757C92.1906 19.6757 91.8221 19.7385 91.7247 19.7804C91.3284 19.773 90.9351 19.7096 90.5565 19.5919L90.1462 19.4522H90.0975C90.0975 19.3405 90.0072 19.3056 89.9307 19.3615C89.6508 19.47 89.3434 19.4847 89.0545 19.4034C88.5819 19.1173 88.1838 18.7224 87.8933 18.2513L87.4622 18.1605L87.2466 18.1117C87.1194 17.8318 86.973 17.5612 86.8085 17.3017C86.6197 17.0388 86.4104 16.7913 86.1827 16.5616C86.0019 16.415 85.9671 15.8634 85.9324 15.8145C85.852 15.7604 85.7657 15.7159 85.6751 15.6819C85.4788 15.4942 85.306 15.2832 85.1605 15.0535L84.7502 14.9208C84.4243 14.7576 84.1106 14.5709 83.8115 14.3622C83.7142 14.3134 83.5195 14.4111 83.3734 14.4251C83.2274 14.439 82.8797 14.46 82.6781 14.5089L82.4278 14.5508L81.7324 14.7742C81.5332 14.795 81.3318 14.7736 81.1413 14.7113C81.0301 14.6695 80.752 14.9069 80.5573 14.8789H80.3765C80.1457 14.8476 79.9118 14.8476 79.6811 14.8789L79.2847 14.9697C78.931 15.0627 78.5707 15.1281 78.2069 15.1652C78.0401 15.1652 77.8453 15.5422 77.7132 15.5772C77.4639 15.6403 77.2107 15.6869 76.9553 15.7168C76.6371 15.762 76.3247 15.8416 76.0235 15.9542C75.6941 16.0255 75.359 16.0675 75.0222 16.0798C74.9227 16.1355 74.8273 16.1986 74.7371 16.2684C74.6258 16.3452 74.1113 16.4918 73.9791 16.5686C73.6569 16.6603 73.3295 16.7325 72.9987 16.785C72.6544 16.9102 72.304 17.0174 71.9487 17.1062C71.6679 17.1766 71.3742 17.1766 71.0934 17.1062L71.1699 17.5112C71.1699 17.5112 71.0865 17.588 71.0378 17.595H70.7596C70.5261 17.7465 70.2736 17.8663 70.0086 17.9511L68.9308 18.2164L67.9782 18.4678C67.8809 18.4678 67.6236 18.6563 67.4637 18.5446C67.3037 18.4329 66.963 18.9076 66.8796 18.9635H66.7613C66.3928 18.9076 66.1494 19.1241 65.8435 19.1939L65.6766 19.2358C65.5743 19.3038 65.4576 19.3469 65.3359 19.3615C65.2733 19.3615 65.1133 19.4173 65.1133 19.5081C65.1133 19.5989 64.7796 19.5081 64.717 19.5081C64.4863 19.5408 64.2523 19.5408 64.0216 19.5081L63.9521 19.8362L63.9173 19.9968C63.5975 19.9968 63.1177 20.0806 62.8604 20.1156C62.6031 20.1505 61.9842 20.4646 61.9147 20.4437C61.4741 20.417 61.0321 20.4287 60.5935 20.4786L60.4127 21.0232L60.3362 21.2467C60.264 21.1761 60.1748 21.1255 60.0773 21.0998C59.9798 21.0741 59.8774 21.0742 59.7799 21.1C59.4356 21.2094 59.1044 21.3569 58.7925 21.5399L58.6117 21.2816C58.5289 21.2823 58.4476 21.3039 58.3753 21.3444L58.0485 21.5748C57.7268 21.6383 57.4123 21.7342 57.1098 21.8611C56.9637 21.9449 56.3796 21.8611 56.1363 22.0566H55.8094C55.6217 22.0566 55.872 22.3778 55.5452 22.3009H55.42C55.2768 22.3014 55.1359 22.3374 55.0098 22.4057C54.9333 22.4685 54.6482 22.3289 54.53 22.4057C54.2958 22.5235 54.0932 22.6959 53.9389 22.9084L53.6191 22.7967L53.5495 22.8107C53.3596 22.9477 53.1406 23.0385 52.9098 23.076H52.7777H52.6039C52.4231 23.076 51.7972 23.2226 51.2131 23.3553L50.7333 23.5857C50.6429 23.6345 50.6082 23.7532 50.4621 23.6345L50.2883 23.5019C50.1712 23.6489 50.0272 23.7721 49.8641 23.865H49.4469C49.2728 23.9411 49.1033 24.0273 48.9393 24.1233C48.7119 24.1927 48.4794 24.2441 48.2439 24.2769L47.938 24.4305L47.6668 24.5702C47.4316 24.6766 47.1716 24.7153 46.9158 24.6819C46.8671 24.626 46.5681 24.6819 46.4638 24.626C46.3595 24.5702 46.2274 24.8844 46.1161 24.9053H45.9006C45.7409 24.892 45.5821 24.9394 45.4556 25.038L45.2748 25.1217C45.086 25.2058 44.8831 25.2532 44.6768 25.2614H44.5725C44.3794 25.371 44.1977 25.4996 44.0301 25.6454C43.8493 25.799 43.0844 25.5686 42.9453 25.5826C42.8062 25.5965 42.4377 25.799 42.25 25.827C41.9795 25.9001 41.7022 25.9446 41.4225 25.9596C41.2765 25.9596 41.0331 26.2808 40.8592 26.3017C40.6076 26.2957 40.3587 26.2485 40.1222 26.1621C40.0248 26.1132 39.7467 26.4204 39.5937 26.4833C39.53 26.5091 39.4608 26.5181 39.3927 26.5096C39.3245 26.501 39.2597 26.4752 39.2043 26.4344C39.1348 26.3716 38.7454 26.5112 38.6063 26.581C38.4672 26.6508 38.0639 26.7416 38.0083 26.6508C37.9526 26.5601 37.5285 26.7416 37.4172 26.7905C37.153 26.5531 37.0278 26.7905 36.8609 26.8952C36.7633 26.9023 36.6695 26.9361 36.5897 26.993C36.4993 27.0558 36.2212 26.8813 36.1934 26.8324C36.1494 26.7901 36.0909 26.7665 36.03 26.7665C35.9691 26.7665 35.9106 26.7901 35.8666 26.8324C35.7484 26.9581 35.2755 26.8324 35.2964 26.8324C35.3172 26.8324 35.2338 26.7207 35.053 26.7626C34.7616 26.7506 34.4724 26.7061 34.1908 26.6299C33.9592 26.6165 33.727 26.6165 33.4954 26.6299C33.3563 26.6299 32.4802 26.6299 31.8613 26.6299C31.1188 26.5797 30.3877 26.4198 29.6918 26.1551C29.6292 26.0364 28.913 25.9456 28.6349 25.8479L28.5027 25.6803L28.3428 25.4709C28.1658 25.3742 27.9961 25.2645 27.8352 25.1427C27.7043 25.0574 27.5644 24.9872 27.418 24.9332C27.196 24.7704 26.9867 24.5907 26.7921 24.3956C26.6809 24.3048 26.6739 23.865 26.5766 23.7463C26.4515 23.5545 26.3795 23.3328 26.368 23.1039C26.4097 23.0131 26.0759 22.9154 26.069 22.8735C26.1872 22.6361 26.0342 22.4895 25.8117 22.3987L25.6935 22.3498C25.7713 22.2474 25.8711 22.1639 25.9855 22.1054V21.9518V21.8471C26.1037 21.6586 26.0829 21.5748 25.9369 21.6516C25.7767 21.7436 25.603 21.8096 25.4223 21.8471C25.4603 21.6809 25.5162 21.5193 25.5892 21.3653C25.6448 21.2327 25.3528 20.8906 25.3041 20.8277C25.2554 20.7649 25.2206 20.5484 25.0259 20.4786V20.4367L25.0746 20.1714C24.9177 19.8831 24.7918 19.5788 24.6991 19.2637C24.6296 19.0054 24.1498 18.2792 24.1011 18.1256L24.0455 17.993L23.9481 17.7835C23.7212 17.3536 23.5439 16.8992 23.4197 16.429V16.3801C23.4581 16.1936 23.4581 16.0011 23.4197 15.8145L23.1902 15.1931C23.2883 14.7346 23.3257 14.2651 23.3015 13.7967V13.7059V13.5942C23.4093 13.34 23.4818 13.0722 23.517 12.7982L24.115 12.2397C24.1114 12.1547 24.1306 12.0703 24.1706 11.9953C24.2124 11.9115 24.0942 11.6741 24.1706 11.6183C24.2471 11.5624 24.5044 11.0527 24.7269 10.7525L24.8521 10.4802C24.9425 10.2916 24.9773 10.0961 25.1859 9.97745L25.4988 9.7959C25.464 9.50265 25.4988 9.24432 25.6309 9.23035C25.763 9.21639 26.0133 9.12563 25.9299 9.09072C25.8465 9.05581 25.6657 8.95107 25.7422 8.93012C25.8187 8.90918 25.9786 8.83935 25.9647 8.81841C25.8949 8.7507 25.8151 8.69419 25.7282 8.65084C25.4448 8.64138 25.162 8.68397 24.8938 8.77652C24.6852 8.84634 23.9342 9.11865 23.6491 9.1745C23.364 9.23036 22.6965 9.60739 22.627 9.57946L22.5644 9.54456L21.869 9.73307C21.716 9.80289 21.57 9.88667 21.417 9.94951L21.3127 9.99142C21.244 10.0117 21.1807 10.0473 21.1277 10.0957C21.0747 10.1441 21.0334 10.2039 21.0068 10.2707H20.819H20.8677C20.7495 10.3196 20.4088 10.4313 20.1028 10.5151C19.7968 10.5989 18.9276 11.0597 18.7121 11.1295L18.5243 11.1854L18.3575 11.2342C18.0625 11.3472 17.7746 11.4777 17.4952 11.6252C17.1892 11.7789 16.1045 12.2467 15.8264 12.3584C15.3794 12.5166 14.9467 12.7128 14.533 12.9449C14.3151 13.08 14.0816 13.1878 13.8376 13.266C13.6916 13.3149 13.1423 13.4895 12.9684 13.5384C12.7258 13.5844 12.4914 13.6668 12.2731 13.7827C12.0787 13.9869 11.8411 14.1444 11.5777 14.2436L9.17177 15.2211L8.78237 15.5562C8.56838 15.7783 8.33573 15.9816 8.08701 16.1636L7.81583 16.3242C7.53074 16.5058 7.12047 16.82 6.85624 17.0224C6.43072 17.2574 5.99188 17.4672 5.542 17.6508C5.33344 17.779 5.09075 17.8399 4.84664 17.8254H4.70758L4.42248 17.7695C4.13722 17.7235 3.8454 17.7402 3.56718 17.8184C3.42811 17.8952 3.03871 17.6927 3.01785 17.7137C2.85604 17.7511 2.69012 17.7675 2.52415 17.7625L2.57979 17.5461C2.63732 17.4316 2.70727 17.3239 2.78839 17.2249C2.86488 17.0155 3.03176 16.827 2.57283 16.7292C2.37813 16.6873 2.07217 16.4988 2.11389 16.2125C2.11389 16.0449 2.01654 16.038 1.85661 15.9891L1.71753 15.9472C1.50469 15.6341 1.24962 15.3521 0.959592 15.1093L1.17515 14.6974L0.598013 14.2785L0.563233 13.9224V13.6291C0.362018 13.3628 0.204729 13.0658 0.0973546 12.7494C0.086767 12.4532 0.138909 12.1581 0.250334 11.8836L0.0695343 11.7649C0.0695343 11.7649 0.0695343 11.6462 0.0695343 11.6252L0.173834 11.5554C0.200686 11.5485 0.225411 11.535 0.245772 11.5162C0.266133 11.4973 0.281492 11.4736 0.290462 11.4473C0.299433 11.421 0.301726 11.3928 0.297147 11.3654C0.292568 11.3379 0.281261 11.3121 0.264234 11.2901L0.403314 11.1784C0.477647 11.1116 0.524717 11.0196 0.535434 10.92C0.535434 10.8363 0.472851 10.7245 0.535434 10.6547C0.62654 10.5507 0.726589 10.4549 0.834432 10.3684L1.04303 10.166C1.2725 9.94255 1.39768 9.67023 1.32119 9.55851C1.2447 9.4468 1.72448 9.32811 1.82183 9.23734C1.91918 9.14657 2.31554 9.04183 2.30163 8.99296C2.28772 8.94409 2.47548 8.7486 2.59369 8.63688C2.77902 8.50491 2.97171 8.38368 3.17083 8.2738C3.23941 8.18033 3.2977 8.07966 3.34467 7.97357C3.48355 7.84553 3.63237 7.72879 3.7897 7.62446C4.11332 7.46742 4.4509 7.34118 4.79798 7.24742C4.90924 7.20553 5.15261 6.89832 5.27082 6.82152C5.38903 6.74472 5.66718 6.50733 5.68804 6.56318C5.7089 6.61904 5.82016 6.68886 5.84102 6.52129C5.86188 6.35372 6.45987 6.01858 6.71716 5.82308L7.07876 5.9697C7.07876 5.9697 7.19697 5.93478 7.23174 5.89987C7.2665 5.86496 7.44033 5.66247 7.54463 5.54377C7.64894 5.42508 7.73933 5.48792 7.88535 5.54377C8.03138 5.59963 8.28868 5.58567 8.03139 5.35526C8.10328 5.26338 8.19322 5.18732 8.29563 5.13183C8.34431 5.13183 8.51814 5.20165 8.54595 5.17372L8.96317 4.7967C9.38805 4.70028 9.79757 4.54519 10.18 4.33587L10.2496 4.27304C10.4066 4.30825 10.5601 4.35731 10.7085 4.41966L10.7641 4.26605V4.18226C10.6529 4.02866 10.6668 3.90996 10.7641 3.91694C10.9835 3.91059 11.202 3.88725 11.4178 3.84711C11.6895 3.71429 11.9273 3.52085 12.1131 3.28156L12.3287 3.16984L12.433 3.12096C12.8398 3.10814 13.2447 3.05908 13.6429 2.97434L13.7472 2.60429C13.8117 2.59322 13.8775 2.59322 13.9419 2.60429C14.0462 2.60429 14.1853 2.66713 14.2548 2.60429L14.3731 2.53446C14.3731 2.4018 14.4774 2.31104 14.6582 2.34595H14.8042C14.9653 2.29819 15.1178 2.22514 15.2562 2.12951L15.4022 2.04573C15.5343 1.92005 15.7012 1.82928 15.7638 1.85023C15.924 1.82619 16.0738 1.75583 16.1949 1.64774H16.327L16.4522 1.61284C16.6112 1.66578 16.7785 1.68942 16.9459 1.68264L17.0154 1.64075L17.1406 1.56396C17.2381 1.47829 17.331 1.38738 17.4187 1.29164C17.4687 1.26001 17.5265 1.24323 17.5856 1.24323C17.6447 1.24323 17.7025 1.26001 17.7525 1.29164H17.829L18.1141 1.38241C18.4271 1.21454 18.7653 1.09899 19.1154 1.04029L19.3449 0.91462L19.4839 0.837805C19.6508 0.719109 19.8664 0.670245 19.9637 0.740066C20.0611 0.809888 20.3253 0.530596 20.4644 0.516632C20.7024 0.510273 20.9376 0.463035 21.1598 0.376981C21.271 0.293195 21.6326 0.530596 21.716 0.537578C21.9701 0.476079 22.2189 0.394358 22.4601 0.293198H22.7452C22.9329 0.293198 23.1624 0.293198 23.3362 0.293198C23.51 0.293198 23.517 0.293195 23.5379 0.181481V0.13959C23.5379 0.0907146 23.6909 0.13959 23.8021 0.13959C23.9134 0.13959 24.268 0.0208982 24.3584 0.013916H25.7908C26.3958 0.013916 28.009 0.30717 28.0994 0.279241C28.2762 0.272097 28.4516 0.3131 28.607 0.397926L28.7809 0.307155C28.8782 0.251297 29.0382 0.307155 29.1703 0.307155C29.4206 0.307155 29.6848 0.439818 29.9352 0.244318H29.9699C30.2133 0.404907 30.4358 0.467749 30.4497 0.376981C30.4636 0.286212 30.9713 0.272244 31.1451 0.307155C31.4545 0.434836 31.7466 0.601425 32.0143 0.802903C32.2475 0.912585 32.4961 0.985586 32.7514 1.01935C32.9322 1.09679 33.1046 1.19272 33.2659 1.30562C33.4954 1.44526 33.9265 2.00382 33.8709 2.08063C33.8153 2.15743 34.1004 2.40181 34.1629 2.47862C34.2255 2.55542 34.455 2.81376 34.5315 2.89056C34.6398 3.07192 34.7174 3.27013 34.761 3.47706C34.761 3.63765 34.9 4.11243 34.9348 4.03562C34.9696 3.95882 35.0808 3.94486 35.1086 4.10545C35.1896 4.39566 35.2454 4.69235 35.2755 4.9922C35.3351 5.36254 35.4475 5.72233 35.6093 6.06047C35.7275 6.34674 36.0752 7.1357 36.2073 7.15665C36.3394 7.1776 36.8262 7.75013 36.9861 7.79203C37.146 7.83392 36.9861 8.197 37.0695 8.25984C37.153 8.32268 37.3546 8.51818 37.3129 8.588C37.2758 8.70138 37.2758 8.82373 37.3129 8.93711C37.4054 9.28566 37.536 9.62286 37.7023 9.94254H37.306C37.2678 10.0341 37.2421 10.1304 37.2295 10.2288C37.2273 10.5024 37.2483 10.7757 37.2921 11.0457L37.0556 11.2552C36.9828 11.3389 36.9274 11.4364 36.8928 11.5419C36.8582 11.6474 36.845 11.7589 36.854 11.8696V12.0372C36.6696 12.1429 36.5068 12.2827 36.3742 12.4491L36.3047 12.6237L36.2351 12.7773C36.1675 12.9476 36.0762 13.1075 35.9639 13.2521C35.8451 13.4137 35.747 13.5896 35.6719 13.7757C35.5929 13.9448 35.5458 14.1271 35.5328 14.3134C35.5328 14.474 34.9974 14.6625 34.9417 14.7812C34.8861 14.8999 34.5802 15.3747 34.4759 15.5772C34.3716 15.7796 33.8779 16.5686 33.6971 16.9038L33.5093 17.197C33.3216 17.4902 33.0921 17.7695 32.9043 18.0698L32.8557 18.1396C32.8557 18.2723 33.1477 18.3281 33.4606 18.2653C33.8868 18.2435 34.3139 18.2435 34.7401 18.2653L34.7957 18.1466L34.8792 17.9441C35.0252 18.0349 35.199 18.0768 35.2616 18.0349C35.4865 17.9517 35.7196 17.8932 35.957 17.8603C36.2004 17.8603 36.7358 17.602 36.7845 17.7486C36.8331 17.8952 37.3407 17.6578 37.605 17.595C37.8692 17.5321 38.5298 17.1411 38.6758 17.1132C38.9036 17.0267 39.1357 16.9522 39.3712 16.8898C39.5625 16.8559 39.7492 16.7997 39.9275 16.7222C40.004 16.6733 40.296 16.7781 40.3447 16.7641C40.3934 16.7501 40.5741 16.6524 40.6645 16.6105C40.8463 16.5654 41.034 16.5489 41.2208 16.5616C41.6691 16.4012 42.104 16.2051 42.5212 15.9751L43.0705 15.9263L43.4251 15.8913C43.7321 15.8401 44.0362 15.7725 44.336 15.6888L44.4334 15.64L44.6698 15.5073C44.8823 15.506 45.0916 15.4558 45.2817 15.3607C45.3577 15.276 45.4532 15.2113 45.5599 15.1722C45.6364 15.1722 45.9006 15.1722 45.984 15.1373C46.2066 15.0322 46.4054 14.8825 46.5681 14.6974L46.8532 14.9557C46.888 14.956 46.9225 14.9493 46.9547 14.9361C46.9869 14.9229 47.0163 14.9035 47.041 14.8789L47.4026 14.4321Z" fill="url(#paint0_linear_1_886)"/>
<defs>
<linearGradient id="paint0_linear_1_886" x1="92.4643" y1="0.013916" x2="92.4643" y2="27.0064" gradientUnits="userSpaceOnUse">
<stop stop-color="#F65D62"/>
<stop offset="0.510417" stop-color="#F16683"/>
<stop offset="1" stop-color="#F88D6C"/>
</linearGradient>
</defs>
</svg>
