<svg width="42" height="50" viewBox="0 0 42 50" fill="none" xmlns="http://www.w3.org/2000/svg">
<path d="M16.7358 8.85964C19.2662 8.85964 21.7965 8.85964 24.3268 8.85964C24.5482 8.83006 24.7731 8.87488 24.9667 8.98718C25.1604 9.09947 25.3119 9.27299 25.398 9.48091C25.4461 9.60876 25.4665 9.74546 25.4581 9.88193C25.4496 10.0184 25.4124 10.1515 25.349 10.2723C25.2855 10.3931 25.1973 10.4989 25.0901 10.5825C24.9829 10.6662 24.8593 10.7259 24.7275 10.7575C24.5555 10.7931 24.3799 10.8074 24.2046 10.8001H9.23755C8.49532 10.8001 8.08626 10.515 8.01457 9.949C7.98707 9.80326 7.99397 9.65303 8.03472 9.51048C8.07548 9.36793 8.14893 9.23707 8.24914 9.12851C8.34934 9.01994 8.47349 8.93671 8.6115 8.88556C8.74952 8.83441 8.89755 8.81678 9.04358 8.83409C10.5618 8.83409 12.0842 8.83409 13.6024 8.83409L16.7358 8.85964Z" fill="black"/>
<path d="M29.3121 44.1191H24.7533C24.5867 44.1354 24.4185 44.1183 24.2585 44.0686C24.0986 44.019 23.9499 43.9377 23.8213 43.8297C23.6983 43.7137 23.6082 43.5667 23.5601 43.4039C23.512 43.2411 23.5077 43.0684 23.5476 42.9033C23.5875 42.7383 23.6702 42.587 23.7872 42.4649C23.9043 42.3427 24.0514 42.2542 24.2135 42.2084C24.437 42.1538 24.6669 42.1309 24.8967 42.1403H33.7993C33.9579 42.1297 34.1171 42.1297 34.2758 42.1403C34.5205 42.1608 34.7484 42.2746 34.9129 42.4586C35.0774 42.6426 35.1663 42.8829 35.1615 43.1307C35.1567 43.3784 35.0585 43.615 34.8869 43.7923C34.7153 43.9696 34.4832 44.0743 34.2379 44.085C33.6938 44.1233 33.1456 44.085 32.5973 44.085L29.3121 44.1191Z" fill="#010101"/>
<path d="M12.835 14.715C11.5952 14.715 10.3553 14.715 9.11544 14.715C8.39429 14.715 7.99365 14.3405 8.00208 13.7235C8.01052 13.1065 8.42381 12.7661 9.11122 12.7618C11.605 12.7618 14.1002 12.7618 16.5968 12.7618C16.7337 12.7457 16.8724 12.7588 17.0039 12.8003C17.1354 12.8418 17.2568 12.9107 17.3602 13.0026C17.4636 13.0945 17.5467 13.2073 17.6041 13.3337C17.6615 13.4601 17.6919 13.5973 17.6933 13.7363C17.6938 13.8755 17.6648 14.0133 17.6084 14.1403C17.5519 14.2674 17.4692 14.3808 17.3658 14.4731C17.2624 14.5653 17.1408 14.6342 17.0089 14.6752C16.877 14.7162 16.7379 14.7283 16.601 14.7108C15.3443 14.7235 14.0876 14.715 12.835 14.715Z" fill="black"/>
<path d="M31.2723 40.1874H28.5648C27.8437 40.1874 27.4177 39.8257 27.4093 39.2299C27.4009 38.6342 27.831 38.2469 28.5395 38.2427H34.0768C34.7473 38.2427 35.1775 38.6214 35.1859 39.2001C35.1943 39.7788 34.7642 40.1831 34.0515 40.1874H31.2723Z" fill="black"/>
<path d="M19.5316 20.1616C19.5316 20.7999 19.5316 21.4382 19.5316 22.085C19.5415 22.2193 19.5237 22.3542 19.4794 22.4812C19.435 22.6082 19.3651 22.7245 19.2739 22.8229C19.1828 22.9213 19.0725 22.9995 18.9499 23.0527C18.8273 23.1058 18.6951 23.1328 18.5616 23.1318C18.4287 23.1287 18.2977 23.0984 18.1767 23.0429C18.0556 22.9874 17.9469 22.9078 17.8571 22.8088C17.7673 22.7099 17.6982 22.5936 17.654 22.467C17.6099 22.3404 17.5915 22.2062 17.6001 22.0723C17.6001 20.8212 17.6001 19.5744 17.6001 18.3233C17.5845 18.1857 17.5978 18.0463 17.6394 17.9143C17.6809 17.7822 17.7496 17.6605 17.841 17.5572C17.9323 17.4538 18.0443 17.3711 18.1696 17.3144C18.2949 17.2578 18.4306 17.2285 18.5679 17.2285C18.7052 17.2285 18.841 17.2578 18.9663 17.3144C19.0915 17.3711 19.2035 17.4538 19.2949 17.5572C19.3863 17.6605 19.455 17.7822 19.4965 17.9143C19.538 18.0463 19.5514 18.1857 19.5358 18.3233C19.5442 18.9446 19.5316 19.5531 19.5316 20.1616Z" fill="black"/>
<path d="M25.8788 21.234C25.8448 21.4787 25.7215 21.7018 25.533 21.8596C24.6896 22.7106 23.8461 23.5617 23.0027 24.4128C22.914 24.5182 22.805 24.6044 22.6824 24.6661C22.5597 24.7278 22.4259 24.7638 22.289 24.7717C22.1522 24.7797 22.0152 24.7595 21.8863 24.7124C21.7574 24.6654 21.6394 24.5924 21.5393 24.4979C21.4432 24.3988 21.3688 24.2806 21.3208 24.1507C21.2728 24.0209 21.2523 23.8823 21.2606 23.744C21.2689 23.6057 21.3059 23.4706 21.3692 23.3476C21.4325 23.2246 21.5206 23.1163 21.6278 23.0298C22.4713 22.1532 23.3316 21.2837 24.2088 20.4213C24.3461 20.2669 24.5299 20.1625 24.7319 20.124C24.9339 20.0856 25.1428 20.1153 25.3264 20.2085C25.5141 20.2985 25.6687 20.4463 25.768 20.6305C25.8673 20.8148 25.9061 21.0261 25.8788 21.234V21.234Z" fill="black"/>
<path d="M25.8074 28.4895C25.2043 28.4895 24.6054 28.4895 24.0024 28.4895C23.8653 28.5042 23.7268 28.4902 23.5954 28.4483C23.464 28.4064 23.3426 28.3375 23.2388 28.246C23.135 28.1545 23.0512 28.0423 22.9924 27.9165C22.9337 27.7907 22.9013 27.654 22.8975 27.515C22.8971 27.376 22.926 27.2385 22.9822 27.1116C23.0384 26.9847 23.1206 26.8713 23.2234 26.7788C23.3262 26.6863 23.4473 26.6168 23.5787 26.575C23.71 26.5332 23.8487 26.52 23.9855 26.5363C25.2029 26.5363 26.4231 26.5363 27.6461 26.5363C27.7828 26.5219 27.921 26.5368 28.0516 26.58C28.1823 26.6231 28.3025 26.6935 28.4043 26.7867C28.5062 26.8798 28.5874 26.9936 28.6428 27.1206C28.6982 27.2475 28.7264 27.3848 28.7257 27.5235C28.7203 27.6579 28.6884 27.7898 28.6318 27.9115C28.5752 28.0333 28.495 28.1424 28.396 28.2324C28.2969 28.3224 28.1811 28.3915 28.0552 28.4356C27.9293 28.4798 27.7959 28.4981 27.6629 28.4895C27.043 28.498 26.4231 28.4895 25.8074 28.4895Z" fill="black"/>
<path d="M41.0023 12.2894C41.012 11.9989 40.9594 11.7097 40.8481 11.4416C40.7367 11.1735 40.5692 10.9329 40.3571 10.7362C37.2954 7.68087 34.2533 4.6128 31.231 1.53195C31.0707 1.35625 30.8747 1.21771 30.6563 1.12588C30.4378 1.03405 30.2023 0.991116 29.9658 1.00003C21.9868 1.00003 14.0078 1.00003 6.02875 1.00003C5.62132 0.990557 5.21442 1.0349 4.8184 1.13194C4.03204 1.33497 3.33934 1.80588 2.8575 2.46499C2.37567 3.1241 2.13427 3.93093 2.17418 4.74897C2.17418 12.2128 2.17418 19.6766 2.17418 27.1405C2.17418 27.2809 2.17418 27.4256 2.17418 27.566C2.19614 27.7981 2.30282 28.0138 2.47349 28.1711C2.64416 28.3283 2.86664 28.416 3.09776 28.417C3.73878 28.417 4.09305 27.9915 4.09305 27.1873C4.09305 19.7263 4.09305 12.2639 4.09305 4.80003C4.09305 3.60428 4.70454 2.97875 5.88115 2.97875C13.5453 2.97875 21.2066 2.97875 28.8651 2.97875C29.2868 2.97875 29.3501 3.11066 29.3501 3.48938C29.3501 6.17023 29.3501 8.84683 29.3501 11.5234C29.3501 12.4553 29.6622 12.766 30.6152 12.766C33.251 12.766 35.8868 12.766 38.5226 12.766C38.9696 12.766 39.0666 12.8766 39.0666 13.3192C39.0666 24.2639 39.0666 35.2085 39.0666 46.1532C39.0666 47.4298 38.4636 48.0341 37.1731 48.0341H22.9778C22.7675 48.0246 22.5567 48.0389 22.3495 48.0766C22.1111 48.1203 21.8992 48.2567 21.7596 48.4565C21.62 48.6563 21.5637 48.9035 21.603 49.1447C21.6621 49.7064 22.0627 49.9958 22.8007 49.9958H37.2363C37.6088 50.0007 37.9802 49.9564 38.3412 49.8639C40.0028 49.4128 40.9855 48.0426 40.9897 46.1404C40.9897 40.5149 40.9897 34.8908 40.9897 29.2681C40.9897 23.6085 40.9812 17.949 41.0023 12.2894ZM36.4899 10.817H31.6654C31.484 10.817 31.2774 10.8851 31.2774 10.5532C31.2774 8.52768 31.2774 6.50216 31.2774 4.45535L37.5779 10.817H36.4899Z" fill="black"/>
<path d="M24.9212 32.5276C21.1651 28.7205 17.4005 24.9247 13.6275 21.1403C13.3041 20.8085 12.916 20.5479 12.4877 20.375C12.0595 20.2022 11.6003 20.1208 11.1393 20.1361C10.6029 20.1409 10.0743 20.2657 9.59157 20.5017C9.10885 20.7377 8.68411 21.079 8.34799 21.5008C8.01188 21.9226 7.77277 22.4144 7.64797 22.9408C7.52317 23.4672 7.5158 24.015 7.62635 24.5446C7.68534 24.7809 7.66149 25.0304 7.55885 25.251C6.48486 27.7645 5.41369 30.2808 4.34532 32.7999C4.23695 33.0617 4.0778 33.299 3.87721 33.4978C2.8946 34.4765 1.91198 35.4552 0.950448 36.4552C0.360679 37.0488 0.0205399 37.849 0.000900175 38.6892C-0.0187396 39.5295 0.283634 40.345 0.845017 40.9659C2.28731 42.5106 3.77599 44.0169 5.31528 45.4637C5.90744 46.0156 6.68565 46.3193 7.49173 46.3129C8.2978 46.3066 9.07126 45.9908 9.65484 45.4297C9.95426 45.1446 10.0765 45.234 10.2916 45.468C11.5357 46.7446 12.7924 47.9914 14.0365 49.2595C14.2108 49.4636 14.4445 49.6068 14.7044 49.6688C14.9642 49.7307 15.2367 49.7081 15.483 49.6042C16.512 49.2382 17.5537 48.8978 18.5912 48.5489C19.6286 48.1999 19.8563 47.4552 19.0551 46.6382L14.5215 41.9574C14.0998 41.5318 14.0998 41.5318 14.6691 41.285C16.6133 40.434 18.5616 39.6169 20.5016 38.7701C20.8924 38.572 21.3365 38.5077 21.7667 38.5872C22.5281 38.701 23.3057 38.5683 23.9877 38.2082C24.6697 37.848 25.2209 37.279 25.5623 36.5829C25.8987 35.9265 26.0179 35.1786 25.9026 34.4489C25.7872 33.7191 25.4433 33.0458 24.9212 32.5276V32.5276ZM10.8019 41.4127C10.0217 42.1872 9.24996 42.9744 8.47399 43.7531C8.24391 44.0045 7.9268 44.1569 7.58838 44.1786C7.37749 44.1948 7.16561 44.1652 6.96702 44.0918C6.76842 44.0184 6.58772 43.9029 6.43708 43.7531C5.10865 42.4212 3.77601 41.0935 2.46023 39.7489C2.31602 39.6215 2.20046 39.4644 2.12128 39.2883C2.04211 39.1122 2.00115 38.921 2.00115 38.7276C2.00115 38.5342 2.04211 38.343 2.12128 38.1669C2.20046 37.9907 2.31602 37.8337 2.46023 37.7063C3.20246 36.9148 3.96576 36.1446 4.708 35.3531C4.8809 35.1701 4.97369 35.1574 5.15924 35.3531C7.04857 37.234 8.94212 39.1063 10.8399 40.9701C11.0297 41.1403 10.9664 41.251 10.8019 41.4127ZM16.7862 46.8935L16.6765 47.0638C16.2295 47.1999 15.774 47.3276 15.327 47.4893C15.2515 47.5153 15.1698 47.5161 15.0938 47.4916C15.0179 47.4671 14.9517 47.4185 14.9053 47.3531C13.7582 46.1872 12.6153 45.0254 11.4556 43.8765C11.2827 43.702 11.2616 43.6042 11.4556 43.4084C12.299 42.4935 12.2653 42.4978 13.1425 43.3574C14.3528 44.5446 15.5843 45.7105 16.7862 46.8935ZM16.2464 38.4765C15.1963 38.9318 14.1378 39.3829 13.0961 39.8595C12.981 39.9353 12.842 39.9651 12.7064 39.943C12.5707 39.921 12.448 39.8487 12.3623 39.7403C10.3886 37.7446 8.3981 35.7659 6.41178 33.7829C6.26839 33.634 6.09969 33.5233 6.21778 33.2467C7.14979 31.0978 8.06493 28.9403 8.98428 26.7786C12.4045 30.251 15.8036 33.7063 19.2279 37.1786L16.2464 38.4765ZM23.8374 35.5829C23.708 35.8984 23.4903 36.1691 23.211 36.3618C22.9316 36.5545 22.6027 36.6609 22.2644 36.668C22.0514 36.6716 21.8401 36.6295 21.6445 36.5444C21.4489 36.4593 21.2735 36.3331 21.1299 36.1744C17.3906 32.4127 13.6626 28.6496 9.94583 24.885C9.24577 24.1744 9.29215 23.2978 10.0217 22.5701C10.1573 22.4028 10.3276 22.2674 10.5205 22.1735C10.7135 22.0796 10.9245 22.0294 11.1387 22.0266C11.353 22.0238 11.5652 22.0683 11.7605 22.157C11.9559 22.2458 12.1296 22.3766 12.2695 22.5403C16.0032 26.2964 19.7326 30.0581 23.4579 33.8254C23.7059 34.034 23.878 34.3201 23.9467 34.6384C24.0155 34.9567 23.977 35.2891 23.8374 35.5829Z" fill="black"/>
</svg>
