<svg width="42" height="49" viewBox="0 0 42 49" fill="none" xmlns="http://www.w3.org/2000/svg">
<path d="M16.7358 7.86086C19.2662 7.86086 21.7965 7.86086 24.3268 7.86086C24.5482 7.83128 24.7731 7.8761 24.9667 7.9884C25.1604 8.10069 25.3119 8.27421 25.398 8.48213C25.4461 8.60998 25.4665 8.74668 25.4581 8.88315C25.4496 9.01961 25.4124 9.15269 25.349 9.2735C25.2855 9.39431 25.1973 9.50008 25.0901 9.58375C24.9829 9.66742 24.8593 9.72708 24.7275 9.75873C24.5555 9.79435 24.3799 9.80864 24.2046 9.80128H9.23755C8.49532 9.80128 8.08626 9.51618 8.01457 8.95022C7.98707 8.80448 7.99397 8.65425 8.03472 8.5117C8.07548 8.36915 8.14893 8.2383 8.24914 8.12973C8.34934 8.02116 8.47349 7.93793 8.6115 7.88678C8.74952 7.83563 8.89755 7.818 9.04358 7.83532C10.5618 7.83532 12.0842 7.83532 13.6024 7.83532L16.7358 7.86086Z" fill="white"/>
<path d="M29.3121 43.1203H24.7533C24.5867 43.1367 24.4185 43.1195 24.2585 43.0698C24.0986 43.0202 23.9499 42.939 23.8213 42.8309C23.6983 42.7149 23.6082 42.5679 23.5601 42.4052C23.512 42.2424 23.5077 42.0696 23.5476 41.9046C23.5875 41.7395 23.6702 41.5882 23.7872 41.4661C23.9043 41.344 24.0514 41.2555 24.2135 41.2096C24.437 41.155 24.6669 41.1321 24.8967 41.1416H33.7993C33.9579 41.1309 34.1171 41.1309 34.2758 41.1416C34.5205 41.1621 34.7484 41.2759 34.9129 41.4598C35.0774 41.6438 35.1663 41.8841 35.1615 42.1319C35.1567 42.3796 35.0585 42.6162 34.8869 42.7935C34.7153 42.9708 34.4832 43.0755 34.2379 43.0862C33.6938 43.1245 33.1456 43.0862 32.5973 43.0862L29.3121 43.1203Z" fill="white"/>
<path d="M12.835 13.7162C11.5952 13.7162 10.3553 13.7162 9.11544 13.7162C8.39429 13.7162 7.99365 13.3418 8.00208 12.7247C8.01052 12.1077 8.42381 11.7673 9.11122 11.763C11.605 11.763 14.1002 11.763 16.5968 11.763C16.7337 11.7469 16.8724 11.76 17.0039 11.8015C17.1354 11.843 17.2568 11.9119 17.3602 12.0038C17.4636 12.0957 17.5467 12.2085 17.6041 12.3349C17.6615 12.4613 17.6919 12.5985 17.6933 12.7375C17.6938 12.8768 17.6648 13.0145 17.6084 13.1416C17.5519 13.2686 17.4692 13.382 17.3658 13.4743C17.2624 13.5665 17.1408 13.6354 17.0089 13.6764C16.877 13.7174 16.7379 13.7295 16.601 13.712C15.3443 13.7247 14.0876 13.7162 12.835 13.7162Z" fill="white"/>
<path d="M31.2723 39.1886H28.5648C27.8437 39.1886 27.4177 38.8269 27.4093 38.2311C27.4009 37.6354 27.831 37.2482 28.5395 37.2439H34.0768C34.7473 37.2439 35.1775 37.6226 35.1859 38.2013C35.1943 38.7801 34.7642 39.1843 34.0515 39.1886H31.2723Z" fill="white"/>
<path d="M19.5316 19.1629C19.5316 19.8012 19.5316 20.4394 19.5316 21.0863C19.5415 21.2205 19.5237 21.3554 19.4794 21.4824C19.435 21.6094 19.3651 21.7258 19.2739 21.8241C19.1828 21.9225 19.0725 22.0007 18.9499 22.0539C18.8273 22.1071 18.6951 22.134 18.5616 22.1331C18.4287 22.1299 18.2977 22.0996 18.1767 22.0441C18.0556 21.9886 17.9469 21.909 17.8571 21.81C17.7673 21.7111 17.6982 21.5948 17.654 21.4682C17.6099 21.3417 17.5915 21.2074 17.6001 21.0735C17.6001 19.8224 17.6001 18.5756 17.6001 17.3246C17.5845 17.1869 17.5978 17.0475 17.6394 16.9155C17.6809 16.7834 17.7496 16.6618 17.841 16.5584C17.9323 16.455 18.0443 16.3723 18.1696 16.3157C18.2949 16.259 18.4306 16.2297 18.5679 16.2297C18.7052 16.2297 18.841 16.259 18.9663 16.3157C19.0915 16.3723 19.2035 16.455 19.2949 16.5584C19.3863 16.6618 19.455 16.7834 19.4965 16.9155C19.538 17.0475 19.5514 17.1869 19.5358 17.3246C19.5442 17.9458 19.5316 18.5543 19.5316 19.1629Z" fill="white"/>
<path d="M25.8788 20.2353C25.8448 20.48 25.7215 20.7031 25.533 20.8608C24.6896 21.7119 23.8461 22.5629 23.0027 23.414C22.914 23.5195 22.805 23.6057 22.6824 23.6674C22.5597 23.7291 22.4259 23.765 22.289 23.7729C22.1522 23.7809 22.0152 23.7607 21.8863 23.7137C21.7574 23.6666 21.6394 23.5936 21.5393 23.4991C21.4432 23.4001 21.3688 23.2818 21.3208 23.152C21.2728 23.0221 21.2523 22.8835 21.2606 22.7452C21.2689 22.6069 21.3059 22.4718 21.3692 22.3488C21.4325 22.2258 21.5206 22.1175 21.6278 22.031C22.4713 21.1544 23.3316 20.2849 24.2088 19.4225C24.3461 19.2682 24.5299 19.1637 24.7319 19.1253C24.9339 19.0868 25.1428 19.1165 25.3264 19.2097C25.5141 19.2997 25.6687 19.4475 25.768 19.6318C25.8673 19.816 25.9061 20.0273 25.8788 20.2353V20.2353Z" fill="white"/>
<path d="M25.8074 27.4907C25.2043 27.4907 24.6054 27.4907 24.0024 27.4907C23.8653 27.5054 23.7268 27.4914 23.5954 27.4495C23.464 27.4076 23.3426 27.3387 23.2388 27.2472C23.135 27.1557 23.0512 27.0435 22.9924 26.9177C22.9337 26.7919 22.9013 26.6552 22.8975 26.5162C22.8971 26.3772 22.926 26.2397 22.9822 26.1128C23.0384 25.9859 23.1206 25.8725 23.2234 25.78C23.3262 25.6875 23.4473 25.6181 23.5787 25.5763C23.71 25.5345 23.8487 25.5213 23.9855 25.5375C25.2029 25.5375 26.4231 25.5375 27.6461 25.5375C27.7828 25.5231 27.921 25.538 28.0516 25.5812C28.1823 25.6243 28.3025 25.6948 28.4043 25.7879C28.5062 25.8811 28.5874 25.9948 28.6428 26.1218C28.6982 26.2487 28.7264 26.386 28.7257 26.5247C28.7203 26.6591 28.6884 26.791 28.6318 26.9128C28.5752 27.0345 28.495 27.1436 28.396 27.2336C28.2969 27.3236 28.1811 27.3927 28.0552 27.4368C27.9293 27.481 27.7959 27.4993 27.6629 27.4907C27.043 27.4992 26.4231 27.4907 25.8074 27.4907Z" fill="white"/>
<path d="M41.0023 11.2906C41.012 11.0001 40.9594 10.7109 40.8481 10.4428C40.7367 10.1747 40.5692 9.9341 40.3571 9.73741C37.2954 6.68209 34.2533 3.61402 31.231 0.533166C31.0707 0.357474 30.8747 0.218931 30.6563 0.127101C30.4378 0.0352702 30.2023 -0.00766371 29.9658 0.00125146C21.9868 0.00125146 14.0078 0.00125146 6.02875 0.00125146C5.62132 -0.00822221 5.21442 0.0361247 4.8184 0.133165C4.03204 0.336195 3.33934 0.807104 2.8575 1.46621C2.37567 2.12532 2.13427 2.93215 2.17418 3.75019C2.17418 11.214 2.17418 18.6778 2.17418 26.1417C2.17418 26.2821 2.17418 26.4268 2.17418 26.5672C2.19614 26.7994 2.30282 27.015 2.47349 27.1723C2.64416 27.3295 2.86664 27.4172 3.09776 27.4183C3.73878 27.4183 4.09305 26.9927 4.09305 26.1885C4.09305 18.7275 4.09305 11.2651 4.09305 3.80125C4.09305 2.6055 4.70454 1.97997 5.88115 1.97997C13.5453 1.97997 21.2066 1.97997 28.8651 1.97997C29.2868 1.97997 29.3501 2.11188 29.3501 2.4906C29.3501 5.17145 29.3501 7.84805 29.3501 10.5246C29.3501 11.4566 29.6622 11.7672 30.6152 11.7672C33.251 11.7672 35.8868 11.7672 38.5226 11.7672C38.9696 11.7672 39.0666 11.8778 39.0666 12.3204C39.0666 23.2651 39.0666 34.2098 39.0666 45.1544C39.0666 46.431 38.4636 47.0353 37.1731 47.0353H22.9778C22.7675 47.0258 22.5567 47.0401 22.3495 47.0778C22.1111 47.1215 21.8992 47.2579 21.7596 47.4577C21.62 47.6575 21.5637 47.9047 21.603 48.1459C21.6621 48.7076 22.0627 48.997 22.8007 48.997H37.2363C37.6088 49.002 37.9802 48.9576 38.3412 48.8651C40.0028 48.414 40.9855 47.0438 40.9897 45.1417C40.9897 39.5161 40.9897 33.892 40.9897 28.2693C40.9897 22.6098 40.9812 16.9502 41.0023 11.2906ZM36.4899 9.81826H31.6654C31.484 9.81826 31.2774 9.88635 31.2774 9.55444C31.2774 7.5289 31.2774 5.50338 31.2774 3.45657L37.5779 9.81826H36.4899Z" fill="white"/>
<path d="M24.9212 31.5288C21.1651 27.7217 17.4005 23.926 13.6275 20.1416C13.3041 19.8097 12.916 19.5491 12.4877 19.3762C12.0595 19.2034 11.6003 19.122 11.1393 19.1373C10.6029 19.1421 10.0743 19.267 9.59157 19.503C9.10885 19.739 8.68411 20.0802 8.34799 20.502C8.01188 20.9238 7.77277 21.4156 7.64797 21.942C7.52317 22.4684 7.5158 23.0162 7.62635 23.5458C7.68534 23.7821 7.66149 24.0317 7.55885 24.2522C6.48486 26.7657 5.41369 29.282 4.34532 31.8011C4.23695 32.0629 4.0778 32.3002 3.87721 32.499C2.8946 33.4777 1.91198 34.4565 0.950448 35.4565C0.360679 36.05 0.0205399 36.8502 0.000900175 37.6904C-0.0187396 38.5307 0.283634 39.3462 0.845017 39.9671C2.28731 41.5118 3.77599 43.0182 5.31528 44.465C5.90744 45.0169 6.68565 45.3205 7.49173 45.3142C8.2978 45.3078 9.07126 44.992 9.65484 44.4309C9.95426 44.1458 10.0765 44.2352 10.2916 44.4692C11.5357 45.7458 12.7924 46.9926 14.0365 48.2607C14.2108 48.4648 14.4445 48.6081 14.7044 48.67C14.9642 48.7319 15.2367 48.7093 15.483 48.6054C16.512 48.2394 17.5537 47.899 18.5912 47.5501C19.6286 47.2011 19.8563 46.4565 19.0551 45.6394L14.5215 40.9586C14.0998 40.5331 14.0998 40.5331 14.6691 40.2862C16.6133 39.4352 18.5616 38.6182 20.5016 37.7713C20.8924 37.5732 21.3365 37.509 21.7667 37.5884C22.5281 37.7022 23.3057 37.5695 23.9877 37.2094C24.6697 36.8493 25.2209 36.2803 25.5623 35.5841C25.8987 34.9277 26.0179 34.1799 25.9026 33.4501C25.7872 32.7204 25.4433 32.047 24.9212 31.5288V31.5288ZM10.8019 40.4139C10.0217 41.1884 9.24996 41.9756 8.47399 42.7543C8.24391 43.0057 7.9268 43.1581 7.58838 43.1799C7.37749 43.196 7.16561 43.1664 6.96702 43.093C6.76842 43.0196 6.58772 42.9041 6.43708 42.7543C5.10865 41.4224 3.77601 40.0948 2.46023 38.7501C2.31602 38.6227 2.20046 38.4656 2.12128 38.2895C2.04211 38.1134 2.00115 37.9222 2.00115 37.7288C2.00115 37.5354 2.04211 37.3442 2.12128 37.1681C2.20046 36.992 2.31602 36.8349 2.46023 36.7075C3.20246 35.916 3.96576 35.1458 4.708 34.3543C4.8809 34.1713 4.97369 34.1586 5.15924 34.3543C7.04857 36.2352 8.94212 38.1075 10.8399 39.9714C11.0297 40.1416 10.9664 40.2522 10.8019 40.4139ZM16.7862 45.8947L16.6765 46.065C16.2295 46.2011 15.774 46.3288 15.327 46.4905C15.2515 46.5165 15.1698 46.5174 15.0938 46.4928C15.0179 46.4683 14.9517 46.4197 14.9053 46.3543C13.7582 45.1884 12.6153 44.0267 11.4556 42.8777C11.2827 42.7033 11.2616 42.6054 11.4556 42.4096C12.299 41.4947 12.2653 41.499 13.1425 42.3586C14.3528 43.5458 15.5843 44.7118 16.7862 45.8947ZM16.2464 37.4777C15.1963 37.933 14.1378 38.3841 13.0961 38.8607C12.981 38.9365 12.842 38.9663 12.7064 38.9443C12.5707 38.9222 12.448 38.85 12.3623 38.7416C10.3886 36.7458 8.3981 34.7671 6.41178 32.7841C6.26839 32.6352 6.09969 32.5245 6.21778 32.248C7.14979 30.099 8.06493 27.9416 8.98428 25.7799C12.4045 29.2522 15.8036 32.7075 19.2279 36.1799L16.2464 37.4777ZM23.8374 34.5841C23.708 34.8996 23.4903 35.1703 23.211 35.363C22.9316 35.5557 22.6027 35.6621 22.2644 35.6692C22.0514 35.6728 21.8401 35.6307 21.6445 35.5456C21.4489 35.4605 21.2735 35.3344 21.1299 35.1756C17.3906 31.4139 13.6626 27.6508 9.94583 23.8862C9.24577 23.1756 9.29215 22.299 10.0217 21.5713C10.1573 21.404 10.3276 21.2686 10.5205 21.1747C10.7135 21.0808 10.9245 21.0307 11.1387 21.0278C11.353 21.025 11.5652 21.0695 11.7605 21.1583C11.9559 21.247 12.1296 21.3778 12.2695 21.5416C16.0032 25.2976 19.7326 29.0593 23.4579 32.8267C23.7059 33.0352 23.878 33.3213 23.9467 33.6396C24.0155 33.958 23.977 34.2903 23.8374 34.5841Z" fill="white"/>
</svg>
