<svg width="20" height="77" viewBox="0 0 20 77" fill="none" xmlns="http://www.w3.org/2000/svg">
<path d="M12.037 0.838315C-3.06838 21.9094 -2.84503 50.1448 11.575 71.3266L8.89779 73.0535C8.73068 73.1555 8.59512 73.3017 8.50597 73.4761C8.41682 73.6505 8.37749 73.8463 8.39227 74.0423C7.86365 74.0878 7.79579 74.9715 8.35269 75.1115C10.1498 75.5479 11.9467 75.9685 13.7515 76.3576C14.5729 76.5341 15.9285 77.111 16.7951 76.6563C17.6616 76.2015 17.7244 75.006 17.9228 74.2136C18.4157 72.279 18.9073 70.3432 19.3976 68.4061C19.4415 68.2144 19.4293 68.0139 19.3624 67.8282C19.2956 67.6425 19.1769 67.4796 19.0205 67.3589C18.8641 67.2382 18.6766 67.1647 18.4804 67.1473C18.2842 67.1298 18.0875 67.1691 17.9137 67.2605L13.5828 70.0077C-0.719866 49.6432 -0.972261 22.118 13.1877 1.49346C13.6547 0.788725 12.5239 0.161277 12.037 0.838315Z" fill="#9B6160"/>
</svg>
