<svg width="49" height="49" viewBox="0 0 49 49" fill="none" xmlns="http://www.w3.org/2000/svg">
<path d="M47.4698 39.296C47.2317 39.175 46.9612 39.1371 46.6999 39.1881C46.209 39.2582 46.0606 39.1054 46.0624 38.5696C46.0836 31.3783 46.0883 24.187 46.0765 16.9956C46.0765 15.9888 45.7905 15.7012 44.791 15.7012H39.7426C38.6513 15.7012 38.3847 15.9744 38.3847 17.0945C38.3847 24.0042 38.3847 30.9127 38.3847 37.8199C38.3847 38.2604 38.5719 38.8357 38.3087 39.1072C38.0456 39.3787 37.4753 39.1342 37.048 39.1953C36.5465 39.269 36.4652 39.0533 36.4652 38.5894C36.4794 29.4672 36.4858 20.3456 36.4847 11.2246C36.4941 10.9602 36.447 10.697 36.3467 10.453C36.2464 10.209 36.0953 9.99013 35.9037 9.81146C32.8665 6.74436 29.8417 3.66406 26.8292 0.570589C26.6584 0.382774 26.4497 0.234769 26.2175 0.136712C25.9852 0.0386558 25.7349 -0.00713658 25.4837 0.00247281C18.4016 0.0120613 11.3183 0.0120613 4.23391 0.00247281C3.81307 -0.00634516 3.39287 0.0401818 2.98373 0.140904C1.13316 0.638905 0.00480727 2.19403 0.00304146 4.27593C0.00304146 11.0238 0.00304146 17.7711 0.00304146 24.5178C0.00304146 31.1925 0.00304146 37.8685 0.00304146 44.5456C-0.0122964 45.0095 0.0304213 45.4735 0.130175 45.9264C0.601646 47.8213 2.16263 48.9827 4.23039 48.9827C13.5397 48.9827 22.8497 48.9827 32.1602 48.9827C32.4227 48.9821 32.685 48.9671 32.946 48.9377C33.7989 48.8572 34.6011 48.4894 35.2257 47.8925C35.8503 47.2957 36.2616 46.5039 36.3946 45.6423C36.5924 44.3677 36.4776 43.0768 36.4599 41.795C36.4511 41.2125 36.6365 41.1118 37.1557 41.1172C40.3341 41.1405 43.502 41.1297 46.6751 41.128C46.852 41.1342 47.029 41.1276 47.2049 41.1082C47.4082 41.09 47.5988 40.9995 47.7431 40.8525C47.8874 40.7056 47.9763 40.5116 47.9942 40.3045C48.03 40.1009 47.9978 39.891 47.9028 39.7082C47.8077 39.5254 47.6553 39.3803 47.4698 39.296ZM26.8416 3.58376L32.9566 9.81326H27.2159C27.0182 9.81326 26.8363 9.84562 26.8363 9.5328C26.8451 7.52462 26.8416 5.51463 26.8416 3.58376ZM34.6535 21.0983C34.6535 21.4776 34.544 21.5783 34.1803 21.5729C32.8294 21.5513 31.4804 21.5639 30.1295 21.5639C29.0577 21.5639 28.7875 21.8336 28.7875 22.9087C28.7875 28.1386 28.7875 33.3703 28.7981 38.6002C28.7981 39.0569 28.7169 39.2546 28.2348 39.1827C27.7898 39.118 27.1912 39.3751 26.9316 39.0766C26.7109 38.8213 26.8522 38.2298 26.8522 37.7858C26.8522 34.7894 26.8522 31.793 26.8522 28.7966C26.8522 27.7287 26.559 27.4284 25.5102 27.4284H20.5129C19.4534 27.4284 19.155 27.7323 19.1532 28.7912C19.1532 32.0938 19.1532 35.3965 19.1638 38.6991C19.1638 39.0982 19.0738 39.2384 18.6765 39.1917C18.3986 39.1411 18.1125 39.1678 17.8483 39.269C17.6468 39.3403 17.4766 39.482 17.368 39.669C17.2594 39.8559 17.2194 40.076 17.255 40.2902C17.2703 40.5067 17.3621 40.7102 17.5133 40.8632C17.6646 41.0162 17.8651 41.1084 18.0779 41.1226C18.2698 41.1406 18.4627 41.146 18.6553 41.1387C23.7761 41.1387 28.897 41.1357 34.0178 41.1298C34.4469 41.1298 34.5882 41.2322 34.5741 41.6853C34.5405 42.764 34.5741 43.8265 34.5617 44.898C34.5511 46.2374 33.7777 47.0141 32.4604 47.0141H4.03968C2.68177 47.0141 1.94013 46.25 1.94013 44.8567C1.94013 38.092 1.94013 31.3268 1.94013 24.5609V4.42515C1.94013 2.78193 2.62526 2.08796 4.23568 2.08796C10.987 2.08796 17.7377 2.08377 24.4878 2.07538C24.9292 2.07538 25.0281 2.18505 25.0175 2.62731C24.9945 5.25215 25.0051 7.87519 25.0069 10.5C25.0069 11.4601 25.3177 11.7711 26.2748 11.7711C28.904 11.7711 31.5351 11.7711 34.1644 11.7711C34.5175 11.7711 34.6394 11.8484 34.6376 12.2349C34.6258 15.1834 34.6312 18.1378 34.6535 21.0983ZM34.5617 38.7908C34.5617 39.0892 34.4875 39.1899 34.1838 39.1845C33.1491 39.1647 32.1143 39.1575 31.0813 39.1845C30.7281 39.1953 30.6963 39.055 30.6963 38.7548C30.7069 36.2756 30.6963 33.7964 30.6963 31.3172C30.6963 28.8721 30.6963 26.4289 30.6875 23.9838C30.6875 23.6242 30.7475 23.4948 31.1343 23.5074C32.1319 23.5397 33.1314 23.5289 34.1361 23.5074C34.4346 23.5074 34.5635 23.5505 34.5635 23.9065C34.547 28.8733 34.5434 33.8365 34.5529 38.7962L34.5617 38.7908ZM24.9257 34.3501C24.9257 35.8118 24.9151 37.2752 24.9257 38.7368C24.9257 39.0676 24.8674 39.1971 24.5054 39.1863C23.4901 39.1575 22.473 39.1665 21.4576 39.1863C21.168 39.1863 21.0727 39.118 21.0744 38.8069C21.0862 35.7938 21.0862 32.78 21.0744 29.7656C21.0744 29.4996 21.1274 29.3917 21.417 29.3971C22.45 29.4151 23.483 29.4169 24.516 29.3971C24.8374 29.3971 24.9292 29.4708 24.9239 29.807C24.9045 31.3226 24.9168 32.8381 24.9168 34.3555L24.9257 34.3501ZM43.6591 39.1917C42.6791 39.1629 41.6973 39.1683 40.7155 39.1917C40.3906 39.1917 40.3059 39.1036 40.3076 38.7728C40.3171 31.8715 40.3171 24.9684 40.3076 18.0635C40.3076 17.6842 40.4401 17.6302 40.7597 17.6374C41.7574 17.6554 42.7568 17.6608 43.7616 17.6374C44.1147 17.6285 44.1854 17.7453 44.1836 18.0815C44.1712 21.5244 44.1836 24.9672 44.1836 28.4101C44.1836 31.8529 44.1836 35.2598 44.1942 38.6847C44.1765 39.1144 44.0494 39.2025 43.6591 39.1917Z" fill="white"/>
<path d="M18.2321 15.6938H29.4803C29.7611 15.6938 30.0454 15.6722 30.2873 15.861C30.4464 15.9736 30.5682 16.1328 30.6366 16.3174C30.705 16.5021 30.7167 16.7035 30.6702 16.895C30.6237 17.0866 30.5211 17.2592 30.3761 17.3902C30.2312 17.5211 30.0505 17.6042 29.8582 17.6283C29.6822 17.6463 29.5051 17.6505 29.3284 17.6409H6.77375C6.1204 17.6265 5.68601 17.2382 5.68071 16.6682C5.67541 16.0983 6.10627 15.6956 6.76315 15.6956C10.582 15.692 14.405 15.6914 18.2321 15.6938Z" fill="white"/>
<path d="M15.2792 19.5898H23.5891C23.8339 19.5681 24.0805 19.5987 24.3131 19.6796C24.5053 19.7493 24.6687 19.8832 24.7768 20.0595C24.8848 20.2357 24.9311 20.444 24.9081 20.6505C24.9062 20.8491 24.8386 21.0412 24.7162 21.1958C24.5938 21.3505 24.4238 21.4586 24.2336 21.5027C24.0295 21.5519 23.82 21.5742 23.6103 21.5692C18.0703 21.5692 12.5304 21.5692 6.99047 21.5692C6.10756 21.5692 5.61137 21.1431 5.6873 20.4905C5.75264 19.9152 6.17996 19.5916 6.92337 19.5916L15.2792 19.5898Z" fill="white"/>
<path d="M11.425 25.4704C9.84992 25.4704 8.27305 25.4704 6.69795 25.4704C6.46913 25.4841 6.24313 25.4134 6.06133 25.2713C5.87952 25.1292 5.75408 24.9252 5.70797 24.6966C5.66186 24.468 5.69817 24.2301 5.81026 24.0265C5.92235 23.823 6.10271 23.6673 6.31831 23.5881C6.48695 23.5426 6.66137 23.5232 6.83569 23.5306C9.91644 23.5306 12.9978 23.5306 16.0797 23.5306C16.786 23.5306 17.2169 23.8901 17.2239 24.4924C17.231 25.0947 16.7984 25.4722 16.1009 25.474C14.5423 25.474 12.9836 25.4728 11.425 25.4704Z" fill="white"/>
</svg>
