<svg width="49" height="49" viewBox="0 0 49 49" fill="none" xmlns="http://www.w3.org/2000/svg">
<path d="M47.4698 39.2947C47.2317 39.1738 46.9612 39.1359 46.6999 39.1869C46.209 39.257 46.0606 39.1042 46.0624 38.5684C46.0836 31.3771 46.0883 24.1857 46.0765 16.9944C46.0765 15.9876 45.7905 15.7 44.791 15.7H39.7426C38.6513 15.7 38.3847 15.9732 38.3847 17.0933C38.3847 24.003 38.3847 30.9114 38.3847 37.8187C38.3847 38.2592 38.5719 38.8345 38.3087 39.106C38.0456 39.3774 37.4753 39.1329 37.048 39.1941C36.5465 39.2678 36.4652 39.052 36.4652 38.5882C36.4794 29.466 36.4858 20.3444 36.4847 11.2233C36.4941 10.959 36.447 10.6958 36.3467 10.4518C36.2464 10.2078 36.0953 9.98891 35.9037 9.81024C32.8665 6.74313 29.8417 3.66284 26.8292 0.569369C26.6584 0.381553 26.4497 0.233548 26.2175 0.135492C25.9852 0.0374351 25.7349 -0.00835728 25.4837 0.00125211C18.4016 0.0108406 11.3183 0.0108406 4.23391 0.00125211C3.81307 -0.00756587 3.39287 0.0389611 2.98373 0.139683C1.13316 0.637684 0.00480727 2.19281 0.00304146 4.2747C0.00304146 11.0226 0.00304146 17.7699 0.00304146 24.5165C0.00304146 31.1913 0.00304146 37.8673 0.00304146 44.5444C-0.0122964 45.0083 0.0304213 45.4723 0.130175 45.9252C0.601646 47.8201 2.16263 48.9815 4.23039 48.9815C13.5397 48.9815 22.8497 48.9815 32.1602 48.9815C32.4227 48.9809 32.685 48.9659 32.946 48.9365C33.7989 48.8559 34.6011 48.4881 35.2257 47.8913C35.8503 47.2945 36.2616 46.5026 36.3946 45.6411C36.5924 44.3664 36.4776 43.0756 36.4599 41.7937C36.4511 41.2112 36.6365 41.1105 37.1557 41.1159C40.3341 41.1393 43.502 41.1285 46.6751 41.1267C46.852 41.133 47.029 41.1264 47.2049 41.107C47.4082 41.0887 47.5988 40.9982 47.7431 40.8513C47.8874 40.7043 47.9763 40.5103 47.9942 40.3033C48.03 40.0997 47.9978 39.8898 47.9028 39.707C47.8077 39.5242 47.6553 39.3791 47.4698 39.2947ZM26.8416 3.58254L32.9566 9.81204H27.2159C27.0182 9.81204 26.8363 9.8444 26.8363 9.53158C26.8451 7.5234 26.8416 5.51341 26.8416 3.58254ZM34.6535 21.0971C34.6535 21.4764 34.544 21.5771 34.1803 21.5717C32.8294 21.5501 31.4804 21.5627 30.1295 21.5627C29.0577 21.5627 28.7875 21.8324 28.7875 22.9075C28.7875 28.1374 28.7875 33.3691 28.7981 38.599C28.7981 39.0556 28.7169 39.2534 28.2348 39.1815C27.7898 39.1168 27.1912 39.3738 26.9316 39.0754C26.7109 38.8201 26.8522 38.2286 26.8522 37.7846C26.8522 34.7882 26.8522 31.7918 26.8522 28.7954C26.8522 27.7275 26.559 27.4272 25.5102 27.4272H20.5129C19.4534 27.4272 19.155 27.7311 19.1532 28.79C19.1532 32.0926 19.1532 35.3952 19.1638 38.6979C19.1638 39.097 19.0738 39.2372 18.6765 39.1905C18.3986 39.1399 18.1125 39.1666 17.8483 39.2678C17.6468 39.3391 17.4766 39.4808 17.368 39.6678C17.2594 39.8547 17.2194 40.0748 17.255 40.2889C17.2703 40.5055 17.3621 40.709 17.5133 40.862C17.6646 41.015 17.8651 41.1071 18.0779 41.1213C18.2698 41.1393 18.4627 41.1447 18.6553 41.1375C23.7761 41.1375 28.897 41.1345 34.0178 41.1285C34.4469 41.1285 34.5882 41.231 34.5741 41.6841C34.5405 42.7628 34.5741 43.8253 34.5617 44.8968C34.5511 46.2362 33.7777 47.0129 32.4604 47.0129H4.03968C2.68177 47.0129 1.94013 46.2488 1.94013 44.8554C1.94013 38.0908 1.94013 31.3255 1.94013 24.5597V4.42393C1.94013 2.78071 2.62526 2.08674 4.23568 2.08674C10.987 2.08674 17.7377 2.08255 24.4878 2.07416C24.9292 2.07416 25.0281 2.18383 25.0175 2.62609C24.9945 5.25093 25.0051 7.87397 25.0069 10.4988C25.0069 11.4589 25.3177 11.7699 26.2748 11.7699C28.904 11.7699 31.5351 11.7699 34.1644 11.7699C34.5175 11.7699 34.6394 11.8472 34.6376 12.2337C34.6258 15.1822 34.6312 18.1366 34.6535 21.0971ZM34.5617 38.7895C34.5617 39.088 34.4875 39.1887 34.1838 39.1833C33.1491 39.1635 32.1143 39.1563 31.0813 39.1833C30.7281 39.1941 30.6963 39.0538 30.6963 38.7536C30.7069 36.2744 30.6963 33.7952 30.6963 31.3159C30.6963 28.8709 30.6963 26.4276 30.6875 23.9826C30.6875 23.623 30.7475 23.4936 31.1343 23.5061C32.1319 23.5385 33.1314 23.5277 34.1361 23.5061C34.4346 23.5061 34.5635 23.5493 34.5635 23.9053C34.547 28.8721 34.5434 33.8353 34.5529 38.7949L34.5617 38.7895ZM24.9257 34.3489C24.9257 35.8105 24.9151 37.274 24.9257 38.7356C24.9257 39.0664 24.8674 39.1959 24.5054 39.1851C23.4901 39.1563 22.473 39.1653 21.4576 39.1851C21.168 39.1851 21.0727 39.1168 21.0744 38.8057C21.0862 35.7926 21.0862 32.7788 21.0744 29.7644C21.0744 29.4983 21.1274 29.3905 21.417 29.3959C22.45 29.4138 23.483 29.4156 24.516 29.3959C24.8374 29.3959 24.9292 29.4696 24.9239 29.8058C24.9045 31.3213 24.9168 32.8369 24.9168 34.3543L24.9257 34.3489ZM43.6591 39.1905C42.6791 39.1617 41.6973 39.1671 40.7155 39.1905C40.3906 39.1905 40.3059 39.1024 40.3076 38.7716C40.3171 31.8703 40.3171 24.9672 40.3076 18.0623C40.3076 17.683 40.4401 17.629 40.7597 17.6362C41.7574 17.6542 42.7568 17.6596 43.7616 17.6362C44.1147 17.6272 44.1854 17.7441 44.1836 18.0803C44.1712 21.5231 44.1836 24.966 44.1836 28.4088C44.1836 31.8517 44.1836 35.2586 44.1942 38.6835C44.1765 39.1132 44.0494 39.2013 43.6591 39.1905Z" fill="black"/>
<path d="M18.2321 15.6926H29.4803C29.7611 15.6926 30.0454 15.671 30.2873 15.8598C30.4464 15.9724 30.5682 16.1316 30.6366 16.3162C30.705 16.5008 30.7167 16.7022 30.6702 16.8938C30.6237 17.0854 30.5211 17.258 30.3761 17.389C30.2312 17.5199 30.0505 17.6029 29.8582 17.6271C29.6822 17.6451 29.5051 17.6493 29.3284 17.6397H6.77375C6.1204 17.6253 5.68601 17.2369 5.68071 16.667C5.67541 16.0971 6.10627 15.6944 6.76315 15.6944C10.582 15.6908 14.405 15.6902 18.2321 15.6926Z" fill="black"/>
<path d="M15.2792 19.5885H23.5891C23.8339 19.5669 24.0805 19.5975 24.3131 19.6784C24.5053 19.7481 24.6687 19.882 24.7768 20.0582C24.8848 20.2345 24.9311 20.4428 24.9081 20.6493C24.9062 20.8479 24.8386 21.04 24.7162 21.1946C24.5938 21.3493 24.4238 21.4574 24.2336 21.5014C24.0295 21.5507 23.82 21.573 23.6103 21.568C18.0703 21.568 12.5304 21.568 6.99047 21.568C6.10756 21.568 5.61137 21.1419 5.6873 20.4893C5.75264 19.9139 6.17996 19.5903 6.92337 19.5903L15.2792 19.5885Z" fill="#010101"/>
<path d="M11.425 25.4692C9.84992 25.4692 8.27305 25.4692 6.69795 25.4692C6.46913 25.4829 6.24313 25.4122 6.06133 25.2701C5.87952 25.128 5.75408 24.9239 5.70797 24.6953C5.66186 24.4667 5.69817 24.2289 5.81026 24.0253C5.92235 23.8218 6.10271 23.6661 6.31831 23.5869C6.48695 23.5414 6.66137 23.522 6.83569 23.5294C9.91644 23.5294 12.9978 23.5294 16.0797 23.5294C16.786 23.5294 17.2169 23.8889 17.2239 24.4912C17.231 25.0935 16.7984 25.471 16.1009 25.4728C14.5423 25.4728 12.9836 25.4716 11.425 25.4692Z" fill="black"/>
</svg>
