<svg width="46" height="50" viewBox="0 0 46 50" fill="none" xmlns="http://www.w3.org/2000/svg">
<g clip-path="url(#clip0_957_190)">
<path d="M44.8632 14.0519C44.3918 13.5681 43.9205 13.0937 43.4279 12.6217C42.0728 11.2948 40.2911 11.2971 38.9501 12.6217C37.9414 13.6221 36.9398 14.6296 35.8345 15.7357V15.1133C35.8345 12.9504 35.8345 10.7899 35.8345 8.62698C35.8432 8.41377 35.8056 8.2012 35.7242 8.00381C35.6429 7.80642 35.5197 7.62887 35.3631 7.48329C33.0064 5.15522 30.6622 2.81931 28.3306 0.475578C28.1777 0.314096 27.9915 0.187467 27.7848 0.104371C27.5782 0.0212761 27.356 -0.0163251 27.1334 -0.00585457C21.3201 0.00823601 15.5068 0.00823601 9.69346 -0.00585457C6.8418 -0.00585457 5.04832 1.74607 5.01297 4.58767C5.01297 4.91411 4.92812 4.97986 4.61232 4.98456C1.76301 5.01979 0.00488281 6.80929 0.00488281 9.65324V44.3302C0.00488281 47.1882 1.81722 49.0012 4.67124 49.0012H26.1765C28.9881 49.0012 30.8028 47.2258 30.8288 44.4288C30.8288 44.0765 30.9372 44.0155 31.2624 44.0131C34.0316 43.992 35.8368 42.1696 35.8368 39.4126C35.8368 35.5893 35.8368 31.7668 35.8368 27.9452C35.8298 27.794 35.8561 27.643 35.914 27.5031C35.9718 27.3631 36.0597 27.2374 36.1715 27.135C39.075 24.2589 41.9722 21.3743 44.8632 18.481C46.1688 17.1682 46.1665 15.3811 44.8632 14.0519ZM28.3353 7.12398C28.3353 5.74076 28.3353 4.35988 28.3353 2.94143L32.8909 7.48329C31.4415 7.48329 29.9945 7.48329 28.5498 7.48329C28.2387 7.48564 28.3377 7.26959 28.3353 7.12398ZM29.179 44.5533C29.1319 46.1972 28.0242 47.3385 26.3934 47.3385C19.0686 47.3385 11.7438 47.3385 4.41906 47.3385C4.0534 47.3514 3.689 47.2889 3.34867 47.155C3.00835 47.0211 2.69943 46.8186 2.44126 46.5603C2.18309 46.3019 1.98122 45.9932 1.84829 45.6535C1.71536 45.3138 1.65424 44.9505 1.66874 44.5861C1.66874 38.7057 1.66874 32.8252 1.66874 26.9447V9.50999C1.66874 7.71814 2.88011 6.5815 4.68302 6.64725C4.91869 6.64725 5.04124 6.69891 5.00589 6.95724C4.99763 7.07844 4.99763 7.20006 5.00589 7.32125C5.00589 17.9925 5.00589 28.6638 5.00589 39.3351C5.00589 42.2189 6.81352 44.0202 9.71938 44.0202C16.0213 44.0202 22.3217 44.0202 28.6205 44.0202C29.0353 44.0084 29.1932 44.0695 29.179 44.5533ZM34.1471 39.8822C34.1306 41.2608 32.9145 42.3434 31.4957 42.3551C29.3959 42.3692 27.296 42.3551 25.1961 42.3551H9.62983C7.74443 42.3551 6.66739 41.2725 6.66739 39.3938V4.637C6.66739 2.75825 7.74208 1.67093 9.62276 1.67093C15.1423 1.67093 20.661 1.66701 26.1789 1.65918C26.6055 1.65918 26.6785 1.78835 26.6738 2.17349C26.655 4.14382 26.6738 6.1165 26.6738 8.08683C26.6738 8.86182 26.9613 9.14363 27.7438 9.14363C29.7399 9.14363 31.7361 9.15537 33.7323 9.14363C34.1023 9.14363 34.1848 9.23757 34.1824 9.59688C34.1636 12.0533 34.1636 14.509 34.1824 16.9639C34.1878 17.1068 34.1615 17.2491 34.1053 17.3806C34.049 17.5122 33.9643 17.6297 33.8572 17.7248C30.2859 21.2678 26.7209 24.8077 23.1623 28.3444C23.0024 28.487 22.8762 28.663 22.7926 28.86C22.7091 29.0569 22.6703 29.2698 22.6791 29.4834C22.7003 30.8924 22.6791 32.2851 22.6791 33.6847C22.6791 34.4362 22.9525 34.6946 23.7279 34.6969C25.1419 34.6969 26.5725 34.6852 27.9959 34.6969C28.1849 34.7025 28.3729 34.6669 28.5467 34.5926C28.7205 34.5184 28.876 34.4073 29.0023 34.2671C30.6803 32.5692 32.3724 30.8854 34.1518 29.1006C34.1612 32.797 34.1871 36.3408 34.1471 39.8822ZM40.244 20.7449C36.2359 24.7153 32.2373 28.6982 28.2481 32.6937C28.1424 32.8159 28.0091 32.9113 27.8591 32.9721C27.7092 33.033 27.5469 33.0575 27.3856 33.0436C26.9708 33.0131 26.5536 33.0436 26.0234 33.0436C25.552 32.999 24.7743 33.2925 24.4443 32.9356C24.1568 32.6232 24.4255 31.8459 24.3406 31.2917C24.1474 30.0094 24.6753 29.1382 25.5897 28.2387C29.3322 24.6127 32.9993 20.9069 36.6806 17.2175C36.9704 16.9263 37.1236 16.8723 37.4347 17.2011C38.3421 18.1546 39.2777 19.0798 40.2298 19.9887C40.5291 20.2775 40.5645 20.4278 40.244 20.7449ZM43.7508 17.2222C43.1828 17.8258 42.5724 18.3965 41.9997 18.9906C41.8112 19.1855 41.7051 19.1315 41.5449 18.9695C40.5189 17.9409 39.4898 16.9169 38.4575 15.8977C38.2714 15.7169 38.2973 15.6112 38.4717 15.4421C39.0585 14.8808 39.6265 14.2984 40.2039 13.7278C40.4609 13.4625 40.8121 13.3082 41.1819 13.298C41.363 13.299 41.5421 13.3358 41.7088 13.4064C41.8755 13.4769 42.0265 13.5798 42.1529 13.709C42.6808 14.2303 43.2182 14.747 43.7319 15.2848C44.3117 15.886 44.3235 16.6116 43.7508 17.2199V17.2222Z" fill="white"/>
<path d="M20.0508 12.4715H28.0119C28.1499 12.4597 28.2887 12.4597 28.4267 12.4715C28.6307 12.4901 28.8206 12.5833 28.9597 12.7331C29.0989 12.8829 29.1775 13.0787 29.1804 13.2829C29.1834 13.487 29.1104 13.685 28.9756 13.8387C28.8408 13.9924 28.6536 14.0909 28.4502 14.1154C28.2941 14.1369 28.1361 14.1417 27.9789 14.1295H12.0119C11.8894 14.1295 11.7763 14.1295 11.6466 14.1295C11.5374 14.1273 11.4296 14.1037 11.3295 14.0601C11.2294 14.0164 11.1389 13.9535 11.0632 13.875C10.9875 13.7965 10.928 13.7039 10.8882 13.6025C10.8484 13.5011 10.8291 13.3929 10.8312 13.284C10.8334 13.1752 10.857 13.0678 10.9009 12.968C10.9447 12.8683 11.0078 12.7781 11.0865 12.7027C11.1653 12.6272 11.2583 12.568 11.36 12.5283C11.4618 12.4886 11.5704 12.4693 11.6796 12.4715C11.7998 12.4715 11.9153 12.4715 12.0426 12.4715H20.0508Z" fill="white"/>
<path d="M19.9452 19.1081H11.9841C11.8268 19.1207 11.6687 19.1152 11.5127 19.0916C11.3201 19.0554 11.1466 18.9524 11.0229 18.8009C10.8992 18.6494 10.8334 18.4591 10.8371 18.2638C10.8407 18.0685 10.9137 17.8809 11.043 17.7341C11.1722 17.5873 11.3495 17.4908 11.5433 17.4618C11.6995 17.4403 11.8575 17.4356 12.0147 17.4477H27.9887C28.1459 17.4356 28.3039 17.4403 28.4601 17.4618C28.6536 17.4923 28.83 17.5901 28.9581 17.7378C29.0863 17.8855 29.1578 18.0736 29.16 18.2688C29.1623 18.464 29.0951 18.6537 28.9705 18.8043C28.8458 18.9549 28.6717 19.0567 28.4789 19.0916C28.323 19.1153 28.1648 19.1209 28.0076 19.1081H19.9452Z" fill="white"/>
<path d="M17.0603 24.0915H11.7553C11.5817 24.106 11.4078 24.0666 11.2576 23.9788C11.1074 23.8909 10.9881 23.7588 10.9163 23.6007C10.8442 23.4613 10.8169 23.3032 10.838 23.1478C10.8591 22.9924 10.9275 22.8472 11.0341 22.7318C11.1248 22.6269 11.2391 22.5447 11.3677 22.4921C11.4963 22.4395 11.6355 22.4178 11.7741 22.4288H22.3795C22.9522 22.4288 23.3222 22.7553 23.3222 23.2414C23.3222 23.7275 22.9569 24.0845 22.3583 24.0868C20.5978 24.0939 18.8279 24.0915 17.0603 24.0915Z" fill="white"/>
<path d="M14.5857 29.0725C13.6689 29.0725 12.7498 29.0725 11.833 29.0725C11.2203 29.0725 10.8455 28.7602 10.8361 28.26C10.8267 27.7598 11.2085 27.4146 11.8495 27.4146C13.6689 27.4146 15.4875 27.4146 17.3054 27.4146C17.9535 27.4146 18.3353 27.7339 18.3306 28.2529C18.3258 28.7719 17.9441 29.0702 17.2889 29.0725H14.5857Z" fill="white"/>
<path d="M14.5291 34.0557C13.6288 34.0557 12.7285 34.0557 11.8282 34.0557C11.2178 34.0557 10.8431 33.741 10.836 33.2384C10.829 32.7359 11.2013 32.4001 11.8023 32.3977C13.6579 32.3977 15.511 32.3977 17.3619 32.3977C17.9652 32.3977 18.3376 32.7359 18.3305 33.2408C18.3234 33.7457 17.9463 34.0533 17.3359 34.0557C16.3932 34.058 15.4647 34.0557 14.5291 34.0557Z" fill="white"/>
</g>
<defs>
<clipPath id="clip0_957_190">
<rect width="45.8387" height="49" fill="white" transform="translate(0 0.0012207)"/>
</clipPath>
</defs>
</svg>
