<svg width="46" height="49" viewBox="0 0 46 49" fill="none" xmlns="http://www.w3.org/2000/svg">
<g clip-path="url(#clip0_957_187)">
<path d="M44.8632 14.0506C44.3918 13.5669 43.9205 13.0925 43.4279 12.6204C42.0728 11.2936 40.2911 11.2959 38.9501 12.6204C37.9414 13.6209 36.9398 14.6283 35.8345 15.7345V15.1121C35.8345 12.9492 35.8345 10.7887 35.8345 8.62576C35.8432 8.41255 35.8056 8.19998 35.7242 8.00259C35.6429 7.8052 35.5197 7.62765 35.3631 7.48207C33.0064 5.154 30.6622 2.81809 28.3306 0.474357C28.1777 0.312876 27.9915 0.186246 27.7848 0.103151C27.5782 0.0200554 27.356 -0.0175458 27.1334 -0.00707527C21.3201 0.00701531 15.5068 0.00701531 9.69346 -0.00707527C6.8418 -0.00707527 5.04832 1.74485 5.01297 4.58645C5.01297 4.91289 4.92812 4.97864 4.61232 4.98334C1.76301 5.01857 0.00488281 6.80807 0.00488281 9.65202V44.3289C0.00488281 47.187 1.81722 49 4.67124 49H26.1765C28.9881 49 30.8028 47.2246 30.8288 44.4276C30.8288 44.0753 30.9372 44.0143 31.2624 44.0119C34.0316 43.9908 35.8368 42.1684 35.8368 39.4113C35.8368 35.5881 35.8368 31.7656 35.8368 27.9439C35.8298 27.7927 35.8561 27.6418 35.914 27.5018C35.9718 27.3619 36.0597 27.2362 36.1715 27.1337C39.075 24.2577 41.9722 21.373 44.8632 18.4798C46.1688 17.167 46.1665 15.3798 44.8632 14.0506ZM28.3353 7.12276C28.3353 5.73954 28.3353 4.35866 28.3353 2.94021L32.8909 7.48207C31.4415 7.48207 29.9945 7.48207 28.5498 7.48207C28.2387 7.48442 28.3377 7.26837 28.3353 7.12276ZM29.179 44.552C29.1319 46.1959 28.0242 47.3373 26.3934 47.3373C19.0686 47.3373 11.7438 47.3373 4.41906 47.3373C4.0534 47.3502 3.689 47.2877 3.34867 47.1538C3.00835 47.0199 2.69943 46.8174 2.44126 46.559C2.18309 46.3007 1.98122 45.992 1.84829 45.6523C1.71536 45.3126 1.65424 44.9492 1.66874 44.5849C1.66874 38.7045 1.66874 32.824 1.66874 26.9435V9.50877C1.66874 7.71692 2.88011 6.58028 4.68302 6.64603C4.91869 6.64603 5.04124 6.69769 5.00589 6.95602C4.99763 7.07722 4.99763 7.19883 5.00589 7.32003C5.00589 17.9913 5.00589 28.6626 5.00589 39.3338C5.00589 42.2177 6.81352 44.0189 9.71938 44.0189C16.0213 44.0189 22.3217 44.0189 28.6205 44.0189C29.0353 44.0072 29.1932 44.0683 29.179 44.552ZM34.1471 39.881C34.1306 41.2595 32.9145 42.3422 31.4957 42.3539C29.3959 42.368 27.296 42.3539 25.1961 42.3539H9.62983C7.74443 42.3539 6.66739 41.2713 6.66739 39.3925V4.63578C6.66739 2.75703 7.74208 1.66971 9.62276 1.66971C15.1423 1.66971 20.661 1.66579 26.1789 1.65796C26.6055 1.65796 26.6785 1.78713 26.6738 2.17227C26.655 4.1426 26.6738 6.11528 26.6738 8.08561C26.6738 8.8606 26.9613 9.14241 27.7438 9.14241C29.7399 9.14241 31.7361 9.15415 33.7323 9.14241C34.1023 9.14241 34.1848 9.23635 34.1824 9.59566C34.1636 12.0521 34.1636 14.5078 34.1824 16.9627C34.1878 17.1056 34.1615 17.2479 34.1053 17.3794C34.049 17.5109 33.9643 17.6285 33.8572 17.7236C30.2859 21.2666 26.7209 24.8064 23.1623 28.3432C23.0024 28.4858 22.8762 28.6618 22.7926 28.8587C22.7091 29.0557 22.6703 29.2686 22.6791 29.4822C22.7003 30.8912 22.6791 32.2838 22.6791 33.6835C22.6791 34.435 22.9525 34.6933 23.7279 34.6957C25.1419 34.6957 26.5725 34.6839 27.9959 34.6957C28.1849 34.7012 28.3729 34.6657 28.5467 34.5914C28.7205 34.5172 28.876 34.4061 29.0023 34.2659C30.6803 32.568 32.3724 30.8842 34.1518 29.0994C34.1612 32.7958 34.1871 36.3396 34.1471 39.881ZM40.244 20.7437C36.2359 24.7141 32.2373 28.697 28.2481 32.6925C28.1424 32.8147 28.0091 32.9101 27.8591 32.9709C27.7092 33.0318 27.5469 33.0563 27.3856 33.0424C26.9708 33.0119 26.5536 33.0424 26.0234 33.0424C25.552 32.9978 24.7743 33.2913 24.4443 32.9344C24.1568 32.622 24.4255 31.8447 24.3406 31.2905C24.1474 30.0082 24.6753 29.137 25.5897 28.2375C29.3322 24.6115 32.9993 20.9057 36.6806 17.2163C36.9704 16.9251 37.1236 16.8711 37.4347 17.1999C38.3421 18.1533 39.2777 19.0786 40.2298 19.9875C40.5291 20.2763 40.5645 20.4266 40.244 20.7437ZM43.7508 17.221C43.1828 17.8246 42.5724 18.3952 41.9997 18.9894C41.8112 19.1843 41.7051 19.1303 41.5449 18.9682C40.5189 17.9396 39.4898 16.9157 38.4575 15.8965C38.2714 15.7157 38.2973 15.61 38.4717 15.4409C39.0585 14.8796 39.6265 14.2972 40.2039 13.7265C40.4609 13.4613 40.8121 13.307 41.1819 13.2968C41.363 13.2978 41.5421 13.3346 41.7088 13.4052C41.8755 13.4757 42.0265 13.5786 42.1529 13.7078C42.6808 14.2291 43.2182 14.7458 43.7319 15.2836C44.3117 15.8848 44.3235 16.6104 43.7508 17.2187V17.221Z" fill="black"/>
<path d="M20.0508 12.4703H28.0119C28.1499 12.4585 28.2887 12.4585 28.4267 12.4703C28.6307 12.4889 28.8206 12.5821 28.9597 12.7319C29.0989 12.8817 29.1775 13.0775 29.1804 13.2816C29.1834 13.4858 29.1104 13.6838 28.9756 13.8375C28.8408 13.9912 28.6536 14.0897 28.4502 14.1142C28.2941 14.1357 28.1361 14.1404 27.9789 14.1283H12.0119C11.8894 14.1283 11.7763 14.1283 11.6466 14.1283C11.5374 14.1261 11.4296 14.1025 11.3295 14.0589C11.2294 14.0152 11.1389 13.9523 11.0632 13.8738C10.9875 13.7953 10.928 13.7027 10.8882 13.6013C10.8484 13.4999 10.8291 13.3917 10.8312 13.2828C10.8334 13.174 10.857 13.0666 10.9009 12.9668C10.9447 12.8671 11.0078 12.7769 11.0865 12.7014C11.1653 12.626 11.2583 12.5667 11.36 12.5271C11.4618 12.4874 11.5704 12.4681 11.6796 12.4703C11.7998 12.4703 11.9153 12.4703 12.0426 12.4703H20.0508Z" fill="black"/>
<path d="M19.9452 19.1069H11.9841C11.8268 19.1195 11.6687 19.114 11.5127 19.0904C11.3201 19.0542 11.1466 18.9512 11.0229 18.7997C10.8992 18.6482 10.8334 18.4579 10.8371 18.2626C10.8407 18.0673 10.9137 17.8797 11.043 17.7328C11.1722 17.586 11.3495 17.4896 11.5433 17.4606C11.6995 17.4391 11.8575 17.4344 12.0147 17.4465H27.9887C28.1459 17.4344 28.3039 17.4391 28.4601 17.4606C28.6536 17.4911 28.83 17.5888 28.9581 17.7365C29.0863 17.8842 29.1578 18.0724 29.16 18.2676C29.1623 18.4628 29.0951 18.6525 28.9705 18.8031C28.8458 18.9537 28.6717 19.0555 28.4789 19.0904C28.323 19.1141 28.1648 19.1196 28.0076 19.1069H19.9452Z" fill="black"/>
<path d="M17.0603 24.0903H11.7553C11.5817 24.1048 11.4078 24.0654 11.2576 23.9775C11.1074 23.8896 10.9881 23.7576 10.9163 23.5995C10.8442 23.4601 10.8169 23.302 10.838 23.1465C10.8591 22.9911 10.9275 22.8459 11.0341 22.7306C11.1248 22.6256 11.2391 22.5435 11.3677 22.4909C11.4963 22.4382 11.6355 22.4166 11.7741 22.4276H22.3795C22.9522 22.4276 23.3222 22.754 23.3222 23.2402C23.3222 23.7263 22.9569 24.0833 22.3583 24.0856C20.5978 24.0927 18.8279 24.0903 17.0603 24.0903Z" fill="black"/>
<path d="M14.5857 29.0713C13.6689 29.0713 12.7498 29.0713 11.833 29.0713C11.2203 29.0713 10.8455 28.759 10.8361 28.2588C10.8267 27.7586 11.2085 27.4133 11.8495 27.4133C13.6689 27.4133 15.4875 27.4133 17.3054 27.4133C17.9535 27.4133 18.3353 27.7327 18.3306 28.2517C18.3258 28.7707 17.9441 29.069 17.2889 29.0713H14.5857Z" fill="black"/>
<path d="M14.5291 34.0545C13.6288 34.0545 12.7285 34.0545 11.8282 34.0545C11.2178 34.0545 10.8431 33.7398 10.836 33.2372C10.829 32.7347 11.2013 32.3988 11.8023 32.3965C13.6579 32.3965 15.511 32.3965 17.3619 32.3965C17.9652 32.3965 18.3376 32.7347 18.3305 33.2396C18.3234 33.7445 17.9463 34.0521 17.3359 34.0545C16.3932 34.0568 15.4647 34.0545 14.5291 34.0545Z" fill="black"/>
</g>
<defs>
<clipPath id="clip0_957_187">
<rect width="45.8387" height="49" fill="white"/>
</clipPath>
</defs>
</svg>
