<svg width="20" height="77" viewBox="0 0 20 77" fill="none" xmlns="http://www.w3.org/2000/svg">
<path d="M7.91179 0.588488C23.0182 21.6588 22.7962 49.8943 8.37722 71.0767L11.0545 72.8036C11.2216 72.9056 11.3572 73.0517 11.4463 73.2261C11.5355 73.4005 11.5748 73.5963 11.5601 73.7923C12.0887 73.8378 12.1566 74.7214 11.5997 74.8615C9.80265 75.298 8.00569 75.7187 6.20093 76.1078C5.37951 76.2844 4.02395 76.8614 3.15741 76.4067C2.29086 75.952 2.22798 74.7565 2.02953 73.964C1.53651 72.0295 1.04484 70.0937 0.554462 68.1566C0.510563 67.965 0.522768 67.7644 0.58962 67.5787C0.656472 67.3931 0.775151 67.2302 0.931522 67.1094C1.0879 66.9887 1.27535 66.9152 1.47158 66.8977C1.66781 66.8803 1.86454 66.9196 2.0383 67.0109L6.36936 69.7579C20.671 49.3927 20.9221 21.8675 6.76117 1.24368C6.29407 0.538976 7.42486 -0.0885264 7.91179 0.588488Z" fill="#9B6160"/>
</svg>
