<svg width="407" height="306" viewBox="0 0 407 306" fill="none" xmlns="http://www.w3.org/2000/svg">
<path fill-rule="evenodd" clip-rule="evenodd" d="M143.328 1.50478C142.675 1.88168 142.21 2.21777 141.635 2.60908C141.06 3.00038 139.819 2.76512 139.055 2.81793C138.184 2.87675 137.316 2.92956 136.491 3.04359C118.301 5.54627 103.021 24.4934 99.5103 40.6798C93.0638 70.4202 111.295 92.0261 110.225 111.019C109.949 115.94 103.943 130.158 101.256 135.204C100.416 135.677 92.4706 137.032 90.7704 137.386C89.1363 137.727 87.4577 138.128 85.8236 138.432C84.9339 138.596 84.1666 138.718 83.3021 138.912C82.4737 139.094 81.7268 139.369 80.9632 139.537C80.7879 139.236 80.5081 138.272 80.3773 137.857C79.8327 136.269 79.1767 134.722 78.4141 133.227C74.5515 125.798 68.6429 123.061 64.4609 132.267C63.3911 131.205 64.0911 130.947 61.4592 129.299C59.9283 128.338 58.269 128.93 57.2292 129.941C55.487 131.633 52.4084 135.776 50.7743 138.075C48.1327 141.796 46.0063 146.104 43.5329 149.719C42.4175 151.351 42.4115 151.139 41.3945 153.079C41.0895 153.659 40.8073 154.346 40.4952 154.88C38.8778 157.641 38.9247 160.551 40.3955 163.352C40.7377 164.004 41.1423 164.493 41.4221 165.06C41.3693 165.141 39.9164 166.853 39.154 168.026C36.6674 171.851 32.1756 181.162 30.5498 185.385C28.8437 189.806 27.3704 196.924 26.2274 201.744C23.826 211.888 22.6481 232.968 22.2927 244.476C22.2411 246.187 22.3804 247.845 22.3443 249.572C22.3083 251.267 22.2243 252.939 22.2699 254.667C22.3515 257.438 23.8008 265.442 24.3819 268.061C24.622 269.168 25.316 271.422 24.9822 272.442C24.562 273.717 24.1021 275.083 23.6327 276.283C21.4709 281.815 20.34 287.695 20.296 293.634C20.2479 299.688 20.8963 300.131 21.0764 302.834L1.65285 302.868C0.987665 303.024 0.420937 303.777 0.880801 304.548C1.32866 305.303 2.2664 305.126 3.21014 305.123C4.15388 305.121 5.07601 305.123 6.00775 305.123H11.6042L304.924 304.925C305.815 304.925 306.616 304.624 306.518 303.63C306.429 302.737 305.637 302.608 304.717 302.617C302.851 302.634 300.984 302.628 299.119 302.627C297.254 302.626 277.934 302.738 276.659 302.615C277.43 298.089 277.011 294.826 275.9 290.577C274.763 286.228 272.337 279.851 270.121 275.964C269.255 274.448 268.333 273.222 267.407 271.883C264.241 267.298 263.047 264.214 259.38 259.533C256.229 255.51 256.578 255.602 254.235 251.087C251.938 246.668 252.554 246.064 251.6 243.525C250.4 240.343 248.126 237.921 245.64 235.893C245.16 235.497 245.288 235.437 245.224 234.642L244.764 226.591L247.004 224.843C247.665 224.229 248.457 223.614 249.149 222.991C249.84 222.368 250.583 221.766 251.273 221.121C252.203 220.258 253.442 219.171 254.24 218.191L257.562 214.117C260.011 211.312 261.338 210.017 262.468 206.333C263.061 204.357 263.472 202.332 263.696 200.281C264.364 194.487 265.183 193.283 263.745 187.325C263.116 184.71 263.745 183.364 264.539 181.232C265.642 178.278 265.355 177.62 265.363 174.937C265.59 174.714 265.808 174.607 266.028 174.427C267.406 173.294 268.926 171.521 269.75 169.961L277.397 174.762C283.387 178.425 299.315 187.807 303.912 191.616C304.552 192.146 304.963 192.547 305.565 193.056C306.122 193.527 306.646 194.033 307.237 194.485C308.299 195.29 308.866 195.936 309.704 196.712C313.407 200.143 321.471 212.101 322.105 216.892C322.387 217.579 322.364 219.559 322.439 220.461C322.537 221.655 322.643 222.798 322.811 223.98C323.11 226.099 323.594 228.385 324.252 230.306C325.702 234.307 326.436 235.587 328.753 238.508C330.153 240.272 331.73 240.954 332.727 241.739C332.795 241.783 332.854 241.839 332.9 241.905C333.28 241.938 334.084 242.42 334.557 242.598C342.734 245.674 351.044 241.801 357.769 237.473C358.241 237.168 358.667 236.881 359.129 236.533C359.478 236.272 360.134 235.706 360.513 235.639C360.647 235.381 362.375 234.079 362.709 233.814L366.919 230.136C370.388 226.749 371.489 225.512 374.568 221.994C375.035 221.458 375.938 220.229 376.41 219.908C376.461 219.613 376.556 219.585 376.781 219.307C378.995 216.614 380.637 214.192 382.664 211.304C384.357 208.892 386.895 204.816 388.357 202.208C392.575 194.679 394.566 190.581 397.962 182.245C403.268 169.23 407.97 150.268 405.701 135.615C405.589 134.895 405.129 132.974 405.173 132.457L404.964 131.943C404.328 129.482 403.552 127.246 402.3 125.015C400.995 122.69 399.451 120.813 397.602 119.419C395.47 117.788 392.942 116.756 390.278 116.427C386.305 115.908 384.589 116.681 381.23 117.343C380.967 117.504 379.207 118.055 378.589 118.311C375.028 119.785 372.277 121.439 369.19 123.602C367.611 124.709 362.395 125.443 360.431 125.736C353.235 126.816 340.371 125.819 333.062 124.711C321.831 123.011 303.866 117.603 293.005 113.592L287.744 111.644C284.784 110.379 281.751 109.251 278.747 108.059C275.743 106.867 272.875 105.676 269.897 104.421L254.686 97.748C254.154 97.508 252.913 97.1479 252.571 96.7506C251.74 96.7182 245.691 93.9622 244.5 93.4425C244.423 92.4462 243.391 89.1045 243.019 88.2355C242.682 87.4529 241.744 87.2956 240.878 86.9715L235.861 85.2911C234.708 84.931 234.498 84.6453 233.173 84.9454C232.632 85.0654 229.287 86.5934 228.474 86.9379C227.905 87.178 226.61 87.9702 226.073 87.915C225.439 87.8502 224.131 87.4012 223.431 87.2356C217.759 85.8768 211.318 85.165 205.48 85.5155C206.421 79.4551 206.373 75.8361 205.286 69.8033C204.703 66.5624 203.476 61.0517 201.973 58.0329C201.78 57.644 201.454 56.9694 201.346 56.5409C201.743 55.8963 202.222 55.4402 202.66 54.7404C204.969 51.0422 204.942 46.3285 203.621 42.3074C203.358 41.5128 203.031 41.3052 201.94 40.8874C199.531 39.9668 197.569 40.0208 196.941 39.6259C195.463 23.3339 183.572 -7.08235 143.309 1.49517L143.328 1.50478ZM120.437 116.484C121.776 116.168 123.679 115.144 124.859 114.521C126.875 113.459 128.513 111.956 128.621 111.905L128.734 115.614C124.972 115.388 125.333 115.862 122.49 119.349C122.37 119.49 122.322 119.559 122.184 119.742L121.835 120.128C121.727 119.97 120.474 116.664 120.432 116.484H120.437ZM187.616 133.801C188.804 133.27 189.945 132.639 191.027 131.917C192.054 131.192 193.023 130.389 193.926 129.516L196.39 126.635L198.772 128.493C199.508 129.063 200.282 129.704 201.115 130.249C203.09 131.543 206.721 134.028 208.708 135.145C209.643 135.671 210.362 136.193 211.208 136.741L215.197 138.95C215.488 139.097 216.397 139.456 216.562 139.566C216.546 141.051 216.375 142.533 216.312 144.058C216.15 148.072 215.969 154.367 217.552 157.771C218.766 160.38 220.146 161.613 223.173 161.7C223.773 162.43 224.557 164.546 224.767 165.583C223.429 165.413 222.141 165.168 220.762 165.053C218.671 164.876 219.789 165.131 217.425 163.896C214.931 162.592 211.422 160.399 209.334 158.595C208.906 158.226 208.563 157.926 208.133 157.594L204.692 154.339C203.867 153.618 203.187 153.076 202.262 152.372C200.569 151.075 198.798 149.884 196.958 148.805C195.998 148.246 195.024 147.678 194.212 147.054C193.354 146.392 190.955 143.945 190.296 143.178L188.785 141.387C187.119 139.381 186.952 138.721 184.853 136.429C184.506 136.05 184.183 135.636 183.843 135.282L187.616 133.801Z" fill="url(#paint0_linear_30_3161)"/>
<path fill-rule="evenodd" clip-rule="evenodd" d="M191.891 39.6404C185.047 40.1374 178.363 42.2103 173.348 46.3035C172.203 47.2385 170.063 49.093 169.498 50.8395C167.43 50.9955 163.724 51.3976 162.247 52.2895C160.77 53.1813 161.827 53.0205 159.441 52.1322C157.228 51.4048 155.69 50.8203 153.317 50.615C152.316 50.5286 151.305 50.4566 150.268 50.3893C144.214 49.9944 135.499 51.9726 130.062 55.3863C129.476 55.7548 128.911 56.1245 128.381 56.5062C127.661 57.0308 127.541 57.2048 126.984 57.8062C124.691 60.262 124.429 62.9147 124.066 63.2808C123.803 63.5461 122.745 64.2327 122.377 64.3527L117.436 67.8505C117.402 66.2264 116.774 63.9782 116.509 62.2606C114.85 51.5393 115.944 39.2851 121.363 29.9082C121.809 29.1364 123.367 26.3721 123.846 26.0804C124.395 24.8632 129.027 19.7451 129.882 19.385C130.337 18.6071 134.42 15.8488 135.058 15.4239C138.691 13.0076 143.55 11.0511 147.869 9.85438C149.392 9.43307 150.675 9.25422 149.069 7.73941L143.989 4.3689C144.59 4.44572 150.283 6.9496 151.083 7.3253C153.543 8.48361 151.516 8.26155 156.203 8.11871C161.564 7.95667 167.403 10.4485 171.619 13.0688C184.947 21.3511 191.438 32.5633 191.88 39.6392L191.891 39.6404ZM395.72 171.299C395.714 172.019 394.136 176.221 393.787 177.157C389.104 189.721 382.62 201.897 374.873 212.398C373.938 213.667 370.538 218.072 369.23 219.452L368.321 220.441C368.176 220.597 368.04 220.763 367.915 220.936C367.621 221.302 367.254 221.594 366.936 221.954C361.465 228.153 349.919 237.819 341.001 236.471C340.378 236.377 338.422 235.939 338.196 235.604C336.484 235.031 333.867 232.465 333.273 230.891C332.765 230.628 331.629 227.335 331.376 226.416C330.889 224.632 330.548 222.812 330.357 220.974C329.928 217.027 330.138 212.691 330.591 208.807C331.258 203.065 332.417 198.115 333.961 192.691C334.433 191.036 335.036 189.404 335.478 187.825C335.976 187.967 336.52 188.277 337.028 188.494C342.775 190.968 348.329 193.272 354.621 194.475C358.824 195.278 361.095 193.182 361.543 193.155L362.465 192.415C363.262 191.798 364.352 191.095 365.023 190.375C365.525 189.843 366.093 189.415 366.603 188.854L368.029 187.254C368.679 186.524 369.47 185.205 370.001 184.253C370.299 183.721 371.497 181.207 371.682 181.024C372.258 179.004 372.908 178.616 372.99 175.733C373.047 173.693 372.749 171.839 371.909 170.292C370.846 168.324 371.429 169.591 372.288 165.457C372.748 163.233 371.448 161.919 370.336 161.076C369.255 160.259 367.598 159.319 366.286 158.627C364.885 157.89 363.485 157.114 362.055 156.364C361.043 155.833 354.435 152.495 353.334 152.19C353.584 151.452 357.642 146.164 358.412 145.197C359.747 143.517 362.422 140.348 363.867 138.858C366.057 136.603 367.654 135.082 369.965 133.065C370.685 132.435 371.406 131.823 372.155 131.265C375.128 129.042 378.499 126.779 382.188 125.51C385.526 124.363 385.951 124.633 389.045 124.452C389.839 124.404 389.375 124.452 390.593 124.735C394.11 125.575 396.476 128.042 398.006 131.217C401.778 139.048 400.623 150.435 399.023 158.817C398.693 160.547 396.304 170.711 395.704 171.29L395.72 171.299ZM156.062 76.4844C155.401 77.4951 156.756 79.0759 157.355 79.5885C158.556 80.6123 160.415 80.874 162.278 80.4011C163.983 79.969 165.129 78.675 166.801 78.747C168.587 78.825 169.587 79.8981 171.58 80.1598C176.057 80.7468 176.022 77.159 179.227 75.5698C181.292 74.5471 183.892 75.5134 184.787 71.8368C185.018 70.8873 184.892 68.836 183.682 68.6271C183.495 68.5852 183.3 68.6038 183.124 68.6801C182.949 68.7565 182.802 68.8868 182.705 69.052C182.237 69.9174 183.179 70.1527 182.953 71.3062C182.352 74.3838 179.63 71.7731 176.045 75.5842C175.355 76.3188 174.295 77.9848 173.226 78.2573C170.344 79.0003 168.248 75.4605 164.276 77.4027C162.922 78.0628 161.97 78.9163 160.003 78.7674C159.097 78.7002 158.482 78.3209 158.082 77.8636C157.461 77.1626 157.8 76.8649 157.468 76.3812C157.044 75.8795 156.396 75.9791 156.065 76.4844H156.062ZM362.87 188.115C363.84 187.514 364.86 186.467 365.588 185.637C366.657 184.418 367.48 183.053 368.177 181.233C368.745 179.75 369.59 177.539 369.672 175.743C369.761 173.807 368.97 169.555 366.248 171.61C362.252 174.619 358.385 183.573 359.532 187.574C360.096 189.542 361.601 188.888 362.87 188.11V188.115ZM252.51 266.055C252.943 263.556 252.111 260.198 249.906 259.814C247.513 259.402 246.211 262.411 245.869 264.587C244.788 271.506 251.194 273.662 252.51 266.053V266.055ZM69.2139 215.882C66.4619 216.463 64.0653 218.989 64.1326 222.29C64.1962 225.457 66.8113 228.131 70.2909 227.4C75.6712 226.271 76.6065 219.31 73.5616 216.997C72.4485 216.148 71.1194 215.48 69.2139 215.882ZM124.148 54.7537C124.06 55.0526 122.786 57.1784 124.35 57.5553C125.681 57.8746 125.96 56.2469 126.422 55.4403C127.205 54.0708 129.079 51.7133 130.363 51.0171L130.61 50.7435C130.765 50.6126 130.828 50.573 130.952 50.4818C136.436 46.3767 144.872 44.0828 151.506 45.9757C153.327 46.4955 153.848 44.5282 152.578 43.904C151.886 43.5643 149.725 43.2426 148.834 43.1478C142.42 42.4684 135.582 44.5882 130.782 47.8099C129.964 48.3572 128.795 49.1806 128.175 49.8012C126.762 51.2164 126.112 51.7457 124.956 53.4778C124.782 53.7395 124.285 54.6781 124.148 54.7537ZM179.701 35.9086L176.284 37.247L173.243 38.9347L172.62 39.4796C171.762 40.1326 169.773 41.5418 170.161 42.7097C170.401 43.4299 171.012 43.3771 171.756 43.3999L173.047 42.1023C176.348 39.1015 181.932 36.9193 186.465 37.5963C188.918 37.9564 189.431 39.2767 190.427 38.4917C190.553 38.389 190.655 38.2607 190.728 38.1152C190.8 37.9698 190.84 37.8106 190.846 37.6483C190.851 37.486 190.822 37.3244 190.76 37.1743C190.699 37.0241 190.605 36.8889 190.487 36.7777C190.137 36.432 189.375 36.0647 188.815 35.8522C185.594 34.6339 182.898 35.2989 179.705 35.9086H179.701ZM250.197 282.673C250.613 282.341 250.836 282.233 251.195 281.88C251.554 281.528 251.726 281.322 252.056 280.941C254.271 278.381 254.794 277.608 256.326 274.219C257.175 272.341 259.964 265.171 260.75 264.065C261.131 264.378 264.968 270.953 265.937 272.356C268.301 275.776 269.15 276.826 270.903 280.878C273.127 286.025 274.798 290.891 275.525 296.526C275.708 297.944 275.856 301.401 275.197 302.574C274.342 302.779 270.684 302.636 269.544 302.636C266.942 302.636 253.648 302.756 252.254 302.624C251.695 301.736 250.472 294.797 250.333 293.382C249.567 285.835 250.141 288.648 250.202 282.669L250.197 282.673ZM212.827 278.989C212.923 281.029 213.264 282.984 213.385 285.031C213.677 289.911 213.436 292.515 212.777 297.222L211.893 302.684L250.597 302.654C250.691 301.611 247.808 294.034 248.676 284.969C248.952 282.088 248.752 282.189 246.837 280.276C246.485 280.636 243.955 282.083 243.268 282.452C237.946 285.299 235.415 285.693 229.364 285.573C226.12 285.489 222.924 284.768 219.958 283.45C215.295 281.382 214.039 279.648 212.822 278.989H212.827ZM238.558 261.258C238.755 260.87 239.021 260.623 239.288 260.283L240.873 258.47C241.189 258.144 241.381 257.99 241.713 257.611C242.228 257.022 242.843 256.515 243.404 255.904C246.045 253.023 247.323 251.503 249.355 248.065L250.71 245.825C251.297 248.861 253.038 252.141 254.513 254.906C256.914 259.401 258.731 260.681 259.756 262.556C258.967 264.158 258.297 265.785 257.595 267.49C257.235 268.36 256.812 269.05 256.46 269.955C256.118 270.833 255.821 271.7 255.456 272.548C254.809 274.052 253.908 276.118 253.065 277.349C252.592 278.039 250.56 280.937 249.747 281.245L247.909 279.192C247.244 278.463 246.749 277.913 246.175 277.031C244.723 274.783 240.023 264.363 238.562 261.26L238.558 261.258ZM71.8038 240.113C72.3525 239.311 72.4786 238.335 73.3983 238.213C74.282 238.093 77.6415 238.115 78.6669 238.106C81.0287 238.082 83.4289 238.088 85.7582 238.059C90.1119 238.004 91.686 238.193 95.808 237.237C96.5044 237.075 98.0676 236.637 98.6284 236.58C98.6284 239.565 98.7809 242.489 98.8469 245.476C98.9141 248.547 98.8829 251.499 98.8205 254.567C98.7605 257.539 98.4507 260.303 98.5635 263.359C98.6716 266.271 98.7124 269.235 98.7208 272.152C98.728 275.006 98.7328 277.985 98.2165 280.712C97.2272 285.942 96.1454 290.393 94.9747 295.543C94.6901 296.79 94.1738 297.924 93.9649 299.034C93.6851 300.52 93.816 301.348 93.2289 302.779L68.2785 302.786C67.8991 301.995 67.8187 300.412 67.6194 299.386C66.9662 296.036 66.6804 292.441 65.9384 288.785C64.6249 282.35 63.7856 273.861 63.0423 267.088C62.3459 260.714 61.6892 255.291 64.4832 249.371C66.5339 245.017 69.5261 243.439 71.8074 240.113H71.8038ZM209.976 249.931L210.182 250.372C210.575 251.511 210.922 252.8 211.547 253.804C212.217 254.884 213.304 255.844 214.091 256.756C215.538 258.437 218.407 259.698 221.338 260.402C226.519 261.648 232.57 261.201 237.382 258.78C237.983 258.481 238.734 258.043 239.304 257.851C239.063 258.24 236.985 260.685 236.929 260.962C237.004 261.386 237.731 262.747 237.959 263.263C239.007 265.622 239.974 268.019 241.091 270.321L244.475 277.13C244.955 277.955 245.38 278.467 245.857 279.145C245.257 279.812 240.486 282.207 239.882 282.463C237.512 283.461 235.111 284.186 232.165 284.143C226.132 284.055 222.424 283.536 217.187 280.332C214.856 278.905 214.805 278.702 213.173 277.354C212.749 277.003 212.862 277.212 212.693 276.649C212.55 276.179 212.462 276.297 212.379 275.748C211.976 273.053 212.259 269.528 212.101 266.654C212.024 265.24 211.817 263.784 211.688 262.357C211.366 258.828 211.469 257.616 210.786 253.864C210.566 252.649 210.051 251.092 209.972 249.931H209.976ZM66.9674 243.172L65.8772 244.38C65.1827 245.237 64.5531 246.145 63.9933 247.096C59.6312 254.599 60.9591 262.1 61.9017 270.516C62.5128 275.968 63.1876 281.263 64.0329 286.562C64.3847 288.756 64.7821 292.758 65.17 294.531C65.4245 295.688 66.1305 301.583 66.0261 302.777L22.9753 302.832C22.4747 300.203 21.8719 298.205 21.8095 295.331C21.6894 289.647 22.3066 285.389 23.8831 280.026C24.5182 277.865 25.3971 275.78 26.1584 273.607C27.4383 269.958 31.8857 258.542 33.8668 255.242C34.4779 254.226 36.2598 251.297 37.015 250.29C37.0474 250.246 37.1026 250.17 37.1351 250.133C37.1713 250.084 37.2171 250.044 37.2695 250.013C37.5937 249.21 40.6867 245.238 41.472 244.157C42.8528 242.243 44.1663 240.385 45.4642 238.155C46.7358 235.97 47.9353 233.981 49.3137 232.014C50.0125 231.017 50.7617 230.078 51.4845 229.189C52.2073 228.299 53.0574 227.524 53.8535 226.677L54.0564 227.016C54.4862 228.107 54.1668 227.719 55.0229 229.239C56.7039 232.222 57.4123 233.001 60.3816 234.872C61.8428 235.795 63.483 236.574 65.2144 237.336C67.7887 238.471 67.7995 238.484 70.465 239.349C70.3593 239.589 67.6146 242.386 66.9638 243.165L66.9674 243.172ZM179.139 302.687C178.892 299.354 178.794 296.049 178.505 292.724C178.217 289.399 178.126 286.072 177.81 282.74C177.488 279.326 177.645 276.3 176.882 272.972C176.222 270.091 175.613 267.08 174.944 264.219C174.269 261.328 173.662 258.413 173.153 255.411C172.611 252.231 172.416 249.013 171.999 245.88C170.262 232.865 169.922 228.722 170.332 216.003C170.478 211.538 170.646 211.001 171.773 206.76C173.256 201.177 175.352 196.043 177.939 191.542C178.603 190.383 179.226 189.31 179.941 188.249C180.329 187.675 180.634 187.21 181.011 186.722C182.65 184.6 185.508 181.466 188.764 181.074C191.493 180.745 194.328 182.653 196.499 183.926C198.757 185.246 201.201 186.285 203.776 187.34C204.432 187.608 205 187.821 205.663 188.061C207.64 188.781 207.507 188.061 208.236 193.488C208.649 196.587 209.129 199.677 209.669 202.721C210.188 205.647 210.944 208.992 211.071 212C211.528 222.89 211.036 220.214 213.813 230.561C214.018 231.329 215.333 236.562 215.014 237.196C214.833 237.556 214.031 238.196 213.687 238.568C213.462 238.808 213.285 239.006 213.07 239.252L211.837 240.63C210.962 241.44 209.303 243.325 208.722 244.311C207.267 246.787 208.429 249.991 209.123 253.11C209.843 256.351 209.895 259.283 210.226 262.644C210.385 264.244 210.587 265.836 210.66 267.445C210.74 269.246 210.728 270.926 210.721 272.741C210.714 274.677 210.968 275.839 211.213 277.614C211.814 281.994 212.214 288.485 211.858 292.817C211.577 296.254 210.863 298.977 210.443 301.982C210.356 302.602 210.489 302.675 209.895 302.694C207.374 302.773 203.111 302.687 200.49 302.694L184.5 302.711C182.994 302.711 180.53 302.858 179.136 302.682L179.139 302.687ZM236.052 226.688C236.543 226.382 238.365 225.758 239.061 225.488C241.627 224.488 245.775 222.709 248.04 222.031C247.869 222.185 247.714 222.361 247.51 222.546L246.421 223.552C244.542 225.34 243.963 225.303 241.364 225.792C239.986 226.052 237.105 226.663 236.052 226.688ZM71.3703 237.819C68.7084 237.598 62.6737 234.448 60.6085 233.258C58.7559 232.188 57.889 231.198 56.8024 229.371C55.8154 227.709 54.7504 225.932 55.8262 223.643C56.2897 222.659 56.7868 222.048 56.812 220.705C56.8324 219.443 56.495 218.49 56.8936 217.224C57.4039 215.597 58.7835 213.623 59.6168 212.348C60.1307 211.565 60.683 210.801 61.1777 210.007C61.8032 208.995 61.8981 208.478 62.1142 207.16C62.3051 206.004 63.0579 202.45 63.6919 201.315L63.7808 201.183C64.0725 201.514 64.3619 202.109 64.6405 202.459C66.2734 204.499 71.5024 206.81 73.8509 207.74C75.8285 208.519 77.6607 208.616 78.5108 209.376C78.858 209.7 79.2288 209.998 79.6203 210.267C80.0933 210.593 80.3191 210.836 80.7825 211.201C81.0107 211.382 84.3366 213.411 84.5047 213.712C84.8649 216.053 82.5571 218.976 81.6602 220.193C80.977 221.119 80.3191 221.977 79.6671 222.896C79.0583 223.757 78.3775 224.667 77.8144 225.638C77.2297 226.647 76.8467 227.808 76.2871 228.809C75.7276 229.81 75.2137 230.741 74.6386 231.757C73.9278 233.015 72.0463 237.065 71.3799 237.826L71.3703 237.819ZM85.3812 217.104C85.6369 216.133 85.9443 215.476 86.0115 214.308C86.0944 212.894 85.7894 212.727 84.9189 212.148L81.1067 209.634C81.7839 209.615 82.9078 209.825 83.663 209.896C86.4201 210.15 89.1911 210.218 91.9574 210.1C94.3251 209.774 95.479 209.801 97.6594 209.019C98.7905 208.611 100.24 208.05 101.227 207.388C101.55 207.173 101.912 206.864 102.196 206.758C102.591 211.693 100.967 215.325 100.529 220.802C100.321 223.405 100.202 225.345 99.5277 227.771C99.2191 228.888 98.9081 229.803 98.7713 230.995C98.6224 232.279 98.6956 233.599 98.6284 234.89C97.9848 235.329 94.3839 236.083 93.3117 236.256C90.3676 236.727 83.6726 236.541 80.265 236.631C78.1038 236.687 75.8957 236.837 73.7369 236.833C73.9158 236.201 75.981 232.329 76.4348 231.559C78.5709 227.935 78.051 227.729 80.6829 224.016C81.2592 223.2 81.7635 222.517 82.3254 221.763C83.1755 220.609 84.0376 219.551 84.746 218.288C84.9033 218.011 85.2107 217.279 85.3812 217.106V217.104ZM223.782 200.091L223.699 207.613L224.223 219.856C224.403 221.56 224.518 223.967 225.424 225.051C225.729 225.411 226.756 226.205 227.322 226.347C228.262 226.587 229.376 226.442 230.37 226.347C235.392 225.886 240.194 223.326 244.752 221.579C245.738 221.2 249.102 220.163 249.575 219.898C249.614 218.561 247.654 214.989 247.167 213.502C245.958 209.836 246.652 208.892 247.089 205.805C243.909 206.034 236.929 207.994 232.801 208.47C229.911 208.801 227.472 208.544 226.34 206.542C225.793 205.573 225.527 204.283 225.98 203.124C226.447 201.945 227.171 201.485 227.859 200.744C227.041 200.784 226.453 200.888 225.592 200.771C224.558 200.629 224.475 200.338 223.779 200.088L223.782 200.091ZM29.4687 261.068L26.1632 269.078C25.0117 265.003 24.0644 259.235 23.775 254.969C22.7892 240.434 25.9531 201.107 31.6899 186.528C33.0107 183.167 34.5716 180.159 35.9896 176.937C36.8769 174.916 38.9517 171.011 40.222 168.98C40.3697 168.74 40.4178 168.657 40.5678 168.421C40.6975 168.214 40.7311 168.112 40.8884 168.049C41.0745 167.615 41.3327 167.319 41.598 166.96C41.9582 166.48 41.873 166.323 42.7195 166.322C43.0293 166.748 43.3582 166.964 43.7941 167.343L47.0564 170.017C47.066 169.999 47.0948 170.059 47.1104 170.082C47.3397 170.137 47.5378 170.335 47.778 170.554L52.0308 174.395C54.3566 176.455 56.6847 179.053 58.7871 181.426L61.5331 184.475C61.7348 184.689 61.8188 184.862 62.0134 185.092L64.213 187.486C66.4943 190.1 65.8664 188.558 66.2386 192.333C66.5051 195.046 66.325 194.366 65.2528 195.71C63.8948 197.414 64.4315 196.715 63.4746 198.527C62.2931 200.766 61.5535 202.652 60.9688 205.212C60.713 206.334 60.5797 208.058 60.0898 208.933C59.3694 210.219 57.6272 212.623 56.501 214.539C53.9999 218.788 56.1276 219.741 54.8945 222.221C54.6267 222.761 54.3686 223.181 54.174 223.799C54.066 224.135 54.054 224.441 53.9495 224.775C53.8451 225.109 52.5087 226.161 52.1989 226.418C51.7934 226.778 51.4108 227.162 51.0535 227.569C49.5394 229.209 48.3891 230.72 47.0348 232.745C45.8052 234.58 44.7186 236.536 43.5528 238.46C42.3521 240.438 41.1106 242.19 39.8222 243.921C39.1558 244.816 38.5014 245.644 37.8447 246.539C35.998 249.06 33.9328 252.106 32.3707 254.856C31.8033 255.847 31.2887 256.866 30.829 257.911C30.5889 258.446 29.6632 260.823 29.4615 261.067L29.4687 261.068ZM223.789 194.514C223.729 193.216 224.337 183.573 224.611 182.478C225.849 182.429 228.548 182.911 230.276 182.838C230.947 182.808 231.428 182.552 231.97 182.533C234.777 185.712 234.945 184.796 236.454 185.439C235.974 185.808 235.164 186.055 234.58 186.353C233.19 187.061 230.738 188.553 229.518 189.382C226.797 191.225 226.996 191.024 225.075 193.133C224.529 193.733 224.235 194.06 223.791 194.515L223.789 194.514ZM233.264 181.934C233.445 181.706 233.92 181.377 234.181 181.148C236.457 179.151 236.371 177.522 236.621 176.99C236.769 176.677 237.237 176.551 237.591 176.365L244.116 172.993C245.924 172.09 246.568 171.673 248.841 171.228C250.44 170.913 259.665 171.21 261.032 171.765C262.65 172.42 263.709 173.418 263.907 175.45C264.115 177.6 263.74 179.248 263.036 181.024C260.778 186.717 262.974 188.08 263.156 192.02C263.254 194.189 262.821 196.049 262.627 198.095C262.407 200.411 261.133 206.796 260.066 208.617C259.638 209.35 257.842 211.562 257.219 212.264L255.674 214.018C255.165 214.626 254.747 215.218 254.233 215.878C253.531 216.784 251.838 218.729 251.005 219.239C250.708 217.042 248.39 213.806 247.987 210.785C247.852 209.787 248.003 206.357 248.658 205.811C249.248 205.308 251.772 205.735 253.053 205.758C254.433 205.785 254.156 204.51 253.402 204.375C252.533 204.218 250.956 204.158 250.059 204.175C248.334 204.21 246.857 204.264 245.227 204.568C242.354 205.1 239.412 205.708 236.573 206.302C234.392 206.76 229.145 207.922 227.844 206.137C225.778 203.304 229.453 201.283 231.23 200.275C232.956 199.296 233.186 199.395 235.06 198.814C236.381 198.403 237.709 198.01 239.061 197.614C241.685 196.84 244.39 195.851 247.055 195.227C248.905 194.793 250.008 195.066 251.858 195.187C252.65 195.231 253.438 195.33 254.216 195.483C254.594 195.559 256.064 195.964 256.338 195.906C257.105 195.759 257.058 194.775 256.248 194.436C255.817 194.254 254.663 194.05 254.126 193.955C252.814 193.721 250.715 193.547 249.365 193.499C246.707 193.403 243.293 194.82 240.874 195.53C238.206 196.315 235.557 197.163 232.87 197.915C231.215 198.38 225.602 200.436 224.511 198.592C223.454 196.81 225.496 194.816 226.719 193.468L228.076 192.228C229.01 191.467 230.11 190.77 231.213 190.068C234.514 187.974 237.977 185.725 241.997 185.302C243.583 185.133 245.205 185.062 246.761 184.839C247.526 184.729 248.22 184.592 248.996 184.451C249.89 184.289 250.456 184.313 251.361 184.217C253.416 184 253.771 184.091 255.482 184.911C256.082 185.198 256.652 185.463 257.255 185.737C257.634 185.911 257.906 186.109 258.184 186.207C259.133 186.54 259.596 185.529 259.051 185.062C258.894 184.942 258.724 184.84 258.545 184.757C258.052 184.508 257.603 184.329 257.083 184.11C255.982 183.651 255.435 183.208 254.241 182.856C252.284 182.279 248.984 182.976 246.933 183.313C245.679 183.522 244.411 183.575 243.141 183.7C241.22 183.887 237.29 184.367 235.56 183.749C234.808 183.48 233.527 182.502 233.269 181.939L233.264 181.934ZM222.23 193.972C222.359 194.812 222.23 206.996 222.238 208.309C222.262 210.876 222.626 219.464 222.938 221.826C223.298 224.51 223.562 225.56 225.171 226.794C226.78 228.028 228.275 228.174 230.683 228.369C236.152 228.81 241.859 226.948 243.42 227.033C243.532 234.871 243.78 238.567 246.061 245.569C246.211 246.029 247.166 248.467 247.169 248.676C247.169 249.238 245.706 250.688 245.368 251.076C244.261 252.368 243.305 253.117 242.062 254.166C240.702 255.314 239.876 255.772 238.27 256.67C234.1 258.999 229.459 260.009 224.571 259.448C222.89 259.254 219.064 258.479 217.982 257.66C218.123 254.826 217.845 251.989 217.812 249.164C217.781 246.388 217.895 243.489 217.59 240.773C217.35 238.654 216.882 235.225 216.184 233.467L214.237 226.829C212.338 220.481 212.846 217.257 212.505 211.303C212.367 208.863 211.785 206.201 211.359 203.827C211.149 202.664 210.063 197.194 210.201 196.438L209.264 191.036C208.942 189.356 208.582 187.448 208.41 185.715C208.195 183.521 208.59 179.561 209.444 177.495C210.141 175.804 212.137 174.055 213.539 172.298L216.439 169.003C217.238 168.174 218.496 166.57 220.271 166.602C223.446 166.655 227.285 167.752 229.637 169.672C231.118 170.882 234.939 174.917 235.072 176.641C235.192 178.147 233.426 179.957 232.694 180.464C231.166 181.519 229.528 181.366 227.462 181.22C224.157 180.987 223.558 180.32 223.206 182.564C223.005 183.846 222.286 193.877 222.223 193.967L222.23 193.972ZM264.949 173.355C265.79 172.86 268.191 170.377 268.586 169.244L267.367 168.426C265.506 167.312 258.122 162.73 257.153 162.561C256.595 162.464 256.023 162.262 255.533 162.21C254.27 162.083 252.875 162.153 251.644 162.051C248.965 161.831 246.702 161.874 245.082 163.371C244.512 163.897 243.919 165.052 243.882 166.144C243.842 167.27 243.914 167.895 245.289 168.721C248.095 170.401 259.674 168.815 263.04 171.153C264.315 172.04 264.241 172.436 264.95 173.355H264.949ZM369.859 169.895C369.979 169.415 369.739 169.586 370.192 168.055C371.881 162.231 371.06 163.197 364.618 159.423C362.701 158.293 360.723 157.268 358.694 156.353C357.037 155.622 354.147 153.885 352.494 153.443C351.259 154.503 344.837 166.109 344.12 167.567C343.134 169.572 337.156 181.818 337.233 183.205C336.993 183.481 336.688 184.424 336.559 184.785C336.355 185.357 336.098 185.949 335.973 186.551L339.702 188.046C339.874 188.251 344.494 189.984 345.197 190.222C347.189 190.901 349.102 191.554 351.19 192.126C357.163 193.766 358.994 193.514 363.019 190.292L364.977 188.417C367.487 185.796 367.798 185.319 369.66 181.71C371.175 178.77 372.106 175.965 371.182 172.441C371.064 171.964 370.887 171.504 370.657 171.07C370.445 170.672 370.193 170.199 369.861 169.895H369.859ZM224.804 161.748C225.044 162.348 225.422 163.124 225.712 163.909C225.817 164.196 226.456 166.199 226.487 166.238C226.622 166.407 228.251 167.078 228.578 167.237C229.28 167.569 229.936 167.99 230.529 168.491L232.5 170.421C233.426 171.539 233.683 171.407 234.969 173.443L236.187 175.401C237.54 174.833 241.073 172.834 243.166 171.838C243.646 171.61 245.279 170.891 245.568 170.648C243.501 169.826 242.257 168.9 242.232 166.147C242.208 163.597 243.793 162.306 245.131 161.284C244.309 161.243 243.579 161.419 242.769 161.467C241.91 161.52 241.03 161.49 240.169 161.476C236.08 161.405 234.105 161.403 229.975 161.638C229.135 161.686 228.294 161.758 227.477 161.768C226.659 161.777 225.59 161.673 224.808 161.747L224.804 161.748ZM209.693 174.414C210.087 174.139 213.12 170.554 213.593 169.955C214.509 168.798 217.593 166.053 217.796 165.648C217.341 165.235 215.747 164.598 215.107 164.223C214.207 163.699 213.39 163.22 212.533 162.7C209.87 161.08 208.762 159.957 206.693 158.245C206.047 157.709 204.678 156.197 203.451 155.197C202.643 154.54 199.543 151.99 198.732 151.678C199.591 153.56 200.372 155.603 201.188 157.559C203.671 163.522 205.741 169.442 209.696 174.413L209.693 174.414ZM242.464 149.447C243.205 149.75 247.62 152.669 248.764 153.357C249.165 153.597 250.488 154.386 250.753 154.659C250.607 155.096 250.089 155.993 249.841 156.319C248.863 155.885 247.92 155.377 247.019 154.8C246.462 154.454 244.703 153.315 244.229 153.183L243.843 155.757C245.321 157.283 249.308 159.09 250.058 159.749C249.409 159.813 248.857 159.692 248.16 159.716C247.523 159.735 246.897 159.723 246.262 159.731C245.015 159.741 243.96 159.879 242.765 159.979C240.496 160.169 237.636 159.919 235.268 159.936C231.99 159.96 223.599 160.928 221.16 159.867C219.729 159.246 218.706 157.107 218.278 155.255C217.13 150.284 217.902 139.219 218.574 134.357C219.025 134.511 224.07 137.786 224.62 138.128L242.216 149.218C242.442 149.369 242.415 149.329 242.464 149.447ZM188.793 179.537C190.576 179.562 192.423 180.213 193.914 180.808C195.098 181.288 196.763 182.414 198.099 183.119C200.224 184.271 202.426 185.274 204.69 186.12C205.448 186.413 206.328 186.665 207.036 186.96C207.048 186.833 206.842 184.837 206.863 183.822C206.897 182.162 207.256 179.434 207.724 177.873C207.987 176.995 208.621 176.035 208.778 175.432C204.434 170.579 200.872 160.798 198.282 154.357C197.924 153.447 197.508 152.561 197.037 151.704C196.374 150.514 196.154 150.024 195.262 149.482C194.088 148.77 192.778 147.913 191.9 146.953L189.979 144.976C189.599 144.616 189.405 144.256 189.05 143.905C187.681 142.554 186.016 140.106 184.67 138.394C184.452 138.116 183.965 137.519 183.661 137.358C183.724 138.558 183.995 139.829 184.141 141.02C184.622 144.929 185.042 148.434 185.05 152.454C185.05 154.929 184.915 157.775 184.498 160.136C184.081 162.497 181.829 166.355 180.635 168.577C180.184 169.417 179.544 170.159 179.075 171.114C177.975 173.366 177.964 175.176 177.582 177.812C176.982 181.893 175.283 188.232 175.781 192.223C176.021 191.995 177.785 188.829 178.182 188.207C180.197 185.057 184.666 179.472 188.788 179.53L188.793 179.537ZM112.669 170.6C112.217 167.193 109.381 158.761 108.283 154.912C108.192 154.592 108.116 154.183 107.975 153.823C107.917 153.673 101.682 151.583 100.62 150.616C99.3188 149.433 99.1279 149.099 98.3654 147.175C97.1371 144.087 99.3476 139.029 100.714 136.921C99.1531 137.152 97.3821 137.609 95.7791 137.912C94.1762 138.216 92.5301 138.539 90.9416 138.873C89.2774 139.216 82.3987 140.553 81.3817 140.978L82.3878 145.531C82.969 148.659 82.2558 146.915 84.1012 149.425C85.0702 150.739 87.4884 154.897 88.3421 156.474C89.6628 158.917 90.5754 161.842 91.3294 164.783C91.7196 166.308 92.0786 167.746 92.3872 169.32C92.5253 170.026 93.002 173.945 93.1917 174.211C93.08 175.266 93.6071 178.469 93.6935 179.822C93.8136 181.755 93.8664 183.69 93.9277 185.634C93.9889 187.631 94.1042 189.482 94.2158 191.426C94.3359 193.599 94.0874 195.374 94.0622 197.428C94.7442 197.788 95.9328 198.028 96.7433 198.332C98.8697 199.13 99.8411 199.589 101.395 201.071C101.865 201.521 102.619 202.538 102.885 203.214C103.411 204.492 103.311 204.521 103.497 205.95C104.058 210.229 103.67 210.713 102.888 214.953C102.535 216.873 102.222 218.794 102.017 220.739C101.796 222.821 101.831 224.839 101.282 226.808C101.138 228.079 100.471 229.486 100.275 230.889C100.063 232.397 100.127 234.393 100.109 235.978C100.031 242.903 100.736 249.098 100.211 256.41C99.9707 259.834 100.03 263.112 100.126 266.546C100.222 269.98 100.222 273.449 100.097 276.869C99.9767 280.033 99.3548 282.906 98.7076 285.897C98.315 287.703 96.2354 296.87 95.6687 298.439C95.4165 299.134 95.3313 299.805 95.2556 300.614C95.1716 301.514 94.9735 301.98 94.833 302.761L152.682 302.69C153.2 299.643 153.564 296.622 154.223 293.646C154.87 290.73 155.684 287.847 155.877 284.731C156.569 273.513 155.934 264.463 155.87 253.661C155.848 250.171 155.65 246.787 155.679 243.272C155.733 236.43 155.668 229.267 155.838 222.491L156.179 206.777C156.379 204.242 156.539 201.006 156.4 198.212C156.265 195.372 156.025 192.516 155.978 189.621C155.929 186.459 155.571 180.647 154.633 177.509C154.453 176.974 154.245 176.449 154.008 175.937C153.655 175.097 153.696 175.097 153.112 174.559C151.609 174.907 152.496 174.963 149.84 175.292C145.075 175.881 145.126 175.52 140.316 177.729C139.392 178.153 138.601 178.63 137.702 179.112C136.804 179.595 135.929 179.966 134.983 180.389C133.074 181.244 131.402 182.125 129.352 182.851C126.365 183.91 122.637 184.977 119.185 184.181C117.677 183.834 117.437 183.564 116.75 182.512C115.643 180.819 115.153 178.911 114.409 176.858C114.066 175.916 113.681 174.887 113.414 173.857C113.21 173.072 112.884 171.129 112.669 170.597V170.6ZM84.674 169.226C84.1361 168.211 83.4457 167.078 82.7024 166.201C82.0649 165.446 82.2738 165.397 81.1547 164.952C79.9913 164.489 76.6606 163.392 76.8203 161.009C77.1036 159.861 77.9381 158.096 78.5625 157.158C79.7848 155.322 81.2868 155.783 79.9516 157.749C79.6214 158.234 79.3288 158.744 79.0763 159.273C77.8685 161.724 78.6081 162.274 80.9338 163.293C82.8549 164.133 85.4532 164.431 86.7187 163.62C86.9781 162.317 86.3585 159.504 86.1184 158.201C85.5817 155.373 85.2779 153.797 83.7626 151.359C82.2738 148.95 81.0671 147.859 77.7712 148.111C75.7781 148.261 70.3954 150.088 68.1657 150.752C64.7353 151.783 63.2284 153.087 60.653 154.039C59.5723 154.439 59.008 153.227 60.0814 152.663C65.2372 149.96 69.8503 148.311 75.6484 147.04C76.741 146.799 77.4698 146.814 78.6009 146.702C78.3691 145.75 77.154 143.146 76.6425 142.483C75.5895 141.115 74.1019 140.747 71.9599 141.253C66.1353 142.627 59.9842 146.527 55.484 149.961C54.1284 150.997 51.7379 153.165 50.5492 154.522C50.3787 154.717 50.2094 154.971 50.0197 155.181C49.2993 155.984 48.2559 155.441 48.807 154.404C49.214 153.639 50.2022 152.747 50.5216 152.399C50.7677 152.128 50.8938 152.059 51.1435 151.82C52.5676 150.435 54.084 149.148 55.6821 147.967C59.8569 144.917 66.3923 140.852 71.5768 139.972C71.1374 138.593 69.5981 136.671 68.5007 135.85C67.617 135.19 65.0187 134.401 64.3595 134.759C63.8036 135.063 61.2017 137.4 60.426 138.12L55.5416 142.43C54.8933 142.972 54.3325 143.688 53.7406 144.221C53.4404 144.489 53.109 144.964 52.7548 145.036C52.1881 145.149 51.7943 144.761 51.8999 144.196C52.0356 143.437 58.9012 137.474 60.3756 136.274L63.3929 133.78C63.2224 132.445 61.6868 131.139 60.6662 130.489C58.5698 129.157 56.6835 132.89 55.3699 134.571L51.8723 139.072C50.8457 140.539 49.7819 142.351 48.7505 144.033C47.7191 145.714 46.7994 147.394 45.7572 149.032C44.6766 150.743 43.596 151.997 42.6354 153.908C41.6004 155.982 40.6159 157.408 40.874 159.975C41.0169 161.386 41.1718 161.944 41.8262 163.015C43.2934 165.415 45.8605 167.085 48.0121 168.818C52.5375 172.477 56.2008 176.414 60.079 180.634C60.4393 180.986 60.5953 181.204 60.982 181.628L64.7233 185.883C64.8878 186.058 65.0607 186.186 65.23 186.372C65.8604 187.078 67.2712 188.562 67.5293 189.072C68.4046 190.777 68.2497 193.994 68.4418 196.134C68.5619 197.394 68.8789 202.822 68.7852 203.816C69.3676 204.303 72.3669 205.537 73.2722 205.909C77.8348 207.787 85.3716 209.099 90.2115 208.67L91.9598 201.622C92.4833 199.215 92.7306 196.201 92.7882 193.629C92.8519 190.853 92.4712 187.959 92.434 185.137C92.4016 182.502 92.314 179.387 91.9273 176.845C91.5743 171.494 90.1827 164.896 88.2136 159.8C88.1464 159.624 88.1007 159.488 88.0215 159.298L87.7886 158.882C87.7766 158.868 87.7549 158.839 87.7357 158.817C87.8966 160.197 88.5534 162.549 88.1728 163.971C87.9627 164.761 87.4884 165.022 86.6815 165.27C85.9287 165.503 84.752 165.444 83.9367 165.398C84.2693 166.178 86.0079 167.719 87.3683 171.741L89.0361 177.263C89.1777 177.756 89.3963 178.085 89.4527 178.463C89.6064 179.561 88.4573 179.673 87.9819 178.703C87.7417 178.212 87.606 177.667 87.4524 177.123C86.7319 174.573 85.9083 171.537 84.68 169.216L84.674 169.226ZM65.6995 133.268C66.3899 131.183 68.0864 128.338 70.2921 127.987C72.9612 127.563 75.1213 130.688 76.0554 132.094C78.524 135.815 80.217 141.651 81.1103 146.766C81.0083 146.811 81.1667 146.795 80.8582 146.827C80.0177 146.915 80.1293 146.3 79.4281 144.71C78.6405 142.918 78.0594 141.242 76.2595 140.181C75.0696 139.479 74.6218 139.513 73.1726 139.677C72.6923 138.987 72.3633 138.172 71.8926 137.455C71.4484 136.777 70.8624 135.945 70.3629 135.488C68.1801 133.49 67.8043 133.892 65.7019 133.266L65.6995 133.268ZM352.443 139.764C352.866 139.492 352.889 139.301 353.23 138.915C353.47 138.642 353.703 138.347 353.957 138.039L358.603 132.894C359.626 131.729 360.764 130.74 361.894 129.689L364.834 127.037C364.892 126.987 365 126.902 365.051 126.854C365.262 126.651 365.144 126.822 365.303 126.55C364.582 126.528 359.659 127.39 357.695 127.538C354.967 127.745 351.98 127.633 349.197 127.61C340.393 127.307 332.359 126.44 324.198 124.507C320.414 123.612 316.675 122.665 312.993 121.626C312.075 121.365 311.21 121.111 310.28 120.835L307.527 119.995C305.726 119.431 303.969 118.823 302.161 118.269C294.907 116.046 288.222 113.403 281.426 110.721C275.139 108.241 267.519 105.2 261.436 102.433C258.194 100.959 255.012 99.4742 251.685 98.0951C249.963 97.3749 248.293 96.7579 246.648 96.0353C244.309 95.009 235.886 91.222 233.588 91.5509C216.955 93.9323 206.333 122.172 213.364 135.904C213.694 136.546 213.664 136.457 214.279 136.788C214.919 137.13 215.983 137.811 216.687 137.999C216.815 136.626 217.114 134.323 217.464 133.077C217.845 131.715 218.97 132.942 219.712 133.232L220.183 133.583C220.376 133.703 220.509 133.792 220.732 133.934C221.084 134.16 221.453 134.388 221.836 134.629L228.514 138.842C232.755 141.398 237.497 144.55 241.809 147.232C243.335 148.181 244.735 149.11 246.281 150.056C247.976 151.094 250.265 152.644 251.804 153.522C253.146 154.287 251.792 155.555 250.963 157.068C251.391 157.538 254.205 159.277 255.023 159.696C257.763 161.099 261.115 162.986 263.775 164.533C264.433 164.916 267.681 166.966 268.03 167.023L269.951 168.253C271.78 169.397 273.751 170.783 275.665 171.934L283.404 176.685C288.636 179.877 293.666 183.005 298.849 186.219C300.082 186.985 301.433 187.869 302.555 188.71L302.956 189.011C303.047 189.08 303.076 189.101 303.186 189.187L303.414 189.355C304.699 190.305 307.266 192.521 308.523 193.636L311.778 196.672L313.898 199.252C316.378 202.425 319.397 207.039 321.305 210.63C321.587 211.16 322.184 212.176 322.364 212.678C322.675 210.016 322.797 207.471 323.186 204.787C324.21 197.716 326.145 190.291 328.436 183.671C330.88 176.605 334.226 168.829 337.777 162.234C338.191 161.469 339.065 160.038 339.309 159.303C339.437 159.201 341.984 154.824 342.354 154.221C345.746 148.7 348.357 145.076 352.245 140.132C352.458 139.862 352.365 140.079 352.446 139.772L352.443 139.764ZM109.609 154.396C111.158 154.756 112.124 155.049 113.821 155.28L122.432 156.663C124.029 156.909 129.587 158.343 130.837 156.861C131.329 156.276 131.042 153.095 130.913 152.193C129.64 143.317 126.789 133.181 123.497 124.627C122.47 121.962 122.258 122.073 123.017 121.074C123.725 120.144 124.422 119.138 125.178 118.244C126.103 117.156 126.093 116.641 128.66 116.971C128.624 118.439 128.42 120.27 128.234 121.71C128.02 123.355 128.487 123.871 129.074 125.837C129.869 128.499 130.592 130.925 131.508 133.497C132.404 136.018 133.116 138.578 134.044 141.049C134.972 143.519 135.984 145.794 136.966 148.116C139.35 153.746 140.595 158.468 144.16 163.707C144.57 164.307 144.7 164.641 145.049 165.313C145.719 166.59 147.194 168.576 148.133 169.723L150.669 172.184C151.136 172.568 151.527 172.988 151.969 173.372C151.327 173.732 148.561 173.972 147.617 174.056C142.556 174.523 140.875 175.857 136.534 178.055L129.57 181.192C127.017 182.165 124.428 183.041 121.321 183.047C119.448 183.047 118.697 182.873 117.815 181.443C117.065 180.226 116.837 179.314 116.366 177.902C115.066 174.008 114.976 174.595 114.085 170.086C113.35 166.346 112.911 165.496 111.987 162.089C111.475 160.195 109.729 155.226 109.586 154.396H109.609ZM112.381 110.755C112.636 110.737 112.894 110.726 113.15 110.719C115.493 110.644 117.45 111.439 118.998 113.151C119.217 113.391 120.188 114.831 120.244 115.183C119.805 115.197 119.962 115.209 119.724 114.927L118.539 113.711C117.886 113.111 117.736 112.829 116.768 112.384C114.716 111.437 113.823 111.618 111.554 111.823L111.631 110.905L112.381 110.755ZM182.91 142.975C183.15 143.947 183.307 146.352 183.39 147.47C183.67 151.233 183.637 153.369 183.468 157.138C183.239 162.233 179.866 166.911 177.595 171.233C176.702 172.941 176.875 174.149 176.476 175.103C173.142 175.27 161.727 172.252 158.048 170.727C155.122 169.513 150.616 167.116 148.022 165.461C146.165 164.274 145.741 163.693 144.456 161.435L141.857 156.44C141.497 155.639 139.8 151.574 139.781 150.942C139.421 150.606 138.976 149.104 138.752 148.554C137.78 146.185 136.736 143.944 135.799 141.517C134.552 138.288 133.547 134.847 132.393 131.536C131.808 129.856 131.262 128.23 130.731 126.495C130.029 124.197 129.468 123.769 129.829 121.093C130.089 118.971 130.209 116.835 130.19 114.697C130.155 112.439 129.95 110.727 129.679 108.624C130.334 109.605 131.096 110.635 131.808 111.532C132.216 112.044 132.556 112.464 132.963 112.972L136.685 116.868C137.537 117.639 138.284 118.549 139.173 119.36L143.82 123.609C144.042 123.801 144.211 123.996 144.442 124.182L145.832 125.392C149.218 128.446 152.448 130.236 156.769 132.143C160.762 133.906 168.34 135.773 172.817 136.292C176.483 136.718 176.336 136.78 179.764 136.223C180.43 136.117 181.237 135.844 181.811 135.791C182.164 136.495 182.814 141.825 182.913 142.974L182.91 142.975ZM118.178 78.3089C120.219 87.8731 121.022 90.2629 124.346 98.8117C124.558 99.3614 124.907 99.88 124.706 100.364C124.485 100.879 124.258 101.34 123.866 101.725C123.19 102.387 122.328 103.021 120.952 103.224C119.289 103.464 118.401 102.954 117.38 102.289C116.358 101.624 115.993 101.099 115.4 99.8715C114.124 97.2308 114.231 95.4387 114.415 92.2699C114.775 86.021 115.4 86.3883 117.072 81.653C117.305 80.994 117.913 78.6642 118.186 78.3089H118.178ZM157.627 98.3855C157.887 98.0627 158.534 97.5453 158.932 97.2308C162.654 94.23 165.175 92.8076 169.892 90.9051C172.198 89.9749 174.96 89.2247 177.631 88.7577C180.943 88.1852 183.237 88.238 186.533 88.7962C187.146 91.2892 184.001 92.81 182.021 93.9335C178.043 96.1913 171.309 97.5117 166.652 97.9822C163.493 98.3027 160.889 98.658 157.622 98.3855H157.627ZM162.88 55.7164C162.362 64.738 158.749 68.7507 150.719 71.7323C149.785 72.0792 148.883 72.2449 147.866 72.4789C144.169 73.3312 138.85 73.9877 134.941 73.648C131.843 73.3792 129.52 72.2677 127.531 70.2523C126.931 69.6378 126.498 68.7327 125.943 68.237L118.566 72.4645L120.031 80.2342C121.217 86.0354 122.324 89.1634 124.312 94.5457C126.362 100.096 127.056 102.086 130.391 107.048C131.677 108.96 132.913 110.769 134.321 112.41C135.067 113.285 135.789 113.925 136.593 114.736L142.53 120.492C142.817 120.767 142.841 120.832 143.152 121.066L145.006 122.708C146.241 123.735 147.145 124.698 148.772 125.939C151.965 128.374 157.056 131.021 161.058 132.24C164.588 133.32 173.203 135.207 176.805 135.142C180.948 135.067 187.518 132.717 190.671 130.36C191.969 129.389 194.717 126.956 195.269 125.589C194.843 125.157 194.442 124.7 194.069 124.221C190.722 120.122 189.53 116.009 189.309 110.474C181.951 115.358 165.315 115.409 156.318 102.414C155.951 101.882 154.472 99.6891 154.571 98.8129C154.595 98.5848 155.297 97.5213 155.499 97.0964C156.323 95.3703 157.627 93.7751 158.902 92.5027C160.591 90.8163 162.673 89.4527 165.099 88.1048C167.836 86.584 169.48 86.0306 173.012 85.5145C175.534 85.3788 175.534 84.1089 179.389 83.2987C181.81 82.7909 184.552 83.4391 186.454 84.379C187.952 85.1184 190.856 86.872 191.457 87.8743C192.366 89.3867 192.97 93.9792 193.298 94.6177C196.132 91.4465 199.379 88.4096 203.175 86.4123C204.347 85.7953 204.223 85.5997 204.49 83.2182C204.806 80.3073 204.832 77.372 204.568 74.4559L204.053 71.0085C204.034 70.9237 204.012 70.8399 203.984 70.7577C203.857 70.406 203.96 70.6568 203.871 70.5176C204.111 69.172 202.115 62.1717 201.365 60.3905C200.931 59.357 200.54 58.3355 200.085 57.3897C196.787 60.5105 192.071 62.6123 184.863 63.234C180.82 63.5833 175.525 62.485 172.856 59.513C171.896 58.4411 171.678 57.8458 170.981 56.7883C170.762 56.457 170.105 55.0838 169.71 54.7693C167.639 53.5234 165.012 54.7153 162.876 55.7296L162.88 55.7164ZM148.042 52.5235C145.107 52.91 143.373 53.2713 141.755 53.8931C136.744 55.8136 133.858 57.0055 130.688 61.2151C129.663 62.9592 131.112 64.1475 131.911 65.0885C132.354 65.6134 132.864 66.0768 133.429 66.4665C141.686 72.4129 159.945 69.771 160.356 57.5553C160.446 54.8138 159.876 54.5905 158.129 53.9543C155.859 53.1225 150.684 52.1826 148.043 52.5307L148.042 52.5235ZM188.876 42.7061C184.08 42.9761 180.123 44.545 176.178 47.1293C175.458 47.6094 173.668 49.159 173.152 49.8012C172.653 50.4182 172.311 50.4578 172.165 51.6017C171.868 54.0191 172.931 56.1965 174.301 57.9634C176.007 60.1612 179.344 61.4203 182.306 61.4383C185.245 61.4588 189.114 60.1864 191.322 59.0761C195.75 56.8495 198.127 54.8402 198.797 49.4807C198.947 48.2804 199.289 45.1871 198.416 44.545C196.679 43.263 191.468 42.5596 188.872 42.7061H188.876Z" fill="white"/>
<defs>
<linearGradient id="paint0_linear_30_3161" x1="203.5" y1="0" x2="203.5" y2="305.143" gradientUnits="userSpaceOnUse">
<stop stop-color="#F65D61"/>
<stop offset="0.505208" stop-color="#F16684"/>
<stop offset="1" stop-color="#FA9A64"/>
</linearGradient>
</defs>
</svg>
