<svg width="50" height="50" viewBox="0 0 50 50" fill="none" xmlns="http://www.w3.org/2000/svg">
<path d="M49.9803 42.8208C49.9803 41.6532 49.8163 41.4433 48.6686 41.5089C48.098 41.5089 48.0127 41.3449 48.0127 40.8201C48.0127 33.0273 48.0127 25.2346 48.0127 17.4418C48.0127 15.2116 46.6419 13.8537 44.4185 13.8472C43.1068 13.8472 41.8279 13.8472 40.5292 13.8472C40.2013 13.8472 40.0964 13.7685 40.1029 13.4274C40.1029 11.9908 40.1029 10.5477 40.1029 9.11115C40.1155 8.88003 40.0767 8.649 39.9894 8.43465C39.9021 8.2203 39.7683 8.02795 39.5979 7.8714C37.1318 5.43124 34.6767 2.97576 32.2325 0.504992C32.0816 0.342401 31.8975 0.214284 31.6926 0.12938C31.4877 0.0444754 31.267 0.00478397 31.0454 0.0130237C25.2671 0.0130237 19.4889 0.0130237 13.7107 0.0130237C13.3306 -0.0101409 12.95 0.0479031 12.594 0.183289C12.2381 0.318674 11.915 0.528301 11.6464 0.798228C11.3777 1.06816 11.1696 1.3922 11.0359 1.7488C10.9022 2.10541 10.8459 2.4864 10.8708 2.86644C10.9364 6.33645 10.8708 9.81303 10.9036 13.283C10.9036 13.7816 10.7659 13.8734 10.3068 13.8668C8.99503 13.834 7.74886 13.8668 6.46991 13.8668C6.09278 13.8608 5.71693 13.9117 5.35497 14.0177C4.62492 14.2347 3.99146 14.6957 3.56049 15.3237C3.12953 15.9518 2.92716 16.7087 2.98725 17.4681V40.5249C2.98725 41.4958 2.98726 41.4958 2.01001 41.5089C1.27544 41.5089 1.00654 41.7909 0.999985 42.5322C0.993427 43.2734 0.999985 43.8441 0.999985 44.5C0.999985 47.3141 2.67899 48.9999 5.49267 48.9999H45.7106C46.7565 49.0513 47.7816 48.6953 48.5705 48.0066C49.3593 47.3179 49.8506 46.3502 49.941 45.3069C50.0001 44.4795 50.0132 43.6496 49.9803 42.8208ZM41.454 15.4346H44.4185C45.7696 15.4346 46.4452 16.1037 46.4452 17.4418V29.1506C46.4452 33.0864 46.4452 37.0221 46.4452 40.9579C46.4452 41.3843 46.3337 41.4958 45.9139 41.4892C44.6415 41.4892 44.6415 41.4892 44.6415 40.1773V18.4585C44.6415 17.3828 44.4579 17.1925 43.3954 17.1925C42.3329 17.1925 41.4278 17.1925 40.4833 17.1925C40.1751 17.1925 40.0963 17.1007 40.0898 16.799C40.057 15.4346 40.0505 15.4346 41.4343 15.4346H41.454ZM32.1997 2.85989L37.2564 7.91732H35.7283C34.6854 7.91732 33.6426 7.91732 32.6063 7.91732C32.3309 7.91732 32.1866 7.8845 32.1866 7.54997C32.2062 5.99535 32.1997 4.43418 32.1997 2.85989ZM12.4515 2.95827C12.4515 1.87595 12.7073 1.607 13.7632 1.607C19.1938 1.607 24.6266 1.607 30.0616 1.607C30.501 1.607 30.6322 1.7054 30.6256 2.15801C30.6256 4.25051 30.6256 6.33646 30.6256 8.4224C30.6256 9.27514 30.8617 9.50472 31.7144 9.50472C33.8328 9.50472 35.9578 9.50472 38.0828 9.50472C38.4304 9.50472 38.5354 9.58343 38.5354 9.95077C38.5354 18.0147 38.5354 26.0764 38.5354 34.1359C38.5354 35.0084 38.214 35.3166 37.3155 35.3166H13.7697C12.7269 35.3166 12.458 35.0411 12.458 34.0047V2.95827H12.4515ZM11.848 36.353C12.4064 36.7564 13.0895 36.9493 13.7763 36.8975H35.8004C36.3579 36.8975 36.9154 36.8975 37.4729 36.8975C37.8259 36.917 38.179 36.8611 38.5088 36.7336C38.8386 36.6061 39.1374 36.4099 39.3856 36.158C39.6337 35.9061 39.8254 35.6044 39.948 35.2727C40.0705 34.941 40.1211 34.587 40.0963 34.2343C40.0963 29.2665 40.0963 24.2988 40.0963 19.331C40.0963 18.8718 40.2144 18.7537 40.6604 18.7865C41.3156 18.8269 41.9727 18.8269 42.628 18.7865C43.0478 18.7865 43.1199 18.9046 43.1199 19.2916C43.1199 22.9125 43.1199 26.5071 43.1199 30.1411C43.1199 33.7751 43.1199 37.3567 43.1199 40.9972C43.1199 41.3974 43.0215 41.5023 42.6149 41.5023C38.8371 41.5023 35.0593 41.5023 31.2815 41.5023C31.0221 41.4579 30.7554 41.5084 30.5302 41.6445C30.305 41.7806 30.1363 41.9933 30.055 42.2435C29.7074 43.3193 29.0056 43.5883 27.9038 43.5555C26.0017 43.4505 24.0931 43.5227 22.1846 43.5555C22.0373 43.5745 21.8879 43.546 21.7581 43.474C21.6282 43.402 21.5249 43.2903 21.4631 43.1553C20.4662 41.3252 20.9122 41.5679 18.7544 41.5613C15.3176 41.5613 11.8808 41.5613 8.44409 41.5613C8.04401 41.5613 7.93909 41.4695 7.93909 41.0563C7.93909 33.8232 7.93909 26.5902 7.93909 19.3572C7.93909 18.9702 8.00468 18.8128 8.431 18.8455C9.06002 18.8849 9.69088 18.8849 10.3199 18.8455C10.7921 18.8128 10.9758 18.9308 10.9758 19.4425C10.9758 24.3753 10.9758 29.2818 10.9758 34.2343C10.9515 34.6305 11.0173 35.027 11.1684 35.394C11.3195 35.7609 11.5519 36.0889 11.848 36.353V36.353ZM4.55479 29.1375V17.4877C4.55479 16.084 5.21068 15.4346 6.588 15.4346C7.96533 15.4346 9.21148 15.4346 10.4773 15.4346C10.8052 15.4346 10.897 15.5198 10.897 15.8544C10.897 17.2057 10.897 17.2057 9.58529 17.2057H7.53246C6.56833 17.2057 6.35186 17.4221 6.35186 18.3733V40.7611C6.35186 41.4958 6.35186 41.4957 5.61073 41.4957C4.56134 41.4957 4.56135 41.4958 4.56135 40.4266L4.55479 29.1375ZM48.3997 43.6079C48.3767 43.9858 48.3767 44.3648 48.3997 44.7427C48.4265 45.0962 48.3773 45.4514 48.2556 45.7844C48.1339 46.1173 47.9424 46.4204 47.6939 46.6732C47.4454 46.9261 47.1458 47.1229 46.815 47.2504C46.4843 47.3779 46.1301 47.4331 45.7762 47.4125H25.5098C18.8134 47.4125 12.1235 47.3797 5.4271 47.4125C5.04622 47.4427 4.66331 47.3894 4.30519 47.2562C3.94707 47.123 3.62238 46.9132 3.35377 46.6415C3.08517 46.3697 2.87916 46.0425 2.75014 45.6828C2.62113 45.3232 2.57224 44.9396 2.60687 44.5591C2.65278 44.0802 2.44947 43.4308 2.69214 43.1553C2.93481 42.8798 3.63656 43.0635 4.13502 43.0569H19.1413C19.2947 43.0357 19.4509 43.0645 19.5867 43.1389C19.7226 43.2133 19.8309 43.3295 19.8956 43.4702C20.8859 45.3069 20.4793 45.0117 22.5191 45.0248C24.8408 45.0248 27.1626 45.0248 29.4844 45.0248C30.0616 45.0248 30.4944 44.8674 30.6715 44.3164C31.0191 43.2537 31.7012 43.0045 32.8031 43.0045C37.8205 43.0766 42.8444 43.0438 47.8881 43.0045C48.2685 43.0635 48.4653 43.1422 48.3997 43.6079V43.6079Z" fill="black"/>
<path d="M29.4455 22.0139H25.0709C24.415 22.0139 24.0674 21.7187 24.0674 21.2202C24.0674 20.7217 24.4281 20.4199 25.0709 20.4199H33.7677C34.4236 20.4199 34.7646 20.7151 34.7646 21.2202C34.7646 21.7253 34.4105 22.0139 33.7677 22.0139H29.4455Z" fill="#010101"/>
<path d="M29.4447 16.0906H25.0767C24.4208 16.0906 24.0732 15.7889 24.0863 15.2838C24.0994 14.7787 24.447 14.5032 25.057 14.5032H33.8063C34.4622 14.5032 34.7966 14.8115 34.7835 15.3231C34.7704 15.8348 34.4228 16.0906 33.7604 16.0906H29.4447Z" fill="#010101"/>
<path d="M29.4447 26.3499H33.7603C34.4162 26.3499 34.7704 26.6188 34.7835 27.1239C34.7966 27.629 34.4359 27.9373 33.7472 27.9373H25.116C24.4601 27.9373 24.0994 27.6618 24.0863 27.1633C24.0732 26.6647 24.447 26.3499 25.1291 26.3499H29.4447Z" fill="#010101"/>
<path d="M18.1903 29.2491C18.114 29.2358 18.0407 29.2092 17.9738 29.1704C17.3269 28.6884 16.7545 28.1138 16.2751 27.4649C16.1855 27.3256 16.152 27.1575 16.1812 26.9945C16.2104 26.8315 16.3001 26.6855 16.4325 26.5859C16.5473 26.4572 16.7049 26.3743 16.8761 26.3526C17.0472 26.3309 17.2205 26.3718 17.3639 26.4679C17.4561 26.5239 17.5418 26.5899 17.6196 26.6646C18.3214 27.3206 18.3214 27.3206 18.9838 26.6646C19.4167 26.2317 19.843 25.7988 20.2956 25.3527C20.3633 25.2627 20.4494 25.1882 20.5482 25.134C20.647 25.0799 20.7561 25.0474 20.8684 25.0387C20.9807 25.0301 21.0936 25.0454 21.1995 25.0837C21.3054 25.122 21.4019 25.1824 21.4827 25.2609C21.565 25.3383 21.6296 25.4328 21.6718 25.5376C21.714 25.6425 21.733 25.7553 21.7274 25.8682C21.7218 25.9811 21.6917 26.0914 21.6393 26.1916C21.5869 26.2917 21.5133 26.3793 21.4237 26.4482C20.5973 27.2944 19.7512 28.1274 18.9117 28.9671C18.8204 29.0653 18.7081 29.1417 18.5832 29.1905C18.4583 29.2393 18.324 29.2594 18.1903 29.2491V29.2491Z" fill="black"/>
<path d="M16.9839 20.4199C17.1823 20.4561 17.3711 20.533 17.5382 20.6459C17.7052 20.7589 17.847 20.9053 17.9546 21.0759C18.2104 21.3776 18.3744 21.3907 18.6498 21.0759C19.168 20.5052 19.732 19.9673 20.283 19.4294C20.3501 19.3341 20.4373 19.2545 20.5385 19.1964C20.6396 19.1383 20.7523 19.103 20.8685 19.093C20.9847 19.083 21.1017 19.0986 21.2113 19.1386C21.3209 19.1785 21.4204 19.242 21.5028 19.3245C21.5853 19.407 21.6488 19.5065 21.6887 19.6161C21.7287 19.7257 21.7442 19.8427 21.7343 19.9589C21.7243 20.0752 21.689 20.1878 21.6309 20.289C21.5728 20.3901 21.4933 20.4774 21.3979 20.5446C20.589 21.3579 19.7779 22.1691 18.9647 22.9781C18.8919 23.085 18.794 23.1725 18.6797 23.2329C18.5654 23.2934 18.4381 23.325 18.3088 23.325C18.1795 23.325 18.0521 23.2934 17.9378 23.2329C17.8235 23.1725 17.7257 23.085 17.6529 22.9781C17.2266 22.5715 16.8068 22.1451 16.4002 21.7187C16.2917 21.6096 16.2206 21.469 16.1971 21.3169C16.1735 21.1649 16.1987 21.0094 16.269 20.8725C16.3333 20.7373 16.4347 20.6231 16.5612 20.543C16.6877 20.4629 16.8342 20.4202 16.9839 20.4199V20.4199Z" fill="black"/>
<path d="M18.2955 17.3895C18.1877 17.3963 18.0798 17.3786 17.9798 17.3377C17.8799 17.2968 17.7905 17.2338 17.7183 17.1534C17.2855 16.7205 16.846 16.3006 16.4066 15.8415C16.3326 15.7694 16.2738 15.6832 16.2337 15.588C16.1936 15.4928 16.1729 15.3905 16.1729 15.2872C16.1729 15.1839 16.1936 15.0816 16.2337 14.9864C16.2738 14.8912 16.3326 14.805 16.4066 14.7329C16.4797 14.6595 16.5666 14.6013 16.6623 14.5616C16.7579 14.5218 16.8605 14.5014 16.9641 14.5014C17.0677 14.5014 17.1702 14.5218 17.2659 14.5616C17.3616 14.6013 17.4485 14.6595 17.5216 14.7329C17.8036 14.9559 17.9807 15.461 18.348 15.3889C18.7153 15.3167 18.8661 14.9231 19.1219 14.6739C19.5154 14.2803 19.9024 13.8736 20.3025 13.4932C20.3751 13.4063 20.4659 13.3365 20.5685 13.2886C20.671 13.2406 20.7828 13.2158 20.896 13.2158C21.0092 13.2158 21.121 13.2406 21.2236 13.2886C21.3261 13.3365 21.4169 13.4063 21.4896 13.4932C21.5645 13.5711 21.6224 13.6638 21.6596 13.7653C21.6968 13.8669 21.7125 13.975 21.7057 14.083C21.699 14.1909 21.6698 14.2962 21.6202 14.3923C21.5706 14.4884 21.5015 14.5731 21.4174 14.6411C20.5845 15.4873 19.745 16.3203 18.9055 17.1534C18.8264 17.2338 18.7311 17.2965 18.6259 17.3372C18.5207 17.378 18.4081 17.3958 18.2955 17.3895V17.3895Z" fill="black"/>
</svg>
