<svg width="50" height="50" viewBox="0 0 50 50" fill="none" xmlns="http://www.w3.org/2000/svg">
<path d="M49.9803 42.822C49.9803 41.6544 49.8163 41.4445 48.6686 41.5101C48.098 41.5101 48.0127 41.3461 48.0127 40.8213C48.0127 33.0286 48.0127 25.2358 48.0127 17.443C48.0127 15.2128 46.6419 13.8549 44.4185 13.8484C43.1068 13.8484 41.8279 13.8484 40.5292 13.8484C40.2013 13.8484 40.0964 13.7697 40.1029 13.4286C40.1029 11.992 40.1029 10.5489 40.1029 9.11237C40.1155 8.88125 40.0767 8.65022 39.9894 8.43587C39.9021 8.22152 39.7683 8.02917 39.5979 7.87262C37.1318 5.43246 34.6767 2.97698 32.2325 0.506212C32.0816 0.343622 31.8975 0.215504 31.6926 0.1306C31.4877 0.0456961 31.267 0.00600467 31.0454 0.0142444C25.2671 0.0142444 19.4889 0.0142444 13.7107 0.0142444C13.3306 -0.00892023 12.95 0.0491238 12.594 0.184509C12.2381 0.319895 11.915 0.529522 11.6464 0.799449C11.3777 1.06938 11.1696 1.39342 11.0359 1.75002C10.9022 2.10663 10.8459 2.48762 10.8708 2.86766C10.9364 6.33768 10.8708 9.81425 10.9036 13.2843C10.9036 13.7828 10.7659 13.8746 10.3068 13.8681C8.99503 13.8353 7.74886 13.8681 6.46991 13.8681C6.09278 13.862 5.71693 13.9129 5.35497 14.0189C4.62492 14.2359 3.99146 14.6969 3.56049 15.325C3.12953 15.953 2.92716 16.7099 2.98725 17.4693V40.5262C2.98725 41.497 2.98726 41.497 2.01001 41.5101C1.27544 41.5101 1.00654 41.7922 0.999985 42.5334C0.993427 43.2746 0.999985 43.8453 0.999985 44.5013C0.999985 47.3153 2.67899 49.0011 5.49267 49.0011H45.7106C46.7565 49.0526 47.7816 48.6965 48.5705 48.0078C49.3593 47.3192 49.8506 46.3515 49.941 45.3081C50.0001 44.4808 50.0132 43.6508 49.9803 42.822ZM41.454 15.4358H44.4185C45.7696 15.4358 46.4452 16.1049 46.4452 17.443V29.1519C46.4452 33.0876 46.4452 37.0234 46.4452 40.9591C46.4452 41.3855 46.3337 41.497 45.9139 41.4904C44.6415 41.4904 44.6415 41.4904 44.6415 40.1785V18.4598C44.6415 17.384 44.4579 17.1938 43.3954 17.1938C42.3329 17.1938 41.4278 17.1938 40.4833 17.1938C40.1751 17.1938 40.0963 17.1019 40.0898 16.8002C40.057 15.4358 40.0505 15.4358 41.4343 15.4358H41.454ZM32.1997 2.86111L37.2564 7.91854H35.7283C34.6854 7.91854 33.6426 7.91854 32.6063 7.91854C32.3309 7.91854 32.1866 7.88572 32.1866 7.55119C32.2062 5.99657 32.1997 4.4354 32.1997 2.86111ZM12.4515 2.9595C12.4515 1.87717 12.7073 1.60823 13.7632 1.60823C19.1938 1.60823 24.6266 1.60823 30.0616 1.60823C30.501 1.60823 30.6322 1.70662 30.6256 2.15923C30.6256 4.25173 30.6256 6.33768 30.6256 8.42362C30.6256 9.27636 30.8617 9.50595 31.7144 9.50595C33.8328 9.50595 35.9578 9.50595 38.0828 9.50595C38.4304 9.50595 38.5354 9.58466 38.5354 9.95199C38.5354 18.0159 38.5354 26.0776 38.5354 34.1371C38.5354 35.0096 38.214 35.3179 37.3155 35.3179H13.7697C12.7269 35.3179 12.458 35.0424 12.458 34.0059V2.9595H12.4515ZM11.848 36.3543C12.4064 36.7576 13.0895 36.9505 13.7763 36.8987H35.8004C36.3579 36.8987 36.9154 36.8987 37.4729 36.8987C37.8259 36.9182 38.179 36.8623 38.5088 36.7348C38.8386 36.6073 39.1374 36.4111 39.3856 36.1592C39.6337 35.9074 39.8254 35.6056 39.948 35.2739C40.0705 34.9422 40.1211 34.5883 40.0963 34.2355C40.0963 29.2678 40.0963 24.3 40.0963 19.3322C40.0963 18.873 40.2144 18.7549 40.6604 18.7877C41.3156 18.8282 41.9727 18.8282 42.628 18.7877C43.0478 18.7877 43.1199 18.9058 43.1199 19.2928C43.1199 22.9137 43.1199 26.5083 43.1199 30.1424C43.1199 33.7764 43.1199 37.3579 43.1199 40.9985C43.1199 41.3986 43.0215 41.5035 42.6149 41.5035C38.8371 41.5035 35.0593 41.5035 31.2815 41.5035C31.0221 41.4591 30.7554 41.5096 30.5302 41.6457C30.305 41.7818 30.1363 41.9945 30.055 42.2448C29.7074 43.3205 29.0056 43.5895 27.9038 43.5567C26.0017 43.4517 24.0931 43.5239 22.1846 43.5567C22.0373 43.5758 21.8879 43.5472 21.7581 43.4752C21.6282 43.4032 21.5249 43.2915 21.4631 43.1566C20.4662 41.3264 20.9122 41.5691 18.7544 41.5626C15.3176 41.5626 11.8808 41.5626 8.44409 41.5626C8.04401 41.5626 7.93909 41.4707 7.93909 41.0575C7.93909 33.8245 7.93909 26.5914 7.93909 19.3584C7.93909 18.9714 8.00468 18.814 8.431 18.8468C9.06002 18.8861 9.69088 18.8861 10.3199 18.8468C10.7921 18.814 10.9758 18.932 10.9758 19.4437C10.9758 24.3765 10.9758 29.2831 10.9758 34.2355C10.9515 34.6317 11.0173 35.0282 11.1684 35.3952C11.3195 35.7622 11.5519 36.0901 11.848 36.3543V36.3543ZM4.55479 29.1387V17.489C4.55479 16.0852 5.21068 15.4358 6.588 15.4358C7.96533 15.4358 9.21148 15.4358 10.4773 15.4358C10.8052 15.4358 10.897 15.5211 10.897 15.8556C10.897 17.2069 10.897 17.2069 9.58529 17.2069H7.53246C6.56833 17.2069 6.35186 17.4233 6.35186 18.3745V40.7623C6.35186 41.497 6.35186 41.497 5.61073 41.497C4.56134 41.497 4.56135 41.497 4.56135 40.4278L4.55479 29.1387ZM48.3997 43.6091C48.3767 43.9871 48.3767 44.366 48.3997 44.744C48.4265 45.0975 48.3773 45.4526 48.2556 45.7856C48.1339 46.1186 47.9424 46.4216 47.6939 46.6745C47.4454 46.9273 47.1458 47.1241 46.815 47.2516C46.4843 47.3791 46.1301 47.4344 45.7762 47.4137H25.5098C18.8134 47.4137 12.1235 47.3809 5.4271 47.4137C5.04622 47.4439 4.66331 47.3906 4.30519 47.2574C3.94707 47.1243 3.62238 46.9144 3.35377 46.6427C3.08517 46.3709 2.87916 46.0437 2.75014 45.6841C2.62113 45.3244 2.57224 44.9409 2.60687 44.5603C2.65278 44.0814 2.44947 43.4321 2.69214 43.1566C2.93481 42.8811 3.63656 43.0647 4.13502 43.0581H19.1413C19.2947 43.0369 19.4509 43.0657 19.5867 43.1401C19.7226 43.2145 19.8309 43.3307 19.8956 43.4714C20.8859 45.3081 20.4793 45.0129 22.5191 45.026C24.8408 45.026 27.1626 45.026 29.4844 45.026C30.0616 45.026 30.4944 44.8686 30.6715 44.3176C31.0191 43.2549 31.7012 43.0057 32.8031 43.0057C37.8205 43.0778 42.8444 43.045 47.8881 43.0057C48.2685 43.0647 48.4653 43.1434 48.3997 43.6091V43.6091Z" fill="white"/>
<path d="M29.4455 22.0151H25.0709C24.415 22.0151 24.0674 21.7199 24.0674 21.2214C24.0674 20.7229 24.4281 20.4211 25.0709 20.4211H33.7677C34.4236 20.4211 34.7646 20.7163 34.7646 21.2214C34.7646 21.7265 34.4105 22.0151 33.7677 22.0151H29.4455Z" fill="white"/>
<path d="M29.4447 16.0918H25.0767C24.4208 16.0918 24.0732 15.7901 24.0863 15.285C24.0994 14.7799 24.447 14.5044 25.057 14.5044H33.8063C34.4622 14.5044 34.7966 14.8127 34.7835 15.3243C34.7704 15.836 34.4228 16.0918 33.7604 16.0918H29.4447Z" fill="white"/>
<path d="M29.4447 26.3511H33.7603C34.4162 26.3511 34.7704 26.62 34.7835 27.1251C34.7966 27.6302 34.4359 27.9385 33.7472 27.9385H25.116C24.4601 27.9385 24.0994 27.663 24.0863 27.1645C24.0732 26.6659 24.447 26.3511 25.1291 26.3511H29.4447Z" fill="white"/>
<path d="M18.1903 29.2503C18.114 29.2371 18.0407 29.2104 17.9738 29.1716C17.3269 28.6897 16.7545 28.115 16.2751 27.4661C16.1855 27.3268 16.152 27.1588 16.1812 26.9957C16.2104 26.8327 16.3001 26.6867 16.4325 26.5871C16.5473 26.4584 16.7049 26.3755 16.8761 26.3538C17.0472 26.3321 17.2205 26.373 17.3639 26.4691C17.4561 26.5251 17.5418 26.5911 17.6196 26.6659C18.3214 27.3218 18.3214 27.3218 18.9838 26.6659C19.4167 26.2329 19.843 25.8 20.2956 25.3539C20.3633 25.264 20.4494 25.1894 20.5482 25.1353C20.647 25.0811 20.7561 25.0486 20.8684 25.04C20.9807 25.0313 21.0936 25.0466 21.1995 25.0849C21.3054 25.1232 21.4019 25.1836 21.4827 25.2621C21.565 25.3396 21.6296 25.434 21.6718 25.5389C21.714 25.6437 21.733 25.7565 21.7274 25.8694C21.7218 25.9823 21.6917 26.0926 21.6393 26.1928C21.5869 26.2929 21.5133 26.3805 21.4237 26.4494C20.5973 27.2956 19.7512 28.1287 18.9117 28.9683C18.8204 29.0665 18.7081 29.1429 18.5832 29.1917C18.4583 29.2406 18.324 29.2606 18.1903 29.2503V29.2503Z" fill="white"/>
<path d="M16.9839 20.4211C17.1823 20.4573 17.3711 20.5342 17.5382 20.6472C17.7052 20.7601 17.847 20.9065 17.9546 21.0771C18.2104 21.3788 18.3744 21.392 18.6498 21.0771C19.168 20.5064 19.732 19.9685 20.283 19.4306C20.3501 19.3353 20.4373 19.2558 20.5385 19.1976C20.6396 19.1395 20.7523 19.1042 20.8685 19.0943C20.9847 19.0843 21.1017 19.0998 21.2113 19.1398C21.3209 19.1798 21.4204 19.2432 21.5028 19.3257C21.5853 19.4082 21.6488 19.5077 21.6887 19.6173C21.7287 19.7269 21.7442 19.8439 21.7343 19.9602C21.7243 20.0764 21.689 20.189 21.6309 20.2902C21.5728 20.3913 21.4933 20.4786 21.3979 20.5458C20.589 21.3592 19.7779 22.1704 18.9647 22.9794C18.8919 23.0862 18.794 23.1737 18.6797 23.2342C18.5654 23.2946 18.4381 23.3262 18.3088 23.3262C18.1795 23.3262 18.0521 23.2946 17.9378 23.2342C17.8235 23.1737 17.7257 23.0862 17.6529 22.9794C17.2266 22.5727 16.8068 22.1463 16.4002 21.7199C16.2917 21.6108 16.2206 21.4702 16.1971 21.3182C16.1735 21.1661 16.1987 21.0106 16.269 20.8738C16.3333 20.7385 16.4347 20.6243 16.5612 20.5442C16.6877 20.4641 16.8342 20.4215 16.9839 20.4211V20.4211Z" fill="white"/>
<path d="M18.2955 17.3907C18.1877 17.3975 18.0798 17.3798 17.9798 17.3389C17.8799 17.298 17.7905 17.235 17.7183 17.1546C17.2855 16.7217 16.846 16.3019 16.4066 15.8427C16.3326 15.7706 16.2738 15.6844 16.2337 15.5892C16.1936 15.494 16.1729 15.3917 16.1729 15.2884C16.1729 15.1851 16.1936 15.0828 16.2337 14.9876C16.2738 14.8924 16.3326 14.8062 16.4066 14.7341C16.4797 14.6607 16.5666 14.6025 16.6623 14.5628C16.7579 14.5231 16.8605 14.5026 16.9641 14.5026C17.0677 14.5026 17.1702 14.5231 17.2659 14.5628C17.3616 14.6025 17.4485 14.6607 17.5216 14.7341C17.8036 14.9571 17.9807 15.4622 18.348 15.3901C18.7153 15.3179 18.8661 14.9244 19.1219 14.6751C19.5154 14.2815 19.9024 13.8748 20.3025 13.4944C20.3751 13.4075 20.4659 13.3377 20.5685 13.2898C20.671 13.2419 20.7828 13.217 20.896 13.217C21.0092 13.217 21.121 13.2419 21.2236 13.2898C21.3261 13.3377 21.4169 13.4075 21.4896 13.4944C21.5645 13.5723 21.6224 13.665 21.6596 13.7666C21.6968 13.8681 21.7125 13.9763 21.7057 14.0842C21.699 14.1921 21.6698 14.2975 21.6202 14.3935C21.5706 14.4896 21.5015 14.5743 21.4174 14.6423C20.5845 15.4885 19.745 16.3215 18.9055 17.1546C18.8264 17.2351 18.7311 17.2977 18.6259 17.3385C18.5207 17.3792 18.4081 17.397 18.2955 17.3907V17.3907Z" fill="white"/>
</svg>
