<svg width="13" height="14" viewBox="0 0 13 14" fill="none" xmlns="http://www.w3.org/2000/svg">
<g clip-path="url(#clip0_460_810)">
<path d="M9.22405 0C9.33465 0.0407333 9.42687 0.116604 9.48491 0.214619C9.54295 0.312634 9.56321 0.426704 9.54223 0.537306C9.52632 0.763275 9.54223 0.99176 9.54223 1.21773C9.54508 1.2723 9.53635 1.32686 9.51658 1.37819C9.4968 1.42952 9.46636 1.47659 9.42707 1.5166C9.38778 1.55662 9.34042 1.58878 9.2878 1.61118C9.23517 1.63359 9.17833 1.64578 9.12064 1.64706C9.06172 1.64741 9.00332 1.63656 8.94891 1.61514C8.89449 1.59372 8.84519 1.56217 8.80389 1.52236C8.76259 1.48256 8.73016 1.4353 8.70851 1.3834C8.68686 1.3315 8.67643 1.27601 8.67786 1.22023C8.67786 0.989236 8.67786 0.755746 8.67786 0.524756C8.66113 0.413832 8.68662 0.300887 8.74977 0.206129C8.81292 0.111372 8.90961 0.0409831 9.02254 0.00753964L9.22405 0Z" fill="black"/>
<path d="M12.141 1.1901C12.1457 1.25229 12.1363 1.31472 12.1135 1.37318C12.0906 1.43165 12.0548 1.4848 12.0084 1.52906C11.7274 1.7952 11.4463 2.06385 11.1626 2.32748C11.1226 2.36615 11.0748 2.3969 11.0221 2.41796C10.9695 2.43902 10.9129 2.44997 10.8557 2.45017C10.7985 2.45038 10.7418 2.43982 10.689 2.41914C10.6361 2.39846 10.5881 2.36805 10.5478 2.32968C10.5074 2.2913 10.4755 2.24572 10.4539 2.19559C10.4323 2.14545 10.4214 2.09176 10.4219 2.03761C10.4224 1.98346 10.4341 1.92993 10.4566 1.88013C10.4791 1.83033 10.5118 1.78525 10.5528 1.7475C10.8179 1.47885 11.1149 1.21271 11.3986 0.946566C11.4563 0.889711 11.5301 0.849862 11.6112 0.831801C11.6922 0.81374 11.7771 0.818242 11.8555 0.844765C11.934 0.871289 12.0026 0.918703 12.0533 0.981306C12.1039 1.04391 12.1344 1.11903 12.141 1.19764V1.1901Z" fill="black"/>
<path d="M12.1407 3.28153C12.2839 3.28153 12.4297 3.28153 12.5729 3.28153C12.6875 3.28153 12.7975 3.32465 12.8785 3.4014C12.9596 3.47815 13.0051 3.58224 13.0051 3.69078C13.0051 3.79932 12.9596 3.90342 12.8785 3.98017C12.7975 4.05692 12.6875 4.10004 12.5729 4.10004C12.2839 4.10004 11.9949 4.10004 11.7086 4.10004C11.5939 4.10004 11.484 4.05692 11.403 3.98017C11.3219 3.90342 11.2764 3.79932 11.2764 3.69078C11.2764 3.58224 11.3219 3.47815 11.403 3.4014C11.484 3.32465 11.5939 3.28153 11.7086 3.28153C11.8438 3.27651 11.9896 3.28153 12.1407 3.28153Z" fill="black"/>
<path d="M12.0087 5.51367C10.3807 3.96871 8.75187 2.42543 7.12212 0.883826C6.90023 0.670235 6.6035 0.540853 6.28785 0.520053C5.97221 0.499254 5.65943 0.588471 5.40843 0.7709C5.15743 0.953328 4.98554 1.21638 4.92514 1.51049C4.86474 1.8046 4.92 2.10947 5.08051 2.36768C5.11102 2.41315 5.12149 2.46815 5.10968 2.52085C4.94124 3.2605 4.67394 3.97682 4.31424 4.65248C3.86877 5.48809 3.28518 6.25093 2.58552 6.91216C1.85372 7.60513 1.11927 8.29559 0.392773 8.99358C0.268527 9.10375 0.168764 9.23631 0.0993573 9.38348C0.0299503 9.53065 -0.00771124 9.68947 -0.011416 9.85061C-0.0151208 10.0118 0.0152079 10.172 0.0777852 10.3219C0.140363 10.4718 0.23393 10.6083 0.352995 10.7235C0.77369 11.1403 1.20588 11.5487 1.64955 11.9487C1.80028 12.0845 1.98484 12.1819 2.18604 12.232C2.38724 12.282 2.59855 12.2831 2.80028 12.235C3.12765 12.1601 3.41896 11.9832 3.62753 11.7328C3.71768 11.6374 3.76805 11.65 3.85555 11.7328C4.51576 12.3655 5.18127 12.9882 5.84148 13.6209C6.07409 13.8556 6.39301 13.9967 6.73235 14.0151C6.9907 14.0279 7.24716 13.9671 7.46877 13.8408C7.69037 13.7144 7.867 13.5281 7.97591 13.3059C8.08483 13.0837 8.12105 12.8357 8.07994 12.5939C8.03883 12.352 7.92225 12.1274 7.74521 11.9487C7.52249 11.7228 7.28651 11.5094 7.05584 11.2884C6.97364 11.2106 6.83312 11.1353 6.82782 11.0524C6.82252 10.9696 6.97364 10.8867 7.05584 10.8013C7.19602 10.679 7.3067 10.5295 7.38034 10.3631C7.45398 10.1966 7.48885 10.017 7.48255 9.83662C7.47626 9.65623 7.42896 9.47924 7.34388 9.31772C7.2588 9.1562 7.13795 9.01396 6.98955 8.90068C6.91531 8.83791 6.90736 8.80527 6.98955 8.74502C7.96967 8.11724 9.06913 7.67555 10.227 7.44444C10.3046 7.42717 10.3862 7.43886 10.455 7.47708C11.3194 7.924 12.3667 7.33648 12.372 6.2669C12.3517 5.98234 12.2225 5.71455 12.0087 5.51367V5.51367ZM2.84005 11.3135C2.80133 11.3526 2.7545 11.3838 2.70249 11.4049C2.65047 11.4261 2.59441 11.4369 2.53779 11.4365C2.47878 11.4388 2.41992 11.4293 2.36509 11.4085C2.31025 11.3877 2.26068 11.3562 2.21962 11.316C1.81395 10.9344 1.40827 10.5628 1.00525 10.1661C0.961054 10.1287 0.925698 10.0828 0.901489 10.0315C0.877279 9.98027 0.864769 9.92474 0.864769 9.86857C0.864769 9.81241 0.877279 9.7569 0.901489 9.70563C0.925698 9.65436 0.961054 9.6085 1.00525 9.57105C1.68933 8.91825 2.3787 8.26797 3.06277 7.61769C3.11845 7.56245 3.14761 7.55994 3.20594 7.61769C3.77158 8.15666 4.33987 8.69396 4.91082 9.22959C4.9665 9.28232 4.95589 9.30993 4.91082 9.35513C4.22144 10.0046 3.53119 10.6574 2.84005 11.3135V11.3135ZM7.11152 12.4735C7.17605 12.5294 7.22044 12.6031 7.23851 12.6841C7.25658 12.7652 7.2474 12.8496 7.21226 12.9254C7.17762 13.0021 7.11936 13.0671 7.04509 13.1119C6.97082 13.1567 6.88401 13.1792 6.796 13.1765C6.68249 13.1697 6.57571 13.1231 6.49639 13.0459C5.80701 12.3932 5.12028 11.7378 4.42825 11.0876C4.37257 11.0348 4.37788 11.0097 4.42825 10.962C4.58999 10.8139 4.74909 10.6632 4.90553 10.5076C4.95855 10.4574 4.98771 10.4548 5.04339 10.5076C5.73276 11.1671 6.41949 11.8224 7.10356 12.4735H7.11152ZM5.64793 9.82715C5.82027 9.67902 5.98996 9.52335 6.16231 9.37271C6.18352 9.35513 6.21268 9.31245 6.2445 9.34509C6.37707 9.48569 6.56266 9.59617 6.61834 9.78447C6.62208 9.80862 6.62208 9.83314 6.61834 9.85728C6.62159 9.92894 6.60667 10.0003 6.57484 10.0654C6.54302 10.1305 6.4952 10.1874 6.43539 10.2314C6.3532 10.3042 6.27631 10.4297 6.18616 10.4373C6.09601 10.4448 6.02974 10.3092 5.95019 10.2339C5.87065 10.1586 5.74338 10.033 5.63467 9.93763C5.6002 9.88239 5.6002 9.85477 5.64793 9.82715ZM8.65995 7.03268C7.58545 7.40723 6.58849 7.95702 5.71421 8.65715C5.63467 8.72242 5.59224 8.73247 5.5127 8.65715C4.94883 8.11482 4.38054 7.57584 3.80783 7.04021C3.74684 6.98247 3.74684 6.95233 3.80783 6.88956C4.76181 5.83055 5.45229 4.58208 5.82822 3.23641C5.83238 3.22225 5.83863 3.20874 5.84678 3.19624L9.60121 6.75147C9.28304 6.81424 8.95957 6.91216 8.65995 7.02012V7.03268ZM11.2875 6.76905C11.2166 6.80373 11.1367 6.81837 11.0573 6.81125C10.9778 6.80413 10.9022 6.77553 10.8394 6.72887C10.8051 6.70397 10.7732 6.67626 10.744 6.64602L5.94754 2.10154C5.89154 2.05817 5.84669 2.00331 5.81638 1.94111C5.78606 1.87891 5.77106 1.81099 5.77254 1.7425C5.77512 1.66566 5.8017 1.59128 5.84889 1.52872C5.89607 1.46617 5.96176 1.41824 6.03768 1.391C6.10973 1.3589 6.19 1.34704 6.26895 1.35683C6.3479 1.36662 6.42223 1.39765 6.48312 1.44623C6.51393 1.46865 6.54236 1.49388 6.56797 1.52155L11.3459 6.06101C11.4048 6.10967 11.451 6.17057 11.4809 6.23896C11.5108 6.30735 11.5236 6.38136 11.5182 6.4552C11.5106 6.52004 11.4854 6.5819 11.4449 6.63471C11.4045 6.68753 11.3503 6.7295 11.2875 6.7565V6.76905Z" fill="black"/>
<path d="M3.14235 8.88307C3.22445 8.88098 3.30532 8.90239 3.37438 8.9445C3.44344 8.9866 3.49749 9.04744 3.52946 9.11909C3.5686 9.18798 3.58377 9.26683 3.57282 9.34437C3.56187 9.42191 3.52534 9.49421 3.46847 9.55095C3.25635 9.76687 3.03629 9.97777 2.80826 10.1786C2.72754 10.2492 2.62067 10.2866 2.51091 10.2829C2.40116 10.2791 2.29742 10.2344 2.2223 10.1585C2.1831 10.1215 2.15199 10.0774 2.13077 10.029C2.10955 9.98049 2.09863 9.92855 2.09863 9.87608C2.09863 9.82362 2.10955 9.77166 2.13077 9.72319C2.15199 9.67473 2.1831 9.6307 2.2223 9.59362C2.42646 9.39025 2.64122 9.1919 2.85333 8.99606C2.89122 8.96006 2.93628 8.93154 2.98589 8.91215C3.0355 8.89275 3.08867 8.88287 3.14235 8.88307V8.88307Z" fill="black"/>
</g>
<defs>
<clipPath id="clip0_460_810">
<rect width="13" height="14" fill="white"/>
</clipPath>
</defs>
</svg>
