<svg width="22" height="21" viewBox="0 0 22 21" fill="none" xmlns="http://www.w3.org/2000/svg">
<path d="M10.9353 0.522351L10.9354 0.522302C10.9756 0.505126 11.066 0.490418 11.1749 0.507667C11.225 0.515587 11.2655 0.528353 11.2931 0.540854C11.2942 0.541357 11.2953 0.54185 11.2963 0.542331C11.3185 0.582436 11.3489 0.63864 11.3872 0.710451C11.4702 0.866048 11.586 1.08698 11.7265 1.35765C12.0071 1.89857 12.3839 2.63352 12.7889 3.43166C13.1946 4.23118 13.567 4.96166 13.8402 5.49457C13.9767 5.76091 14.0888 5.97848 14.1679 6.13083C14.2074 6.2068 14.2392 6.26769 14.2621 6.31066C14.2733 6.33182 14.2834 6.35064 14.2916 6.36541C14.2955 6.37237 14.3006 6.38158 14.3061 6.39082C14.3086 6.39508 14.3136 6.40331 14.3198 6.41294C14.3229 6.41766 14.3286 6.42616 14.336 6.43636L14.3363 6.43673C14.341 6.44307 14.3598 6.46877 14.3883 6.49697C14.4464 6.55432 14.5048 6.58303 14.519 6.59003L14.5196 6.59034C14.5424 6.60154 14.5613 6.60872 14.5713 6.61233C14.5917 6.61974 14.6087 6.62441 14.6162 6.62642C14.6331 6.63093 14.6485 6.63427 14.6578 6.63622C14.6783 6.64051 14.7027 6.64501 14.7277 6.64941C14.779 6.65845 14.8506 6.67018 14.9385 6.68408C15.1151 6.71201 15.3669 6.75017 15.6746 6.79572C16.2904 6.88689 17.1347 7.00836 18.0591 7.13817C19.2732 7.30867 20.1191 7.43173 20.6737 7.51936C20.9516 7.56327 21.1515 7.59754 21.2861 7.62381C21.342 7.63473 21.3827 7.64351 21.411 7.65026C21.4388 7.67508 21.4689 7.71697 21.4868 7.7763C21.5032 7.83047 21.5021 7.87448 21.4957 7.90426C21.4668 7.93475 21.4256 7.97702 21.3719 8.03102C21.2551 8.14844 21.0887 8.31215 20.884 8.51093C20.4751 8.90802 19.9192 9.43961 19.3153 10.0095C18.1088 11.148 17.0086 12.1912 16.8771 12.3218L16.6487 12.5485L16.463 12.7329L16.5086 12.9905L17.0841 16.2412L17.5765 16.154L17.0841 16.2412C17.1025 16.3452 17.1204 16.4459 17.1377 16.5436C17.4243 18.1618 17.5598 18.9268 17.5924 19.327C17.6002 19.4234 17.6 19.4805 17.5985 19.5112C17.5864 19.5225 17.5695 19.5382 17.5464 19.5593C17.4941 19.6071 17.431 19.6296 17.3619 19.6247C17.3574 19.6227 17.3524 19.6205 17.3469 19.618C17.3029 19.5983 17.2391 19.5686 17.1562 19.5292C16.991 19.4505 16.7596 19.3377 16.4782 19.1986C15.9159 18.9206 15.1595 18.5406 14.3452 18.1258C13.529 17.7099 12.7808 17.3317 12.2329 17.0572C11.9591 16.92 11.7344 16.8083 11.5757 16.7306C11.4968 16.6919 11.4323 16.6608 11.3858 16.6389C11.3631 16.6282 11.3413 16.6181 11.323 16.6101C11.3145 16.6064 11.3015 16.6008 11.2873 16.5954C11.2807 16.5929 11.2674 16.5879 11.2509 16.5828C11.2426 16.5803 11.2282 16.5761 11.21 16.5721C11.1975 16.5694 11.1561 16.5604 11.1022 16.5604C11.0482 16.5604 11.0066 16.5695 10.9942 16.5722C10.976 16.5762 10.9615 16.5804 10.9534 16.5829C10.9368 16.588 10.9236 16.5929 10.917 16.5955C10.9029 16.6009 10.8899 16.6064 10.8814 16.6101C10.8631 16.6182 10.8413 16.6282 10.8184 16.639C10.7717 16.6609 10.707 16.6922 10.6277 16.7311C10.4683 16.8091 10.2424 16.9213 9.96727 17.059C9.41658 17.3346 8.66464 17.7145 7.84418 18.1321C6.76965 18.679 6.01423 19.0579 5.51026 19.3015C5.25769 19.4237 5.07309 19.5095 4.9452 19.565C4.88416 19.5915 4.84086 19.6089 4.81195 19.6196C4.80526 19.619 4.79701 19.6179 4.78723 19.6162C4.76015 19.6113 4.7294 19.6022 4.69902 19.5894C4.66841 19.5765 4.6445 19.5625 4.62889 19.551C4.62437 19.5477 4.62123 19.5451 4.61927 19.5434C4.60863 19.5276 4.60167 19.5169 4.59728 19.5101C4.59718 19.5089 4.59707 19.5077 4.59697 19.5063C4.59615 19.4951 4.59551 19.4783 4.59585 19.4539C4.59656 19.4041 4.60125 19.3323 4.61298 19.2271C4.66099 18.7965 4.80507 17.9826 5.10493 16.2888L5.11281 16.2442L5.68888 12.9901L5.73466 12.7315L5.54769 12.547L5.27125 12.2743L5.27123 12.2743C5.11404 12.1192 4.01517 11.0772 2.83446 9.96329C2.24387 9.40609 1.70003 8.88606 1.29987 8.49737C1.09954 8.30278 0.936647 8.14249 0.822359 8.02746C0.770176 7.97494 0.73004 7.93377 0.70182 7.90398C0.695545 7.87461 0.694286 7.83063 0.710694 7.77608C0.728382 7.71729 0.757694 7.67643 0.784042 7.65242C0.813494 7.6455 0.855667 7.63655 0.913179 7.62544C1.05086 7.59885 1.25443 7.56415 1.53469 7.51994C2.09398 7.43172 2.94058 7.30844 4.13728 7.14036C5.06203 7.01047 5.90666 6.88882 6.5227 6.79742C6.83049 6.75176 7.08245 6.71346 7.2592 6.68539C7.34714 6.67142 7.41889 6.6596 7.47038 6.65047C7.49538 6.64603 7.52002 6.64145 7.54081 6.63704C7.55019 6.63505 7.56602 6.63159 7.58329 6.62688C7.591 6.62478 7.60845 6.6199 7.62946 6.61212C7.6397 6.60833 7.65912 6.6008 7.68236 6.58907L7.68288 6.58881C7.69752 6.58142 7.75645 6.55169 7.8145 6.49255L7.81497 6.49208C7.84136 6.46512 7.85886 6.44087 7.86327 6.43477L7.8635 6.43444C7.87054 6.42471 7.87587 6.41659 7.87881 6.41204C7.8848 6.40278 7.88952 6.39485 7.89197 6.39069C7.89729 6.38167 7.90233 6.37264 7.90615 6.36572C7.91425 6.35105 7.92431 6.33231 7.93554 6.31114C7.95834 6.26819 7.99018 6.20729 8.02963 6.13128C8.10875 5.97885 8.22078 5.7612 8.3573 5.49479C8.63046 4.96173 9.00283 4.23117 9.40853 3.43166C9.81353 2.63352 10.1903 1.89858 10.471 1.35768C10.6114 1.08701 10.7272 0.866088 10.8102 0.710496C10.849 0.637794 10.8797 0.58109 10.902 0.540893C10.908 0.537072 10.9141 0.53346 10.9199 0.530249C10.9242 0.52784 10.9279 0.525927 10.9308 0.524501L10.9341 0.522896C10.9349 0.52252 10.9353 0.522348 10.9353 0.522351ZM11.2673 0.491243C11.2641 0.486323 11.2623 0.483321 11.2622 0.483046C11.2621 0.48277 11.2637 0.485231 11.2673 0.491243ZM21.4499 7.66063C21.4498 7.66065 21.4479 7.6601 21.4446 7.65893C21.4483 7.66003 21.45 7.6606 21.4499 7.66063ZM21.5283 7.869C21.5352 7.86034 21.5371 7.85893 21.5296 7.86751C21.5293 7.86794 21.5288 7.86843 21.5283 7.869ZM17.3987 19.64C17.3987 19.6401 17.3963 19.6392 17.3911 19.6371C17.396 19.6389 17.3987 19.64 17.3987 19.64ZM4.78446 19.6289C4.78449 19.6289 4.78529 19.6287 4.78679 19.6283L4.78446 19.6289ZM0.668235 7.86756C0.661169 7.85937 0.662981 7.86075 0.669572 7.86909C0.669052 7.8685 0.668608 7.86799 0.668235 7.86756ZM0.748681 7.66142C0.74529 7.66258 0.743371 7.66313 0.743262 7.66312C0.743153 7.6631 0.744847 7.66252 0.748681 7.66142ZM10.9353 0.483097C10.9352 0.483368 10.9334 0.486373 10.9301 0.491299C10.9337 0.485289 10.9354 0.482826 10.9353 0.483097Z" stroke="url(#paint0_linear_1_1134)"/>
<defs>
<linearGradient id="paint0_linear_1_1134" x1="11.0988" y1="0" x2="11.0988" y2="20.1253" gradientUnits="userSpaceOnUse">
<stop stop-color="#F65D61"/>
<stop offset="0.505208" stop-color="#F16684"/>
<stop offset="1" stop-color="#FA9A64"/>
</linearGradient>
</defs>
</svg>
