<svg width="27" height="24" viewBox="0 0 27 24" fill="none" xmlns="http://www.w3.org/2000/svg">
<g clip-path="url(#clip0_1_1517)">
<path d="M25.7754 2.299C25.4017 1.95559 25.0135 1.6291 24.6302 1.29536C23.6862 0.475525 22.608 0.552914 21.7958 1.50093C20.7895 2.67386 19.776 3.84195 18.7769 5.01971C18.7167 5.09947 18.638 5.16318 18.5479 5.20532C18.4577 5.24746 18.3587 5.26677 18.2594 5.26155C15.7413 5.26155 13.228 5.26155 10.7027 5.26155C8.17739 5.26155 5.70959 5.26155 3.21305 5.26155C1.88571 5.26155 0.924945 6.18296 0.917757 7.51067C0.89859 10.6546 0.89859 13.7985 0.917757 16.9425C0.903587 17.398 1.03599 17.8459 1.29515 18.2191C1.5543 18.5923 1.92626 18.8707 2.35531 19.0126C2.43423 19.0322 2.50284 19.0813 2.5473 19.15C2.59177 19.2187 2.60878 19.3018 2.5949 19.3826C2.5949 20.662 2.5949 21.9413 2.5949 23.2231C2.5949 23.4891 2.5949 23.7551 2.88002 23.893C3.16513 24.0308 3.3592 23.893 3.58442 23.7285C5.50115 22.2775 7.41389 20.8208 9.32264 19.3584C9.48942 19.2238 9.69864 19.1543 9.91204 19.1626C13.0108 19.1626 16.1103 19.1626 19.2106 19.1626C20.7512 19.1626 21.6616 18.2508 21.6616 16.703C21.6616 14.5555 21.6616 12.4079 21.6616 10.2604C21.6582 10.1647 21.6736 10.0693 21.7069 9.97963C21.7402 9.88997 21.7908 9.80786 21.8557 9.73802C23.2262 8.15155 24.5926 6.56185 25.9551 4.96892C26.1243 4.78527 26.2543 4.56859 26.3373 4.33224C26.4203 4.0959 26.4544 3.84489 26.4376 3.59472C26.4207 3.34455 26.3533 3.10051 26.2394 2.87766C26.1255 2.65481 25.9676 2.45787 25.7754 2.299ZM21.2064 3.77423C21.3741 3.57834 21.4628 3.59769 21.6209 3.75488C21.8174 3.95319 22.1839 4.12006 22.2031 4.32321C22.2223 4.52636 21.894 4.7561 21.7119 4.96892C20.0604 6.89398 18.4072 8.81822 16.7524 10.7417C16.6925 10.8118 16.623 10.8771 16.5535 10.9521L16.1965 10.6401C15.6958 10.2024 15.6958 10.1999 16.1271 9.69933C17.821 7.71382 19.5197 5.74523 21.2064 3.77423ZM17.2675 12.9303L14.7973 13.813C14.9746 12.9134 15.1375 12.0887 15.3077 11.2229L17.2675 12.9303ZM20.6218 16.7393C20.6218 17.6559 20.1618 18.1226 19.2561 18.1226C16.0472 18.1226 12.8399 18.1226 9.63412 18.1226C9.36851 18.1143 9.10835 18.1998 8.89857 18.3645C7.25496 19.6245 5.60657 20.8724 3.95818 22.1251L3.62275 22.3669C3.62275 21.1577 3.62275 19.9993 3.62275 18.8506C3.62275 18.2847 3.53649 18.1855 2.97824 18.096C2.67852 18.0596 2.40416 17.9082 2.21195 17.6732C2.01973 17.4382 1.92437 17.1376 1.9456 16.8336C1.9456 15.2617 1.9456 13.6897 1.9456 12.1177V7.66787C1.9456 6.76096 2.40323 6.29663 3.28972 6.29663H17.591C17.6221 6.43932 17.5023 6.4901 17.44 6.56507C16.5264 7.64207 15.6039 8.71584 14.6727 9.78639C14.5503 9.92231 14.4674 10.0897 14.4331 10.2701C14.1648 11.6389 13.8869 13.0053 13.6209 14.3814C13.5083 14.9594 13.8605 15.2544 14.4116 15.0609L18.2642 13.6897C18.4666 13.6179 18.6461 13.4927 18.7841 13.3269C19.3064 12.7078 19.8383 12.096 20.3678 11.4841C20.4373 11.4067 20.4828 11.3003 20.6074 11.264C20.6793 11.3511 20.641 11.4503 20.641 11.5422C20.6362 13.2721 20.6298 15.0045 20.6218 16.7393ZM23.7652 5.92178C21.9667 8.01773 20.1682 10.1137 18.3696 12.2096C18.2379 12.362 18.1588 12.3765 18.0198 12.229C17.8138 12.0137 17.4137 11.8686 17.4065 11.6171C17.3993 11.3656 17.7323 11.1697 17.9216 10.9496C19.562 9.04233 21.2024 7.1342 22.8428 5.22528C23.001 5.04148 23.104 4.98344 23.2813 5.19142C23.4314 5.34464 23.5915 5.48764 23.7605 5.61948C23.8146 5.6582 23.8715 5.69296 23.9306 5.72347L23.7652 5.92178ZM25.174 4.28452C24.992 4.50943 24.8147 4.84559 24.587 4.89154C24.3594 4.93748 24.1606 4.5844 23.9497 4.40785C23.3771 3.92417 22.8141 3.41389 22.239 2.92537C22.1097 2.81412 22.0665 2.73915 22.2079 2.60372C22.3493 2.46829 22.5218 2.2458 22.6871 2.06925C22.8398 1.90792 23.0482 1.81214 23.269 1.80178C23.4899 1.79142 23.7062 1.86729 23.8731 2.01363C24.2804 2.36672 24.6925 2.71739 25.0902 3.07773C25.1785 3.14848 25.2512 3.23701 25.3038 3.33768C25.3563 3.43836 25.3875 3.54897 25.3954 3.66248C25.4033 3.77599 25.3877 3.88992 25.3496 3.99701C25.3115 4.10411 25.2517 4.20202 25.174 4.28452Z" fill="black"/>
<path d="M8.21905 9.72874H11.1828C11.5709 9.72874 11.7962 9.91495 11.8009 10.2318C11.8057 10.5486 11.5614 10.7662 11.1708 10.7662C9.1822 10.7662 7.19439 10.7662 5.20737 10.7662C4.80965 10.7662 4.56767 10.5558 4.57246 10.2342C4.57725 9.91254 4.81205 9.72874 5.21935 9.72632L8.21905 9.72874Z" fill="black"/>
<path d="M8.20467 12.916H11.1373C11.5757 12.916 11.8057 13.1023 11.8009 13.4384C11.7962 13.7746 11.5614 13.9535 11.1517 13.956H5.22175C5.104 13.9725 4.98405 13.9525 4.87789 13.8985C4.77173 13.8444 4.6844 13.759 4.62756 13.6537C4.58106 13.5674 4.56165 13.469 4.57192 13.3713C4.5822 13.2737 4.62166 13.1815 4.68507 13.1071C4.74925 13.0341 4.83028 12.9783 4.92098 12.9445C5.01168 12.9108 5.10923 12.9002 5.20498 12.9136C6.20647 12.9185 7.20557 12.916 8.20467 12.916Z" fill="black"/>
</g>
<defs>
<clipPath id="clip0_1_1517">
<rect width="25.5357" height="23.2143" fill="white" transform="translate(0.906708 0.732178)"/>
</clipPath>
</defs>
</svg>
