<svg width="193" height="13" viewBox="0 0 193 13" fill="none" xmlns="http://www.w3.org/2000/svg">
<path d="M174.013 0.484515C174.128 0.595533 174.318 0.484524 174.448 0.272581C174.608 0.534986 174.745 0.161545 174.806 0.2221C175.027 0.474413 175.172 0.444135 175.408 0.2221C175.469 0.161545 175.759 0.474431 175.965 0.524894H176.117C176.318 0.437436 176.531 0.406504 176.742 0.434065L177.794 0.686378L178.015 0.454239C178.036 0.44143 178.06 0.434804 178.083 0.434804C178.107 0.434804 178.13 0.44143 178.152 0.454239C178.393 0.609192 178.65 0.717942 178.914 0.777206H179.12C179.318 0.595541 179.463 0.777204 179.432 1.09007L179.836 0.676275L180.172 0.333133C180.49 0.492276 180.835 0.534125 181.17 0.454239C181.391 0.353313 182.054 0.807463 182.29 0.787278C182.719 0.859971 183.143 0.981548 183.556 1.15062V0.767104C183.607 0.719698 183.668 0.694966 183.731 0.696449L184.036 0.958864C184.347 0.866177 184.672 0.90499 184.965 1.06987C185.095 1.21116 185.583 0.908391 185.728 0.979038C185.971 1.10105 186.235 1.12907 186.49 1.0598C186.995 0.971524 187.506 0.95459 188.014 1.00931L188.449 1.24145C188.586 1.32219 188.852 1.09007 189.073 1.0598H189.234C189.389 1.1283 189.558 1.1283 189.714 1.0598L190.11 1.48366C190.583 1.26163 191.025 1.302 191.093 1.5846C191.162 1.86719 191.535 2.5232 191.634 2.50302C191.733 2.48283 191.985 2.50303 192 2.57367C192.015 2.64432 191.909 2.937 191.749 3.04802C191.589 3.15904 191.581 4.05728 191.329 4.50135L191.413 5.0766V5.2078C191.413 5.40965 191.345 5.53077 191.276 5.47022C191.23 5.43047 191.174 5.41564 191.121 5.42879C191.067 5.44195 191.019 5.48208 190.986 5.54087C191.421 5.773 190.91 6.15652 191.116 6.42902C191.129 6.4505 191.136 6.47718 191.136 6.5047C191.136 6.53221 191.129 6.55892 191.116 6.5804L190.788 6.96392C190.788 7.25661 190.422 7.56946 190.026 7.67038L189.653 7.29696L189.592 7.23641C189.313 7.37976 189.021 7.46819 188.723 7.49883C188.487 7.49883 187.702 7.42818 187.481 7.49883H187.077C186.895 7.45053 186.712 7.41682 186.528 7.39789C186.343 7.37785 186.157 7.37785 185.972 7.39789C185.503 7.45917 185.032 7.48611 184.562 7.47862C184.013 7.47862 182.275 7.47864 181.993 7.408C181.575 7.4553 181.162 7.55669 180.758 7.71076H180.69H180.278C179.886 7.61162 179.485 7.59461 179.089 7.66031C178.884 7.73096 178.213 7.519 178.045 7.54928C177.716 7.59518 177.384 7.59518 177.054 7.54928C176.849 7.48872 175.85 7.61992 175.362 7.6401H173.579C173.297 7.6401 172.87 7.75112 172.779 7.6401C172.581 7.31714 172.306 7.7713 172.161 7.47862C172.161 7.42816 171.963 7.42816 171.872 7.47862C171.78 7.52908 171.361 7.70067 171.277 7.61993L170.98 7.32724C170.885 7.42509 170.776 7.49614 170.659 7.53606C170.542 7.57598 170.421 7.58393 170.302 7.55938C170.149 7.47864 169.822 7.43826 169.646 7.36762C169.471 7.29697 168.884 7.56946 168.762 7.45845C168.64 7.34743 168.069 7.72084 167.901 7.76121C167.516 7.66779 167.137 7.53964 166.765 7.37769L166.422 7.65021L166.186 7.85204C165.831 7.79153 165.48 7.70052 165.134 7.57955C164.884 7.49512 164.629 7.43108 164.372 7.38779C163.818 7.515 163.278 7.73195 162.764 8.03373L162.467 7.47862C162.42 7.45108 162.37 7.43686 162.318 7.43686C162.267 7.43686 162.216 7.45108 162.17 7.47862C161.842 7.82177 161.468 7.24651 161.133 7.55938C160.992 7.66413 160.829 7.70655 160.668 7.68048C160.391 7.59782 160.112 7.53381 159.83 7.48872H159.578C159.331 7.58535 159.074 7.63295 158.816 7.63C158.537 7.62128 158.259 7.58076 157.986 7.5089C157.848 7.42816 157.345 7.73095 157.178 7.81169C157.01 7.89243 156.56 7.54927 156.415 7.6401C156.021 7.70862 155.621 7.70862 155.227 7.6401H154.914C154.655 7.6401 154.396 7.75113 154.152 7.74104H153.672C153.041 7.65587 152.408 7.61545 151.774 7.61993L151.34 7.78141L150.959 7.92269C150.456 7.8003 149.945 7.74619 149.434 7.76121H145.311C144.899 7.76121 144.48 7.76121 144.069 7.76121H143.817L143.215 7.9328C143.162 7.9328 142.781 7.87225 142.453 7.81169C142.125 7.75114 140.395 7.91262 140.266 7.81169C140.066 7.77609 139.865 7.75588 139.663 7.75114C139.534 7.75114 138.901 7.90251 138.566 7.92269H133.231L130.99 8.00345C129.7 8.05578 128.412 8.20064 127.134 8.43742L127.035 8.33649L126.776 8.09428C126.657 8.17098 126.527 8.21083 126.395 8.21083C126.262 8.21083 126.132 8.17098 126.013 8.09428L125.693 8.36677C125.526 8.50806 125.167 8.36677 124.893 8.36677H124.428C124.003 8.35327 123.577 8.38704 123.155 8.4677C122.749 8.46446 122.349 8.3439 121.982 8.11445L121.829 8.38694L121.601 8.77046C121.385 8.54412 121.113 8.43256 120.838 8.4576C120.418 8.51929 119.996 8.55298 119.573 8.55853C119.135 8.612 118.695 8.63559 118.255 8.62918H117.935H117.592C117.238 8.63589 116.886 8.68657 116.54 8.78056C116.172 8.83622 115.808 8.92729 115.45 9.05305L115.084 8.90167C114.746 8.83537 114.402 8.83537 114.063 8.90167H113.72C113.366 8.90433 113.014 8.97573 112.676 9.1136H112.325C111.72 8.96644 111.103 8.919 110.489 8.97232C109.404 8.99477 108.325 9.18099 107.272 9.5274L107.028 9.19436C106.967 9.12371 106.64 9.31546 106.434 9.34574H106.228C105.96 9.32806 105.699 9.22783 105.466 9.05305C105.275 8.89157 104.567 9.31546 104.338 9.31546C104.109 9.31546 103.332 9.31546 103.103 9.31546C102.67 9.32909 102.237 9.37628 101.808 9.45678H101.571C101.35 9.45678 101.122 9.32555 100.901 9.33564H100.474C100.009 9.33564 99.3002 9.33564 98.8886 9.33564C98.4771 9.33564 97.2729 9.57788 97.0214 9.51733H96.7927H96.465C96.1359 9.56873 95.8034 9.56873 95.4742 9.51733C95.1189 9.59163 94.7676 9.69613 94.4225 9.83019C94.1786 9.83019 93.2716 9.83019 92.9896 9.83019C92.7076 9.83019 91.4653 9.83019 90.8937 9.89075C90.3221 9.9513 88.2491 10.0219 87.647 10.032C87.0449 10.0421 85.3605 10.032 85.2234 10.1531C85.0862 10.2742 84.5374 10.032 84.3774 10.0017C84.2173 9.97147 83.6152 10.2642 83.3256 10.2843C83.036 10.3045 81.8775 10.2843 81.405 10.2843C80.9324 10.2843 79.3167 10.2843 78.8594 10.2843C78.4022 10.2843 76.451 10.4054 75.5441 10.4054H71.6876L71.5047 10.6174C71.3218 10.8092 71.1693 10.1834 70.9255 10.6174L70.8797 10.6981C70.6409 10.6476 70.3967 10.6648 70.1633 10.7486C69.9956 10.8294 69.3555 10.5367 68.9668 10.6477H65.9182C62.9687 10.6477 60.2478 10.5669 59.8743 10.4761L59.5847 10.8092L59.5466 10.8596L58.8836 10.7991C58.5807 10.7341 58.2719 10.7341 57.969 10.7991C57.8928 10.8798 57.5574 10.6981 57.466 10.7991C57.2146 10.8583 56.9588 10.8786 56.7038 10.8596H56.5057L55.5758 10.9303H55.3701C55.1958 10.9534 55.0209 10.8964 54.8747 10.7688C54.8365 10.678 54.4098 10.8697 54.2192 10.8697H54.0287C53.9448 10.8697 53.8229 10.7183 53.7772 10.7486L53.076 11.1725C52.2605 11.0514 50.9115 10.9606 50.0808 10.9606H47.4514C47.0166 10.9798 46.5813 10.9629 46.1481 10.9101C45.6562 11.0228 45.1755 11.2091 44.7153 11.4652L44.4714 11.011C44.4269 10.9851 44.3789 10.9718 44.3304 10.9718C44.2818 10.9718 44.2338 10.9851 44.1894 11.011L43.8464 11.2734C43.3792 11.1575 42.9023 11.1269 42.4288 11.1826H42.0706C41.659 11.1826 41.2475 11.1826 40.8359 11.1826H35.7143C35.271 11.1883 34.828 11.1545 34.3881 11.0817C34.0757 11.0211 33.1763 11.3441 33.0696 11.2936C32.6382 11.2049 32.2029 11.1544 31.7664 11.1422C31.2786 11.1422 29.8686 11.3743 29.701 11.3642C29.4217 11.3709 29.1428 11.3337 28.8702 11.2532C28.7406 11.1523 28.1767 11.4046 28.0166 11.4349C27.7169 11.366 27.4138 11.3256 27.1097 11.3138C26.9039 11.3743 26.1798 11.4248 25.9817 11.4652C25.7835 11.5055 25.1433 11.2734 24.9985 11.3138C24.5883 11.3685 24.1762 11.3955 23.7638 11.3945C23.3828 11.3945 21.8432 11.3441 21.1802 11.2633L20.6085 11.6166L20.5095 11.6872C20.2111 11.64 19.9104 11.6231 19.6101 11.6367L19.3967 11.4955L19.0462 11.2734C18.779 11.4581 18.4777 11.5386 18.1773 11.5056L17.9258 11.6065L17.6514 11.7074C17.3445 11.6734 17.0361 11.6734 16.7292 11.7074C16.5768 11.7074 15.4717 11.4248 14.5266 11.3441L13.7645 11.8386L13.4825 12.0203C13.1713 11.936 12.855 11.8887 12.5374 11.879C12.3316 11.879 11.6152 11.879 11.4094 11.879C11.2036 11.879 10.7311 11.7679 10.6473 11.8083C10.3734 11.8383 10.0981 11.8383 9.82417 11.8083C9.55742 11.8083 8.68095 11.8083 8.45992 11.7579C8.2389 11.7074 7.59107 11.7579 7.40816 11.7579C7.22524 11.7579 6.80607 12.0102 6.75272 11.9496C6.69937 11.8891 6.44785 11.7377 6.37925 11.8184C6.15434 11.9576 5.91089 12.0365 5.66286 12.0505H4.13856C4.04711 11.8689 3.94038 11.7175 3.90228 11.7175C3.86417 11.7175 3.74985 11.7982 3.74223 11.8991C3.44359 11.9875 3.13392 11.9875 2.83528 11.8991H2.25606C1.95882 11.8991 1.75303 11.8992 1.814 11.8487C1.87497 11.7982 1.97406 11.6468 1.89022 11.5156C1.79661 11.2694 1.76204 10.9913 1.79114 10.7183C1.79114 10.5569 1.85973 10.0724 1.73778 10.0724C1.61584 10.0724 1.34147 10.1229 1.36434 10.1834C1.3872 10.244 1.36434 10.4256 1.36434 10.4458C1.22934 10.4242 1.10212 10.3505 0.9985 10.2339C0.891799 10.1229 0.350675 9.87057 0.236353 9.73936C0.122031 9.60816 -0.0685019 9.07326 0.144899 9.0127C0.3583 8.95215 0.594565 9.64852 0.739373 9.78981H0.914675C0.975647 9.78981 1.05187 9.67879 1.08998 9.59805C1.07158 9.55961 1.04537 9.5288 1.01436 9.50917C0.983359 9.48953 0.948819 9.48188 0.914675 9.48705C0.861325 9.48705 0.693646 9.48703 0.693646 9.40629C0.724962 9.28954 0.776404 9.18405 0.843875 9.0982C0.911346 9.01236 0.992997 8.94854 1.08235 8.91177C1.28813 8.84112 1.89785 8.53835 1.89785 8.40715C1.89785 8.27594 1.97407 7.85206 2.06552 8.00345C2.15698 8.15484 2.51517 8.39705 2.6676 8.21538L2.71333 8.0438C2.78192 7.81167 2.82004 7.86216 2.96485 7.97317L3.05631 8.0438H3.96326C4.34834 8.00863 4.72416 7.87135 5.06838 7.6401C4.99217 7.6401 5.2513 7.34742 5.83053 7.16575L6.44024 7.45845C6.55527 7.51881 6.67564 7.55951 6.79845 7.57955H6.8899C7.04233 7.519 7.08807 7.3676 6.99661 7.22631C6.90516 7.08501 6.76034 6.7116 6.86704 6.67123H6.95849C7.05757 6.67123 7.19476 6.83271 7.24811 6.79234L7.59109 6.5804C7.74797 6.7817 7.92805 6.94863 8.12458 7.07493C8.20841 7.07493 8.55139 7.07494 8.46755 6.96392C8.38372 6.85291 8.46754 6.63085 8.64283 6.46937C8.93335 6.31726 9.24562 6.25179 9.55742 6.27761C9.67174 6.27761 10.1443 6.27761 10.3196 6.27761C10.6277 6.26949 10.9358 6.28972 11.2418 6.33816C11.4856 6.42899 11.9582 5.85373 12.0877 5.87391C12.2173 5.8941 12.4612 6.21706 12.4841 6.25743C12.5069 6.2978 12.606 6.33817 12.6441 6.25743V5.58122C13.0502 5.67388 13.4485 5.81926 13.8331 6.01522L14.1532 5.81336L14.4428 5.6216C14.7912 5.58235 15.1358 5.49784 15.4717 5.36929C15.6394 5.27846 16.0357 5.64178 16.1195 5.6115V5.55095L16.1576 5.45005C16.3393 5.43024 16.5222 5.4507 16.6987 5.5106H17.1713C17.4609 5.42986 17.8038 5.32892 17.9334 5.30874C18.063 5.28855 18.5812 5.23808 18.8099 5.2078C19.2355 5.15555 19.6631 5.13871 20.0903 5.15735C20.5193 5.09567 20.9446 4.99448 21.3631 4.85456C21.7081 4.88828 22.0546 4.88828 22.3996 4.85456C22.5139 4.76373 22.956 4.95549 23.0627 4.85456C23.1694 4.75363 23.5428 4.94539 23.6114 4.85456C23.68 4.76373 23.9239 4.65271 24.0001 4.73346C24.1597 4.86579 24.3454 4.93253 24.5336 4.92522C24.8284 4.86318 25.1271 4.83952 25.4253 4.85456C25.6463 4.85456 26.2942 4.79401 26.4542 4.85456C26.7105 4.84459 26.9656 4.80406 27.2164 4.73346C27.3307 4.6729 27.8185 4.59218 28.0395 4.53162C28.393 4.59916 28.7371 4.73518 29.0607 4.93532C29.2056 4.99587 29.3732 4.52151 29.4495 4.48114H29.4875L29.8077 4.66283C30.0301 4.58139 30.2489 4.48367 30.4631 4.37014C30.646 4.44079 30.8518 4.61234 30.9966 4.57197L31.1719 4.51142C31.316 4.56925 31.4698 4.56925 31.6139 4.51142C31.8541 4.45771 32.1006 4.4855 32.3304 4.59218H32.5133H32.6428C32.7877 4.59218 33.0697 4.51143 33.2678 4.49124C33.6853 4.47002 34.1019 4.55569 34.4949 4.74356L34.7997 4.44079C34.975 4.27931 35.3332 4.55181 35.5619 4.27931C35.5619 4.27931 35.7524 4.38022 35.8515 4.42059L36.3088 4.5619C36.6941 4.52287 37.0736 4.4142 37.4367 4.23893C37.5511 4.13801 37.9702 4.30958 38.0617 4.23893C38.1532 4.16828 38.5114 4.42059 38.5723 4.45087C38.6333 4.48114 38.9077 4.45087 39.1135 4.5518C39.5608 4.5057 40.0061 4.42821 40.4472 4.31966L40.714 4.61235H40.7597C40.827 4.62182 40.8951 4.61234 40.9595 4.58451C41.0238 4.55668 41.083 4.51113 41.1332 4.45087C41.2803 4.31643 41.4507 4.23315 41.6285 4.20866C42.0677 4.20795 42.5061 4.25519 42.9394 4.34993L43.2672 3.98662C43.3434 3.89579 43.6178 4.03708 43.7626 3.98662L44.0827 3.82513C44.3064 3.97257 44.5415 4.08761 44.7838 4.16828C45.0119 4.13716 45.2417 4.13716 45.4698 4.16828L45.6069 4.24903C45.7822 4.36005 45.8661 3.82514 46.0947 4.17838C46.0947 4.17838 46.3539 4.03707 46.4834 4.03707H46.6892L47.1999 4.19855C47.2684 4.19855 47.7257 4.19855 48.0001 4.19855C48.2745 4.19855 48.9909 3.87559 49.0671 3.91596C49.2858 4.04343 49.4973 4.19185 49.6997 4.36004L49.8902 4.0169L50.1875 3.50217C50.5802 3.7047 50.9824 3.87326 51.3917 4.00679C51.8118 3.99756 52.2283 3.90223 52.6263 3.7242C52.8093 3.63337 53.3199 3.63338 53.5028 3.57282L53.6247 3.67375L53.7543 3.77468C53.8201 3.85341 53.9057 3.89699 53.9944 3.89699C54.0831 3.89699 54.1686 3.85341 54.2345 3.77468L54.3564 3.64348C54.4606 3.62222 54.567 3.65473 54.6537 3.73431C54.7375 3.81505 55.0728 3.96645 55.1643 3.87562C55.5051 3.80371 55.8524 3.80371 56.1932 3.87562C56.3456 3.92608 56.7114 3.87559 56.8562 3.94624C57.0602 3.94265 57.2639 3.92243 57.466 3.88569C57.7253 3.89365 57.9836 3.83893 58.2281 3.7242C58.3882 3.62328 59.0665 3.93617 59.3789 3.99672L59.5847 3.66365C59.5847 3.66365 59.7219 3.66365 59.7829 3.66365L60.2021 3.73431C60.6124 3.81189 61.0305 3.77408 61.4291 3.6233C61.6425 3.48201 62.4428 3.8554 62.7095 3.84531L62.9306 3.78476L63.1363 3.7242C63.4101 3.7048 63.6825 3.66096 63.9518 3.593C64.2609 3.62495 64.5631 3.73098 64.8436 3.90589H64.8969L65.499 3.6132C66.2002 3.66366 66.909 3.68386 67.0843 3.68386C67.4626 3.67772 67.8381 3.7703 68.1894 3.95634L68.4256 3.50217L68.5323 3.30034C68.7772 3.36986 69.0099 3.49999 69.2183 3.68386C69.3021 3.79487 69.7441 3.50217 69.8585 3.47189C69.9728 3.44161 70.3615 3.67374 70.4758 3.69393L70.5292 3.63337L70.8188 3.36089C71.0969 3.52566 71.3884 3.64755 71.6876 3.7242C71.9916 3.71892 72.2929 3.64732 72.5793 3.51227C72.7165 3.43153 73.189 3.6031 73.2653 3.57282C73.411 3.50666 73.5494 3.41503 73.6768 3.30034C73.753 3.2095 74.0579 3.36087 74.1341 3.24985L74.3628 3.37099L74.6219 3.51227C75.003 3.43153 75.5136 3.31043 75.7575 3.23978C76.0887 3.24076 76.4195 3.2677 76.7483 3.32051C77.0054 3.31271 77.262 3.35348 77.5104 3.44161H77.6933H77.7619C77.8686 3.31041 77.9753 3.31041 77.9982 3.44161C78.0211 3.57282 78.2269 3.89578 78.3793 3.79486C78.5317 3.69393 78.9966 3.40126 79.1414 3.33061C79.5188 3.27462 79.8997 3.27462 80.277 3.33061C80.4218 3.33061 80.9172 3.08838 81.1077 3.0682C81.4418 3.04886 81.7764 3.07594 82.1061 3.14895C82.5781 3.19237 83.0518 3.19237 83.5238 3.14895L83.7905 2.96726L84.0268 2.80578L84.4307 3.16913C84.7834 3.18339 85.1356 3.12551 85.4749 2.99754C85.9654 2.90783 86.4629 2.90783 86.9534 2.99754C87.2318 3.04366 87.5134 3.04366 87.7918 2.99754C88.1452 2.93181 88.5019 2.90145 88.8588 2.90671C89.1442 2.88667 89.4262 2.81538 89.6971 2.69478C89.8115 2.63422 90.1164 2.85625 90.1545 2.87644C90.327 2.78438 90.5056 2.71344 90.6879 2.6645C90.8556 2.6645 91.0309 2.80578 91.191 2.7755H91.4196C91.6755 2.75325 91.9301 2.70946 92.1817 2.64433C92.3494 2.64433 92.7457 2.82599 92.7838 2.73516L92.8372 2.6645L92.8753 2.61405C93.0771 2.59634 93.2799 2.61673 93.4774 2.6746C93.7365 2.73516 94.895 2.56357 95.0932 2.62412L95.2532 2.70488L95.4513 2.81588C95.6461 2.69299 95.8673 2.66443 96.0763 2.73516L96.2135 2.68468L96.4422 2.59385C96.6423 2.42826 96.8778 2.35384 97.1128 2.38191C97.378 2.43679 97.648 2.43679 97.9131 2.38191C98.1301 2.33639 98.349 2.3094 98.5685 2.30116C98.7865 2.29533 99.0041 2.32588 99.2163 2.39201C99.3383 2.44248 99.6965 2.34155 99.7422 2.39201C99.9113 2.5277 100.113 2.57112 100.306 2.51312C100.52 2.44247 101.762 2.51312 102.196 2.45257C102.669 2.39204 103.135 2.27378 103.591 2.09932L103.804 2.16998L104.216 2.29108C104.704 2.29108 105.26 2.29108 105.443 2.29108L105.626 2.20025L105.862 2.07912C106.148 2.06989 106.433 2.09353 106.716 2.14977C106.876 2.20024 107.409 2.09931 107.547 2.14977H107.669H107.791C108.106 2.1627 108.422 2.14245 108.736 2.08922L109.086 2.01857L109.383 1.95801L110.046 1.85711L110.466 1.95801C110.649 1.95801 111.228 2.04886 111.388 2.09932C111.548 2.14979 111.929 2.35163 111.982 2.25071C112.104 2.12043 112.253 2.04291 112.409 2.02867C112.66 1.92387 112.914 1.83627 113.171 1.76625C113.4 1.76625 114.322 1.76626 114.696 1.7057C115.243 1.71378 115.79 1.76096 116.334 1.84701C116.502 1.84701 116.99 1.63506 117.096 1.68553C117.203 1.73599 117.416 1.68552 117.493 1.74608C117.842 1.7159 118.189 1.64499 118.529 1.53415L118.941 1.5846H119.238C119.511 1.43842 119.813 1.41018 120.099 1.50387H120.313H120.534C120.786 1.40421 121.058 1.43299 121.296 1.5846C121.456 1.72589 122.149 1.23136 122.515 1.15062L122.828 1.41304C122.892 1.41571 122.954 1.38693 123.003 1.33228L123.056 1.26163C123.118 1.11954 123.219 1.01469 123.338 0.968967C123.581 1.00034 123.819 1.07502 124.047 1.191C124.207 1.25156 124.809 1.19099 124.954 1.27173C125.158 1.2911 125.363 1.27414 125.564 1.22128C125.853 1.2298 126.14 1.26689 126.425 1.33228C126.638 1.33228 127.408 1.1708 127.652 1.23135L127.751 1.14052C128.056 0.827654 128.163 1.35247 128.361 1.27173L128.559 1.1809C128.757 0.997619 128.98 0.864185 129.214 0.787278C129.538 0.778642 129.862 0.805665 130.182 0.868035C130.486 0.923599 130.794 0.923599 131.097 0.868035C131.396 0.8395 131.696 0.887457 131.981 1.00931C132.33 1.05821 132.683 1.03094 133.025 0.928588L133.345 1.07997C133.468 1.14535 133.603 1.15811 133.732 1.11647C133.86 1.07483 133.976 0.980904 134.062 0.847861L134.717 0.716654C135.393 0.958878 136.106 0.958878 136.783 0.716654C137.042 0.646006 137.278 1.13045 137.545 0.716654C137.629 0.585451 138.055 0.656099 138.307 0.716654H138.452C138.585 0.800198 138.732 0.835024 138.878 0.817554C139.023 0.744022 139.163 0.65633 139.298 0.55517C139.45 0.444152 139.869 0.847842 140.014 0.827657C140.203 0.763453 140.388 0.685986 140.57 0.595549C140.76 0.655218 140.941 0.757624 141.104 0.898312H141.195C141.333 0.898312 141.477 0.746912 141.622 0.696449L141.874 0.615723L142.483 0.857933C142.608 0.853705 142.731 0.812315 142.842 0.736828C142.933 0.66618 143.261 0.817565 143.337 0.79738H143.398C143.482 0.736825 143.558 0.575354 143.619 0.585446C143.794 0.585446 143.97 0.736818 144.137 0.726725C144.305 0.716633 144.556 0.565243 144.778 0.534965H144.968C145.195 0.582659 145.427 0.561962 145.646 0.474413L145.814 0.625825L145.928 0.726725L146.744 0.817554C147.156 0.758283 147.571 0.731336 147.986 0.736828C148.161 0.82766 149.129 0.736844 149.739 0.847861L150.318 0.565241C150.514 0.479771 150.725 0.479771 150.92 0.565241L151.202 0.726725C151.464 0.625829 151.719 0.497612 151.965 0.343236H152.102C152.253 0.384451 152.397 0.459518 152.529 0.565241L152.605 0.615723C152.945 0.742351 153.296 0.813515 153.649 0.827657C154.255 0.756101 154.854 0.610835 155.44 0.393686C155.489 0.43805 155.535 0.488752 155.577 0.545068C155.799 0.563178 156.021 0.54625 156.24 0.494617C156.639 0.421755 157.042 0.388015 157.444 0.393686C157.808 0.488673 158.165 0.623704 158.511 0.79738C158.687 0.888213 159.274 0.656085 159.373 0.79738C159.472 0.938676 160.135 0.494603 160.402 0.353307L160.714 0.676275L160.851 0.817554C161.322 0.674213 161.801 0.586423 162.284 0.55517H162.627H162.985C163.372 0.666963 163.776 0.61032 164.136 0.393686L164.464 0.706551C164.715 0.938679 165.012 0.262496 165.355 0.595549C165.466 0.709535 165.605 0.766232 165.745 0.755092C165.885 0.743953 166.018 0.665707 166.118 0.534965C166.118 0.534965 166.194 0.534965 166.217 0.534965L166.453 0.645999C166.712 0.645999 167.002 0.746929 167.101 0.777206C167.36 0.730603 167.615 0.652895 167.863 0.545068H168.053H168.45L170.05 0.484515H170.462H170.721C171.003 0.575348 171.346 0.666172 171.483 0.696449C171.688 0.683126 171.891 0.632184 172.085 0.545068C172.2 0.545068 172.55 0.706561 172.649 0.716654L172.863 0.302857C173.206 0.242302 173.899 0.363405 174.013 0.484515Z" fill="url(#paint0_linear_1_1210)"/>
<defs>
<linearGradient id="paint0_linear_1_1210" x1="96.0249" y1="0.214355" x2="96.0249" y2="12.0505" gradientUnits="userSpaceOnUse">
<stop stop-color="#F65D61"/>
<stop offset="0.505208" stop-color="#F16684"/>
<stop offset="1" stop-color="#FA9A64"/>
</linearGradient>
</defs>
</svg>
