<svg width="77" height="20" viewBox="0 0 77 20" fill="none" xmlns="http://www.w3.org/2000/svg">
<path d="M0.842374 12.0396C21.9127 -3.06679 50.1481 -2.84479 71.3306 11.5742L73.0574 8.89692C73.1594 8.72981 73.3056 8.59424 73.48 8.50508C73.6544 8.41592 73.8502 8.37659 74.0462 8.39135C74.0916 7.86273 74.9753 7.79483 75.1154 8.35173C75.5519 10.1488 75.9726 11.9457 76.3617 13.7505C76.5383 14.5719 77.1152 15.9275 76.6605 16.794C76.2059 17.6606 75.0104 17.7234 74.2179 17.9219C72.2834 18.4149 70.3476 18.9066 68.4105 19.397C68.2189 19.4409 68.0183 19.4287 67.8326 19.3618C67.647 19.2949 67.484 19.1763 67.3633 19.0199C67.2426 18.8635 67.1691 18.6761 67.1516 18.4798C67.1342 18.2836 67.1735 18.0869 67.2648 17.9131L70.0118 13.5821C49.6466 -0.719604 22.1214 -0.970675 1.49757 13.1902C0.792862 13.6573 0.165359 12.5266 0.842374 12.0396Z" fill="#9B6160"/>
</svg>
