<svg width="23" height="21" viewBox="0 0 23 21" fill="none" xmlns="http://www.w3.org/2000/svg">
<path fill-rule="evenodd" clip-rule="evenodd" d="M11.0908 0.0625872C11.0116 0.0964344 10.9114 0.163617 10.868 0.211831C10.8247 0.260091 10.1257 1.60719 9.3147 3.2054C8.50371 4.80361 7.82648 6.12519 7.80973 6.1423C7.79298 6.15936 6.26752 6.38569 4.41978 6.64522C2.02588 6.98146 1.01894 7.14032 0.916426 7.19784C0.592568 7.37972 0.451228 7.84949 0.623716 8.1709C0.660766 8.23994 1.65965 9.21016 2.8434 10.327C4.02715 11.4438 5.1201 12.4802 5.27214 12.6302L5.54858 12.9029L4.97252 16.1571C4.36637 19.5812 4.37016 19.547 4.5628 19.8319C4.68178 20.0078 5.00242 20.143 5.23936 20.1171C5.38555 20.1011 6.27356 19.6717 8.42303 18.5777C10.0626 17.7432 11.4266 17.0604 11.4543 17.0604C11.482 17.0604 12.8392 17.7403 14.4703 18.5713C16.1015 19.4023 17.5032 20.0952 17.5853 20.1111C17.8223 20.157 18.0579 20.0909 18.2357 19.9284C18.5576 19.6343 18.5685 19.7687 17.9285 16.154L17.353 12.9034L17.5814 12.6766C17.7071 12.5519 18.8002 11.5153 20.0105 10.3731C21.2208 9.23099 22.2413 8.23999 22.2782 8.17094C22.4503 7.84842 22.3091 7.38051 21.984 7.19663C21.8793 7.13735 20.9092 6.98406 18.4807 6.64303C16.6336 6.38364 15.1086 6.15787 15.0918 6.14132C15.0751 6.12477 14.3978 4.80361 13.5869 3.2054C12.7759 1.60719 12.0768 0.260045 12.0335 0.211784C11.8519 0.0094917 11.387 -0.0641073 11.0908 0.0625872Z" fill="url(#paint0_linear_1_1161)"/>
<defs>
<linearGradient id="paint0_linear_1_1161" x1="11.4508" y1="0" x2="11.4508" y2="20.1253" gradientUnits="userSpaceOnUse">
<stop stop-color="#F65D61"/>
<stop offset="0.505208" stop-color="#F16684"/>
<stop offset="1" stop-color="#FA9A64"/>
</linearGradient>
</defs>
</svg>
