<svg width="13" height="14" viewBox="0 0 13 14" fill="none" xmlns="http://www.w3.org/2000/svg">
<g clip-path="url(#clip0_403_5803)">
<path d="M9.22454 0C9.33514 0.0407333 9.42735 0.116604 9.4854 0.214619C9.54344 0.312634 9.5637 0.426704 9.54272 0.537306C9.52681 0.763275 9.54272 0.99176 9.54272 1.21773C9.54556 1.2723 9.53684 1.32686 9.51707 1.37819C9.49729 1.42952 9.46685 1.47659 9.42756 1.5166C9.38826 1.55662 9.34091 1.58878 9.28829 1.61118C9.23566 1.63359 9.17882 1.64578 9.12113 1.64706C9.0622 1.64741 9.00381 1.63656 8.94939 1.61514C8.89498 1.59372 8.84567 1.56217 8.80438 1.52236C8.76308 1.48256 8.73064 1.4353 8.70899 1.3834C8.68735 1.3315 8.67692 1.27601 8.67834 1.22023C8.67834 0.989236 8.67834 0.755746 8.67834 0.524756C8.66162 0.413832 8.68711 0.300887 8.75026 0.206129C8.81341 0.111372 8.9101 0.0409831 9.02303 0.00753964L9.22454 0Z" fill="white"/>
<path d="M12.141 1.1901C12.1457 1.25229 12.1363 1.31472 12.1135 1.37318C12.0906 1.43165 12.0548 1.4848 12.0084 1.52906C11.7274 1.7952 11.4463 2.06385 11.1626 2.32748C11.1226 2.36615 11.0748 2.3969 11.0221 2.41796C10.9695 2.43902 10.9129 2.44997 10.8557 2.45017C10.7985 2.45038 10.7418 2.43982 10.689 2.41914C10.6361 2.39846 10.5881 2.36805 10.5478 2.32968C10.5074 2.2913 10.4755 2.24572 10.4539 2.19559C10.4323 2.14545 10.4214 2.09176 10.4219 2.03761C10.4224 1.98346 10.4341 1.92993 10.4566 1.88013C10.4791 1.83033 10.5118 1.78525 10.5528 1.7475C10.8179 1.47885 11.1149 1.21271 11.3986 0.946566C11.4563 0.889711 11.5301 0.849862 11.6112 0.831801C11.6922 0.81374 11.7771 0.818242 11.8555 0.844765C11.934 0.871289 12.0026 0.918703 12.0533 0.981306C12.1039 1.04391 12.1344 1.11903 12.141 1.19764V1.1901Z" fill="white"/>
<path d="M12.1407 3.28153C12.2839 3.28153 12.4297 3.28153 12.5729 3.28153C12.6875 3.28153 12.7975 3.32465 12.8785 3.4014C12.9596 3.47815 13.0051 3.58224 13.0051 3.69078C13.0051 3.79932 12.9596 3.90342 12.8785 3.98017C12.7975 4.05692 12.6875 4.10004 12.5729 4.10004C12.2839 4.10004 11.9949 4.10004 11.7086 4.10004C11.5939 4.10004 11.484 4.05692 11.403 3.98017C11.3219 3.90342 11.2764 3.79932 11.2764 3.69078C11.2764 3.58224 11.3219 3.47815 11.403 3.4014C11.484 3.32465 11.5939 3.28153 11.7086 3.28153C11.8438 3.27651 11.9896 3.28153 12.1407 3.28153Z" fill="white"/>
<path d="M12.0082 5.51367C10.3803 3.96871 8.75139 2.42543 7.12164 0.883826C6.89974 0.670235 6.60301 0.540853 6.28737 0.520053C5.97172 0.499254 5.65894 0.588471 5.40794 0.7709C5.15694 0.953328 4.98505 1.21638 4.92465 1.51049C4.86425 1.8046 4.91951 2.10947 5.08003 2.36768C5.11053 2.41315 5.121 2.46815 5.10919 2.52085C4.94075 3.2605 4.67345 3.97682 4.31376 4.65248C3.86828 5.48809 3.28469 6.25093 2.58503 6.91216C1.85323 7.60513 1.11878 8.29559 0.392285 8.99358C0.268038 9.10375 0.168276 9.23631 0.098869 9.38348C0.029462 9.53065 -0.00819952 9.68947 -0.0119043 9.85061C-0.015609 10.0118 0.0147196 10.172 0.0772969 10.3219C0.139874 10.4718 0.233441 10.6083 0.352507 10.7235C0.773202 11.1403 1.20539 11.5487 1.64906 11.9487C1.7998 12.0845 1.98435 12.1819 2.18555 12.232C2.38675 12.282 2.59806 12.2831 2.79979 12.235C3.12716 12.1601 3.41848 11.9832 3.62704 11.7328C3.71719 11.6374 3.76756 11.65 3.85506 11.7328C4.51527 12.3655 5.18078 12.9882 5.84099 13.6209C6.0736 13.8556 6.39252 13.9967 6.73187 14.0151C6.99021 14.0279 7.24667 13.9671 7.46828 13.8408C7.68988 13.7144 7.86651 13.5281 7.97542 13.3059C8.08434 13.0837 8.12056 12.8357 8.07945 12.5939C8.03834 12.352 7.92176 12.1274 7.74472 11.9487C7.522 11.7228 7.28603 11.5094 7.05535 11.2884C6.97316 11.2106 6.83263 11.1353 6.82733 11.0524C6.82203 10.9696 6.97316 10.8867 7.05535 10.8013C7.19553 10.679 7.30621 10.5295 7.37985 10.3631C7.45349 10.1966 7.48836 10.017 7.48207 9.83662C7.47577 9.65623 7.42847 9.47924 7.34339 9.31772C7.25832 9.1562 7.13746 9.01396 6.98906 8.90068C6.91482 8.83791 6.90687 8.80527 6.98906 8.74502C7.96918 8.11724 9.06865 7.67555 10.2265 7.44444C10.3041 7.42717 10.3857 7.43886 10.4545 7.47708C11.3189 7.924 12.3662 7.33648 12.3715 6.2669C12.3512 5.98234 12.222 5.71455 12.0082 5.51367ZM2.83956 11.3135C2.80084 11.3526 2.75401 11.3838 2.702 11.4049C2.64999 11.4261 2.59392 11.4369 2.53731 11.4365C2.4783 11.4388 2.41943 11.4293 2.3646 11.4085C2.30977 11.3877 2.2602 11.3562 2.21913 11.316C1.81346 10.9344 1.40778 10.5628 1.00477 10.1661C0.960566 10.1287 0.925209 10.0828 0.901 10.0315C0.876791 9.98027 0.864281 9.92474 0.864281 9.86858C0.864281 9.81241 0.876791 9.7569 0.901 9.70563C0.925209 9.65436 0.960566 9.60849 1.00477 9.57105C1.68884 8.91825 2.37821 8.26797 3.06228 7.61769C3.11796 7.56245 3.14713 7.55994 3.20546 7.61769C3.7711 8.15666 4.33939 8.69396 4.91033 9.22959C4.96601 9.28232 4.9554 9.30993 4.91033 9.35513C4.22096 10.0046 3.5307 10.6574 2.83956 11.3135ZM7.11104 12.4735C7.17556 12.5294 7.21996 12.6031 7.23802 12.6841C7.25609 12.7652 7.24691 12.8496 7.21178 12.9254C7.17713 13.0021 7.11887 13.0671 7.0446 13.1119C6.97033 13.1567 6.88352 13.1792 6.79551 13.1765C6.682 13.1697 6.57522 13.1231 6.4959 13.0459C5.80653 12.3932 5.11979 11.7378 4.42777 11.0876C4.37209 11.0348 4.37739 11.0097 4.42777 10.962C4.5895 10.8139 4.7486 10.6632 4.90504 10.5076C4.95807 10.4574 4.98722 10.4548 5.0429 10.5076C5.73228 11.1671 6.419 11.8224 7.10307 12.4735H7.11104ZM5.64744 9.82715C5.81978 9.67902 5.98947 9.52335 6.16182 9.37271C6.18303 9.35513 6.21219 9.31245 6.24401 9.34509C6.37658 9.48569 6.56218 9.59617 6.61786 9.78447C6.62159 9.80862 6.62159 9.83314 6.61786 9.85728C6.6211 9.92894 6.60618 10.0003 6.57436 10.0654C6.54253 10.1305 6.49471 10.1874 6.43491 10.2314C6.35271 10.3042 6.27582 10.4297 6.18567 10.4373C6.09552 10.4448 6.02925 10.3092 5.94971 10.2339C5.87016 10.1586 5.74289 10.033 5.63418 9.93763C5.59971 9.88239 5.59971 9.85477 5.64744 9.82715ZM8.65947 7.03268C7.58496 7.40723 6.58801 7.95702 5.71372 8.65715C5.63418 8.72242 5.59175 8.73247 5.51221 8.65715C4.94834 8.11482 4.38005 7.57584 3.80734 7.04022C3.74636 6.98247 3.74636 6.95233 3.80734 6.88956C4.76132 5.83055 5.4518 4.58208 5.82773 3.23641C5.83189 3.22225 5.83814 3.20874 5.84629 3.19624L9.60072 6.75147C9.28255 6.81424 8.95908 6.91216 8.65947 7.02012V7.03268ZM11.2871 6.76905C11.2162 6.80373 11.1362 6.81837 11.0568 6.81125C10.9773 6.80413 10.9017 6.77553 10.839 6.72887C10.8046 6.70397 10.7727 6.67626 10.7435 6.64602L5.94705 2.10154C5.89105 2.05817 5.8462 2.00331 5.81589 1.94111C5.78557 1.87891 5.77057 1.81099 5.77205 1.7425C5.77464 1.66566 5.80121 1.59128 5.8484 1.52873C5.89559 1.46617 5.96127 1.41824 6.03719 1.391C6.10924 1.3589 6.18951 1.34704 6.26846 1.35683C6.34742 1.36662 6.42174 1.39765 6.48263 1.44623C6.51345 1.46865 6.54187 1.49388 6.56748 1.52155L11.3454 6.06101C11.4043 6.10967 11.4505 6.17057 11.4804 6.23896C11.5103 6.30735 11.5231 6.38136 11.5177 6.4552C11.5101 6.52004 11.4849 6.5819 11.4444 6.63471C11.404 6.68753 11.3498 6.7295 11.2871 6.7565V6.76905Z" fill="white"/>
<path d="M3.14186 8.88307C3.22396 8.88098 3.30483 8.90239 3.37389 8.9445C3.44295 8.9866 3.497 9.04744 3.52897 9.11909C3.56811 9.18798 3.58328 9.26683 3.57233 9.34437C3.56138 9.42191 3.52486 9.49421 3.46798 9.55095C3.25586 9.76687 3.0358 9.97777 2.80777 10.1786C2.72706 10.2492 2.62018 10.2866 2.51043 10.2829C2.40067 10.2791 2.29694 10.2344 2.22182 10.1585C2.18261 10.1215 2.1515 10.0774 2.13028 10.029C2.10906 9.98049 2.09814 9.92855 2.09814 9.87608C2.09814 9.82362 2.10906 9.77166 2.13028 9.72319C2.1515 9.67473 2.18261 9.6307 2.22182 9.59362C2.42598 9.39025 2.64073 9.1919 2.85284 8.99606C2.89073 8.96006 2.93579 8.93154 2.9854 8.91215C3.03501 8.89275 3.08819 8.88287 3.14186 8.88307Z" fill="white"/>
</g>
<defs>
<clipPath id="clip0_403_5803">
<rect width="13" height="14" fill="white"/>
</clipPath>
</defs>
</svg>
