<svg width="196" height="35" viewBox="0 0 196 35" fill="none" xmlns="http://www.w3.org/2000/svg">
<path d="M50.9952 25.0734C49.8494 25.0887 48.719 24.8079 47.7135 24.2583C46.7492 23.7324 45.9468 22.9532 45.3929 22.0046C44.8289 21.0335 44.5378 19.928 44.5504 18.8051V9.42236H48.3704V18.7382C48.3611 19.087 48.4228 19.4341 48.552 19.7583C48.6812 20.0825 48.875 20.377 49.1217 20.6238C49.3666 20.8695 49.6591 21.0625 49.9812 21.1912C50.3034 21.3198 50.6484 21.3814 50.9952 21.372C51.3434 21.3819 51.6899 21.3207 52.0136 21.192C52.3373 21.0634 52.6314 20.87 52.8778 20.6238C53.1251 20.3774 53.3193 20.083 53.4485 19.7587C53.5777 19.4344 53.6391 19.0871 53.629 18.7382V9.42236H57.4612V18.8051C57.4742 19.9285 57.182 21.0343 56.6157 22.0046C56.0632 22.9553 55.2592 23.7352 54.292 24.2583C53.2812 24.8084 52.1459 25.0891 50.9952 25.0734Z" fill="url(#paint0_linear_389_892)"/>
<path d="M69.5872 9.42236H73.4194V24.8027H69.5872L63.8086 16.1256V24.8027H59.9825V9.42236H63.8116L69.5903 18.1177L69.5872 9.42236Z" fill="url(#paint1_linear_389_892)"/>
<path d="M89.7882 13.1661C91.0656 13.1661 92.0794 13.5473 92.8296 14.3096C93.5798 15.072 93.959 16.0858 93.9671 17.351V24.7964H90.3783V18.4399C90.3897 18.2037 90.3542 17.9675 90.2738 17.7451C90.1934 17.5227 90.0697 17.3185 89.9099 17.1442C89.7479 16.979 89.5527 16.85 89.3373 16.7656C89.1219 16.6812 88.891 16.6433 88.6599 16.6546C88.4148 16.6447 88.1703 16.6843 87.9409 16.771C87.7115 16.8578 87.5019 16.9899 87.3247 17.1594C87.152 17.3324 87.0169 17.5392 86.9279 17.7669C86.8389 17.9946 86.798 18.2382 86.8077 18.4824V24.7964H83.1945V18.4399C83.2059 18.2037 83.1705 17.9675 83.0901 17.7451C83.0097 17.5227 82.886 17.3185 82.7261 17.1442C82.5634 16.9791 82.3677 16.8501 82.1518 16.7657C81.9359 16.6814 81.7046 16.6435 81.473 16.6546C81.2267 16.6457 80.9811 16.6857 80.7503 16.7724C80.5196 16.859 80.3083 16.9906 80.1287 17.1594C79.9536 17.3311 79.8163 17.5374 79.7257 17.7653C79.6351 17.9931 79.5932 18.2374 79.6026 18.4824V24.7964H75.9985V13.4307H79.6026V14.3887C80.012 13.9888 80.4976 13.675 81.0304 13.4661C81.5633 13.2571 82.1326 13.1572 82.7048 13.1722C84.2073 13.1722 85.3356 13.7196 86.0899 14.8145C86.5422 14.2787 87.1098 13.8521 87.7502 13.5666C88.3907 13.2812 89.0874 13.1442 89.7882 13.1661Z" fill="url(#paint2_linear_389_892)"/>
<path d="M107.62 19.1852C107.628 19.5279 107.599 19.8704 107.535 20.2071H99.4234C99.5924 20.7339 99.9315 21.1896 100.387 21.5027C100.864 21.8226 101.429 21.9863 102.002 21.9711C102.516 21.9758 103.025 21.8646 103.49 21.6457C103.906 21.4592 104.281 21.1926 104.594 20.861L106.978 22.9292C106.353 23.6098 105.588 24.1481 104.737 24.5076C103.839 24.8888 102.872 25.0813 101.896 25.0733C101.063 25.0984 100.233 24.959 99.454 24.6631C98.6748 24.3672 97.9616 23.9206 97.3552 23.3489C96.7645 22.8029 96.2964 22.1378 95.9818 21.3975C95.6673 20.6572 95.5134 19.8586 95.5304 19.0544C95.5192 18.0038 95.7924 16.9697 96.3211 16.0617C96.8401 15.1663 97.5942 14.43 98.5018 13.9327C99.4489 13.4125 100.515 13.1464 101.595 13.1602C102.414 13.1545 103.226 13.3095 103.985 13.6164C104.703 13.9025 105.356 14.3284 105.908 14.8694C106.451 15.4151 106.878 16.0648 107.164 16.7794C107.473 17.5435 107.628 18.3611 107.62 19.1852ZM101.58 16.2472C101.091 16.2392 100.616 16.4028 100.235 16.7095C99.8335 17.0362 99.5425 17.4792 99.4021 17.9778H103.779C103.642 17.4808 103.353 17.0393 102.951 16.7156C102.563 16.4038 102.078 16.2381 101.58 16.2472Z" fill="url(#paint3_linear_389_892)"/>
<path d="M117.34 8.74707H120.956V24.8026H117.34V23.8659C116.483 24.6676 115.348 25.104 114.174 25.0824C113.193 25.093 112.23 24.8229 111.397 24.3038C110.562 23.7869 109.884 23.0505 109.439 22.1749C108.958 21.2339 108.715 20.1898 108.73 19.1335C108.715 18.0771 108.958 17.033 109.439 16.0921C109.884 15.2164 110.562 14.48 111.397 13.9631C112.23 13.444 113.193 13.1739 114.174 13.1845C115.348 13.1629 116.483 13.5993 117.34 14.401V8.74707ZM113.146 20.8731C113.374 21.1031 113.646 21.2836 113.946 21.4034C114.247 21.5233 114.569 21.5798 114.892 21.5696C115.216 21.5792 115.539 21.5224 115.84 21.4026C116.141 21.2828 116.415 21.1026 116.644 20.8731C116.873 20.6441 117.053 20.3706 117.173 20.0693C117.293 19.768 117.35 19.4454 117.34 19.1213C117.35 18.7958 117.293 18.4719 117.173 18.1691C117.054 17.8663 116.873 17.5911 116.644 17.3603C116.415 17.1304 116.141 16.9498 115.84 16.8295C115.539 16.7092 115.216 16.6518 114.892 16.6608C114.568 16.6511 114.247 16.7083 113.946 16.8286C113.646 16.949 113.373 17.13 113.146 17.3603C112.918 17.5917 112.738 17.8671 112.619 18.1698C112.5 18.4724 112.443 18.7961 112.453 19.1213C112.443 19.4451 112.5 19.7674 112.619 20.0686C112.738 20.3698 112.918 20.6435 113.146 20.8731Z" fill="url(#paint4_linear_389_892)"/>
<path d="M125.157 12.2082C124.867 12.216 124.578 12.1645 124.309 12.0567C124.039 11.949 123.795 11.7873 123.59 11.5817C123.383 11.3793 123.22 11.1362 123.111 10.8677C123.002 10.5992 122.95 10.3111 122.958 10.0214C122.948 9.72798 123 9.43571 123.108 9.16302C123.217 8.89033 123.381 8.6431 123.59 8.43688C123.795 8.23125 124.039 8.06959 124.309 7.96185C124.578 7.85411 124.867 7.80256 125.157 7.81035C125.45 7.80131 125.741 7.85222 126.014 7.95996C126.286 8.0677 126.534 8.23 126.741 8.43688C126.948 8.64438 127.11 8.89197 127.218 9.16446C127.326 9.43695 127.377 9.72858 127.368 10.0214C127.375 10.3104 127.323 10.5978 127.215 10.866C127.107 11.1343 126.946 11.3778 126.741 11.5817C126.534 11.7886 126.286 11.9509 126.014 12.0586C125.741 12.1663 125.45 12.2173 125.157 12.2082ZM123.362 24.8027V13.4369H126.963V24.8027H123.362Z" fill="url(#paint5_linear_389_892)"/>
<path d="M137.404 13.437H141.018V24.8027H137.404V23.866C136.546 24.6676 135.41 25.1039 134.235 25.0825C133.253 25.0915 132.288 24.8193 131.455 24.2978C130.62 23.7809 129.942 23.0445 129.497 22.1689C129.017 21.2277 128.775 20.1836 128.791 19.1275C128.775 18.0713 129.017 17.0273 129.497 16.0861C129.942 15.2104 130.62 14.474 131.455 13.9571C132.288 13.4384 133.251 13.1682 134.232 13.1785C135.406 13.1571 136.543 13.5934 137.401 14.395L137.404 13.437ZM133.207 20.8732C133.435 21.1015 133.708 21.2803 134.009 21.3986C134.309 21.5169 134.63 21.572 134.953 21.5606C135.278 21.5704 135.601 21.5137 135.903 21.3939C136.204 21.2742 136.478 21.0938 136.708 20.8641C136.937 20.6347 137.117 20.361 137.236 20.0598C137.356 19.7587 137.413 19.4362 137.404 19.1123C137.413 18.7869 137.356 18.4631 137.236 18.1605C137.117 17.8578 136.937 17.5825 136.708 17.3513C136.479 17.121 136.205 16.9401 135.903 16.8198C135.601 16.6995 135.278 16.6423 134.953 16.6518C134.63 16.6421 134.308 16.6993 134.007 16.8196C133.707 16.94 133.435 17.121 133.207 17.3513C132.979 17.5828 132.8 17.8583 132.682 18.161C132.563 18.4637 132.507 18.7873 132.517 19.1123C132.506 19.4374 132.561 19.7614 132.68 20.0642C132.798 20.3671 132.978 20.6424 133.207 20.8732Z" fill="url(#paint6_linear_389_892)"/>
<path d="M160.534 13.2758C160.425 14.0144 160.129 14.7127 159.674 15.3044C159.256 15.8809 158.698 16.3407 158.052 16.6396C158.44 16.746 158.802 16.9306 159.116 17.1822C159.43 17.4338 159.689 17.747 159.877 18.1025C160.298 18.8824 160.441 19.7824 160.282 20.6542C160.132 21.8131 159.551 22.8731 158.655 23.6226C157.778 24.3926 156.649 24.8127 155.482 24.8027H148.29L150.455 9.42231H157.094C157.594 9.39711 158.092 9.48183 158.555 9.67049C159.018 9.85916 159.434 10.1472 159.774 10.5142C160.1 10.8879 160.337 11.3302 160.469 11.8083C160.601 12.2863 160.623 12.7879 160.534 13.2758ZM158.238 20.3166C158.302 19.9911 158.292 19.6554 158.209 19.3342C158.126 19.0131 157.972 18.7147 157.757 18.4614C157.54 18.2133 157.27 18.0175 156.967 17.8885C156.663 17.7594 156.335 17.7006 156.006 17.7162H151.282L150.54 22.9535H155.267C155.996 22.9568 156.7 22.6841 157.237 22.1901C157.794 21.7128 158.151 21.0443 158.238 20.3166ZM158.369 13.6255C158.422 13.3309 158.41 13.0283 158.335 12.7385C158.26 12.4487 158.123 12.1786 157.934 11.9467C157.739 11.7249 157.497 11.5501 157.225 11.4353C156.953 11.3205 156.659 11.2686 156.364 11.2837H152.173L151.529 15.9522H155.72C156.365 15.9516 156.988 15.711 157.465 15.277C157.966 14.8564 158.289 14.2621 158.369 13.6134V13.6255Z" fill="url(#paint7_linear_389_892)"/>
<path d="M166.891 25.0732C165.346 25.0732 164.167 24.6362 163.354 23.7623C162.542 22.8864 162.234 21.7337 162.441 20.2951L163.39 13.4368H165.306L164.376 20.0397C164.254 20.9967 164.446 21.7682 164.953 22.3542C165.46 22.9401 166.197 23.2321 167.164 23.2301C168.066 23.2553 168.945 22.9429 169.628 22.3542C170.305 21.7619 170.731 20.9345 170.82 20.0397L171.778 13.4429H173.694L172.715 20.3012C172.555 21.6597 171.873 22.9029 170.814 23.7684C169.704 24.6577 168.312 25.1205 166.891 25.0732Z" fill="url(#paint8_linear_389_892)"/>
<path d="M185.145 13.4368L184.929 14.8084L177.463 22.9533H183.95L183.698 24.8025H174.513L174.741 23.4186L182.186 15.289H175.939L176.21 13.4368H185.145Z" fill="url(#paint9_linear_389_892)"/>
<path d="M196 13.4368L195.781 14.8084L188.33 22.9533H194.817L194.568 24.8025H185.364L185.592 23.4186L193.038 15.289H186.791L187.061 13.4368H196Z" fill="url(#paint10_linear_389_892)"/>
<path d="M18.8871 4.06624C19.8401 3.67522 20.7477 3.18163 21.5939 2.5942C19.8135 1.23785 17.7227 0.347192 15.5111 0.00292969C16.8308 1.1834 17.9684 2.55267 18.8871 4.06624Z" fill="url(#paint11_linear_389_892)"/>
<path d="M14.179 0.781738V5.13703C15.2935 5.07584 16.397 4.88393 17.4668 4.56524C16.5687 3.14488 15.4602 1.86916 14.179 0.781738Z" fill="url(#paint12_linear_389_892)"/>
<path d="M7.2872 5.36516C6.17255 4.89406 5.11539 4.29711 4.13631 3.58594C1.67091 5.94355 0.192529 9.14923 0 12.555H5.44715C5.55134 10.0562 6.17817 7.60687 7.2872 5.36516Z" fill="url(#paint13_linear_389_892)"/>
<path d="M9.4192 4.56511C10.489 4.88379 11.5924 5.0757 12.707 5.13689V0.778564C11.4272 1.8686 10.3189 3.14509 9.4192 4.56511Z" fill="url(#paint14_linear_389_892)"/>
<path d="M6.92223 12.555H12.7009V6.61213C11.3303 6.54551 9.97438 6.29908 8.66799 5.87915C7.61988 7.95571 7.02483 10.2312 6.92223 12.555Z" fill="url(#paint15_linear_389_892)"/>
<path d="M11.3627 0C9.15124 0.346773 7.06085 1.23832 5.27986 2.59431C6.12569 3.18236 7.03338 3.67598 7.98671 4.06635C8.90606 2.55235 10.0436 1.18217 11.3627 0Z" fill="url(#paint16_linear_389_892)"/>
<path d="M2.63385 19.9335C3.06269 19.6019 3.51282 19.2948 3.95078 18.9724L5.54447 17.7984L5.9429 17.4943C5.66202 16.3539 5.49594 15.1883 5.44715 14.0149H0C0.118996 16.2744 0.811942 18.4663 2.01341 20.3836C2.21718 20.2406 2.42704 20.0947 2.63385 19.9335Z" fill="url(#paint17_linear_389_892)"/>
<path d="M7.46664 16.39C7.92894 16.0616 8.37906 15.7118 8.83527 15.3803C9.44355 14.9322 10.0518 14.4831 10.6601 14.033H6.91919C6.95325 14.8812 7.05496 15.7253 7.22333 16.5573L7.46664 16.39Z" fill="url(#paint18_linear_389_892)"/>
<path d="M17.631 8.6894C18.0629 8.34876 18.5039 7.97468 18.957 7.5945C18.741 7.00875 18.4912 6.43601 18.2089 5.87915C16.9035 6.29906 15.5486 6.5455 14.179 6.61213V11.375C15.3347 10.4869 16.4905 9.59574 17.631 8.6894Z" fill="url(#paint19_linear_389_892)"/>
<path d="M23.9723 4.56527C23.6241 4.17346 23.2129 3.84247 22.7557 3.58594C21.7777 4.29709 20.7216 4.89404 19.6079 5.36516C19.8147 5.80616 19.9881 6.23196 20.1341 6.63951C21.3111 5.70884 22.5733 4.88157 23.9723 4.56527Z" fill="url(#paint20_linear_389_892)"/>
<path d="M30.1555 19.3798C29.5472 19.6109 28.6865 18.8688 28.2516 17.7161C27.8167 16.5634 27.9687 15.4442 28.5861 15.21C28.7206 15.1699 28.8626 15.1622 29.0006 15.1876C29.1386 15.213 29.2686 15.2707 29.3799 15.356C28.1451 13.2422 26.3963 12.0348 25.0581 12.5397C23.4036 13.1479 23.0052 16.1711 24.17 19.2551C25.3349 22.3391 27.6159 24.3373 29.2704 23.7138C30.6087 23.2089 31.1257 21.1468 30.6604 18.7441C30.631 18.8819 30.5701 19.0109 30.4825 19.1212C30.3949 19.2315 30.283 19.32 30.1555 19.3798Z" fill="url(#paint21_linear_389_892)"/>
<path d="M35.2529 20.4169C35.139 19.5302 34.9693 18.6515 34.7449 17.7861C34.5239 16.9386 34.2928 16.1853 34.0515 15.5263C33.8112 14.8664 33.5041 14.1455 33.1391 13.3578C32.7536 12.5516 32.3178 11.7705 31.8343 11.019C31.3426 10.2491 30.7925 9.518 30.1889 8.83221C29.619 8.17846 28.9608 7.60727 28.2333 7.13511C27.5519 6.69677 26.7898 6.39897 25.9918 6.25919C22.8379 5.71478 20.3044 8.43683 18.0568 10.213C15.3195 12.3744 12.5458 14.4811 9.73551 16.533C9.30059 16.8372 8.88088 17.1778 8.44292 17.488L6.61808 18.8263L5.09738 19.9364C4.68679 20.2405 4.26099 20.5446 3.85344 20.8488C3.44351 21.1228 3.06241 21.4377 2.71596 21.7886C2.1646 22.4933 1.88695 23.3738 1.93432 24.2673C1.93697 24.7551 1.98997 25.2412 2.09247 25.7181C2.19072 26.1651 2.31874 26.605 2.47569 27.035C2.6355 27.471 2.82449 27.8957 3.04139 28.3063C3.26373 28.7407 3.53407 29.1487 3.84736 29.5229C4.45945 30.2983 5.34975 30.8046 6.32914 30.9341C6.74213 30.9624 7.15694 30.9482 7.567 30.8915C8.008 30.8459 8.449 30.8094 8.89305 30.7881C9.4405 30.7637 9.98491 30.7333 10.5293 30.6999C10.8557 31.438 11.3214 32.1061 11.901 32.6677C12.4607 33.2081 13.1128 33.6438 13.8262 33.9542C14.5391 34.2628 15.3035 34.4351 16.0799 34.4621C16.8883 34.4934 17.6948 34.3631 18.4522 34.0789C19.3791 33.7441 20.2131 33.1937 20.8853 32.473C21.5657 31.7527 22.0614 30.8781 22.33 29.9243C22.3604 29.824 25.3561 29.7875 26.4206 29.7692C27.4851 29.751 28.5496 29.8057 29.5959 29.7175C31.6245 29.5502 33.5041 28.6348 34.5168 26.8099C34.7109 26.4574 34.8699 26.0866 34.9913 25.7029C35.2477 24.8729 35.3839 24.0105 35.3958 23.142C35.4165 22.2313 35.3688 21.3204 35.2529 20.4169ZM19.1486 30.8915C19.0699 31.1762 18.9457 31.4464 18.7806 31.6914C18.611 31.9353 18.406 32.1526 18.1724 32.3362C17.9416 32.5248 17.6817 32.6748 17.4029 32.7802C17.0484 32.9121 16.6704 32.969 16.2928 32.9475C15.9253 32.9281 15.5649 32.8383 15.2313 32.6829C14.8982 32.5271 14.5979 32.3093 14.3463 32.0411C14.0855 31.7666 13.8837 31.4416 13.7532 31.0861C13.6695 30.8509 13.6183 30.6053 13.6011 30.3562L19.2612 29.9852C19.2704 30.2912 19.2324 30.5969 19.1486 30.8915ZM7.22332 29.4864C6.83681 29.4714 6.45548 29.3923 6.09496 29.2522C5.0183 28.6196 3.20259 25.9735 3.69833 23.3214C3.81128 22.8989 4.05379 22.5224 4.39177 22.2448L19.0087 11.8827C19.0087 11.8827 18.4005 22.9686 25.5234 28.066L7.22332 29.4864ZM31.8009 26.8343C30.8641 27.5855 29.4681 28.0295 28.282 27.6798C27.6738 27.4946 27.1083 27.1907 26.6183 26.7856C26.0604 26.3321 25.56 25.8123 25.128 25.2375C24.6664 24.6356 24.2438 24.0047 23.8628 23.3488C23.4857 22.701 23.1572 22.0653 22.8744 21.4479C22.5915 20.8305 22.3695 20.2983 22.2053 19.8482C22.041 19.398 21.8677 18.8475 21.6852 18.1936C21.5027 17.5397 21.3476 16.8433 21.2198 16.1012C21.0889 15.355 21.0056 14.6012 20.9705 13.8444C20.9312 13.1256 20.9792 12.4046 21.1134 11.6972C21.2056 11.2108 21.3685 10.7404 21.597 10.3012C21.8152 9.88511 22.1276 9.52579 22.5094 9.25192C24.2612 7.96845 26.6518 8.32126 28.1877 9.78113C30.4049 11.8888 31.8374 14.9515 32.6221 17.8743C32.9504 19.0895 33.1792 20.3294 33.3064 21.5818C33.5223 23.4309 33.3672 25.5782 31.8009 26.8343Z" fill="url(#paint22_linear_389_892)"/>
<defs>
<linearGradient id="paint0_linear_389_892" x1="43.7931" y1="16.2838" x2="337.75" y2="43.8966" gradientUnits="userSpaceOnUse">
<stop stop-color="#F65D61"/>
<stop offset="0.53" stop-color="#FB9C64"/>
<stop offset="1" stop-color="#FB9C64"/>
</linearGradient>
<linearGradient id="paint1_linear_389_892" x1="43.9178" y1="14.9729" x2="337.875" y2="42.5827" gradientUnits="userSpaceOnUse">
<stop stop-color="#F65D61"/>
<stop offset="0.53" stop-color="#FB9C64"/>
<stop offset="1" stop-color="#FB9C64"/>
</linearGradient>
<linearGradient id="paint2_linear_389_892" x1="43.8844" y1="15.3072" x2="337.842" y2="42.917" gradientUnits="userSpaceOnUse">
<stop stop-color="#F65D61"/>
<stop offset="0.53" stop-color="#FB9C64"/>
<stop offset="1" stop-color="#FB9C64"/>
</linearGradient>
<linearGradient id="paint3_linear_389_892" x1="44.0364" y1="13.7016" x2="337.994" y2="41.3114" gradientUnits="userSpaceOnUse">
<stop stop-color="#F65D61"/>
<stop offset="0.53" stop-color="#FB9C64"/>
<stop offset="1" stop-color="#FB9C64"/>
</linearGradient>
<linearGradient id="paint4_linear_389_892" x1="44.3802" y1="10.0488" x2="338.337" y2="37.6586" gradientUnits="userSpaceOnUse">
<stop stop-color="#F65D61"/>
<stop offset="0.53" stop-color="#FB9C64"/>
<stop offset="1" stop-color="#FB9C64"/>
</linearGradient>
<linearGradient id="paint5_linear_389_892" x1="44.4957" y1="8.80793" x2="338.453" y2="36.4178" gradientUnits="userSpaceOnUse">
<stop stop-color="#F65D61"/>
<stop offset="0.53" stop-color="#FB9C64"/>
<stop offset="1" stop-color="#FB9C64"/>
</linearGradient>
<linearGradient id="paint6_linear_389_892" x1="44.3345" y1="10.5051" x2="338.295" y2="38.118" gradientUnits="userSpaceOnUse">
<stop stop-color="#F65D61"/>
<stop offset="0.53" stop-color="#FB9C64"/>
<stop offset="1" stop-color="#FB9C64"/>
</linearGradient>
<linearGradient id="paint7_linear_389_892" x1="44.669" y1="6.95574" x2="338.627" y2="34.5656" gradientUnits="userSpaceOnUse">
<stop stop-color="#F65D61"/>
<stop offset="0.53" stop-color="#FB9C64"/>
<stop offset="1" stop-color="#FB9C64"/>
</linearGradient>
<linearGradient id="paint8_linear_389_892" x1="44.6204" y1="7.46954" x2="338.578" y2="35.0794" gradientUnits="userSpaceOnUse">
<stop stop-color="#F65D61"/>
<stop offset="0.53" stop-color="#FB9C64"/>
<stop offset="1" stop-color="#FB9C64"/>
</linearGradient>
<linearGradient id="paint9_linear_389_892" x1="44.7176" y1="6.42938" x2="338.678" y2="34.0392" gradientUnits="userSpaceOnUse">
<stop stop-color="#F65D61"/>
<stop offset="0.53" stop-color="#FB9C64"/>
<stop offset="1" stop-color="#FB9C64"/>
</linearGradient>
<linearGradient id="paint10_linear_389_892" x1="44.8151" y1="5.41963" x2="338.772" y2="33.0294" gradientUnits="userSpaceOnUse">
<stop stop-color="#F65D61"/>
<stop offset="0.53" stop-color="#FB9C64"/>
<stop offset="1" stop-color="#FB9C64"/>
</linearGradient>
<linearGradient id="paint11_linear_389_892" x1="1.49028" y1="-1.02811" x2="107.489" y2="19.5987" gradientUnits="userSpaceOnUse">
<stop stop-color="#F65D61"/>
<stop offset="0.53" stop-color="#FB9C64"/>
<stop offset="1" stop-color="#FB9C64"/>
</linearGradient>
<linearGradient id="paint12_linear_389_892" x1="1.20439" y1="0.435019" x2="107.203" y2="21.0618" gradientUnits="userSpaceOnUse">
<stop stop-color="#F65D61"/>
<stop offset="0.53" stop-color="#FB9C64"/>
<stop offset="1" stop-color="#FB9C64"/>
</linearGradient>
<linearGradient id="paint13_linear_389_892" x1="-0.19465" y1="7.62796" x2="105.804" y2="28.2578" gradientUnits="userSpaceOnUse">
<stop stop-color="#F65D61"/>
<stop offset="0.53" stop-color="#FB9C64"/>
<stop offset="1" stop-color="#FB9C64"/>
</linearGradient>
<linearGradient id="paint14_linear_389_892" x1="1.13747" y1="0.775524" x2="107.139" y2="21.4053" gradientUnits="userSpaceOnUse">
<stop stop-color="#F65D61"/>
<stop offset="0.53" stop-color="#FB9C64"/>
<stop offset="1" stop-color="#FB9C64"/>
</linearGradient>
<linearGradient id="paint15_linear_389_892" x1="-0.197698" y1="7.63404" x2="105.804" y2="28.2639" gradientUnits="userSpaceOnUse">
<stop stop-color="#F65D61"/>
<stop offset="0.53" stop-color="#FB9C64"/>
<stop offset="1" stop-color="#FB9C64"/>
</linearGradient>
<linearGradient id="paint16_linear_389_892" x1="1.21351" y1="0.386257" x2="107.212" y2="21.0161" gradientUnits="userSpaceOnUse">
<stop stop-color="#F65D61"/>
<stop offset="0.53" stop-color="#FB9C64"/>
<stop offset="1" stop-color="#FB9C64"/>
</linearGradient>
<linearGradient id="paint17_linear_389_892" x1="-1.84917" y1="16.1256" x2="104.15" y2="36.7555" gradientUnits="userSpaceOnUse">
<stop stop-color="#F65D61"/>
<stop offset="0.53" stop-color="#FB9C64"/>
<stop offset="1" stop-color="#FB9C64"/>
</linearGradient>
<linearGradient id="paint18_linear_389_892" x1="-1.29868" y1="13.2939" x2="104.7" y2="33.9237" gradientUnits="userSpaceOnUse">
<stop stop-color="#F65D61"/>
<stop offset="0.53" stop-color="#FB9C64"/>
<stop offset="1" stop-color="#FB9C64"/>
</linearGradient>
<linearGradient id="paint19_linear_389_892" x1="0.21594" y1="5.51722" x2="106.215" y2="26.144" gradientUnits="userSpaceOnUse">
<stop stop-color="#F65D61"/>
<stop offset="0.53" stop-color="#FB9C64"/>
<stop offset="1" stop-color="#FB9C64"/>
</linearGradient>
<linearGradient id="paint20_linear_389_892" x1="1.06751" y1="1.14673" x2="107.066" y2="21.7766" gradientUnits="userSpaceOnUse">
<stop stop-color="#F65D61"/>
<stop offset="0.53" stop-color="#FB9C64"/>
<stop offset="1" stop-color="#FB9C64"/>
</linearGradient>
<linearGradient id="paint21_linear_389_892" x1="-1.16483" y1="12.6127" x2="104.834" y2="33.2425" gradientUnits="userSpaceOnUse">
<stop stop-color="#F65D61"/>
<stop offset="0.53" stop-color="#FB9C64"/>
<stop offset="1" stop-color="#FB9C64"/>
</linearGradient>
<linearGradient id="paint22_linear_389_892" x1="-1.81573" y1="15.9552" x2="104.183" y2="36.5819" gradientUnits="userSpaceOnUse">
<stop stop-color="#F65D61"/>
<stop offset="0.53" stop-color="#FB9C64"/>
<stop offset="1" stop-color="#FB9C64"/>
</linearGradient>
</defs>
</svg>
