<svg width="44" height="43" viewBox="0 0 44 43" fill="none" xmlns="http://www.w3.org/2000/svg">
<path d="M23.6153 5.44302C24.7917 4.96031 25.9121 4.351 26.9568 3.62584C24.7589 1.95147 22.1779 0.851982 19.4478 0.427002C21.0768 1.88425 22.4812 3.57457 23.6153 5.44302Z" fill="url(#paint0_linear_938_99)"/>
<path d="M17.8027 1.38867V6.76512C19.1786 6.68959 20.5408 6.45268 21.8614 6.05927C20.7528 4.30588 19.3843 2.73105 17.8027 1.38867V1.38867Z" fill="url(#paint1_linear_938_99)"/>
<path d="M9.29511 7.046C7.91911 6.46444 6.61409 5.72753 5.40544 4.84961C2.36199 7.75999 0.536986 11.7173 0.299316 15.9216H7.02363C7.15225 12.8369 7.92605 9.81331 9.29511 7.046V7.046Z" fill="url(#paint2_linear_938_99)"/>
<path d="M11.9268 6.05912C13.2473 6.45252 14.6095 6.68943 15.9854 6.76497V1.38477C14.4056 2.73038 13.0374 4.30616 11.9268 6.05912V6.05912Z" fill="url(#paint3_linear_938_99)"/>
<path d="M8.84473 15.922H15.9783V8.58574C14.2863 8.50351 12.6125 8.19929 10.9998 7.68091C9.70596 10.2443 8.97139 13.0534 8.84473 15.922V15.922Z" fill="url(#paint4_linear_938_99)"/>
<path d="M14.3264 0.42334C11.5965 0.851419 9.01595 1.95201 6.81738 3.62593C7.86152 4.35185 8.98204 4.96121 10.1589 5.44311C11.2938 3.57413 12.6981 1.88268 14.3264 0.42334V0.42334Z" fill="url(#paint5_linear_938_99)"/>
<path d="M3.55072 25.0299C4.0801 24.6207 4.63577 24.2414 5.17642 23.8435L7.14377 22.3942L7.63562 22.0188C7.28888 20.6111 7.08386 19.1722 7.02363 17.7236H0.299316C0.446212 20.5129 1.30163 23.2187 2.7848 25.5856C3.03635 25.4091 3.29541 25.2289 3.55072 25.0299Z" fill="url(#paint6_linear_938_99)"/>
<path d="M9.51663 20.6563C10.0873 20.2508 10.643 19.8191 11.2062 19.4098C11.9571 18.8567 12.708 18.3022 13.4589 17.7466H8.84082C8.88287 18.7937 9.00842 19.8357 9.21627 20.8628L9.51663 20.6563Z" fill="url(#paint7_linear_938_99)"/>
<path d="M22.0641 11.1501C22.5972 10.7296 23.1416 10.2678 23.7011 9.79845C23.4343 9.07536 23.126 8.36833 22.7775 7.68091C21.166 8.19927 19.4935 8.50349 17.8027 8.58574V14.4653C19.2294 13.369 20.6562 12.2689 22.0641 11.1501Z" fill="url(#paint8_linear_938_99)"/>
<path d="M29.8926 6.05856C29.4627 5.57488 28.9551 5.16629 28.3908 4.84961C27.1835 5.7275 25.8797 6.46442 24.5049 7.046C24.7602 7.5904 24.9742 8.11603 25.1544 8.61913C26.6074 7.47026 28.1655 6.44903 29.8926 6.05856Z" fill="url(#paint9_linear_938_99)"/>
<path d="M37.5253 24.3468C36.7744 24.6321 35.7118 23.716 35.1749 22.2931C34.6381 20.8701 34.8258 19.4885 35.5879 19.1994C35.7539 19.1499 35.9292 19.1404 36.0996 19.1717C36.2699 19.203 36.4304 19.2743 36.5679 19.3796C35.0435 16.7702 32.8847 15.2797 31.2327 15.9029C29.1903 16.6538 28.6984 20.3858 30.1364 24.1929C31.5744 27.9999 34.3902 30.4666 36.4327 29.697C38.0847 29.0737 38.7229 26.5282 38.1485 23.5621C38.1122 23.7321 38.0371 23.8914 37.929 24.0276C37.8208 24.1637 37.6827 24.273 37.5253 24.3468Z" fill="url(#paint10_linear_938_99)"/>
<path d="M43.8177 25.6268C43.6771 24.5321 43.4676 23.4474 43.1906 22.3791C42.9178 21.3329 42.6325 20.403 42.3346 19.5895C42.038 18.7748 41.6588 17.885 41.2083 16.9126C40.7324 15.9174 40.1944 14.9531 39.5976 14.0253C38.9905 13.0749 38.3115 12.1724 37.5664 11.3259C36.8629 10.5188 36.0503 9.81371 35.1523 9.23084C34.3111 8.68973 33.3704 8.3221 32.3852 8.14954C28.4918 7.47749 25.3643 10.8378 22.5897 13.0304C19.2106 15.6986 15.7865 18.2992 12.3174 20.8323C11.7805 21.2077 11.2624 21.6282 10.7217 22.0112L8.46901 23.6632L6.59176 25.0335C6.0849 25.409 5.55927 25.7844 5.05617 26.1599C4.55013 26.4982 4.07966 26.8869 3.65199 27.32C2.97136 28.19 2.62861 29.2769 2.68708 30.38C2.69035 30.9821 2.75578 31.5822 2.88232 32.1709C3.0036 32.7227 3.16163 33.2658 3.35538 33.7966C3.55266 34.3348 3.78597 34.8591 4.05372 35.3659C4.32818 35.9022 4.66192 36.4059 5.04866 36.8677C5.80426 37.825 6.90331 38.45 8.11234 38.6098C8.62215 38.6448 9.13422 38.6272 9.64042 38.5573C10.1848 38.5009 10.7292 38.4559 11.2774 38.4296C11.9532 38.3996 12.6252 38.362 13.2973 38.3207C13.7002 39.2319 14.2751 40.0567 14.9906 40.7499C15.6815 41.417 16.4865 41.9549 17.3672 42.338C18.2472 42.719 19.1909 42.9317 20.1493 42.9651C21.1472 43.0037 22.1428 42.8428 23.0778 42.492C24.222 42.0787 25.2516 41.3992 26.0814 40.5096C26.9214 39.6204 27.5333 38.5408 27.8648 37.3633C27.9023 37.2394 31.6005 37.1944 32.9146 37.1719C34.2287 37.1493 35.5427 37.2169 36.8343 37.108C39.3385 36.9015 41.6588 35.7714 42.9091 33.5187C43.1487 33.0835 43.3449 32.6257 43.4948 32.1521C43.8112 31.1276 43.9794 30.063 43.9941 28.9908C44.0197 27.8666 43.9607 26.7421 43.8177 25.6268V25.6268ZM23.9376 38.5573C23.8404 38.9088 23.687 39.2422 23.4833 39.5447C23.2739 39.8459 23.0208 40.1141 22.7324 40.3407C22.4475 40.5735 22.1267 40.7587 21.7825 40.8888C21.3449 41.0516 20.8782 41.1219 20.4121 41.0953C19.9584 41.0714 19.5136 40.9605 19.1018 40.7687C18.6906 40.5764 18.3198 40.3075 18.0092 39.9765C17.6873 39.6375 17.4382 39.2363 17.2771 38.7976C17.1737 38.5072 17.1105 38.204 17.0894 37.8965L24.0765 37.4384C24.0878 37.8163 24.041 38.1936 23.9376 38.5573ZM9.21616 36.8227C8.73903 36.8043 8.26829 36.7066 7.82324 36.5336C6.49415 35.7527 4.25271 32.4862 4.86469 29.2123C5.00412 28.6907 5.30349 28.2259 5.72072 27.8832L23.7649 15.0916C23.7649 15.0916 23.014 28.7768 31.807 35.0693L9.21616 36.8227ZM39.5563 33.5488C38.3999 34.4761 36.6766 35.0243 35.2123 34.5925C34.4615 34.364 33.7635 33.9888 33.1586 33.4887C32.4699 32.9289 31.8521 32.2871 31.3189 31.5776C30.7491 30.8346 30.2274 30.0558 29.757 29.2461C29.2915 28.4464 28.886 27.6617 28.5368 26.8995C28.1877 26.1374 27.9136 25.4803 27.7108 24.9247C27.5081 24.369 27.2941 23.6894 27.0688 22.8822C26.8435 22.075 26.6521 21.2152 26.4944 20.2991C26.3327 19.378 26.2299 18.4475 26.1865 17.5133C26.1381 16.6258 26.1974 15.7358 26.363 14.8626C26.4768 14.2621 26.6779 13.6815 26.9599 13.1393C27.2293 12.6256 27.615 12.1821 28.0863 11.844C30.2489 10.2596 33.1999 10.6951 35.0959 12.4973C37.833 15.0991 39.6014 18.8799 40.57 22.488C40.9753 23.9881 41.2578 25.5188 41.4148 27.0647C41.6813 29.3475 41.4899 31.9981 39.5563 33.5488V33.5488Z" fill="url(#paint11_linear_938_99)"/>
<defs>
<linearGradient id="paint0_linear_938_99" x1="23.2023" y1="0.427002" x2="23.2023" y2="5.44302" gradientUnits="userSpaceOnUse">
<stop stop-color="#F65D61"/>
<stop offset="0.505208" stop-color="#F16684"/>
<stop offset="1" stop-color="#FA9A64"/>
</linearGradient>
<linearGradient id="paint1_linear_938_99" x1="19.832" y1="1.38867" x2="19.832" y2="6.76512" gradientUnits="userSpaceOnUse">
<stop stop-color="#F65D61"/>
<stop offset="0.505208" stop-color="#F16684"/>
<stop offset="1" stop-color="#FA9A64"/>
</linearGradient>
<linearGradient id="paint2_linear_938_99" x1="4.79721" y1="4.84961" x2="4.79721" y2="15.9216" gradientUnits="userSpaceOnUse">
<stop stop-color="#F65D61"/>
<stop offset="0.505208" stop-color="#F16684"/>
<stop offset="1" stop-color="#FA9A64"/>
</linearGradient>
<linearGradient id="paint3_linear_938_99" x1="13.9561" y1="1.38477" x2="13.9561" y2="6.76497" gradientUnits="userSpaceOnUse">
<stop stop-color="#F65D61"/>
<stop offset="0.505208" stop-color="#F16684"/>
<stop offset="1" stop-color="#FA9A64"/>
</linearGradient>
<linearGradient id="paint4_linear_938_99" x1="12.4115" y1="7.68091" x2="12.4115" y2="15.922" gradientUnits="userSpaceOnUse">
<stop stop-color="#F65D61"/>
<stop offset="0.505208" stop-color="#F16684"/>
<stop offset="1" stop-color="#FA9A64"/>
</linearGradient>
<linearGradient id="paint5_linear_938_99" x1="10.5719" y1="0.42334" x2="10.5719" y2="5.44311" gradientUnits="userSpaceOnUse">
<stop stop-color="#F65D61"/>
<stop offset="0.505208" stop-color="#F16684"/>
<stop offset="1" stop-color="#FA9A64"/>
</linearGradient>
<linearGradient id="paint6_linear_938_99" x1="3.96747" y1="17.7236" x2="3.96747" y2="25.5856" gradientUnits="userSpaceOnUse">
<stop stop-color="#F65D61"/>
<stop offset="0.505208" stop-color="#F16684"/>
<stop offset="1" stop-color="#FA9A64"/>
</linearGradient>
<linearGradient id="paint7_linear_938_99" x1="11.1498" y1="17.7466" x2="11.1498" y2="20.8628" gradientUnits="userSpaceOnUse">
<stop stop-color="#F65D61"/>
<stop offset="0.505208" stop-color="#F16684"/>
<stop offset="1" stop-color="#FA9A64"/>
</linearGradient>
<linearGradient id="paint8_linear_938_99" x1="20.7519" y1="7.68091" x2="20.7519" y2="14.4653" gradientUnits="userSpaceOnUse">
<stop stop-color="#F65D61"/>
<stop offset="0.505208" stop-color="#F16684"/>
<stop offset="1" stop-color="#FA9A64"/>
</linearGradient>
<linearGradient id="paint9_linear_938_99" x1="27.1987" y1="4.84961" x2="27.1987" y2="8.61913" gradientUnits="userSpaceOnUse">
<stop stop-color="#F65D61"/>
<stop offset="0.505208" stop-color="#F16684"/>
<stop offset="1" stop-color="#FA9A64"/>
</linearGradient>
<linearGradient id="paint10_linear_938_99" x1="33.8337" y1="15.7617" x2="33.8337" y2="29.8376" gradientUnits="userSpaceOnUse">
<stop stop-color="#F65D61"/>
<stop offset="0.505208" stop-color="#F16684"/>
<stop offset="1" stop-color="#FA9A64"/>
</linearGradient>
<linearGradient id="paint11_linear_938_99" x1="23.3403" y1="8.06226" x2="23.3403" y2="42.9707" gradientUnits="userSpaceOnUse">
<stop stop-color="#F65D61"/>
<stop offset="0.505208" stop-color="#F16684"/>
<stop offset="1" stop-color="#FA9A64"/>
</linearGradient>
</defs>
</svg>
