<svg width="23" height="19" viewBox="0 0 23 19" fill="none" xmlns="http://www.w3.org/2000/svg">
<g clip-path="url(#clip0_30_3197)">
<path d="M12.3982 -2.82764e-05H19.9431C20.3478 -0.0154725 20.7513 0.051692 21.1284 0.197268C21.5056 0.342845 21.8483 0.563706 22.1352 0.846052C22.4221 1.1284 22.6469 1.46616 22.7957 1.83824C22.9445 2.21032 23.0141 2.60872 23 3.00855C23 5.52248 23 8.04418 23 10.5736C23.0083 10.7399 22.9608 10.9042 22.865 11.0411C22.7692 11.178 22.6304 11.2799 22.47 11.3309C22.3097 11.382 22.1368 11.3793 21.9781 11.3234C21.8194 11.2675 21.6838 11.1615 21.5923 11.0217C21.4986 10.8656 21.4555 10.6849 21.4686 10.5038V3.0842C21.4906 2.87301 21.4648 2.65963 21.3931 2.45952C21.3213 2.2594 21.2054 2.07756 21.0538 1.92716C20.9021 1.77676 20.7185 1.66158 20.5162 1.58994C20.3139 1.51831 20.0981 1.49202 19.8842 1.51299H4.71779C4.54588 1.5319 4.37237 1.49573 4.22285 1.40981C4.07332 1.3239 3.9557 1.19278 3.88732 1.03581C3.84179 0.91988 3.82587 0.794654 3.841 0.671207C3.85612 0.547761 3.90181 0.429902 3.97403 0.32806C4.04624 0.226217 4.14274 0.143533 4.255 0.087322C4.36727 0.0311114 4.49183 0.00310893 4.61766 0.00579226H12.3982V-2.82764e-05Z" fill="white"/>
<path d="M19.9373 6.02308C19.9496 5.62523 19.8792 5.22911 19.7304 4.85922C19.5815 4.48934 19.3575 4.15356 19.0721 3.87265C18.7866 3.59174 18.4459 3.37168 18.071 3.22607C17.696 3.08047 17.2948 3.01242 16.8922 3.02614H3.0451C2.64296 3.01324 2.24239 3.08188 1.86815 3.22785C1.4939 3.37382 1.15389 3.59401 0.869105 3.87483C0.584323 4.15565 0.360816 4.49116 0.212353 4.86064C0.0638902 5.23012 -0.00636682 5.62573 0.00591588 6.02308C0.00591588 9.83472 0.00591588 13.6464 0.00591588 17.458C-0.00906284 17.7393 0.0599461 18.0188 0.20439 18.2617C0.348835 18.5046 0.562342 18.7002 0.818363 18.8241C1.07438 18.9481 1.36164 18.9951 1.64444 18.9591C1.92723 18.9231 2.19309 18.8059 2.40898 18.6219C3.21001 18.0399 4.01693 17.458 4.81206 16.8295C5.00192 16.6836 5.23719 16.6075 5.47761 16.6142C9.28247 16.6142 13.0913 16.6142 16.904 16.6142C17.3061 16.6271 17.7067 16.5585 18.0809 16.4125C18.4552 16.2665 18.7952 16.0463 19.08 15.7655C19.3648 15.4847 19.5883 15.1492 19.7367 14.7797C19.8852 14.4102 19.9554 14.0146 19.9432 13.6173L19.9373 6.02308ZM18.4 13.6173C18.413 13.8185 18.3824 14.0202 18.3103 14.2088C18.2382 14.3975 18.1263 14.5688 17.982 14.7114C17.8377 14.854 17.6643 14.9646 17.4733 15.0358C17.2823 15.107 17.0782 15.1373 16.8745 15.1245H5.44816C4.88601 15.1156 4.33758 15.2962 3.89323 15.6366C3.17466 16.2185 2.44433 16.7189 1.71987 17.2601L1.53727 17.394V6.07545C1.52048 5.87 1.54898 5.66338 1.6208 5.46986C1.69262 5.27633 1.80607 5.10049 1.95331 4.95446C2.10055 4.80843 2.27809 4.69568 2.47369 4.62398C2.66929 4.55229 2.8783 4.52335 3.08631 4.53916H16.8569C17.063 4.52355 17.2702 4.55208 17.4642 4.62281C17.6582 4.69353 17.8344 4.80479 17.9809 4.94897C18.1274 5.09316 18.2407 5.26688 18.313 5.45828C18.3854 5.64967 18.415 5.85424 18.4 6.058C18.4079 8.57581 18.4079 11.0956 18.4 13.6173Z" fill="white"/>
<path d="M13.753 9.9103C13.7499 10.1084 13.6677 10.2972 13.5243 10.4357C13.3808 10.5741 13.1878 10.6509 12.9873 10.6494C12.8875 10.6494 12.7887 10.6299 12.6966 10.5922C12.6044 10.5545 12.5206 10.4992 12.4501 10.4295C12.3795 10.3598 12.3235 10.277 12.2854 10.1859C12.2472 10.0949 12.2275 9.99724 12.2275 9.89866C12.2275 9.80008 12.2472 9.70246 12.2854 9.61139C12.3235 9.52031 12.3795 9.43755 12.4501 9.36784C12.5206 9.29814 12.6044 9.24284 12.6966 9.20512C12.7887 9.16739 12.8875 9.14797 12.9873 9.14797C13.0886 9.14718 13.189 9.16641 13.2826 9.20451C13.3763 9.24262 13.4613 9.29883 13.5326 9.36986C13.604 9.44088 13.6602 9.52528 13.6981 9.61809C13.7359 9.7109 13.7546 9.81025 13.753 9.9103Z" fill="white"/>
<path d="M6.20215 9.89274C6.20215 9.6921 6.28282 9.49968 6.42642 9.35781C6.57001 9.21594 6.76475 9.13623 6.96783 9.13623C7.1709 9.13623 7.36566 9.21594 7.50925 9.35781C7.65285 9.49968 7.73352 9.6921 7.73352 9.89274C7.73045 10.0904 7.64923 10.2789 7.50724 10.4181C7.36525 10.5573 7.17375 10.6361 6.97372 10.6376C6.87345 10.6391 6.77386 10.6211 6.6807 10.5844C6.58754 10.5477 6.50266 10.4932 6.43093 10.4239C6.3592 10.3547 6.30206 10.2721 6.26279 10.1809C6.22353 10.0898 6.20291 9.99182 6.20215 9.89274Z" fill="white"/>
<path d="M9.25296 9.89852C9.25211 9.79822 9.27178 9.69879 9.31078 9.60618C9.34978 9.51358 9.4073 9.42971 9.4799 9.35961C9.5525 9.2895 9.63869 9.23461 9.73329 9.19822C9.82789 9.16183 9.92896 9.14469 10.0304 9.14783C10.1302 9.14974 10.2286 9.17105 10.3201 9.21054C10.4115 9.25003 10.4942 9.30692 10.5634 9.37798C10.6326 9.44904 10.6869 9.53287 10.7233 9.62468C10.7597 9.71649 10.7774 9.81448 10.7755 9.91306C10.7736 10.0116 10.752 10.1089 10.712 10.1992C10.672 10.2896 10.6145 10.3713 10.5425 10.4396C10.4706 10.508 10.3858 10.5617 10.2929 10.5976C10.1999 10.6336 10.1008 10.6511 10.001 10.6492C9.90198 10.6484 9.80408 10.6284 9.71291 10.5903C9.62173 10.5521 9.53906 10.4966 9.4696 10.4269C9.40014 10.3572 9.34526 10.2747 9.30808 10.184C9.27091 10.0933 9.25218 9.99633 9.25296 9.89852Z" fill="white"/>
</g>
<defs>
<clipPath id="clip0_30_3197">
<rect width="23" height="19" fill="white"/>
</clipPath>
</defs>
</svg>
