<svg width="24" height="19" viewBox="0 0 24 19" fill="none" xmlns="http://www.w3.org/2000/svg">
<g clip-path="url(#clip0_1_1504)">
<path d="M22.7496 2.71496C22.5365 2.52802 22.2572 2.4237 21.9668 2.42265C21.5873 2.42265 21.2078 2.42265 20.8266 2.42265C20.603 2.42265 20.5793 2.39856 20.5759 2.18976C20.5759 1.82839 20.5759 1.46862 20.5759 1.10885C20.5798 0.97216 20.5546 0.836123 20.502 0.708808C20.4494 0.581494 20.3703 0.465494 20.2695 0.367685C20.1687 0.269876 20.0482 0.19225 19.9152 0.139409C19.7821 0.0865671 19.6392 0.059586 19.495 0.0600649C19.4171 0.0600649 19.3374 0.0600649 19.2595 0.0600649H2.23943C2.13778 0.0600649 2.03782 0.0600649 1.93786 0.0600649C1.80208 0.0606575 1.66787 0.0876024 1.54349 0.139239C1.41912 0.190876 1.30721 0.26611 1.21467 0.360307C1.12213 0.454504 1.05092 0.565667 1.00543 0.686946C0.959931 0.808226 0.941112 0.937053 0.950135 1.06549C0.950135 6.15257 0.950135 11.2386 0.950135 16.3235C0.938001 16.5824 0.98182 16.8409 1.0789 17.0832C1.27604 17.551 1.6196 17.9503 2.06334 18.2274C2.50709 18.5045 3.02973 18.6461 3.56092 18.6331H16.5115C17.8381 18.6331 19.1646 18.6331 20.4912 18.6331C20.8235 18.6331 21.1526 18.571 21.4596 18.4503C21.7666 18.3295 22.0455 18.1526 22.2803 17.9296C22.7049 17.5663 22.9637 17.0605 23.002 16.5195V3.25943C22.9894 3.05514 22.8998 2.86194 22.7496 2.71496ZM22.0092 3.6449V16.0665C22.0092 16.831 21.5992 17.3755 20.8758 17.557C20.7163 17.5953 20.5523 17.6137 20.3878 17.6116H3.58633C2.59522 17.6116 1.96497 17.0077 1.96497 16.0649C1.96497 11.1395 1.96497 6.21039 1.96497 1.27749C1.96497 1.08797 2.02257 1.05906 2.20385 1.05906C5.05126 1.06549 7.8981 1.06549 10.7444 1.05906C13.5907 1.05264 16.4358 1.05478 19.2798 1.06549C19.4848 1.06549 19.5187 1.12491 19.5187 1.30159C19.5187 5.99356 19.5187 10.685 19.5187 15.3759C19.5187 15.9075 19.7305 16.3091 20.2371 16.5532C20.4219 16.6462 20.6333 16.6805 20.8402 16.6512C20.9515 16.6382 21.0542 16.5881 21.13 16.5098C21.2057 16.4315 21.2496 16.3301 21.2536 16.2239C21.2636 16.114 21.2309 16.0043 21.1616 15.9156C21.0924 15.8269 20.9913 15.7652 20.8775 15.7421C20.5251 15.6618 20.5149 15.6489 20.5149 15.3068C20.5149 11.4243 20.5149 7.54185 20.5149 3.65935C20.5149 3.48108 20.5488 3.41362 20.7555 3.42326C21.1265 3.44253 21.5009 3.43289 21.8737 3.42326C21.9838 3.42326 22.0431 3.44895 22.0194 3.55977C22.0141 3.58792 22.0107 3.61635 22.0092 3.6449Z" fill="black"/>
<path d="M10.7427 2.9621H16.896C17.2688 2.9621 17.467 3.09862 17.5043 3.37487C17.5235 3.48611 17.4969 3.60011 17.4301 3.69334C17.3633 3.78658 17.2613 3.85195 17.1451 3.87598C17.0546 3.89651 16.9619 3.90676 16.8689 3.90649C12.7814 3.90649 8.69379 3.90649 4.60622 3.90649C4.21486 3.90649 3.9963 3.75552 3.97258 3.47124C3.96555 3.412 3.97101 3.35203 3.98864 3.29481C4.00628 3.23759 4.03573 3.18426 4.0753 3.13793C4.11487 3.0916 4.16377 3.05319 4.21913 3.02494C4.2745 2.99668 4.33525 2.97914 4.39783 2.97334C4.48336 2.96475 4.56935 2.961 4.65535 2.9621H10.7427Z" fill="black"/>
<path d="M14.5157 7.68404C15.317 7.68404 16.1201 7.68404 16.9215 7.68404C17.3416 7.68404 17.572 7.92495 17.4958 8.26224C17.4802 8.34635 17.438 8.42397 17.3747 8.48479C17.3115 8.54561 17.2302 8.58674 17.1417 8.60273C17.051 8.6215 16.9584 8.63065 16.8655 8.63003H12.1387C11.7439 8.63003 11.5305 8.48388 11.5 8.19799C11.4861 8.08289 11.5193 7.96712 11.5927 7.87451C11.6662 7.7819 11.7742 7.71948 11.8947 7.7001C12.0632 7.67885 12.2333 7.6724 12.403 7.68082L14.5157 7.68404Z" fill="black"/>
<path d="M14.4971 10.9942C13.7025 10.9942 12.9062 10.9942 12.1116 10.9942C11.7355 10.9942 11.5237 10.8335 11.4983 10.5605C11.4878 10.4495 11.5211 10.3387 11.5919 10.2497C11.6626 10.1607 11.7657 10.0997 11.8812 10.0787C11.9575 10.0629 12.0352 10.0543 12.1133 10.053H16.9079C17.323 10.053 17.5551 10.273 17.5043 10.5991C17.4918 10.6937 17.4475 10.782 17.3779 10.8508C17.3084 10.9197 17.2172 10.9655 17.118 10.9813C16.9622 11.0038 16.8043 11.0102 16.647 11.0006L14.4971 10.9942Z" fill="black"/>
<path d="M14.5259 5.32314C15.3289 5.32314 16.1303 5.32314 16.9333 5.32314C17.3383 5.32314 17.5653 5.55924 17.4975 5.8901C17.478 5.99083 17.4229 6.08227 17.3413 6.1494C17.2597 6.21653 17.1565 6.25536 17.0485 6.2595C16.9416 6.26993 16.834 6.27315 16.7266 6.26914C15.1939 6.26914 13.6612 6.26914 12.1285 6.26914C11.7677 6.26914 11.5593 6.13904 11.5102 5.88849C11.4941 5.82575 11.4924 5.76046 11.5053 5.69706C11.5182 5.63366 11.5453 5.57363 11.5848 5.52105C11.6244 5.46848 11.6754 5.4246 11.7344 5.39239C11.7935 5.36017 11.8591 5.34039 11.9269 5.33438C12.0124 5.32447 12.0984 5.32018 12.1845 5.32153L14.5259 5.32314Z" fill="black"/>
<path d="M14.5054 13.3552C13.6956 13.3552 12.8858 13.3552 12.0776 13.3552C11.688 13.3552 11.4626 13.1416 11.5016 12.8316C11.5091 12.7363 11.5495 12.6459 11.6165 12.5745C11.6836 12.5031 11.7736 12.4546 11.8726 12.4365C11.9702 12.414 12.0705 12.4043 12.1708 12.4076C13.7238 12.4076 15.278 12.4076 16.8333 12.4076C16.9335 12.4047 17.0337 12.4139 17.1315 12.4349C17.2438 12.458 17.3437 12.5182 17.4135 12.6046C17.4834 12.6911 17.5185 12.7983 17.5127 12.9071C17.509 13.0131 17.4661 13.1145 17.3914 13.1935C17.3168 13.2726 17.2151 13.3241 17.1044 13.3391C17.0192 13.3515 16.933 13.3574 16.8468 13.3568L14.5054 13.3552Z" fill="black"/>
<path d="M14.5055 15.7161C13.6889 15.7161 12.8723 15.7161 12.0557 15.7161C11.6559 15.7161 11.4339 15.4656 11.5119 15.1331C11.5417 15.0237 11.6112 14.9277 11.7081 14.862C11.8051 14.7962 11.9233 14.7648 12.0422 14.7733C12.2116 14.7733 12.381 14.7733 12.5504 14.7733C13.9826 14.7733 15.4148 14.7733 16.8469 14.7733C16.976 14.7671 17.1051 14.7857 17.2265 14.8279C17.3206 14.8694 17.3979 14.9389 17.4466 15.0259C17.4952 15.1129 17.5125 15.2126 17.4958 15.3098C17.4861 15.4083 17.4414 15.5009 17.3691 15.5723C17.2968 15.6438 17.2012 15.6899 17.0977 15.7033C17.0123 15.714 16.9262 15.7183 16.8402 15.7161H14.5055Z" fill="black"/>
<path d="M6.9697 13.3554H4.58425C4.47719 13.3691 4.36823 13.3533 4.27033 13.3101C4.17242 13.2668 4.08968 13.1978 4.03193 13.1112C3.99603 13.0508 3.97483 12.9835 3.96988 12.9143C3.96492 12.8451 3.97634 12.7757 4.00329 12.7112C4.03024 12.6467 4.07205 12.5887 4.12567 12.5415C4.17928 12.4943 4.24334 12.459 4.31317 12.4383C4.39598 12.4166 4.48141 12.4053 4.5673 12.4045C6.17116 12.4045 7.77558 12.4045 9.38056 12.4045C9.73127 12.4045 9.93118 12.5459 9.97354 12.8125C9.98562 12.8723 9.98455 12.9339 9.97042 12.9933C9.95628 13.0527 9.92938 13.1088 9.89138 13.1579C9.85339 13.207 9.80511 13.2482 9.74958 13.2789C9.69405 13.3095 9.63245 13.329 9.56862 13.3361C9.48392 13.3478 9.39839 13.3532 9.3128 13.3521L6.9697 13.3554Z" fill="black"/>
<path d="M6.95103 15.7162C6.14797 15.7162 5.34661 15.7162 4.54355 15.7162C4.20471 15.7162 3.99463 15.5556 3.9726 15.2874C3.95963 15.1762 3.99182 15.0645 4.06263 14.975C4.13344 14.8854 4.23756 14.8249 4.3538 14.8055C4.4372 14.7877 4.52242 14.7785 4.60793 14.7782H9.35173C9.47296 14.7727 9.59396 14.793 9.70582 14.8377C9.79944 14.8795 9.87599 14.9493 9.92374 15.0363C9.97148 15.1233 9.98777 15.2228 9.97012 15.3195C9.95927 15.4183 9.91325 15.5106 9.83965 15.5812C9.76604 15.6519 9.66924 15.6967 9.5652 15.7082C9.48031 15.7176 9.39482 15.7213 9.30937 15.7194L6.95103 15.7162Z" fill="black"/>
<path d="M9.99552 5.93493C9.99552 5.49646 9.81084 5.323 9.34324 5.323H4.63502C4.12676 5.323 3.95734 5.48361 3.95734 5.9542V10.4176C3.95734 10.8721 4.13862 11.0423 4.61808 11.0423H9.32799C9.80576 11.0423 9.99212 10.8689 9.99212 10.4192L9.99552 5.93493ZM8.99762 9.9502C8.99762 10.069 8.95865 10.098 8.83836 10.098C7.5982 10.098 6.35804 10.098 5.1111 10.098C4.9637 10.098 4.95184 10.0417 4.95184 9.92771C4.95184 9.34309 4.95184 8.75846 4.95184 8.17384C4.95184 7.58922 4.95184 7.01905 4.95184 6.44085C4.95184 6.32039 4.96709 6.26418 5.12126 6.26578C6.35295 6.26578 7.58634 6.26578 8.81973 6.26578C8.9468 6.26578 8.98915 6.28666 8.98915 6.42639C8.99254 7.59885 8.99423 8.77452 8.99762 9.9502Z" fill="black"/>
</g>
<defs>
<clipPath id="clip0_1_1504">
<rect width="22.0536" height="18.5714" fill="white" transform="translate(0.948425 0.0534668)"/>
</clipPath>
</defs>
</svg>
