<svg width="33" height="48" viewBox="0 0 33 48" fill="none" xmlns="http://www.w3.org/2000/svg">
<path d="M26.4919 33.6069C25.7325 33.1125 24.9047 34.225 25.5274 34.8778C26.3096 35.7006 27.1184 36.5002 27.931 37.296C28.1778 37.5355 28.6334 37.8754 29.0701 38.2578C20.6748 38.8218 12.1391 35.1675 7.07007 28.2144C1.4049 20.4345 0.615119 9.67259 4.66655 0.981134C5.00828 0.251051 3.99068 -0.382454 3.5844 0.339902C-1.45047 9.33266 -1.24543 21.0874 4.69313 29.6282C10.1419 37.4698 19.4788 41.9893 28.8612 41.6031C28.3372 42.1361 27.7829 42.6383 27.5133 42.9242C26.7083 43.7779 25.873 44.6006 25.0224 45.4041C23.5834 46.7677 25.7439 48.9618 27.1829 47.5982C29.1004 45.7827 33.1139 42.4915 33.0076 39.5132C32.8937 36.7474 28.436 34.8392 26.4919 33.6069Z" fill="white"/>
</svg>
