<svg width="29" height="28" viewBox="0 0 29 28" fill="none" xmlns="http://www.w3.org/2000/svg">
<path d="M14.9734 13.5038C14.6934 13.2091 14.4989 12.849 14.3562 12.4761C14.3173 12.9519 14.6044 13.4892 14.9528 13.8086C15.1355 13.976 15.4054 14.1302 15.6327 14.048C15.7721 13.9978 15.8489 13.8621 15.8536 13.7028C15.6305 14.0105 15.2227 13.7642 14.9734 13.5038Z" fill="url(#paint0_linear_30_1353)"/>
<path d="M15.921 4.78884C14.0392 3.77512 12.2364 3.66552 10.8445 4.48043C9.18393 5.45301 8.24483 7.25324 8.20734 9.38993C8.19821 9.93254 8.22764 10.4751 8.29543 11.0136C7.82377 11.682 7.2926 12.3063 6.70843 12.879C6.46329 12.9564 6.22754 13.061 6.00556 13.1907C5.93458 13.2322 5.86324 13.2784 5.78062 13.3363L1.84588 15.7971C-0.00319382 16.8793 -0.55646 19.3863 0.614862 21.3857C1.78618 23.3851 4.24021 24.1304 6.07982 23.053L6.48421 22.8378L10.2719 26.81C10.6177 27.2284 11.2743 27.3286 11.7726 27.0369L11.7854 27.0289L12.7903 26.3556C12.9117 26.2472 13.0147 26.1198 13.0954 25.9784C13.4706 25.26 13.4881 25.1737 13.4958 25.1274C13.5252 24.9838 13.5103 24.8347 13.4531 24.6998C13.3959 24.5648 13.2991 24.4505 13.1754 24.3719L12.1894 23.7405C11.7585 23.4641 11.3743 23.121 11.0512 22.7238L9.73028 21.0987L10.111 20.8952C10.2168 20.8479 10.3201 20.7952 10.4204 20.7372C10.6423 20.6066 10.8487 20.4512 11.0355 20.274C11.9419 20.0431 12.8686 19.9506 13.7043 19.9299C14.0202 20.147 14.3477 20.3467 14.6853 20.5282C16.7204 21.6176 18.4235 21.7298 20.2955 20.6334C21.6874 19.8181 22.4743 18.1919 22.5122 16.0538C22.5486 14.0027 21.8847 11.7054 20.6438 9.5851C19.403 7.4648 17.7268 5.76033 15.921 4.78884ZM12.1272 16.021L14.1852 14.5022L11.8476 15.5582L13.0033 14.6377L11.5644 15.165L11.5262 15.1016L12.3288 14.4578L11.3096 14.7313C11.2954 14.7058 11.2812 14.6803 11.2674 14.6548L11.9088 14.1319L11.0759 14.2951L11.0323 14.2099L11.6103 13.746L10.8634 13.8628C10.8488 13.8323 10.835 13.8013 10.8208 13.7704L11.3668 13.3312L10.6734 13.4405L10.6352 13.3509L13.653 12.174C13.5565 12.6361 13.6687 13.2274 13.9981 13.7904C14.1607 14.0735 14.3719 14.3258 14.6219 14.5357L12.1657 16.0767L12.1272 16.021ZM15.8311 14.3846C15.513 14.5707 14.8604 14.2685 14.4323 13.5366C14.0043 12.8047 14.0599 12.0877 14.3777 11.9017C14.6955 11.7156 15.3485 12.0178 15.7765 12.7493C16.2046 13.4809 16.1507 14.1982 15.8311 14.3846ZM10.4503 9.72019C10.2781 9.97762 10.1026 10.234 9.91409 10.4808C10.1805 9.85564 10.5052 9.25338 10.8313 8.65585C11.2598 7.87116 11.7249 7.10067 12.224 6.3564C12.3965 6.09896 12.572 5.84262 12.7605 5.59574C12.4944 6.22131 12.1697 6.82321 11.8436 7.42074C11.4152 8.20579 10.9489 8.97555 10.4503 9.72019ZM9.89007 9.01852C10.0138 8.50073 10.2257 7.99897 10.4481 7.5165C10.6705 7.03404 10.9176 6.54793 11.2332 6.12008C11.1102 6.63787 10.898 7.13963 10.6752 7.62173C10.4524 8.10384 10.2042 8.58994 9.89007 9.01852ZM14.6219 18.6139L16.1842 18.6999L14.0141 18.0175L17.6281 17.9552L13.5151 17.381L16.7043 16.8854L13.7382 16.7664L16.1842 14.7542C16.1977 14.7435 16.2099 14.7313 16.2206 14.7178C16.7098 14.2929 16.7174 13.3596 16.2108 12.4941C16.1007 12.3051 15.97 12.129 15.8209 11.969L18.4096 9.7657L15.2156 11.507C15.096 11.445 14.9687 11.3991 14.8371 11.3704L17.9641 8.56664C17.7986 8.34647 17.6273 8.13139 17.4502 7.92141L14.4199 10.8217L17.0607 7.47973C16.5618 6.93728 16.0121 6.44394 15.4191 6.00648C15.4089 5.99883 15.398 5.99155 15.3878 5.98426L12.6102 9.2501L15.0809 5.77708C14.8243 5.61431 14.5579 5.4683 14.2882 5.32702C16.1744 5.89505 18.2313 7.64249 19.6942 10.1426C21.9615 14.0165 21.9564 18.2516 19.6829 19.5832C18.3055 20.3894 16.4073 19.9481 14.6219 18.6139ZM10.6544 26.4863C10.6504 26.4812 10.6457 26.4761 10.641 26.471L6.94175 22.5909L7.05531 22.5305L7.89249 23.1724L7.42694 22.3309L7.57582 22.2512L8.39771 22.8782L7.94308 22.0564L8.10069 21.9719L8.90147 22.584L8.45777 21.7829L8.5706 21.7225L10.3145 23.8675C10.6398 24.2676 11.0268 24.6132 11.4611 24.8911L12.5097 25.5633C12.5412 25.5834 12.5671 25.6111 12.5852 25.6438C12.6033 25.6765 12.613 25.7132 12.6134 25.7506C12.6138 25.788 12.6049 25.8249 12.5875 25.858C12.5701 25.8911 12.5447 25.9193 12.5137 25.9401L11.5135 26.6076C11.2609 26.7518 10.8579 26.7379 10.6544 26.4863ZM9.5552 21.3686C9.95923 21.8091 10.3421 22.2701 10.7247 22.7297C10.9864 23.0443 11.251 23.3465 11.5619 23.6127C11.8589 23.8675 12.1865 24.0729 12.5083 24.2888C12.8115 24.4909 13.1922 24.6784 13.2362 25.0819C13.1114 24.7509 12.8111 24.6165 12.5257 24.4443C12.1941 24.2444 11.8589 24.0438 11.5568 23.8009C10.9471 23.3093 10.4856 22.6466 10.0229 22.0218C9.86532 21.8062 9.70807 21.5896 9.5552 21.3686ZM3.18536 18.3714C3.01465 17.5889 3.01793 16.8002 3.28801 16.0378C3.20889 16.1597 3.138 16.2869 3.0758 16.4183C2.74821 17.1236 2.66668 17.8704 2.74821 18.6376C2.5775 17.8547 2.58078 17.066 2.85086 16.3039C2.77255 16.4259 2.70239 16.5529 2.64083 16.6841C2.31324 17.3894 2.23207 18.1362 2.31324 18.9052C2.14217 18.1227 2.14581 17.3337 2.41589 16.5716C2.33671 16.6934 2.2657 16.8204 2.20332 16.9517C1.87573 17.657 1.79456 18.4038 1.87573 19.1729C1.70465 18.3904 1.70829 17.6013 1.97837 16.8392C1.89919 16.9611 1.82818 17.0881 1.7658 17.2193C1.43821 17.925 1.35704 18.6718 1.43821 19.4387C1.26713 18.6562 1.27077 17.8671 1.54085 17.105C1.46175 17.2269 1.39074 17.3539 1.32828 17.4852C0.998872 18.1908 0.919522 18.9377 1.00069 19.7063C0.829616 18.9235 0.833257 18.134 1.10334 17.3715C1.16611 17.1961 1.24204 17.0257 1.33047 16.8618C1.55067 16.6116 1.80946 16.3983 2.09703 16.23L5.20005 14.2892C5.02497 14.5077 4.48263 15.398 4.3767 15.6248C4.04911 16.3302 3.96794 17.077 4.04911 17.8438C3.87804 17.0613 3.88168 16.2723 4.15176 15.5101C4.07258 15.6321 4.00157 15.7593 3.93919 15.8907C3.6116 16.596 3.53043 17.3428 3.61342 18.1096C3.44234 17.3271 3.44598 16.5381 3.7157 15.776C3.63664 15.898 3.56575 16.0251 3.50349 16.1565C3.18318 16.8578 3.10383 17.6046 3.18646 18.3714H3.18536ZM11.6383 18.741C11.8036 18.8588 11.9763 18.966 12.1552 19.0618C11.8104 18.9787 11.4764 18.8556 11.16 18.6951C10.5627 18.3911 10.0524 17.9669 9.59706 17.4812C10.0113 18.0536 10.4957 18.5535 11.0854 18.9475C11.2392 19.0497 11.3992 19.1424 11.5644 19.2249C11.2301 19.1562 10.9048 19.049 10.5951 18.9052C9.99526 18.626 9.48204 18.2181 9.02668 17.7426C9.44491 18.3052 9.93666 18.7927 10.5376 19.1609C10.6802 19.2482 10.8276 19.3275 10.9791 19.3983C10.6823 19.3489 10.3918 19.2671 10.1128 19.1543C9.47658 18.8958 8.9335 18.4916 8.45522 18.004C8.88364 18.5659 9.39286 19.048 10.0142 19.3924C10.1401 19.462 10.269 19.5243 10.3975 19.5803C10.1002 19.5429 9.80846 19.4705 9.52826 19.3644C8.8971 19.1237 8.35913 18.7396 7.88339 18.2655C8.32018 18.8248 8.84396 19.3021 9.48313 19.6218C9.5905 19.6757 9.69861 19.7238 9.80781 19.7675C9.52026 19.741 9.23697 19.6799 8.96408 19.5854C8.32928 19.3651 7.79021 18.993 7.31192 18.5266C7.76255 19.0902 8.30598 19.565 8.97063 19.8611C9.05143 19.8975 9.13224 19.9299 9.21378 19.9601C8.94557 19.9437 8.68022 19.8958 8.42319 19.8174C7.77528 19.62 7.22602 19.253 6.74046 18.7884C7.1878 19.3345 7.72323 19.7893 8.37842 20.0683C8.45959 20.1029 8.54148 20.1342 8.62338 20.1626C8.36111 20.1543 8.10084 20.1139 7.84845 20.042C7.20091 19.8582 6.65529 19.5075 6.16827 19.0498C6.62107 19.5927 7.15104 20.0136 7.80622 20.2878C7.90741 20.3301 8.01006 20.3661 8.11343 20.3971C7.04439 20.2769 6.02886 19.6193 5.4199 18.5797C4.63659 17.2416 4.74907 15.5848 5.66123 14.5194C6.77431 13.8009 7.70613 12.8193 8.43411 11.8776C8.71411 13.2643 9.22328 14.5946 9.94066 15.8138C10.566 16.8886 11.3378 17.871 12.2338 18.733C12.0523 18.6601 11.8755 18.5758 11.7046 18.4807C11.1185 18.153 10.618 17.716 10.1685 17.2212C10.5817 17.803 11.057 18.3248 11.6394 18.741H11.6383ZM12.0271 17.2845C11.1695 16.2683 10.4674 15.1304 9.94358 13.908C9.31569 12.4489 8.94843 10.8217 9.04525 9.2268C9.13515 7.74699 9.6684 6.20456 10.938 5.33539C11.0348 5.26912 11.1375 5.21268 11.2387 5.15333C10.7189 5.51746 10.2879 5.95914 9.97888 6.51734C9.61708 7.17058 9.42598 7.91012 9.351 8.64966C9.19376 10.2001 9.51116 11.7739 10.0608 13.2205C10.5183 14.4176 11.1433 15.5436 11.9171 16.565C12.8562 17.8067 14.0312 18.9245 15.418 19.6506C16.7018 20.3221 18.2138 20.6621 19.6006 20.1014C19.7033 20.0599 19.8023 20.0085 19.9024 19.9605C19.32 20.3017 18.7056 20.499 18.0274 20.5245C17.2674 20.5529 16.5158 20.388 15.8107 20.112C14.3358 19.5337 13.047 18.4858 12.0281 17.2842L12.0271 17.2845ZM22.0838 14.1043C22.1839 14.6923 22.2479 15.2884 22.2293 15.8859C22.2126 16.3976 22.1439 16.9062 22.0244 17.404C22.2141 16.435 22.2166 15.4741 22.0674 14.4979C21.9039 13.4295 21.5731 12.3816 21.1425 11.3915C20.2587 9.36116 18.9258 7.47973 17.2139 6.06656C16.3647 5.36671 15.4191 4.83763 14.3672 4.5223C15.3018 4.76753 16.1806 5.19045 16.9555 5.76797C17.8433 6.42158 18.6087 7.20117 19.2956 8.06196C20.0008 8.95062 20.5961 9.92125 21.0686 10.9528C21.5312 11.9563 21.8952 13.0112 22.0838 14.1043Z" fill="url(#paint1_linear_30_1353)"/>
<path d="M17.2601 4.50267C17.434 4.29349 17.5926 4.07157 17.747 3.84784C18.1664 3.24322 18.5389 2.60731 18.9051 1.9663C18.6519 1.97794 18.3991 1.98959 18.1462 2.00523C18.4787 1.35549 18.7966 0.690116 19.0424 0C18.8233 0.276483 18.6206 0.567518 18.4245 0.86219C18.0795 1.38023 17.7637 1.91719 17.4441 2.45197C17.691 2.44578 17.9376 2.43851 18.1841 2.42796C18.1525 2.48907 18.1198 2.54946 18.0885 2.60985C17.7783 3.22066 17.4792 3.84966 17.2601 4.50267Z" fill="url(#paint2_linear_30_1353)"/>
<path d="M19.6992 6.47244C19.9444 6.32357 20.179 6.15743 20.4102 5.98834C21.0134 5.54725 21.5799 5.05984 22.1416 4.56729C21.8843 4.49635 21.627 4.4254 21.3663 4.35814C21.9012 3.84096 22.4262 3.30393 22.8886 2.72021C22.5824 2.9154 22.2883 3.12933 21.9994 3.34914C21.4917 3.73509 21.0068 4.14715 20.5205 4.55994C20.7708 4.63345 21.0208 4.70697 21.2722 4.77681C21.2215 4.82533 21.1697 4.87274 21.1193 4.92163C20.6179 5.40757 20.122 5.91556 19.6992 6.47244Z" fill="url(#paint3_linear_30_1353)"/>
<path d="M23.9671 7.72669C24.6254 7.40623 25.2807 7.06452 25.8908 6.66016C25.545 6.74945 25.2028 6.86 24.8672 6.97738C24.2742 7.18406 23.6942 7.42135 23.1134 7.659C23.3249 7.80303 23.5367 7.94706 23.7506 8.08749C23.4675 8.22323 23.1865 8.36402 22.9096 8.51201C22.5147 8.71695 22.132 8.94429 21.7633 9.19291C22.0377 9.12809 22.3082 9.04456 22.5761 8.9567C23.2756 8.72733 23.9541 8.44468 24.6301 8.15554C24.4096 8.01151 24.1894 7.86748 23.9671 7.72669Z" fill="url(#paint4_linear_30_1353)"/>
<path d="M26.25 12.0576C26.0684 11.8604 25.8873 11.6628 25.7028 11.4678C26.4304 11.3111 27.1599 11.133 27.8607 10.8816C27.498 10.8849 27.1349 10.9111 26.774 10.9446C26.139 11.004 25.5091 11.0969 24.8785 11.1905C25.0516 11.3859 25.2247 11.5806 25.4007 11.773C25.0883 11.8379 24.7773 11.9096 24.4677 11.988C24.0281 12.0943 23.595 12.2259 23.1704 12.3821C23.4571 12.3854 23.7441 12.3688 24.0296 12.3474C24.7749 12.2939 25.5132 12.1786 26.25 12.0576Z" fill="url(#paint5_linear_30_1353)"/>
<path d="M28.5172 15.2789C28.1677 15.1891 27.8125 15.1221 27.4568 15.0631C26.8316 14.9591 26.2035 14.8902 25.574 14.8213C25.6925 15.0611 25.8114 15.3006 25.9332 15.5386C25.6166 15.5234 25.3 15.5142 24.983 15.5138C24.5344 15.5071 24.0857 15.5274 23.6393 15.5747C23.9139 15.6509 24.1937 15.7088 24.4735 15.7605C25.203 15.8965 25.9416 15.9726 26.6803 16.0408C26.5541 15.7967 26.4282 15.5527 26.2987 15.3109C27.0366 15.3414 27.7804 15.352 28.5172 15.2789Z" fill="url(#paint6_linear_30_1353)"/>
<defs>
<linearGradient id="paint0_linear_30_1353" x1="15.1031" y1="12.4761" x2="15.1031" y2="14.0708" gradientUnits="userSpaceOnUse">
<stop stop-color="#F65D61"/>
<stop offset="0.505208" stop-color="#F16684"/>
<stop offset="1" stop-color="#FA9A64"/>
</linearGradient>
<linearGradient id="paint1_linear_30_1353" x1="11.2569" y1="3.93994" x2="11.2569" y2="27.2037" gradientUnits="userSpaceOnUse">
<stop stop-color="#F65D61"/>
<stop offset="0.505208" stop-color="#F16684"/>
<stop offset="1" stop-color="#FA9A64"/>
</linearGradient>
<linearGradient id="paint2_linear_30_1353" x1="18.1513" y1="0" x2="18.1513" y2="4.50267" gradientUnits="userSpaceOnUse">
<stop stop-color="#F65D61"/>
<stop offset="0.505208" stop-color="#F16684"/>
<stop offset="1" stop-color="#FA9A64"/>
</linearGradient>
<linearGradient id="paint3_linear_30_1353" x1="21.2939" y1="2.72021" x2="21.2939" y2="6.47244" gradientUnits="userSpaceOnUse">
<stop stop-color="#F65D61"/>
<stop offset="0.505208" stop-color="#F16684"/>
<stop offset="1" stop-color="#FA9A64"/>
</linearGradient>
<linearGradient id="paint4_linear_30_1353" x1="23.827" y1="6.66016" x2="23.827" y2="9.19291" gradientUnits="userSpaceOnUse">
<stop stop-color="#F65D61"/>
<stop offset="0.505208" stop-color="#F16684"/>
<stop offset="1" stop-color="#FA9A64"/>
</linearGradient>
<linearGradient id="paint5_linear_30_1353" x1="25.5156" y1="10.8816" x2="25.5156" y2="12.3825" gradientUnits="userSpaceOnUse">
<stop stop-color="#F65D61"/>
<stop offset="0.505208" stop-color="#F16684"/>
<stop offset="1" stop-color="#FA9A64"/>
</linearGradient>
<linearGradient id="paint6_linear_30_1353" x1="26.0782" y1="14.8213" x2="26.0782" y2="16.0408" gradientUnits="userSpaceOnUse">
<stop stop-color="#F65D61"/>
<stop offset="0.505208" stop-color="#F16684"/>
<stop offset="1" stop-color="#FA9A64"/>
</linearGradient>
</defs>
</svg>
