<svg width="39" height="31" viewBox="0 0 39 31" fill="none" xmlns="http://www.w3.org/2000/svg">
<path d="M39 3.68241C37.5658 4.28774 36.005 4.72339 34.3974 4.89306C36.0665 3.92287 37.3164 2.39013 37.9126 0.582415C36.3464 1.49402 34.6306 2.13326 32.8414 2.47176C32.0935 1.68955 31.1891 1.0664 30.1844 0.641147C29.1796 0.215896 28.0961 -0.00234694 27.0014 1.90329e-05C22.5723 1.90329e-05 19.0102 3.51274 19.0102 7.82339C19.0102 8.42871 19.0852 9.03404 19.2071 9.61643C12.5751 9.27708 6.66014 6.17709 2.7278 1.43079C2.01128 2.62821 1.6358 3.99162 1.64043 5.37916C1.64043 8.09395 3.0512 10.4877 5.2025 11.8956C3.9347 11.8467 2.69659 11.5058 1.58887 10.9005V10.9968C1.58887 14.7984 4.33542 17.9488 7.99591 18.6734C7.30862 18.8481 6.60158 18.9374 5.89148 18.9394C5.37123 18.9394 4.8791 18.8889 4.38229 18.8201C5.39466 21.9201 8.34275 24.1718 11.8533 24.2451C9.10672 26.35 5.66651 27.5882 1.93102 27.5882C1.26079 27.5882 0.64211 27.5652 0 27.4919C3.54332 29.716 7.74751 31 12.2751 31C26.9733 31 35.0161 19.0861 35.0161 8.74513C35.0161 8.40578 35.0161 8.06643 34.9927 7.72709C36.5487 6.61274 37.9126 5.23241 39 3.68241Z" fill="url(#paint0_linear_1_1529)"/>
<defs>
<linearGradient id="paint0_linear_1_1529" x1="19.5" y1="0" x2="19.5" y2="31" gradientUnits="userSpaceOnUse">
<stop stop-color="#F65D61"/>
<stop offset="0.505208" stop-color="#F16684"/>
<stop offset="1" stop-color="#FA9A64"/>
</linearGradient>
</defs>
</svg>
