<svg width="22" height="21" viewBox="0 0 22 21" fill="none" xmlns="http://www.w3.org/2000/svg">
<path d="M10.935 0.522351L10.9351 0.522302C10.9753 0.505126 11.0656 0.490418 11.1746 0.507667C11.2247 0.515587 11.2652 0.528353 11.2928 0.540854C11.2939 0.541357 11.295 0.54185 11.296 0.542331C11.3182 0.582436 11.3486 0.63864 11.3869 0.710451C11.4699 0.866048 11.5857 1.08698 11.7261 1.35765C12.0068 1.89857 12.3836 2.63352 12.7886 3.43166C13.1943 4.23118 13.5667 4.96166 13.8399 5.49457C13.9764 5.76091 14.0885 5.97848 14.1676 6.13083C14.2071 6.2068 14.2389 6.26769 14.2618 6.31066C14.273 6.33182 14.2831 6.35064 14.2913 6.36541C14.2952 6.37237 14.3003 6.38158 14.3058 6.39082C14.3083 6.39508 14.3133 6.40331 14.3195 6.41294C14.3226 6.41766 14.3283 6.42616 14.3357 6.43636L14.336 6.43673C14.3407 6.44307 14.3595 6.46877 14.388 6.49697C14.4461 6.55432 14.5045 6.58303 14.5187 6.59003L14.5193 6.59034C14.5421 6.60154 14.561 6.60872 14.571 6.61233C14.5914 6.61974 14.6084 6.62441 14.6159 6.62642C14.6328 6.63093 14.6482 6.63427 14.6575 6.63622C14.678 6.64051 14.7024 6.64501 14.7274 6.64941C14.7787 6.65845 14.8503 6.67018 14.9382 6.68408C15.1148 6.71201 15.3666 6.75017 15.6743 6.79572C16.2901 6.88689 17.1344 7.00836 18.0588 7.13817C19.2729 7.30867 20.1188 7.43173 20.6734 7.51936C20.9513 7.56327 21.1512 7.59754 21.2858 7.62381C21.3417 7.63473 21.3824 7.64351 21.4107 7.65026C21.4385 7.67508 21.4686 7.71697 21.4865 7.7763C21.5029 7.83047 21.5018 7.87448 21.4954 7.90426C21.4665 7.93475 21.4253 7.97702 21.3716 8.03102C21.2548 8.14844 21.0884 8.31215 20.8837 8.51093C20.4748 8.90802 19.9189 9.43961 19.315 10.0095C18.1085 11.148 17.0083 12.1912 16.8768 12.3218L16.6484 12.5485L16.4627 12.7329L16.5083 12.9905L17.0838 16.2412L17.5762 16.154L17.0838 16.2412C17.1022 16.3452 17.1201 16.4459 17.1374 16.5436C17.424 18.1618 17.5595 18.9268 17.5921 19.327C17.5999 19.4234 17.5997 19.4805 17.5982 19.5112C17.5861 19.5225 17.5692 19.5382 17.5461 19.5593C17.4937 19.6071 17.4307 19.6296 17.3616 19.6247C17.3571 19.6227 17.3521 19.6205 17.3466 19.618C17.3026 19.5983 17.2388 19.5686 17.1559 19.5292C16.9907 19.4505 16.7593 19.3377 16.4779 19.1986C15.9156 18.9206 15.1592 18.5406 14.3449 18.1258C13.5287 17.7099 12.7805 17.3317 12.2326 17.0572C11.9588 16.92 11.734 16.8083 11.5754 16.7306C11.4965 16.6919 11.432 16.6608 11.3855 16.6389C11.3628 16.6282 11.341 16.6181 11.3226 16.6101C11.3142 16.6064 11.3012 16.6008 11.287 16.5954C11.2804 16.5929 11.2671 16.5879 11.2506 16.5828C11.2423 16.5803 11.2279 16.5761 11.2097 16.5721C11.1972 16.5694 11.1558 16.5604 11.1019 16.5604C11.0479 16.5604 11.0062 16.5695 10.9939 16.5722C10.9757 16.5762 10.9612 16.5804 10.9531 16.5829C10.9365 16.588 10.9233 16.5929 10.9167 16.5955C10.9026 16.6009 10.8896 16.6064 10.8811 16.6101C10.8628 16.6182 10.841 16.6282 10.8181 16.639C10.7714 16.6609 10.7067 16.6922 10.6273 16.7311C10.468 16.8091 10.2421 16.9213 9.96696 17.059C9.41628 17.3346 8.66434 17.7145 7.84388 18.1321C6.76934 18.679 6.01393 19.0579 5.50995 19.3015C5.25738 19.4237 5.07279 19.5095 4.94489 19.565C4.88385 19.5915 4.84055 19.6089 4.81164 19.6196C4.80495 19.619 4.79671 19.6179 4.78692 19.6162C4.75984 19.6113 4.72909 19.6022 4.69872 19.5894C4.6681 19.5765 4.64419 19.5625 4.62859 19.551C4.62406 19.5477 4.62093 19.5451 4.61896 19.5434C4.60833 19.5276 4.60136 19.5169 4.59697 19.5101C4.59687 19.5089 4.59677 19.5077 4.59667 19.5063C4.59585 19.4951 4.5952 19.4783 4.59555 19.4539C4.59626 19.4041 4.60094 19.3323 4.61268 19.2271C4.66069 18.7965 4.80476 17.9826 5.10463 16.2888L5.11251 16.2442L5.68857 12.9901L5.73435 12.7315L5.54738 12.547L5.27094 12.2743L5.27093 12.2743C5.11373 12.1192 4.01487 11.0772 2.83416 9.96329C2.24356 9.40609 1.69973 8.88606 1.29956 8.49737C1.09923 8.30278 0.936342 8.14249 0.822053 8.02746C0.769871 7.97494 0.729735 7.93377 0.701515 7.90398C0.69524 7.87461 0.69398 7.83063 0.710389 7.77608C0.728077 7.71729 0.757389 7.67643 0.783737 7.65242C0.813189 7.6455 0.855362 7.63655 0.912874 7.62544C1.05056 7.59885 1.25413 7.56415 1.53439 7.51994C2.09367 7.43172 2.94028 7.30844 4.13697 7.14036C5.06172 7.01047 5.90635 6.88882 6.5224 6.79742C6.83018 6.75176 7.08214 6.71346 7.25889 6.68539C7.34683 6.67142 7.41859 6.6596 7.47007 6.65047C7.49508 6.64603 7.51972 6.64145 7.5405 6.63704C7.54989 6.63505 7.56572 6.63159 7.58299 6.62688C7.59069 6.62478 7.60815 6.6199 7.62916 6.61212C7.63939 6.60833 7.65882 6.6008 7.68206 6.58907L7.68257 6.58881C7.69721 6.58142 7.75614 6.55169 7.81419 6.49255L7.81466 6.49208C7.84105 6.46512 7.85856 6.44087 7.86296 6.43477L7.8632 6.43444C7.87023 6.42471 7.87557 6.41659 7.87851 6.41204C7.8845 6.40278 7.88922 6.39485 7.89167 6.39069C7.89698 6.38167 7.90202 6.37264 7.90585 6.36572C7.91394 6.35105 7.924 6.33231 7.93524 6.31114C7.95804 6.26819 7.98987 6.20729 8.02933 6.13128C8.10844 5.97885 8.22047 5.7612 8.357 5.49479C8.63015 4.96173 9.00252 4.23117 9.40822 3.43166C9.81323 2.63352 10.19 1.89858 10.4707 1.35768C10.6111 1.08701 10.7269 0.866088 10.8099 0.710496C10.8487 0.637794 10.8794 0.58109 10.9017 0.540893C10.9077 0.537072 10.9138 0.53346 10.9196 0.530249C10.9239 0.52784 10.9276 0.525927 10.9305 0.524501L10.9338 0.522896C10.9346 0.52252 10.935 0.522348 10.935 0.522351ZM11.267 0.491243C11.2638 0.486323 11.262 0.483321 11.2619 0.483046C11.2618 0.48277 11.2634 0.485231 11.267 0.491243ZM21.4496 7.66063C21.4495 7.66065 21.4476 7.6601 21.4443 7.65893C21.448 7.66003 21.4497 7.6606 21.4496 7.66063ZM21.528 7.869C21.5349 7.86034 21.5367 7.85893 21.5293 7.86751C21.529 7.86794 21.5285 7.86843 21.528 7.869ZM17.3984 19.64C17.3984 19.6401 17.396 19.6392 17.3907 19.6371C17.3956 19.6389 17.3984 19.64 17.3984 19.64ZM4.78415 19.6289C4.78419 19.6289 4.78499 19.6287 4.78648 19.6283L4.78415 19.6289ZM0.66793 7.86756C0.660864 7.85937 0.662675 7.86075 0.669267 7.86909C0.668747 7.8685 0.668302 7.86799 0.66793 7.86756ZM0.748375 7.66142C0.744985 7.66258 0.743066 7.66313 0.742957 7.66312C0.742848 7.6631 0.744542 7.66252 0.748375 7.66142ZM10.935 0.483097C10.9349 0.483368 10.9331 0.486373 10.9298 0.491299C10.9334 0.485289 10.935 0.482826 10.935 0.483097Z" stroke="url(#paint0_linear_897_17727)"/>
<defs>
<linearGradient id="paint0_linear_897_17727" x1="11.0985" y1="0" x2="11.0985" y2="20.1253" gradientUnits="userSpaceOnUse">
<stop stop-color="#F65D61"/>
<stop offset="0.505208" stop-color="#F16684"/>
<stop offset="1" stop-color="#FA9A64"/>
</linearGradient>
</defs>
</svg>
