<svg width="191" height="34" viewBox="0 0 191 34" fill="none" xmlns="http://www.w3.org/2000/svg">
<path d="M49.4087 24.2933C48.2985 24.3081 47.2033 24.0361 46.2291 23.5036C45.2948 22.994 44.5173 22.239 43.9807 21.32C43.4343 20.3791 43.1522 19.308 43.1644 18.22V9.12915H46.8656V18.1552C46.8565 18.4931 46.9164 18.8294 47.0415 19.1436C47.1666 19.4577 47.3544 19.743 47.5935 19.9822C47.8308 20.2202 48.1142 20.4072 48.4263 20.5319C48.7384 20.6565 49.0727 20.7161 49.4087 20.7071C49.746 20.7166 50.0818 20.6573 50.3954 20.5326C50.7091 20.408 50.994 20.2207 51.2327 19.9822C51.4723 19.7434 51.6605 19.4581 51.7856 19.1439C51.9108 18.8297 51.9704 18.4932 51.9606 18.1552V9.12915H55.6735V18.22C55.6862 19.3084 55.403 20.3799 54.8543 21.32C54.319 22.2411 53.54 22.9967 52.603 23.5036C51.6236 24.0365 50.5236 24.3085 49.4087 24.2933Z" fill="#333333"/>
<path d="M67.4226 9.12915H71.1356V24.031H67.4226L61.8237 15.6239V24.031H58.1167V9.12915H61.8267L67.4256 17.554L67.4226 9.12915Z" fill="#333333"/>
<path d="M86.995 12.7566C88.2326 12.7566 89.2149 13.1259 89.9418 13.8646C90.6686 14.6032 91.036 15.5855 91.0439 16.8114V24.0251H87.5667V17.8663C87.5778 17.6374 87.5434 17.4087 87.4655 17.1932C87.3876 16.9777 87.2678 16.7798 87.1129 16.611C86.9559 16.4509 86.7668 16.3259 86.5581 16.2441C86.3493 16.1623 86.1257 16.1257 85.9017 16.1365C85.6643 16.127 85.4274 16.1653 85.2051 16.2494C84.9828 16.3334 84.7798 16.4614 84.6081 16.6257C84.4407 16.7933 84.3099 16.9937 84.2237 17.2143C84.1374 17.4349 84.0978 17.6709 84.1071 17.9076V24.0251H80.6064V17.8663C80.6175 17.6374 80.5831 17.4087 80.5052 17.1932C80.4273 16.9777 80.3074 16.7798 80.1526 16.611C79.9949 16.451 79.8053 16.326 79.5961 16.2443C79.3869 16.1625 79.1628 16.1258 78.9385 16.1365C78.6998 16.1279 78.4618 16.1667 78.2383 16.2507C78.0147 16.3347 77.81 16.4621 77.636 16.6257C77.4663 16.792 77.3333 16.992 77.2455 17.2127C77.1577 17.4335 77.1171 17.6702 77.1262 17.9076V24.0251H73.6343V13.013H77.1262V13.9412C77.5229 13.5537 77.9933 13.2497 78.5096 13.0472C79.0259 12.8448 79.5776 12.7479 80.1319 12.7625C81.5876 12.7625 82.6809 13.2929 83.4117 14.3537C83.8499 13.8346 84.3999 13.4213 85.0204 13.1447C85.6409 12.8681 86.316 12.7354 86.995 12.7566Z" fill="#333333"/>
<path d="M104.272 18.5878C104.279 18.9199 104.252 19.2517 104.189 19.5779H96.3302C96.494 20.0883 96.8225 20.5299 97.2644 20.8333C97.7263 21.1432 98.2731 21.3018 98.8291 21.2871C99.327 21.2916 99.8196 21.1839 100.27 20.9718C100.673 20.7911 101.037 20.5328 101.34 20.2115L103.65 22.2153C103.044 22.8748 102.303 23.3963 101.478 23.7447C100.608 24.114 99.6713 24.3005 98.726 24.2928C97.9188 24.3171 97.1148 24.182 96.3599 23.8953C95.605 23.6086 94.914 23.1759 94.3264 22.622C93.7541 22.093 93.3006 21.4486 92.9958 20.7313C92.691 20.0141 92.5419 19.2403 92.5584 18.4611C92.5475 17.4432 92.8123 16.4412 93.3245 15.5615C93.8273 14.6939 94.558 13.9806 95.4374 13.4987C96.355 12.9947 97.3874 12.7369 98.4342 12.7502C99.2278 12.7448 100.015 12.895 100.75 13.1923C101.446 13.4695 102.079 13.8822 102.613 14.4063C103.139 14.935 103.553 15.5645 103.83 16.2569C104.129 16.9973 104.279 17.7893 104.272 18.5878ZM98.4195 15.7412C97.9463 15.7335 97.4854 15.892 97.117 16.1891C96.7276 16.5057 96.4456 16.9349 96.3096 17.418H100.55C100.418 16.9364 100.137 16.5087 99.7485 16.195C99.3722 15.893 98.902 15.7324 98.4195 15.7412Z" fill="#333333"/>
<path d="M113.69 8.47485H117.193V24.0309H113.69V23.1233C112.859 23.9001 111.759 24.3229 110.622 24.302C109.672 24.3123 108.738 24.0505 107.932 23.5477C107.122 23.0468 106.466 22.3333 106.034 21.4849C105.568 20.5732 105.333 19.5616 105.347 18.5381C105.333 17.5146 105.569 16.503 106.034 15.5913C106.466 14.743 107.122 14.0294 107.932 13.5286C108.738 13.0257 109.672 12.7639 110.622 12.7742C111.759 12.7534 112.859 13.1761 113.69 13.9529V8.47485ZM109.626 20.2237C109.846 20.4465 110.11 20.6214 110.401 20.7375C110.692 20.8536 111.004 20.9084 111.317 20.8985C111.631 20.9078 111.944 20.8527 112.236 20.7367C112.528 20.6206 112.793 20.446 113.015 20.2237C113.237 20.0018 113.412 19.7367 113.528 19.4448C113.644 19.1529 113.699 18.8403 113.69 18.5263C113.699 18.211 113.644 17.8971 113.528 17.6038C113.412 17.3104 113.237 17.0438 113.015 16.8201C112.793 16.5974 112.528 16.4224 112.236 16.3058C111.944 16.1892 111.632 16.1336 111.317 16.1424C111.004 16.133 110.692 16.1884 110.401 16.305C110.11 16.4216 109.846 16.597 109.626 16.8201C109.405 17.0443 109.231 17.3111 109.115 17.6044C109 17.8977 108.945 18.2113 108.954 18.5263C108.945 18.8401 109 19.1524 109.115 19.4442C109.231 19.736 109.405 20.0012 109.626 20.2237Z" fill="#333333"/>
<path d="M121.263 11.8277C120.982 11.8353 120.702 11.7853 120.441 11.6809C120.181 11.5765 119.944 11.4199 119.745 11.2207C119.545 11.0246 119.386 10.789 119.281 10.5289C119.175 10.2687 119.125 9.98959 119.132 9.70898C119.123 9.42464 119.173 9.14147 119.278 8.87726C119.384 8.61304 119.543 8.37351 119.745 8.17371C119.944 7.97447 120.181 7.81784 120.441 7.71346C120.702 7.60907 120.982 7.55912 121.263 7.56667C121.547 7.55791 121.829 7.60723 122.093 7.71162C122.357 7.81601 122.597 7.97326 122.798 8.17371C122.999 8.37475 123.156 8.61464 123.26 8.87865C123.365 9.14266 123.414 9.42522 123.405 9.70898C123.412 9.98897 123.362 10.2674 123.257 10.5273C123.153 10.7872 122.997 11.0231 122.798 11.2207C122.597 11.4211 122.357 11.5784 122.093 11.6828C121.829 11.7871 121.547 11.8365 121.263 11.8277ZM119.524 24.0303V13.0182H123.013V24.0303H119.524Z" fill="#333333"/>
<path d="M133.13 13.0185H136.631V24.0307H133.13V23.1231C132.298 23.8998 131.197 24.3225 130.059 24.3018C129.107 24.3105 128.173 24.0467 127.366 23.5415C126.556 23.0407 125.9 22.3271 125.468 21.4788C125.003 20.5669 124.769 19.5553 124.784 18.532C124.769 17.5087 125.004 16.4971 125.468 15.5852C125.9 14.7368 126.556 14.0233 127.366 13.5224C128.172 13.0198 129.106 12.7581 130.056 12.7681C131.194 12.7474 132.295 13.1701 133.127 13.9468L133.13 13.0185ZM129.063 20.2234C129.284 20.4446 129.549 20.6179 129.84 20.7325C130.131 20.847 130.442 20.9005 130.755 20.8894C131.069 20.8989 131.382 20.844 131.675 20.7279C131.967 20.6119 132.233 20.4372 132.455 20.2146C132.677 19.9923 132.851 19.7271 132.967 19.4353C133.083 19.1435 133.138 18.8311 133.13 18.5172C133.138 18.202 133.083 17.8883 132.967 17.595C132.851 17.3018 132.677 17.0351 132.455 16.811C132.233 16.5879 131.967 16.4127 131.675 16.2961C131.383 16.1795 131.069 16.1241 130.755 16.1333C130.441 16.1239 130.129 16.1793 129.838 16.2959C129.547 16.4125 129.283 16.5879 129.063 16.811C128.842 17.0354 128.669 17.3023 128.554 17.5955C128.439 17.8888 128.384 18.2024 128.394 18.5172C128.383 18.8322 128.437 19.1461 128.552 19.4396C128.667 19.733 128.841 19.9998 129.063 20.2234Z" fill="#333333"/>
<path d="M155.54 12.9448C155.434 13.6604 155.147 14.3371 154.706 14.9103C154.302 15.4689 153.761 15.9144 153.135 16.204C153.511 16.3071 153.862 16.486 154.166 16.7298C154.47 16.9735 154.721 17.277 154.904 17.6214C155.311 18.377 155.45 19.249 155.295 20.0937C155.15 21.2166 154.588 22.2436 153.719 22.9698C152.87 23.7158 151.776 24.1228 150.645 24.1131H143.676L145.774 9.21124H152.207C152.691 9.18682 153.174 9.26891 153.623 9.4517C154.071 9.63449 154.474 9.91354 154.803 10.2691C155.119 10.6312 155.349 11.0598 155.477 11.523C155.604 11.9862 155.626 12.4721 155.54 12.9448ZM153.315 19.7666C153.377 19.4513 153.368 19.126 153.287 18.8148C153.207 18.5036 153.057 18.2146 152.85 17.9691C152.639 17.7288 152.377 17.539 152.084 17.414C151.79 17.289 151.471 17.2319 151.152 17.2471H146.576L145.857 22.3215H150.436C151.143 22.3246 151.825 22.0604 152.346 21.5818C152.885 21.1194 153.231 20.4717 153.315 19.7666ZM153.442 13.2837C153.493 12.9982 153.482 12.705 153.409 12.4242C153.337 12.1434 153.204 11.8817 153.021 11.6571C152.832 11.4422 152.597 11.2728 152.334 11.1616C152.071 11.0503 151.785 11.0001 151.5 11.0147H147.439L146.815 15.538H150.875C151.501 15.5374 152.104 15.3043 152.567 14.8838C153.052 14.4763 153.364 13.9004 153.442 13.2719V13.2837Z" fill="#333333"/>
<path d="M160.898 23.9343C159.401 23.9343 158.258 23.511 157.47 22.6642C156.684 21.8156 156.386 20.6987 156.586 19.3049L157.506 12.6599H159.362L158.461 19.0574C158.343 19.9846 158.529 20.7321 159.02 21.2999C159.512 21.8676 160.226 22.1505 161.163 22.1486C162.036 22.173 162.888 21.8703 163.55 21.2999C164.205 20.7261 164.618 19.9244 164.705 19.0574L165.633 12.6658H167.49L166.541 19.3108C166.386 20.6271 165.725 21.8316 164.699 22.6701C163.623 23.5318 162.275 23.9802 160.898 23.9343Z" fill="#333333"/>
<path d="M179.488 12.6599L179.279 13.9889L172.044 21.8804H178.33L178.085 23.672H169.186L169.407 22.3313L176.621 14.4545H170.568L170.83 12.6599H179.488Z" fill="#333333"/>
<path d="M191 12.6599L190.788 13.9889L183.568 21.8804H189.854L189.612 23.672H180.695L180.916 22.3313L188.13 14.4545H182.077L182.34 12.6599H191Z" fill="#333333"/>
<path d="M18.2997 3.93959C19.2231 3.56073 20.1025 3.0825 20.9224 2.51335C19.1973 1.19919 17.1716 0.336238 15.0288 0.00268555C16.3074 1.14643 17.4096 2.4731 18.2997 3.93959Z" fill="url(#paint0_linear_391_1855)"/>
<path d="M13.7378 0.757324V4.97712C14.8176 4.91783 15.8868 4.73189 16.9233 4.42312C16.0532 3.04695 14.9791 1.81091 13.7378 0.757324Z" fill="url(#paint1_linear_391_1855)"/>
<path d="M7.06049 5.19775C5.98052 4.7413 4.95625 4.16293 4.00763 3.47388C1.61893 5.75814 0.186539 8.8641 0 12.1639H5.27769C5.37864 9.74281 5.98597 7.36972 7.06049 5.19775Z" fill="url(#paint2_linear_391_1855)"/>
<path d="M9.12598 4.42314C10.1624 4.73191 11.2316 4.91785 12.3114 4.97714V0.754395C11.0715 1.81052 9.99767 3.0473 9.12598 4.42314Z" fill="url(#paint3_linear_391_1855)"/>
<path d="M6.70703 12.1642H12.3059V6.40622C10.978 6.34168 9.66423 6.10291 8.39849 5.69604C7.38298 7.708 6.80644 9.91272 6.70703 12.1642Z" fill="url(#paint4_linear_391_1855)"/>
<path d="M11.0093 -0.000244141C8.86667 0.335741 6.84131 1.19956 5.11572 2.51336C5.93523 3.08311 6.81469 3.56138 7.73836 3.9396C8.62911 2.4727 9.73128 1.14515 11.0093 -0.000244141Z" fill="url(#paint5_linear_391_1855)"/>
<path d="M2.55192 19.3126C2.96741 18.9914 3.40354 18.6937 3.82787 18.3814L5.37198 17.2439L5.75802 16.9492C5.48588 15.8444 5.32496 14.715 5.27769 13.5781H0C0.115294 15.7673 0.786682 17.891 1.95077 19.7487C2.1482 19.6102 2.35153 19.4687 2.55192 19.3126Z" fill="url(#paint6_linear_391_1855)"/>
<path d="M7.23452 15.8799C7.68243 15.5617 8.11856 15.2228 8.56058 14.9016C9.14993 14.4675 9.73929 14.0323 10.3286 13.5962H6.7041C6.73711 14.418 6.83565 15.2359 6.99878 16.042L7.23452 15.8799Z" fill="url(#paint7_linear_391_1855)"/>
<path d="M17.0824 8.41887C17.5008 8.08883 17.9281 7.72638 18.3672 7.35803C18.1578 6.7905 17.9158 6.23558 17.6423 5.69604C16.3775 6.10289 15.0648 6.34166 13.7378 6.40622V11.0209C14.8576 10.1604 15.9773 9.29701 17.0824 8.41887Z" fill="url(#paint8_linear_391_1855)"/>
<path d="M23.2267 4.42274C22.8893 4.04312 22.4909 3.72243 22.048 3.47388C21.1004 4.16291 20.0771 4.74129 18.998 5.19775C19.1984 5.62503 19.3664 6.03758 19.5078 6.43245C20.6482 5.53073 21.8712 4.72921 23.2267 4.42274Z" fill="url(#paint9_linear_391_1855)"/>
<path d="M29.2173 18.7765C28.6279 19.0004 27.794 18.2814 27.3726 17.1646C26.9512 16.0477 27.0986 14.9633 27.6968 14.7364C27.827 14.6976 27.9646 14.6901 28.0983 14.7147C28.232 14.7393 28.358 14.7952 28.4659 14.8779C27.2695 12.8299 25.5751 11.66 24.2785 12.1491C22.6754 12.7385 22.2894 15.6676 23.418 18.6556C24.5466 21.6437 26.7567 23.5797 28.3598 22.9756C29.6564 22.4865 30.1573 20.4885 29.7065 18.1606C29.678 18.294 29.619 18.4191 29.5341 18.5259C29.4493 18.6328 29.3408 18.7185 29.2173 18.7765Z" fill="url(#paint10_linear_391_1855)"/>
<path d="M34.1562 19.7811C34.0458 18.922 33.8815 18.0707 33.6641 17.2322C33.4499 16.411 33.226 15.6812 32.9922 15.0427C32.7594 14.4033 32.4618 13.7049 32.1082 12.9417C31.7347 12.1606 31.3124 11.4037 30.844 10.6756C30.3675 9.92962 29.8346 9.2213 29.2498 8.55685C28.6976 7.92343 28.0599 7.37002 27.355 6.91255C26.6948 6.48784 25.9565 6.1993 25.1832 6.06387C22.1274 5.5364 19.6727 8.17377 17.4951 9.89469C14.843 11.9889 12.1555 14.03 9.43267 16.0181C9.01128 16.3128 8.60463 16.6428 8.18029 16.9434L6.41222 18.24L4.93883 19.3156C4.54101 19.6102 4.12846 19.9049 3.7336 20.1996C3.33642 20.4651 2.96717 20.7702 2.6315 21.1101C2.09729 21.793 1.82828 22.646 1.87418 23.5118C1.87675 23.9843 1.9281 24.4554 2.02741 24.9174C2.1226 25.3505 2.24664 25.7768 2.3987 26.1933C2.55354 26.6158 2.73666 27.0273 2.94681 27.4251C3.16222 27.846 3.42416 28.2413 3.7277 28.6038C4.32075 29.3551 5.18336 29.8456 6.13228 29.9711C6.53241 29.9986 6.93432 29.9848 7.33162 29.9299C7.7589 29.8857 8.18619 29.8503 8.61642 29.8297C9.14684 29.8061 9.67431 29.7766 10.2018 29.7442C10.518 30.4593 10.9692 31.1067 11.5308 31.6508C12.0731 32.1744 12.7049 32.5966 13.3961 32.8973C14.0868 33.1963 14.8275 33.3632 15.5797 33.3894C16.3629 33.4197 17.1443 33.2935 17.8782 33.0181C18.7762 32.6938 19.5843 32.1604 20.2356 31.4622C20.8948 30.7643 21.3751 29.9169 21.6353 28.9928C21.6648 28.8955 24.5674 28.8602 25.5987 28.8425C26.6301 28.8248 27.6615 28.8779 28.6752 28.7924C30.6407 28.6303 32.4618 27.7434 33.4431 25.9753C33.6311 25.6337 33.7851 25.2744 33.9028 24.9027C34.1512 24.0985 34.2831 23.263 34.2947 22.4215C34.3148 21.5391 34.2685 20.6565 34.1562 19.7811ZM18.553 29.9299C18.4767 30.2058 18.3563 30.4675 18.1964 30.7049C18.0321 30.9412 17.8335 31.1518 17.6071 31.3296C17.3834 31.5124 17.1317 31.6577 16.8615 31.7598C16.518 31.8876 16.1518 31.9428 15.7859 31.9219C15.4299 31.9031 15.0807 31.8161 14.7575 31.6655C14.4348 31.5146 14.1438 31.3036 13.9 31.0438C13.6474 30.7777 13.4518 30.4628 13.3254 30.1185C13.2442 29.8905 13.1947 29.6526 13.178 29.4112L18.662 29.0517C18.6709 29.3483 18.6341 29.6445 18.553 29.9299ZM6.99863 28.5685C6.62415 28.554 6.25468 28.4773 5.90538 28.3416C4.86222 27.7286 3.10299 25.1649 3.58331 22.5953C3.69274 22.1859 3.92771 21.8211 4.25518 21.5522L18.4174 11.5125C18.4174 11.5125 17.8281 22.2535 24.7294 27.1923L6.99863 28.5685ZM30.8116 25.9989C29.904 26.7267 28.5514 27.1569 27.4022 26.8181C26.8129 26.6387 26.265 26.3442 25.7903 25.9517C25.2497 25.5124 24.7648 25.0087 24.3463 24.4518C23.8991 23.8686 23.4897 23.2574 23.1205 22.6218C22.7551 21.9942 22.4368 21.3783 22.1628 20.7801C21.8887 20.1819 21.6736 19.6662 21.5145 19.2301C21.3554 18.794 21.1874 18.2606 21.0106 17.627C20.8338 16.9935 20.6835 16.3187 20.5597 15.5997C20.4328 14.8767 20.3521 14.1464 20.3181 13.4132C20.2801 12.7166 20.3266 12.0181 20.4566 11.3327C20.5459 10.8614 20.7038 10.4057 20.9251 9.98014C21.1365 9.57699 21.4393 9.22885 21.8092 8.96351C23.5065 7.71996 25.8227 8.06179 27.3108 9.47625C29.459 11.5184 30.847 14.4858 31.6072 17.3176C31.9253 18.495 32.1471 19.6964 32.2702 20.9098C32.4795 22.7014 32.3292 24.7818 30.8116 25.9989Z" fill="url(#paint11_linear_391_1855)"/>
<defs>
<linearGradient id="paint0_linear_391_1855" x1="17.9756" y1="0.00268555" x2="17.9756" y2="3.93959" gradientUnits="userSpaceOnUse">
<stop stop-color="#F65D61"/>
<stop offset="0.505208" stop-color="#F16684"/>
<stop offset="1" stop-color="#FA9A64"/>
</linearGradient>
<linearGradient id="paint1_linear_391_1855" x1="15.3305" y1="0.757324" x2="15.3305" y2="4.97712" gradientUnits="userSpaceOnUse">
<stop stop-color="#F65D61"/>
<stop offset="0.505208" stop-color="#F16684"/>
<stop offset="1" stop-color="#FA9A64"/>
</linearGradient>
<linearGradient id="paint2_linear_391_1855" x1="3.53025" y1="3.47388" x2="3.53025" y2="12.1639" gradientUnits="userSpaceOnUse">
<stop stop-color="#F65D61"/>
<stop offset="0.505208" stop-color="#F16684"/>
<stop offset="1" stop-color="#FA9A64"/>
</linearGradient>
<linearGradient id="paint3_linear_391_1855" x1="10.7187" y1="0.754395" x2="10.7187" y2="4.97714" gradientUnits="userSpaceOnUse">
<stop stop-color="#F65D61"/>
<stop offset="0.505208" stop-color="#F16684"/>
<stop offset="1" stop-color="#FA9A64"/>
</linearGradient>
<linearGradient id="paint4_linear_391_1855" x1="9.50648" y1="5.69604" x2="9.50648" y2="12.1642" gradientUnits="userSpaceOnUse">
<stop stop-color="#F65D61"/>
<stop offset="0.505208" stop-color="#F16684"/>
<stop offset="1" stop-color="#FA9A64"/>
</linearGradient>
<linearGradient id="paint5_linear_391_1855" x1="8.06251" y1="-0.000244141" x2="8.06251" y2="3.9396" gradientUnits="userSpaceOnUse">
<stop stop-color="#F65D61"/>
<stop offset="0.505208" stop-color="#F16684"/>
<stop offset="1" stop-color="#FA9A64"/>
</linearGradient>
<linearGradient id="paint6_linear_391_1855" x1="2.87901" y1="13.5781" x2="2.87901" y2="19.7487" gradientUnits="userSpaceOnUse">
<stop stop-color="#F65D61"/>
<stop offset="0.505208" stop-color="#F16684"/>
<stop offset="1" stop-color="#FA9A64"/>
</linearGradient>
<linearGradient id="paint7_linear_391_1855" x1="8.51637" y1="13.5962" x2="8.51637" y2="16.042" gradientUnits="userSpaceOnUse">
<stop stop-color="#F65D61"/>
<stop offset="0.505208" stop-color="#F16684"/>
<stop offset="1" stop-color="#FA9A64"/>
</linearGradient>
<linearGradient id="paint8_linear_391_1855" x1="16.0525" y1="5.69604" x2="16.0525" y2="11.0209" gradientUnits="userSpaceOnUse">
<stop stop-color="#F65D61"/>
<stop offset="0.505208" stop-color="#F16684"/>
<stop offset="1" stop-color="#FA9A64"/>
</linearGradient>
<linearGradient id="paint9_linear_391_1855" x1="21.1124" y1="3.47388" x2="21.1124" y2="6.43245" gradientUnits="userSpaceOnUse">
<stop stop-color="#F65D61"/>
<stop offset="0.505208" stop-color="#F16684"/>
<stop offset="1" stop-color="#FA9A64"/>
</linearGradient>
<linearGradient id="paint10_linear_391_1855" x1="26.3199" y1="12.0383" x2="26.3199" y2="23.086" gradientUnits="userSpaceOnUse">
<stop stop-color="#F65D61"/>
<stop offset="0.505208" stop-color="#F16684"/>
<stop offset="1" stop-color="#FA9A64"/>
</linearGradient>
<linearGradient id="paint11_linear_391_1855" x1="18.0842" y1="5.99536" x2="18.0842" y2="33.3938" gradientUnits="userSpaceOnUse">
<stop stop-color="#F65D61"/>
<stop offset="0.505208" stop-color="#F16684"/>
<stop offset="1" stop-color="#FA9A64"/>
</linearGradient>
</defs>
</svg>
