<svg width="77" height="20" viewBox="0 0 77 20" fill="none" xmlns="http://www.w3.org/2000/svg">
<path d="M0.58995 7.90764C21.6603 23.0141 49.8957 22.7921 71.0782 8.37307L72.805 11.0503C72.907 11.2175 73.0532 11.353 73.2276 11.4422C73.4019 11.5313 73.5978 11.5707 73.7937 11.5559C73.8392 12.0845 74.7229 12.1524 74.863 11.5955C75.2995 9.7985 75.7202 8.00153 76.1093 6.19678C76.2858 5.37536 76.8628 4.0198 76.4081 3.15325C75.9534 2.28671 74.758 2.22383 73.9655 2.02537C72.031 1.53236 70.0952 1.04068 68.158 0.550309C67.9664 0.50641 67.7658 0.518615 67.5802 0.585467C67.3945 0.65232 67.2316 0.770998 67.1109 0.927369C66.9902 1.08374 66.9167 1.2712 66.8992 1.46743C66.8817 1.66366 66.921 1.86039 67.0124 2.03415L69.7594 6.3652C49.3942 20.6669 21.869 20.9179 1.24515 6.75702C0.540438 6.28992 -0.0870649 7.42071 0.58995 7.90764Z" fill="#9B6160"/>
</svg>
