<svg width="23" height="19" viewBox="0 0 23 19" fill="none" xmlns="http://www.w3.org/2000/svg">
<g clip-path="url(#clip0_1_893)">
<path d="M21.9369 2.71496C21.7238 2.52802 21.4445 2.4237 21.1542 2.42265C20.7747 2.42265 20.3952 2.42265 20.014 2.42265C19.7903 2.42265 19.7666 2.39856 19.7632 2.18976C19.7632 1.82839 19.7632 1.46862 19.7632 1.10885C19.7671 0.97216 19.742 0.836123 19.6893 0.708808C19.6367 0.581494 19.5576 0.465494 19.4568 0.367685C19.356 0.269876 19.2355 0.19225 19.1025 0.139409C18.9694 0.0865671 18.8266 0.059586 18.6823 0.0600649C18.6044 0.0600649 18.5248 0.0600649 18.4468 0.0600649H1.42677C1.32511 0.0600649 1.22515 0.0600649 1.1252 0.0600649C0.989416 0.0606575 0.855201 0.0876024 0.730824 0.139239C0.606447 0.190876 0.49454 0.26611 0.402002 0.360307C0.309463 0.454504 0.238254 0.565667 0.192759 0.686946C0.147263 0.808226 0.128444 0.937053 0.137467 1.06549C0.137467 6.15257 0.137467 11.2386 0.137467 16.3235C0.125333 16.5824 0.169152 16.8409 0.266229 17.0832C0.463368 17.551 0.806927 17.9503 1.25068 18.2274C1.69442 18.5045 2.21706 18.6461 2.74825 18.6331H15.6988C17.0254 18.6331 18.352 18.6331 19.6785 18.6331C20.0109 18.6331 20.34 18.571 20.647 18.4503C20.954 18.3295 21.2328 18.1526 21.4676 17.9296C21.8922 17.5663 22.1511 17.0605 22.1893 16.5195V3.25943C22.1767 3.05514 22.0871 2.86194 21.9369 2.71496ZM21.1965 3.6449V16.0665C21.1965 16.831 20.7865 17.3755 20.0631 17.557C19.9037 17.5953 19.7396 17.6137 19.5752 17.6116H2.77366C1.78255 17.6116 1.1523 17.0077 1.1523 16.0649C1.1523 11.1395 1.1523 6.21039 1.1523 1.27749C1.1523 1.08797 1.2099 1.05906 1.39118 1.05906C4.23859 1.06549 7.08543 1.06549 9.93171 1.05906C12.778 1.05264 15.6231 1.05478 18.4672 1.06549C18.6722 1.06549 18.706 1.12491 18.706 1.30159C18.706 5.99356 18.706 10.685 18.706 15.3759C18.706 15.9075 18.9178 16.3091 19.4244 16.5532C19.6092 16.6462 19.8206 16.6805 20.0275 16.6512C20.1388 16.6382 20.2415 16.5881 20.3173 16.5098C20.3931 16.4315 20.4369 16.3301 20.4409 16.2239C20.4509 16.114 20.4182 16.0043 20.349 15.9156C20.2797 15.8269 20.1787 15.7652 20.0648 15.7421C19.7124 15.6618 19.7022 15.6489 19.7022 15.3068C19.7022 11.4243 19.7022 7.54185 19.7022 3.65935C19.7022 3.48108 19.7361 3.41362 19.9428 3.42326C20.3139 3.44253 20.6883 3.43289 21.061 3.42326C21.1711 3.42326 21.2304 3.44895 21.2067 3.55977C21.2015 3.58792 21.1981 3.61635 21.1965 3.6449Z" fill="white"/>
<path d="M9.92999 2.9621H16.0834C16.4561 2.9621 16.6543 3.09862 16.6916 3.37487C16.7108 3.48611 16.6843 3.60011 16.6175 3.69334C16.5506 3.78658 16.4486 3.85195 16.3324 3.87598C16.242 3.89651 16.1493 3.90676 16.0563 3.90649C11.9687 3.90649 7.88113 3.90649 3.79355 3.90649C3.40219 3.90649 3.18363 3.75552 3.15991 3.47124C3.15288 3.412 3.15834 3.35203 3.17597 3.29481C3.19361 3.23759 3.22306 3.18426 3.26263 3.13793C3.3022 3.0916 3.3511 3.05319 3.40647 3.02494C3.46184 2.99668 3.52258 2.97914 3.58516 2.97334C3.67069 2.96475 3.75668 2.961 3.84268 2.9621H9.92999Z" fill="white"/>
<path d="M13.703 7.68404C14.5044 7.68404 15.3074 7.68404 16.1088 7.68404C16.529 7.68404 16.7594 7.92495 16.6831 8.26224C16.6675 8.34635 16.6253 8.42397 16.5621 8.48479C16.4988 8.54561 16.4175 8.58674 16.329 8.60273C16.2383 8.6215 16.1457 8.63065 16.0529 8.63003H11.326C10.9313 8.63003 10.7178 8.48388 10.6873 8.19799C10.6735 8.08289 10.7067 7.96712 10.7801 7.87451C10.8535 7.7819 10.9616 7.71948 11.0821 7.7001C11.2505 7.67885 11.4206 7.6724 11.5903 7.68082L13.703 7.68404Z" fill="white"/>
<path d="M13.6844 10.9942C12.8898 10.9942 12.0935 10.9942 11.2989 10.9942C10.9228 10.9942 10.711 10.8335 10.6856 10.5605C10.6751 10.4495 10.7085 10.3387 10.7792 10.2497C10.85 10.1607 10.9531 10.0997 11.0685 10.0787C11.1448 10.0629 11.2226 10.0543 11.3006 10.053H16.0953C16.5103 10.053 16.7424 10.273 16.6916 10.5991C16.6792 10.6937 16.6349 10.782 16.5653 10.8508C16.4957 10.9197 16.4045 10.9655 16.3053 10.9813C16.1495 11.0038 15.9916 11.0102 15.8343 11.0006L13.6844 10.9942Z" fill="white"/>
<path d="M13.7132 5.32314C14.5163 5.32314 15.3176 5.32314 16.1207 5.32314C16.5256 5.32314 16.7526 5.55924 16.6849 5.8901C16.6654 5.99083 16.6103 6.08227 16.5287 6.1494C16.4471 6.21653 16.3438 6.25536 16.2359 6.2595C16.129 6.26993 16.0214 6.27315 15.914 6.26914C14.3813 6.26914 12.8486 6.26914 11.3159 6.26914C10.955 6.26914 10.7467 6.13904 10.6975 5.88849C10.6814 5.82575 10.6797 5.76046 10.6926 5.69706C10.7055 5.63366 10.7327 5.57363 10.7722 5.52105C10.8117 5.46848 10.8628 5.4246 10.9218 5.39239C10.9808 5.36017 11.0465 5.34039 11.1143 5.33438C11.1997 5.32447 11.2858 5.32018 11.3718 5.32153L13.7132 5.32314Z" fill="white"/>
<path d="M13.6928 13.3552C12.883 13.3552 12.0732 13.3552 11.265 13.3552C10.8754 13.3552 10.65 13.1416 10.689 12.8316C10.6965 12.7363 10.7369 12.6459 10.8039 12.5745C10.871 12.5031 10.961 12.4546 11.06 12.4365C11.1576 12.414 11.2579 12.4043 11.3582 12.4076C12.9112 12.4076 14.4654 12.4076 16.0207 12.4076C16.1209 12.4047 16.2211 12.4139 16.3189 12.4349C16.4311 12.458 16.5311 12.5182 16.6009 12.6046C16.6708 12.6911 16.7059 12.7983 16.7001 12.9071C16.6964 13.0131 16.6535 13.1145 16.5788 13.1935C16.5042 13.2726 16.4025 13.3241 16.2918 13.3391C16.2065 13.3515 16.1204 13.3574 16.0342 13.3568L13.6928 13.3552Z" fill="white"/>
<path d="M13.6929 15.7161C12.8763 15.7161 12.0597 15.7161 11.243 15.7161C10.8432 15.7161 10.6213 15.4656 10.6992 15.1331C10.7291 15.0237 10.7985 14.9277 10.8955 14.862C10.9924 14.7962 11.1106 14.7648 11.2295 14.7733C11.3989 14.7733 11.5683 14.7733 11.7378 14.7733C13.1699 14.7733 14.6021 14.7733 16.0343 14.7733C16.1634 14.7671 16.2925 14.7857 16.4138 14.8279C16.508 14.8694 16.5853 14.9389 16.6339 15.0259C16.6825 15.1129 16.6998 15.2126 16.6832 15.3098C16.6734 15.4083 16.6287 15.5009 16.5565 15.5723C16.4842 15.6438 16.3885 15.6899 16.285 15.7033C16.1997 15.714 16.1136 15.7183 16.0275 15.7161H13.6929Z" fill="white"/>
<path d="M6.15703 13.3554H3.77158C3.66452 13.3691 3.55557 13.3533 3.45766 13.3101C3.35975 13.2668 3.27701 13.1978 3.21926 13.1112C3.18337 13.0508 3.16217 12.9835 3.15721 12.9143C3.15225 12.8451 3.16367 12.7757 3.19062 12.7112C3.21757 12.6467 3.25938 12.5887 3.313 12.5415C3.36661 12.4943 3.43067 12.459 3.5005 12.4383C3.58331 12.4166 3.66874 12.4053 3.75464 12.4045C5.35849 12.4045 6.96291 12.4045 8.5679 12.4045C8.9186 12.4045 9.11852 12.5459 9.16087 12.8125C9.17295 12.8723 9.17188 12.9339 9.15775 12.9933C9.14361 13.0527 9.11671 13.1088 9.07871 13.1579C9.04072 13.207 8.99245 13.2482 8.93691 13.2789C8.88138 13.3095 8.81978 13.329 8.75595 13.3361C8.67126 13.3478 8.58572 13.3532 8.50013 13.3521L6.15703 13.3554Z" fill="white"/>
<path d="M6.13838 15.7162C5.33532 15.7162 4.53396 15.7162 3.7309 15.7162C3.39206 15.7162 3.18197 15.5556 3.15995 15.2874C3.14698 15.1762 3.17917 15.0645 3.24998 14.975C3.32079 14.8854 3.4249 14.8249 3.54115 14.8055C3.62455 14.7877 3.70977 14.7785 3.79528 14.7782H8.53908C8.66031 14.7727 8.78131 14.793 8.89317 14.8377C8.98678 14.8795 9.06334 14.9493 9.11109 15.0363C9.15883 15.1233 9.17512 15.2228 9.15746 15.3195C9.14662 15.4183 9.1006 15.5106 9.027 15.5812C8.95339 15.6519 8.85659 15.6967 8.75255 15.7082C8.66765 15.7176 8.58217 15.7213 8.49672 15.7194L6.13838 15.7162Z" fill="white"/>
<path d="M9.18286 5.93493C9.18286 5.49646 8.99819 5.323 8.53059 5.323H3.82237C3.31411 5.323 3.14468 5.48361 3.14468 5.9542V10.4176C3.14468 10.8721 3.32596 11.0423 3.80543 11.0423H8.51534C8.99311 11.0423 9.17947 10.8689 9.17947 10.4192L9.18286 5.93493ZM8.18497 9.9502C8.18497 10.069 8.146 10.098 8.02571 10.098C6.78555 10.098 5.54538 10.098 4.29844 10.098C4.15105 10.098 4.13919 10.0417 4.13919 9.92771C4.13919 9.34309 4.13919 8.75846 4.13919 8.17384C4.13919 7.58922 4.13919 7.01905 4.13919 6.44085C4.13919 6.32039 4.15443 6.26418 4.30861 6.26578C5.5403 6.26578 6.77369 6.26578 8.00708 6.26578C8.13414 6.26578 8.1765 6.28666 8.1765 6.42639C8.17989 7.59885 8.18158 8.77452 8.18497 9.9502Z" fill="white"/>
</g>
<defs>
<clipPath id="clip0_1_893">
<rect width="22.0536" height="18.5714" fill="white" transform="translate(0.135788 0.0534668)"/>
</clipPath>
</defs>
</svg>
