<svg width="26" height="24" viewBox="0 0 26 24" fill="none" xmlns="http://www.w3.org/2000/svg">
<g clip-path="url(#clip0_1_906)">
<path d="M24.9629 2.299C24.5892 1.95559 24.201 1.6291 23.8177 1.29536C22.8737 0.475525 21.7955 0.552914 20.9833 1.50093C19.977 2.67386 18.9635 3.84195 17.9644 5.01971C17.9042 5.09947 17.8255 5.16318 17.7354 5.20532C17.6452 5.24746 17.5462 5.26677 17.4469 5.26155C14.9288 5.26155 12.4155 5.26155 9.89019 5.26155C7.36489 5.26155 4.89709 5.26155 2.40055 5.26155C1.07321 5.26155 0.112445 6.18296 0.105257 7.51067C0.0860895 10.6546 0.0860895 13.7985 0.105257 16.9425C0.091087 17.398 0.223492 17.8459 0.482646 18.2191C0.741801 18.5923 1.11376 18.8707 1.54281 19.0126C1.62173 19.0322 1.69034 19.0813 1.7348 19.15C1.77927 19.2187 1.79628 19.3018 1.7824 19.3826C1.7824 20.662 1.7824 21.9413 1.7824 23.2231C1.7824 23.4891 1.7824 23.7551 2.06752 23.893C2.35263 24.0308 2.5467 23.893 2.77192 23.7285C4.68865 22.2775 6.60139 20.8208 8.51014 19.3584C8.67692 19.2238 8.88614 19.1543 9.09954 19.1626C12.1983 19.1626 15.2978 19.1626 18.3981 19.1626C19.9387 19.1626 20.8491 18.2508 20.8491 16.703C20.8491 14.5555 20.8491 12.4079 20.8491 10.2604C20.8457 10.1647 20.8611 10.0693 20.8944 9.97963C20.9277 9.88997 20.9783 9.80786 21.0432 9.73802C22.4137 8.15155 23.7801 6.56185 25.1426 4.96892C25.3118 4.78527 25.4418 4.56859 25.5248 4.33224C25.6078 4.0959 25.6419 3.84489 25.6251 3.59472C25.6082 3.34455 25.5408 3.10051 25.4269 2.87766C25.313 2.65481 25.1551 2.45787 24.9629 2.299ZM20.3939 3.77423C20.5616 3.57834 20.6503 3.59769 20.8084 3.75488C21.0049 3.95319 21.3714 4.12006 21.3906 4.32321C21.4098 4.52636 21.0815 4.7561 20.8994 4.96892C19.2479 6.89398 17.5947 8.81822 15.9399 10.7417C15.88 10.8118 15.8105 10.8771 15.741 10.9521L15.384 10.6401C14.8833 10.2024 14.8833 10.1999 15.3146 9.69933C17.0085 7.71382 18.7072 5.74523 20.3939 3.77423ZM16.455 12.9303L13.9848 13.813C14.1621 12.9134 14.325 12.0887 14.4952 11.2229L16.455 12.9303ZM19.8093 16.7393C19.8093 17.6559 19.3493 18.1226 18.4436 18.1226C15.2347 18.1226 12.0274 18.1226 8.82162 18.1226C8.55601 18.1143 8.29585 18.1998 8.08607 18.3645C6.44246 19.6245 4.79407 20.8724 3.14568 22.1251L2.81025 22.3669C2.81025 21.1577 2.81025 19.9993 2.81025 18.8506C2.81025 18.2847 2.72399 18.1855 2.16574 18.096C1.86602 18.0596 1.59166 17.9082 1.39945 17.6732C1.20723 17.4382 1.11187 17.1376 1.1331 16.8336C1.1331 15.2617 1.1331 13.6897 1.1331 12.1177V7.66787C1.1331 6.76096 1.59073 6.29663 2.47722 6.29663H16.7785C16.8096 6.43932 16.6898 6.4901 16.6275 6.56507C15.7139 7.64207 14.7914 8.71584 13.8602 9.78639C13.7378 9.92231 13.6549 10.0897 13.6206 10.2701C13.3523 11.6389 13.0744 13.0053 12.8084 14.3814C12.6958 14.9594 13.048 15.2544 13.5991 15.0609L17.4517 13.6897C17.6541 13.6179 17.8336 13.4927 17.9716 13.3269C18.4939 12.7078 19.0258 12.096 19.5553 11.4841C19.6248 11.4067 19.6703 11.3003 19.7949 11.264C19.8668 11.3511 19.8285 11.4503 19.8285 11.5422C19.8237 13.2721 19.8173 15.0045 19.8093 16.7393ZM22.9527 5.92178C21.1542 8.01773 19.3557 10.1137 17.5571 12.2096C17.4254 12.362 17.3463 12.3765 17.2073 12.229C17.0013 12.0137 16.6012 11.8686 16.594 11.6171C16.5868 11.3656 16.9198 11.1697 17.1091 10.9496C18.7495 9.04233 20.3899 7.1342 22.0303 5.22528C22.1885 5.04148 22.2915 4.98344 22.4688 5.19142C22.6189 5.34464 22.779 5.48764 22.948 5.61948C23.0021 5.6582 23.059 5.69296 23.1181 5.72347L22.9527 5.92178ZM24.3615 4.28452C24.1795 4.50943 24.0022 4.84559 23.7745 4.89154C23.5469 4.93748 23.3481 4.5844 23.1372 4.40785C22.5646 3.92417 22.0016 3.41389 21.4265 2.92537C21.2972 2.81412 21.254 2.73915 21.3954 2.60372C21.5368 2.46829 21.7093 2.2458 21.8746 2.06925C22.0273 1.90792 22.2357 1.81214 22.4565 1.80178C22.6774 1.79142 22.8937 1.86729 23.0606 2.01363C23.4679 2.36672 23.88 2.71739 24.2777 3.07773C24.366 3.14848 24.4387 3.23701 24.4913 3.33768C24.5438 3.43836 24.575 3.54897 24.5829 3.66248C24.5908 3.77599 24.5752 3.88992 24.5371 3.99701C24.499 4.10411 24.4392 4.20202 24.3615 4.28452Z" fill="white"/>
<path d="M7.40656 9.72874H10.3703C10.7584 9.72874 10.9837 9.91495 10.9885 10.2318C10.9932 10.5486 10.7489 10.7662 10.3583 10.7662C8.36971 10.7662 6.3819 10.7662 4.39488 10.7662C3.99716 10.7662 3.75517 10.5558 3.75997 10.2342C3.76476 9.91254 3.99955 9.72874 4.40686 9.72632L7.40656 9.72874Z" fill="white"/>
<path d="M7.39219 12.916H10.3248C10.7632 12.916 10.9933 13.1023 10.9885 13.4384C10.9837 13.7746 10.7489 13.9535 10.3392 13.956H4.40927C4.29152 13.9725 4.17157 13.9525 4.06541 13.8985C3.95925 13.8444 3.87192 13.759 3.81507 13.6537C3.76857 13.5674 3.74917 13.469 3.75944 13.3713C3.76971 13.2737 3.80918 13.1815 3.87258 13.1071C3.93676 13.0341 4.0178 12.9783 4.1085 12.9445C4.1992 12.9108 4.29675 12.9002 4.39249 12.9136C5.39399 12.9185 6.39309 12.916 7.39219 12.916Z" fill="white"/>
</g>
<defs>
<clipPath id="clip0_1_906">
<rect width="25.5357" height="23.2143" fill="white" transform="translate(0.0942078 0.732178)"/>
</clipPath>
</defs>
</svg>
